<svg xmlns="http://www.w3.org/2000/svg" viewBox="0 0 159.14 41.38"><defs><style>.cls-1{fill:#fff;}.cls-2{fill:#00dec8;}.cls-3{fill:#00dcc9;}</style></defs><title>contactez nous</title><g id="Layer_2" data-name="Layer 2"><polygon class="cls-1" points="82.46 17.75 81.69 22.48 83.23 22.48 82.46 17.75"/><path class="cls-1" d="M60,24.4a1.06,1.06,0,0,0,.2.38.88.88,0,0,0,.34.23,1.38,1.38,0,0,0,.52.09,1.31,1.31,0,0,0,.52-.09,1,1,0,0,0,.35-.23,1.24,1.24,0,0,0,.2-.38,2.73,2.73,0,0,0,.1-.48c0-.15,0-.34,0-.56V18.14a4.64,4.64,0,0,0,0-.7,1.59,1.59,0,0,0-.17-.52.76.76,0,0,0-.36-.37,1.4,1.4,0,0,0-.62-.12,1.43,1.43,0,0,0-.62.12.76.76,0,0,0-.36.37,1.85,1.85,0,0,0-.16.52,4.64,4.64,0,0,0,0,.7v5.22a4.62,4.62,0,0,0,0,.56A2.73,2.73,0,0,0,60,24.4Z"/><path class="cls-1" d="M129.59,16.92a.76.76,0,0,0-.36-.37,1.66,1.66,0,0,0-1.24,0,.72.72,0,0,0-.36.37,1.57,1.57,0,0,0-.16.52,4.64,4.64,0,0,0,0,.7v5.22a4.62,4.62,0,0,0,0,.56,2.73,2.73,0,0,0,.1.48,1,1,0,0,0,.19.38,1,1,0,0,0,.35.23,1.55,1.55,0,0,0,1,0,1,1,0,0,0,.35-.23,1.24,1.24,0,0,0,.2-.38,2.7,2.7,0,0,0,.09-.48,4.39,4.39,0,0,0,0-.56V18.14a6.47,6.47,0,0,0,0-.7A1.87,1.87,0,0,0,129.59,16.92Z"/><path class="cls-1" d="M35.61,35h117c3,0,5.51-1.79,5.51-4V10.38c0-2.2-2.47-4-5.51-4h-117a20.56,20.56,0,0,1,0,28.6ZM93.2,19.19h-2v-1a4.84,4.84,0,0,0-.09-1.16.87.87,0,0,0-.88-.62H90.1a1.56,1.56,0,0,0-.46.06.79.79,0,0,0-.33.2,1.37,1.37,0,0,0-.2.29,1.2,1.2,0,0,0-.11.4,3.87,3.87,0,0,0,0,.45c0,.14,0,.32,0,.53v4.87a3,3,0,0,0,.25,1.44,1,1,0,0,0,.91.43,1.15,1.15,0,0,0,.39-.05.91.91,0,0,0,.28-.13.57.57,0,0,0,.2-.23,2.14,2.14,0,0,0,.12-.28,1.31,1.31,0,0,0,.06-.35,3.28,3.28,0,0,0,0-.39V22.2h2v.95a6.83,6.83,0,0,1-.09,1.16,3.48,3.48,0,0,1-.31,1,2.24,2.24,0,0,1-.56.75,2.68,2.68,0,0,1-.89.47,4.32,4.32,0,0,1-1.26.17,4.06,4.06,0,0,1-1.31-.19,2.58,2.58,0,0,1-.94-.52,2.43,2.43,0,0,1-.6-.83,3.68,3.68,0,0,1-.33-1.05,8.29,8.29,0,0,1-.09-1.28v-4a8.78,8.78,0,0,1,.09-1.33,4.6,4.6,0,0,1,.33-1.07,2.3,2.3,0,0,1,.6-.82,2.71,2.71,0,0,1,.94-.5,4.28,4.28,0,0,1,1.31-.18,4.2,4.2,0,0,1,1.47.23,2.22,2.22,0,0,1,1,.67,3.06,3.06,0,0,1,.51,1,5.26,5.26,0,0,1,.16,1.39Zm6.54-2.63H97.87v10h-2.1v-10H93.84V15h5.9Zm5.76,10h-4.85V15h4.82v1.48h-2.72v3.3h2.15v1.48h-2.15v3.8h2.75Zm6,0h-5.2V25.14l3.05-8.68h-2.9V15h5v1l-3.2,9h3.2Zm4.56-3.86h-3.42V21.31h3.42Zm7.65,3.86h-1.37l-2.85-6.85v6.85h-1.78V15h1.45L122,21.53V15h1.73ZM142,15.64a3.07,3.07,0,0,1,2.16-.76,3.52,3.52,0,0,1,1.12.16,2.2,2.2,0,0,1,1.33,1.12,3.6,3.6,0,0,1,.31.85,6.53,6.53,0,0,1,.15,1l-1.79.35c0-.23,0-.43,0-.6a3.39,3.39,0,0,0-.1-.52,1.57,1.57,0,0,0-.2-.43.87.87,0,0,0-.33-.26.88.88,0,0,0-.47-.07,1,1,0,0,0-.71.31,1,1,0,0,0-.25.75,1.68,1.68,0,0,0,.22.91,3.26,3.26,0,0,0,.68.77l1.5,1.3a8,8,0,0,1,.65.66,5.28,5.28,0,0,1,.53.73,3.31,3.31,0,0,1,.39.9,4,4,0,0,1,.13,1,2.73,2.73,0,0,1-.79,2,2.83,2.83,0,0,1-2.09.79q-3,0-3.19-3.51l1.82-.39c.05,1.53.48,2.29,1.31,2.29a.87.87,0,0,0,.71-.29,1.28,1.28,0,0,0,.23-.79,2.3,2.3,0,0,0-.17-.88,2.67,2.67,0,0,0-.4-.65,8.58,8.58,0,0,0-.66-.63l-1.51-1.31a4.33,4.33,0,0,1-1-1.21,3.35,3.35,0,0,1-.33-1.57A2.74,2.74,0,0,1,142,15.64ZM135.41,15v7.86c0,.27,0,.5,0,.69a3.25,3.25,0,0,0,.09.59,1.37,1.37,0,0,0,.19.5,1,1,0,0,0,.36.31,1,1,0,0,0,.54.13,1,1,0,0,0,.55-.13.85.85,0,0,0,.34-.31,1.37,1.37,0,0,0,.2-.5,3.25,3.25,0,0,0,.09-.59c0-.19,0-.42,0-.69V15h2v7.64a9.2,9.2,0,0,1-.09,1.38,4.68,4.68,0,0,1-.3,1.1,2.26,2.26,0,0,1-1.51,1.35,4.41,4.41,0,0,1-1.33.18,4.37,4.37,0,0,1-1.33-.18,2.44,2.44,0,0,1-.93-.51,2.36,2.36,0,0,1-.59-.84,4.68,4.68,0,0,1-.3-1.1,9.2,9.2,0,0,1-.09-1.38V15Zm-8.35.12a4.23,4.23,0,0,1,1.55-.25,3.09,3.09,0,0,1,2.54.95,4.33,4.33,0,0,1,.78,2.79v4.25a6.19,6.19,0,0,1-.18,1.58,3.2,3.2,0,0,1-.56,1.19,2.34,2.34,0,0,1-1,.76,4.22,4.22,0,0,1-1.55.26,3.07,3.07,0,0,1-2.55-1,4.45,4.45,0,0,1-.77-2.82V18.62a6.22,6.22,0,0,1,.18-1.59,3,3,0,0,1,.56-1.16A2.25,2.25,0,0,1,127.06,15.13ZM81.35,15h2.19l2.33,11.51h-2l-.46-2.67h-2L81,26.52H79ZM72.8,15h5.9v1.55H76.83v10h-2.1v-10H72.8Zm-6.91,0h1.45l2.81,6.52V15h1.74V26.52H70.52l-2.85-6.85v6.85H65.89Zm-8.16,3.61A6.25,6.25,0,0,1,57.9,17a3,3,0,0,1,.56-1.16,2.3,2.3,0,0,1,1-.74A4.23,4.23,0,0,1,61,14.88a3.13,3.13,0,0,1,2.55.95,4.39,4.39,0,0,1,.77,2.79v4.25a6.19,6.19,0,0,1-.18,1.58,3.05,3.05,0,0,1-.56,1.19,2.34,2.34,0,0,1-1,.76,4.22,4.22,0,0,1-1.55.26,3,3,0,0,1-2.54-1,4.39,4.39,0,0,1-.77-2.82Zm-7.65.16a7.59,7.59,0,0,1,.1-1.33,4.15,4.15,0,0,1,.32-1.07,2.3,2.3,0,0,1,.6-.82,2.71,2.71,0,0,1,.94-.5,4.87,4.87,0,0,1,2.79,0,2.25,2.25,0,0,1,1,.67,2.74,2.74,0,0,1,.51,1,5.26,5.26,0,0,1,.16,1.39v1h-2v-1a4.84,4.84,0,0,0-.09-1.16.87.87,0,0,0-.88-.62h-.11a1.56,1.56,0,0,0-.46.06.7.7,0,0,0-.32.2,1.08,1.08,0,0,0-.2.29,1.19,1.19,0,0,0-.12.4c0,.16,0,.31,0,.45s0,.32,0,.53v4.87a2.94,2.94,0,0,0,.26,1.44.94.94,0,0,0,.9.43,1.15,1.15,0,0,0,.39-.05,1,1,0,0,0,.29-.13.63.63,0,0,0,.19-.23.94.94,0,0,0,.12-.28,1.77,1.77,0,0,0,.07-.35c0-.16,0-.29,0-.39V22.2h2v.95a6.83,6.83,0,0,1-.09,1.16,3.48,3.48,0,0,1-.31,1,2.24,2.24,0,0,1-.56.75,2.59,2.59,0,0,1-.89.47,4.32,4.32,0,0,1-1.26.17A4.06,4.06,0,0,1,52,26.47,2.58,2.58,0,0,1,51.1,26a2.43,2.43,0,0,1-.6-.83,3.68,3.68,0,0,1-.33-1.05,8.29,8.29,0,0,1-.09-1.28Z"/><path class="cls-2" d="M34.54,5.39c.36.32.71.65,1,1H152.63c3,0,5.51,1.79,5.51,4V31c0,2.2-2.47,4-5.51,4h-117c-.33.35-.69.68-1,1H152.63c3.59,0,6.51-2.23,6.51-5V10.38c0-2.76-2.92-5-6.51-5Z"/><path class="cls-3" d="M50.5,25.12a2.43,2.43,0,0,0,.6.83,2.58,2.58,0,0,0,.94.52,4.06,4.06,0,0,0,1.31.19,4.32,4.32,0,0,0,1.26-.17A2.59,2.59,0,0,0,55.5,26a2.24,2.24,0,0,0,.56-.75,3.48,3.48,0,0,0,.31-1,6.83,6.83,0,0,0,.09-1.16V22.2h-2v1.47c0,.1,0,.23,0,.39a1.77,1.77,0,0,1-.07.35.94.94,0,0,1-.12.28.63.63,0,0,1-.19.23,1,1,0,0,1-.29.13,1.15,1.15,0,0,1-.39.05.94.94,0,0,1-.9-.43,2.94,2.94,0,0,1-.26-1.44V18.36c0-.21,0-.39,0-.53s0-.29,0-.45a1.19,1.19,0,0,1,.12-.4,1.08,1.08,0,0,1,.2-.29.7.7,0,0,1,.32-.2,1.56,1.56,0,0,1,.46-.06h.11a.87.87,0,0,1,.88.62,4.84,4.84,0,0,1,.09,1.16v1h2v-1a5.26,5.26,0,0,0-.16-1.39,2.74,2.74,0,0,0-.51-1,2.25,2.25,0,0,0-1-.67,4.87,4.87,0,0,0-2.79,0,2.71,2.71,0,0,0-.94.5,2.3,2.3,0,0,0-.6.82,4.15,4.15,0,0,0-.32,1.07,7.59,7.59,0,0,0-.1,1.33v4a8.29,8.29,0,0,0,.09,1.28A3.68,3.68,0,0,0,50.5,25.12Z"/><path class="cls-3" d="M61,26.66a4.22,4.22,0,0,0,1.55-.26,2.34,2.34,0,0,0,1-.76,3.05,3.05,0,0,0,.56-1.19,6.19,6.19,0,0,0,.18-1.58V18.62a4.39,4.39,0,0,0-.77-2.79A3.13,3.13,0,0,0,61,14.88a4.23,4.23,0,0,0-1.55.25,2.3,2.3,0,0,0-1,.74A3,3,0,0,0,57.9,17a6.25,6.25,0,0,0-.17,1.59v4.25a4.39,4.39,0,0,0,.77,2.82A3,3,0,0,0,61,26.66Zm-1.18-8.52a4.64,4.64,0,0,1,0-.7,1.85,1.85,0,0,1,.16-.52.76.76,0,0,1,.36-.37,1.43,1.43,0,0,1,.62-.12,1.4,1.4,0,0,1,.62.12.76.76,0,0,1,.36.37,1.59,1.59,0,0,1,.17.52,4.64,4.64,0,0,1,0,.7v5.22c0,.22,0,.41,0,.56a2.73,2.73,0,0,1-.1.48,1.24,1.24,0,0,1-.2.38,1,1,0,0,1-.35.23,1.31,1.31,0,0,1-.52.09,1.38,1.38,0,0,1-.52-.09.88.88,0,0,1-.34-.23,1.06,1.06,0,0,1-.2-.38,2.73,2.73,0,0,1-.1-.48,4.62,4.62,0,0,1,0-.56Z"/><polygon class="cls-3" points="67.67 19.67 70.52 26.52 71.89 26.52 71.89 15.01 70.16 15.01 70.16 21.53 67.34 15.01 65.89 15.01 65.89 26.52 67.67 26.52 67.67 19.67"/><polygon class="cls-3" points="74.73 26.52 76.83 26.52 76.83 16.56 78.7 16.56 78.7 15.01 72.81 15.01 72.81 16.56 74.73 16.56 74.73 26.52"/><path class="cls-3" d="M81.47,23.85h2l.46,2.67h2L83.54,15H81.35L79,26.52h2Zm1-6.1.77,4.73H81.69Z"/><path class="cls-3" d="M92.53,15.78a2.22,2.22,0,0,0-1-.67,4.2,4.2,0,0,0-1.47-.23,4.28,4.28,0,0,0-1.31.18,2.71,2.71,0,0,0-.94.5,2.3,2.3,0,0,0-.6.82,4.6,4.6,0,0,0-.33,1.07,8.78,8.78,0,0,0-.09,1.33v4a8.29,8.29,0,0,0,.09,1.28,3.68,3.68,0,0,0,.33,1.05,2.43,2.43,0,0,0,.6.83,2.58,2.58,0,0,0,.94.52,4.06,4.06,0,0,0,1.31.19,4.32,4.32,0,0,0,1.26-.17,2.68,2.68,0,0,0,.89-.47,2.24,2.24,0,0,0,.56-.75,3.48,3.48,0,0,0,.31-1,6.83,6.83,0,0,0,.09-1.16V22.2h-2v1.47a3.28,3.28,0,0,1,0,.39,1.31,1.31,0,0,1-.06.35,2.14,2.14,0,0,1-.12.28.57.57,0,0,1-.2.23.91.91,0,0,1-.28.13,1.15,1.15,0,0,1-.39.05,1,1,0,0,1-.91-.43,3,3,0,0,1-.25-1.44V18.36c0-.21,0-.39,0-.53a3.87,3.87,0,0,1,0-.45,1.2,1.2,0,0,1,.11-.4,1.37,1.37,0,0,1,.2-.29.79.79,0,0,1,.33-.2,1.56,1.56,0,0,1,.46-.06h.11a.87.87,0,0,1,.88.62,4.84,4.84,0,0,1,.09,1.16v1h2v-1A5.26,5.26,0,0,0,93,16.82,3.06,3.06,0,0,0,92.53,15.78Z"/><polygon class="cls-3" points="93.84 16.56 95.77 16.56 95.77 26.52 97.87 26.52 97.87 16.56 99.74 16.56 99.74 15.01 93.84 15.01 93.84 16.56"/><polygon class="cls-3" points="102.75 21.27 104.9 21.27 104.9 19.8 102.75 19.8 102.75 16.49 105.47 16.49 105.47 15.01 100.65 15.01 100.65 26.52 105.5 26.52 105.5 25.07 102.75 25.07 102.75 21.27"/><polygon class="cls-3" points="111.55 16.05 111.55 15.01 106.5 15.01 106.5 16.46 109.4 16.46 106.35 25.14 106.35 26.52 111.55 26.52 111.55 25.07 108.35 25.07 111.55 16.05"/><rect class="cls-3" x="112.69" y="21.31" width="3.43" height="1.35"/><polygon class="cls-3" points="122.03 21.53 119.21 15.01 117.77 15.01 117.77 26.52 119.54 26.52 119.54 19.67 122.39 26.52 123.76 26.52 123.76 15.01 122.03 15.01 122.03 21.53"/><path class="cls-3" d="M125.47,17a6.22,6.22,0,0,0-.18,1.59v4.25a4.45,4.45,0,0,0,.77,2.82,3.07,3.07,0,0,0,2.55,1,4.22,4.22,0,0,0,1.55-.26,2.34,2.34,0,0,0,1-.76,3.2,3.2,0,0,0,.56-1.19,6.19,6.19,0,0,0,.18-1.58V18.62a4.33,4.33,0,0,0-.78-2.79,3.09,3.09,0,0,0-2.54-.95,4.23,4.23,0,0,0-1.55.25,2.25,2.25,0,0,0-1,.74A3,3,0,0,0,125.47,17Zm4.33,6.33a4.39,4.39,0,0,1,0,.56,2.7,2.7,0,0,1-.09.48,1.24,1.24,0,0,1-.2.38,1,1,0,0,1-.35.23,1.55,1.55,0,0,1-1,0,1,1,0,0,1-.35-.23,1,1,0,0,1-.19-.38,2.73,2.73,0,0,1-.1-.48,4.62,4.62,0,0,1,0-.56V18.14a4.64,4.64,0,0,1,0-.7,1.57,1.57,0,0,1,.16-.52.72.72,0,0,1,.36-.37,1.66,1.66,0,0,1,1.24,0,.76.76,0,0,1,.36.37,1.87,1.87,0,0,1,.17.52,6.47,6.47,0,0,1,0,.7Z"/><path class="cls-3" d="M133.37,22.65a9.2,9.2,0,0,0,.09,1.38,4.68,4.68,0,0,0,.3,1.1,2.36,2.36,0,0,0,.59.84,2.44,2.44,0,0,0,.93.51,4.37,4.37,0,0,0,1.33.18,4.41,4.41,0,0,0,1.33-.18,2.26,2.26,0,0,0,1.51-1.35,4.68,4.68,0,0,0,.3-1.1,9.2,9.2,0,0,0,.09-1.38V15h-2v7.86c0,.27,0,.5,0,.69a3.25,3.25,0,0,1-.09.59,1.37,1.37,0,0,1-.2.5.85.85,0,0,1-.34.31,1,1,0,0,1-.55.13,1,1,0,0,1-.54-.13,1,1,0,0,1-.36-.31,1.37,1.37,0,0,1-.19-.5,3.25,3.25,0,0,1-.09-.59c0-.19,0-.42,0-.69V15h-2Z"/><path class="cls-3" d="M141.52,19.29a4.33,4.33,0,0,0,1,1.21L144,21.81a8.58,8.58,0,0,1,.66.63,2.67,2.67,0,0,1,.4.65,2.3,2.3,0,0,1,.17.88,1.28,1.28,0,0,1-.23.79.87.87,0,0,1-.71.29c-.83,0-1.26-.76-1.31-2.29l-1.82.39q.15,3.51,3.19,3.51a2.83,2.83,0,0,0,2.09-.79,2.73,2.73,0,0,0,.79-2,4,4,0,0,0-.13-1,3.31,3.31,0,0,0-.39-.9,5.28,5.28,0,0,0-.53-.73,8,8,0,0,0-.65-.66l-1.5-1.3a3.26,3.26,0,0,1-.68-.77,1.68,1.68,0,0,1-.22-.91,1,1,0,0,1,.25-.75,1,1,0,0,1,.71-.31.88.88,0,0,1,.47.07.87.87,0,0,1,.33.26,1.57,1.57,0,0,1,.2.43,3.39,3.39,0,0,1,.1.52c0,.17,0,.37,0,.6l1.79-.35a6.53,6.53,0,0,0-.15-1,3.6,3.6,0,0,0-.31-.85A2.2,2.2,0,0,0,145.26,15a3.52,3.52,0,0,0-1.12-.16,3.07,3.07,0,0,0-2.16.76,2.74,2.74,0,0,0-.79,2.08A3.35,3.35,0,0,0,141.52,19.29Z"/><path class="cls-1" d="M40.38,20.5A19.69,19.69,0,0,0,20.69,1H20.5a19.69,19.69,0,0,0,.19,39.38h.19A19.69,19.69,0,0,0,40.38,20.5Zm-17.7-6.21a1,1,0,0,1,.43-1.95A9,9,0,0,1,29.9,23a1,1,0,0,1-1,.78.76.76,0,0,1-.21,0A1,1,0,0,1,28,22.57,7,7,0,0,0,22.68,14.29Zm.75,5.14a3,3,0,0,0-1.9-1.32,1,1,0,0,1-.76-1.2,1,1,0,0,1,1.2-.76,5,5,0,0,1,3.81,6,1,1,0,0,1-1,.78.78.78,0,0,1-.22,0,1,1,0,0,1-.76-1.19A3,3,0,0,0,23.43,19.43ZM34,24a1,1,0,0,1-1,.79l-.22,0A1,1,0,0,1,32,23.53,11.4,11.4,0,0,0,23.35,9.92a1,1,0,0,1-.76-1.19A1,1,0,0,1,23.79,8,13.41,13.41,0,0,1,34,24ZM8.19,18.09a8.06,8.06,0,0,1,.13-3.56,3.08,3.08,0,0,1,1.29-1.71l2.08-1.35a1.68,1.68,0,0,1,2.45.53c.38.54.72,1.11,1.1,1.69l1.07,1.66a1.65,1.65,0,0,1-.53,2.5c-.7.45-1.36.91-2.08,1.32a.36.36,0,0,0-.19.42,10.74,10.74,0,0,0,1,2.8A18.14,18.14,0,0,0,18,27.21c.3.3.68.55,1,.84a.37.37,0,0,0,.5,0l2.08-1.34a1.62,1.62,0,0,1,2.44.52l2.17,3.35a1.69,1.69,0,0,1-.53,2.5c-.62.43-1.3.79-1.9,1.26a3.21,3.21,0,0,1-2.88.45,11.86,11.86,0,0,1-3.89-2.13,23.32,23.32,0,0,1-6.35-7.59A21.88,21.88,0,0,1,8.19,18.09Z"/><path class="cls-2" d="M35.61,35a20.56,20.56,0,0,0,0-28.6c-.33-.35-.68-.68-1-1A20.55,20.55,0,0,0,20.69,0h-.2a20.69,20.69,0,0,0,.2,41.38h.2A20.55,20.55,0,0,0,34.57,36C34.92,35.67,35.28,35.34,35.61,35ZM1,20.88A19.69,19.69,0,0,1,20.5,1h.19a19.69,19.69,0,0,1,.19,39.38h-.19A19.69,19.69,0,0,1,1,20.88Z"/><path class="cls-3" d="M16.93,32.66a11.86,11.86,0,0,0,3.89,2.13,3.21,3.21,0,0,0,2.88-.45c.6-.47,1.28-.83,1.9-1.26a1.69,1.69,0,0,0,.53-2.5L24,27.23a1.62,1.62,0,0,0-2.44-.52l-2.08,1.34a.37.37,0,0,1-.5,0c-.3-.29-.68-.54-1-.84a18.14,18.14,0,0,1-3.45-4.82,10.74,10.74,0,0,1-1-2.8.36.36,0,0,1,.19-.42c.72-.41,1.38-.87,2.08-1.32a1.65,1.65,0,0,0,.53-2.5l-1.07-1.66c-.38-.58-.72-1.15-1.1-1.69a1.68,1.68,0,0,0-2.45-.53L9.61,12.82a3.08,3.08,0,0,0-1.29,1.71,8.06,8.06,0,0,0-.13,3.56,21.88,21.88,0,0,0,2.39,7A23.32,23.32,0,0,0,16.93,32.66Z"/><path class="cls-3" d="M28.71,23.76a.76.76,0,0,0,.21,0,1,1,0,0,0,1-.78,9,9,0,0,0-6.79-10.67,1,1,0,0,0-.43,1.95A7,7,0,0,1,28,22.57,1,1,0,0,0,28.71,23.76Z"/><path class="cls-3" d="M24.59,22.9a.78.78,0,0,0,.22,0,1,1,0,0,0,1-.78,5,5,0,0,0-3.81-6,1,1,0,0,0-1.2.76,1,1,0,0,0,.76,1.2,3,3,0,0,1,2.3,3.6A1,1,0,0,0,24.59,22.9Z"/><path class="cls-3" d="M23.79,8a1,1,0,0,0-1.2.76,1,1,0,0,0,.76,1.19A11.4,11.4,0,0,1,32,23.53a1,1,0,0,0,.76,1.19l.22,0A1,1,0,0,0,34,24,13.41,13.41,0,0,0,23.79,8Z"/></g></svg>