<svg xmlns="http://www.w3.org/2000/svg" viewBox="0 0 158.64 40.38"><defs><style>.cls-1{fill:#00dec8;}.cls-2{fill:#fff;}.cls-3{fill:#00dcc6;}</style></defs><title>contactez nous</title><g id="Layer_2" data-name="Layer 2"><polygon class="cls-1" points="81.19 21.98 82.73 21.98 81.96 17.25 81.19 21.98"/><path class="cls-1" d="M33.32,4.89A20.14,20.14,0,0,1,34.6,34.33c-.4.41-.83.79-1.26,1.16H152.13c3.59,0,6.51-2.23,6.51-5V9.88c0-2.76-2.92-5-6.51-5ZM56,18.69h-2v-1a4.84,4.84,0,0,0-.09-1.16.88.88,0,0,0-.88-.62h-.11a1.56,1.56,0,0,0-.46.06.7.7,0,0,0-.32.2,1.42,1.42,0,0,0-.21.29,1.5,1.5,0,0,0-.11.4c0,.16,0,.31,0,.45s0,.32,0,.53v4.87A2.94,2.94,0,0,0,52,24.17a.94.94,0,0,0,.9.43,1.15,1.15,0,0,0,.39-.05,1,1,0,0,0,.29-.13.63.63,0,0,0,.19-.23.94.94,0,0,0,.12-.28,1.31,1.31,0,0,0,.06-.35,3.28,3.28,0,0,0,0-.39V21.7h2v.95a6.83,6.83,0,0,1-.09,1.16,3.48,3.48,0,0,1-.31,1,2.24,2.24,0,0,1-.56.75,2.59,2.59,0,0,1-.89.47,4.32,4.32,0,0,1-1.26.17A4.06,4.06,0,0,1,51.54,26a2.58,2.58,0,0,1-.94-.52,2.43,2.43,0,0,1-.6-.83,3.68,3.68,0,0,1-.33-1.05,8.29,8.29,0,0,1-.09-1.28v-4a7.59,7.59,0,0,1,.1-1.33A4.15,4.15,0,0,1,50,15.88a2.3,2.3,0,0,1,.6-.82,2.71,2.71,0,0,1,.94-.5,4.87,4.87,0,0,1,2.79,0,2.25,2.25,0,0,1,1,.67,2.74,2.74,0,0,1,.51,1A5.26,5.26,0,0,1,56,17.71Zm7.9,3.68A6.19,6.19,0,0,1,63.68,24a3.05,3.05,0,0,1-.56,1.19,2.34,2.34,0,0,1-1,.76,4.22,4.22,0,0,1-1.55.26,3,3,0,0,1-2.54-1,4.39,4.39,0,0,1-.77-2.82V18.12a6.25,6.25,0,0,1,.17-1.59A3,3,0,0,1,58,15.37a2.25,2.25,0,0,1,1-.74,4.23,4.23,0,0,1,1.55-.25,3.13,3.13,0,0,1,2.55.95,4.39,4.39,0,0,1,.77,2.79ZM71.39,26H70l-2.85-6.85V26H65.39V14.51h1.45L69.65,21V14.51h1.74Zm6.81-10H76.33V26h-2.1v-10H72.3V14.51h5.9Zm5.22,10L83,23.35H81L80.49,26h-2l2.33-11.51H83L85.37,26Zm9.28-7.33h-2v-1a4.84,4.84,0,0,0-.09-1.16.88.88,0,0,0-.88-.62H89.6a1.56,1.56,0,0,0-.46.06.73.73,0,0,0-.33.2,1.37,1.37,0,0,0-.2.29,1.2,1.2,0,0,0-.11.4,3.87,3.87,0,0,0,0,.45c0,.14,0,.32,0,.53v4.87a3,3,0,0,0,.25,1.44,1,1,0,0,0,.91.43,1.15,1.15,0,0,0,.39-.05.91.91,0,0,0,.28-.13.57.57,0,0,0,.2-.23,2.14,2.14,0,0,0,.12-.28,1.31,1.31,0,0,0,.06-.35c0-.16,0-.29,0-.39V21.7h2v.95a6.83,6.83,0,0,1-.09,1.16,3.48,3.48,0,0,1-.31,1,2.24,2.24,0,0,1-.56.75,2.68,2.68,0,0,1-.89.47,4.32,4.32,0,0,1-1.26.17A4.06,4.06,0,0,1,88.28,26a2.58,2.58,0,0,1-.94-.52,2.43,2.43,0,0,1-.6-.83,3.68,3.68,0,0,1-.33-1.05,8.29,8.29,0,0,1-.09-1.28v-4A8.78,8.78,0,0,1,86.41,17a4.6,4.6,0,0,1,.33-1.07,2.3,2.3,0,0,1,.6-.82,2.71,2.71,0,0,1,.94-.5,4.83,4.83,0,0,1,2.78,0,2.22,2.22,0,0,1,1,.67,3.06,3.06,0,0,1,.51,1,5.26,5.26,0,0,1,.16,1.39Zm6.54-2.63H97.37V26h-2.1v-10H93.34V14.51h5.9ZM105,26h-4.85V14.51H105V16h-2.72v3.3h2.15v1.48h-2.15v3.8H105Zm6,0h-5.2V24.65L108.9,16H106V14.51h5v1l-3.2,9h3.2Zm4.56-3.86h-3.42V20.81h3.42ZM123.26,26h-1.37L119,19.17V26h-1.78V14.51h1.45L121.53,21V14.51h1.73Zm18.22-10.88a3.05,3.05,0,0,1,2.16-.76,3.52,3.52,0,0,1,1.12.16,2.2,2.2,0,0,1,1.33,1.12,3.6,3.6,0,0,1,.31.85,6.53,6.53,0,0,1,.15,1l-1.79.35c0-.23,0-.43,0-.6a3.39,3.39,0,0,0-.1-.52,1.57,1.57,0,0,0-.2-.43,1,1,0,0,0-.33-.26.88.88,0,0,0-.47-.07,1,1,0,0,0-.71.31,1,1,0,0,0-.25.75,1.68,1.68,0,0,0,.22.91,3.26,3.26,0,0,0,.68.77l1.5,1.3a8,8,0,0,1,.65.66,5.28,5.28,0,0,1,.53.73,3.31,3.31,0,0,1,.39.9,4,4,0,0,1,.13,1,2.73,2.73,0,0,1-.79,2,2.83,2.83,0,0,1-2.09.79q-3,0-3.19-3.51l1.82-.39c.05,1.53.48,2.29,1.31,2.29a.87.87,0,0,0,.71-.29,1.28,1.28,0,0,0,.23-.79,2.3,2.3,0,0,0-.17-.88,2.67,2.67,0,0,0-.4-.65,8.58,8.58,0,0,0-.66-.63L142,20a4.33,4.33,0,0,1-1-1.21,3.35,3.35,0,0,1-.33-1.57A2.74,2.74,0,0,1,141.48,15.14Zm-6.57-.63v7.86c0,.27,0,.5,0,.69a3.25,3.25,0,0,0,.09.59,1.37,1.37,0,0,0,.19.5,1,1,0,0,0,.36.31,1,1,0,0,0,.54.13,1,1,0,0,0,.55-.13.85.85,0,0,0,.34-.31,1.57,1.57,0,0,0,.2-.5,3.25,3.25,0,0,0,.09-.59c0-.19,0-.42,0-.69V14.51h2v7.64a9.2,9.2,0,0,1-.09,1.38,4.68,4.68,0,0,1-.3,1.1A2.26,2.26,0,0,1,137.44,26a4.41,4.41,0,0,1-1.33.18,4.37,4.37,0,0,1-1.33-.18,2.44,2.44,0,0,1-.93-.51,2.36,2.36,0,0,1-.59-.84,4.68,4.68,0,0,1-.3-1.1,9.2,9.2,0,0,1-.09-1.38V14.51Zm-6.8-.13a3.09,3.09,0,0,1,2.54.95,4.33,4.33,0,0,1,.78,2.79v4.25a6.19,6.19,0,0,1-.18,1.58,3.2,3.2,0,0,1-.56,1.19,2.34,2.34,0,0,1-1,.76,4.22,4.22,0,0,1-1.55.26,3.07,3.07,0,0,1-2.55-1,4.45,4.45,0,0,1-.77-2.82V18.12a6.22,6.22,0,0,1,.18-1.59,3,3,0,0,1,.56-1.16,2.25,2.25,0,0,1,1-.74A4.2,4.2,0,0,1,128.11,14.38Z"/><path class="cls-1" d="M129.09,16.42a.76.76,0,0,0-.36-.37,1.66,1.66,0,0,0-1.24,0,.72.72,0,0,0-.36.37,1.57,1.57,0,0,0-.16.52,4.49,4.49,0,0,0,0,.7v5.22a4.39,4.39,0,0,0,0,.56,2.05,2.05,0,0,0,.1.48,1,1,0,0,0,.19.38,1,1,0,0,0,.35.23,1.55,1.55,0,0,0,1,0,1,1,0,0,0,.35-.23,1.24,1.24,0,0,0,.2-.38,2.7,2.7,0,0,0,.09-.48,4.39,4.39,0,0,0,0-.56V17.64a6.47,6.47,0,0,0,0-.7A1.87,1.87,0,0,0,129.09,16.42Z"/><path class="cls-1" d="M61.52,16.42a.76.76,0,0,0-.36-.37,1.4,1.4,0,0,0-.62-.12,1.43,1.43,0,0,0-.62.12.76.76,0,0,0-.36.37,1.85,1.85,0,0,0-.16.52,4.64,4.64,0,0,0,0,.7v5.22a4.62,4.62,0,0,0,0,.56,2.73,2.73,0,0,0,.1.48,1.06,1.06,0,0,0,.2.38.88.88,0,0,0,.34.23,1.35,1.35,0,0,0,.52.09,1.31,1.31,0,0,0,.52-.09,1,1,0,0,0,.35-.23,1.24,1.24,0,0,0,.2-.38,2.73,2.73,0,0,0,.1-.48c0-.15,0-.34,0-.56V17.64a4.64,4.64,0,0,0,0-.7A1.59,1.59,0,0,0,61.52,16.42Z"/><path class="cls-2" d="M55.29,15.28a2.25,2.25,0,0,0-1-.67,4.87,4.87,0,0,0-2.79,0,2.71,2.71,0,0,0-.94.5,2.3,2.3,0,0,0-.6.82A4.15,4.15,0,0,0,49.68,17a7.59,7.59,0,0,0-.1,1.33v4a8.29,8.29,0,0,0,.09,1.28A3.68,3.68,0,0,0,50,24.62a2.43,2.43,0,0,0,.6.83,2.58,2.58,0,0,0,.94.52,4.06,4.06,0,0,0,1.31.19A4.32,4.32,0,0,0,54.11,26a2.59,2.59,0,0,0,.89-.47,2.24,2.24,0,0,0,.56-.75,3.48,3.48,0,0,0,.31-1A6.83,6.83,0,0,0,56,22.65V21.7h-2v1.47a3.28,3.28,0,0,1,0,.39,1.31,1.31,0,0,1-.06.35.94.94,0,0,1-.12.28.63.63,0,0,1-.19.23,1,1,0,0,1-.29.13,1.15,1.15,0,0,1-.39.05.94.94,0,0,1-.9-.43,2.94,2.94,0,0,1-.26-1.44V17.86c0-.21,0-.39,0-.53s0-.29,0-.45a1.5,1.5,0,0,1,.11-.4,1.42,1.42,0,0,1,.21-.29.7.7,0,0,1,.32-.2,1.56,1.56,0,0,1,.46-.06H53a.88.88,0,0,1,.88.62,4.84,4.84,0,0,1,.09,1.16v1h2v-1a5.26,5.26,0,0,0-.16-1.39A2.74,2.74,0,0,0,55.29,15.28Z"/><path class="cls-2" d="M60.54,14.38a4.23,4.23,0,0,0-1.55.25,2.25,2.25,0,0,0-1,.74,3,3,0,0,0-.56,1.16,6.25,6.25,0,0,0-.17,1.59v4.25A4.39,4.39,0,0,0,58,25.19a3,3,0,0,0,2.54,1,4.22,4.22,0,0,0,1.55-.26,2.34,2.34,0,0,0,1-.76A3.05,3.05,0,0,0,63.68,24a6.19,6.19,0,0,0,.18-1.58V18.12a4.39,4.39,0,0,0-.77-2.79A3.13,3.13,0,0,0,60.54,14.38Zm1.19,8.48c0,.22,0,.41,0,.56a2.73,2.73,0,0,1-.1.48,1.24,1.24,0,0,1-.2.38,1,1,0,0,1-.35.23,1.31,1.31,0,0,1-.52.09,1.35,1.35,0,0,1-.52-.09.88.88,0,0,1-.34-.23,1.06,1.06,0,0,1-.2-.38,2.73,2.73,0,0,1-.1-.48,4.62,4.62,0,0,1,0-.56V17.64a4.64,4.64,0,0,1,0-.7,1.85,1.85,0,0,1,.16-.52.76.76,0,0,1,.36-.37,1.43,1.43,0,0,1,.62-.12,1.4,1.4,0,0,1,.62.12.76.76,0,0,1,.36.37,1.59,1.59,0,0,1,.17.52,4.64,4.64,0,0,1,0,.7Z"/><polygon class="cls-2" points="69.65 21.03 66.84 14.51 65.39 14.51 65.39 26.02 67.17 26.02 67.17 19.17 70.02 26.02 71.39 26.02 71.39 14.51 69.65 14.51 69.65 21.03"/><polygon class="cls-2" points="72.31 16.06 74.23 16.06 74.23 26.02 76.33 26.02 76.33 16.06 78.2 16.06 78.2 14.51 72.31 14.51 72.31 16.06"/><path class="cls-2" d="M80.85,14.51,78.52,26h2L81,23.35h2L83.42,26h2L83,14.51ZM81.19,22,82,17.25,82.73,22Z"/><path class="cls-2" d="M92,15.28a2.22,2.22,0,0,0-1-.67,4.83,4.83,0,0,0-2.78,0,2.71,2.71,0,0,0-.94.5,2.3,2.3,0,0,0-.6.82A4.6,4.6,0,0,0,86.41,17a8.78,8.78,0,0,0-.09,1.33v4a8.29,8.29,0,0,0,.09,1.28,3.68,3.68,0,0,0,.33,1.05,2.43,2.43,0,0,0,.6.83,2.58,2.58,0,0,0,.94.52,4.06,4.06,0,0,0,1.31.19A4.32,4.32,0,0,0,90.85,26a2.68,2.68,0,0,0,.89-.47,2.24,2.24,0,0,0,.56-.75,3.48,3.48,0,0,0,.31-1,6.83,6.83,0,0,0,.09-1.16V21.7h-2v1.47c0,.1,0,.23,0,.39a1.31,1.31,0,0,1-.06.35,2.14,2.14,0,0,1-.12.28.57.57,0,0,1-.2.23.91.91,0,0,1-.28.13,1.15,1.15,0,0,1-.39.05,1,1,0,0,1-.91-.43,3,3,0,0,1-.25-1.44V17.86c0-.21,0-.39,0-.53a3.87,3.87,0,0,1,0-.45,1.2,1.2,0,0,1,.11-.4,1.37,1.37,0,0,1,.2-.29.73.73,0,0,1,.33-.2,1.56,1.56,0,0,1,.46-.06h.11a.88.88,0,0,1,.88.62,4.84,4.84,0,0,1,.09,1.16v1h2v-1a5.26,5.26,0,0,0-.16-1.39A3.06,3.06,0,0,0,92,15.28Z"/><polygon class="cls-2" points="93.34 16.06 95.27 16.06 95.27 26.02 97.37 26.02 97.37 16.06 99.24 16.06 99.24 14.51 93.34 14.51 93.34 16.06"/><polygon class="cls-2" points="102.25 20.77 104.4 20.77 104.4 19.3 102.25 19.3 102.25 15.99 104.97 15.99 104.97 14.51 100.15 14.51 100.15 26.02 105 26.02 105 24.57 102.25 24.57 102.25 20.77"/><polygon class="cls-2" points="111.05 15.55 111.05 14.51 106 14.51 106 15.96 108.9 15.96 105.85 24.64 105.85 26.02 111.05 26.02 111.05 24.57 107.85 24.57 111.05 15.55"/><rect class="cls-2" x="112.19" y="20.81" width="3.43" height="1.35"/><polygon class="cls-2" points="121.53 21.03 118.71 14.51 117.27 14.51 117.27 26.02 119.04 26.02 119.04 19.17 121.89 26.02 123.26 26.02 123.26 14.51 121.53 14.51 121.53 21.03"/><path class="cls-2" d="M125.53,15.37a3,3,0,0,0-.56,1.16,6.22,6.22,0,0,0-.18,1.59v4.25a4.45,4.45,0,0,0,.77,2.82,3.07,3.07,0,0,0,2.55,1,4.22,4.22,0,0,0,1.55-.26,2.34,2.34,0,0,0,1-.76,3.2,3.2,0,0,0,.56-1.19,6.19,6.19,0,0,0,.18-1.58V18.12a4.33,4.33,0,0,0-.78-2.79,3.09,3.09,0,0,0-2.54-.95,4.2,4.2,0,0,0-1.55.25A2.25,2.25,0,0,0,125.53,15.37Zm3.77,7.49a4.39,4.39,0,0,1,0,.56,2.7,2.7,0,0,1-.09.48,1.24,1.24,0,0,1-.2.38,1,1,0,0,1-.35.23,1.55,1.55,0,0,1-1,0,1,1,0,0,1-.35-.23,1,1,0,0,1-.19-.38,2.05,2.05,0,0,1-.1-.48,4.39,4.39,0,0,1,0-.56V17.64a4.49,4.49,0,0,1,0-.7,1.57,1.57,0,0,1,.16-.52.72.72,0,0,1,.36-.37,1.66,1.66,0,0,1,1.24,0,.76.76,0,0,1,.36.37,1.87,1.87,0,0,1,.17.52,6.47,6.47,0,0,1,0,.7Z"/><path class="cls-2" d="M132.87,22.15a9.2,9.2,0,0,0,.09,1.38,4.68,4.68,0,0,0,.3,1.1,2.36,2.36,0,0,0,.59.84,2.44,2.44,0,0,0,.93.51,4.37,4.37,0,0,0,1.33.18,4.41,4.41,0,0,0,1.33-.18A2.26,2.26,0,0,0,139,24.63a4.68,4.68,0,0,0,.3-1.1,9.2,9.2,0,0,0,.09-1.38V14.51h-2v7.86c0,.27,0,.5,0,.69a3.25,3.25,0,0,1-.09.59,1.57,1.57,0,0,1-.2.5.85.85,0,0,1-.34.31,1,1,0,0,1-.55.13,1,1,0,0,1-.54-.13,1,1,0,0,1-.36-.31,1.37,1.37,0,0,1-.19-.5,3.25,3.25,0,0,1-.09-.59c0-.19,0-.42,0-.69V14.51h-2Z"/><path class="cls-2" d="M141,18.79A4.33,4.33,0,0,0,142,20l1.51,1.31a8.58,8.58,0,0,1,.66.63,2.67,2.67,0,0,1,.4.65,2.3,2.3,0,0,1,.17.88,1.28,1.28,0,0,1-.23.79.87.87,0,0,1-.71.29c-.83,0-1.26-.76-1.31-2.29l-1.82.39q.15,3.51,3.19,3.51a2.83,2.83,0,0,0,2.09-.79,2.73,2.73,0,0,0,.79-2,4,4,0,0,0-.13-1,3.31,3.31,0,0,0-.39-.9,5.28,5.28,0,0,0-.53-.73,8,8,0,0,0-.65-.66l-1.5-1.3a3.26,3.26,0,0,1-.68-.77,1.68,1.68,0,0,1-.22-.91,1,1,0,0,1,.25-.75,1,1,0,0,1,.71-.31.88.88,0,0,1,.47.07,1,1,0,0,1,.33.26,1.57,1.57,0,0,1,.2.43,3.39,3.39,0,0,1,.1.52c0,.17,0,.37,0,.6l1.79-.35a6.53,6.53,0,0,0-.15-1,3.6,3.6,0,0,0-.31-.85,2.2,2.2,0,0,0-1.33-1.12,3.52,3.52,0,0,0-1.12-.16,3.05,3.05,0,0,0-2.16.76,2.74,2.74,0,0,0-.79,2.08A3.35,3.35,0,0,0,141,18.79Z"/><path class="cls-3" d="M39.38,20A19.19,19.19,0,0,0,20.19,1H20A19.19,19.19,0,1,0,39.38,20ZM22.17,13.79a1,1,0,1,1,.44-1.95A9,9,0,0,1,29.4,22.51a1,1,0,0,1-1,.78l-.21,0a1,1,0,0,1-.76-1.2A7,7,0,0,0,22.17,13.79ZM21,17.61a1,1,0,0,1,.43-2,5,5,0,0,1,3.81,6,1,1,0,0,1-1,.78.78.78,0,0,1-.22,0,1,1,0,0,1-.76-1.19A3,3,0,0,0,21,17.61Zm12.43,5.85a1,1,0,0,1-1,.79l-.22,0A1,1,0,0,1,31.51,23,11.42,11.42,0,0,0,22.85,9.42a1,1,0,0,1-.76-1.19,1,1,0,0,1,1.2-.76A13.43,13.43,0,0,1,33.47,23.46ZM7.69,17.59A8.06,8.06,0,0,1,7.82,14a3.08,3.08,0,0,1,1.29-1.71L11.19,11a1.69,1.69,0,0,1,2.45.53c.38.54.72,1.11,1.09,1.69l1.08,1.66a1.65,1.65,0,0,1-.54,2.5c-.69.45-1.35.91-2.07,1.32a.36.36,0,0,0-.19.42,10.74,10.74,0,0,0,1,2.8,18.14,18.14,0,0,0,3.45,4.82c.3.3.68.55,1,.84a.37.37,0,0,0,.5,0L21,26.21a1.63,1.63,0,0,1,2.45.52l2.17,3.35a1.69,1.69,0,0,1-.53,2.5c-.62.43-1.3.79-1.9,1.26a3.21,3.21,0,0,1-2.88.45,11.86,11.86,0,0,1-3.89-2.13,23.32,23.32,0,0,1-6.35-7.59A21.88,21.88,0,0,1,7.69,17.59Z"/><path class="cls-2" d="M40.38,20A20.26,20.26,0,0,0,20.19,0H20a20.19,20.19,0,0,0,.18,40.38h.2a20,20,0,0,0,13-4.89c.43-.37.86-.75,1.26-1.16A20.05,20.05,0,0,0,40.38,20ZM6.75,33.89A19.19,19.19,0,0,1,20,1h.18A19.19,19.19,0,1,1,6.75,33.89Z"/><path class="cls-2" d="M16.43,32.16a11.86,11.86,0,0,0,3.89,2.13,3.21,3.21,0,0,0,2.88-.45c.6-.47,1.28-.83,1.9-1.26a1.69,1.69,0,0,0,.53-2.5l-2.17-3.35A1.63,1.63,0,0,0,21,26.21l-2.07,1.34a.37.37,0,0,1-.5,0c-.3-.29-.68-.54-1-.84A18.14,18.14,0,0,1,14,21.89a10.74,10.74,0,0,1-1-2.8.36.36,0,0,1,.19-.42c.72-.41,1.38-.87,2.07-1.32a1.65,1.65,0,0,0,.54-2.5l-1.08-1.66c-.37-.58-.71-1.15-1.09-1.69A1.69,1.69,0,0,0,11.19,11L9.11,12.32A3.08,3.08,0,0,0,7.82,14a8.06,8.06,0,0,0-.13,3.56,21.88,21.88,0,0,0,2.39,7A23.32,23.32,0,0,0,16.43,32.16Z"/><path class="cls-2" d="M28.21,23.27l.21,0a1,1,0,0,0,1-.78,9,9,0,0,0-6.79-10.67,1,1,0,1,0-.44,1.95,7,7,0,0,1,5.28,8.28A1,1,0,0,0,28.21,23.27Z"/><path class="cls-2" d="M24.09,22.4a.78.78,0,0,0,.22,0,1,1,0,0,0,1-.78,5,5,0,0,0-3.81-6,1,1,0,0,0-.43,2,3,3,0,0,1,2.29,3.6A1,1,0,0,0,24.09,22.4Z"/><path class="cls-2" d="M23.29,7.47a1,1,0,0,0-1.2.76,1,1,0,0,0,.76,1.19A11.42,11.42,0,0,1,31.51,23a1,1,0,0,0,.76,1.19l.22,0a1,1,0,0,0,1-.79A13.43,13.43,0,0,0,23.29,7.47Z"/></g></svg>