<svg id="Layer_1" data-name="Layer 1" xmlns="http://www.w3.org/2000/svg" viewBox="0 0 112.9 95"><defs><style>.cls-1{fill:#fff;}.cls-1,.cls-2,.cls-3{fill-rule:evenodd;}.cls-2{fill:#00dec8;}.cls-3{fill:#444;}</style></defs><title>image footer</title><path class="cls-1" d="M9.52,67.51v3.68c0,.38-.16.59-.49.62-3,.27-4.53.36-7.56.38-.33,0-.49-.19-.49-.58V48c0-.38.16-.58.49-.58A73.46,73.46,0,0,0,9,47c.33,0,.49.15.49.54v3.68c0,.38-.16.59-.49.62-1.58.14-2.38.2-4,.28v4.71c1.38-.06,2.07-.11,3.45-.23.33,0,.49.15.49.54v3.67c0,.39-.16.6-.49.63-1.38.11-2.07.16-3.45.23v5.58c1.59-.08,2.39-.13,4-.28.33,0,.49.15.49.54"/><path class="cls-1" d="M22.28,69.88c-1.3.25-2,.37-3.24.59-.33.06-.51-.11-.56-.48-.53-2.36-.79-3.54-1.32-5.91-.53,2.54-.8,3.8-1.33,6.33-.05.39-.23.61-.56.66-1.29.19-1.94.27-3.24.43a.36.36,0,0,1-.33-.13.44.44,0,0,1,0-.41l2.86-12.23c-1.15-4.55-1.72-6.84-2.86-11.42a.48.48,0,0,1,.38-.62c1.3-.15,2-.24,3.24-.43.33,0,.51.12.56.5.53,2.37.8,3.55,1.33,5.91.53-2.53.79-3.8,1.32-6.33a.68.68,0,0,1,.56-.68c1.29-.22,1.94-.34,3.24-.59a.32.32,0,0,1,.33.13.39.39,0,0,1,.05.38C21.52,50.51,21,53,19.81,57.89l2.85,11.34c.07.37-.06.59-.38.65"/><path class="cls-1" d="M31,43.24a3.28,3.28,0,0,1,3.1.82,4,4,0,0,1,.94,1.44,5.23,5.23,0,0,1,.35,1.94v5.5a6.62,6.62,0,0,1-.35,2.11,7,7,0,0,1-.94,1.87,6.56,6.56,0,0,1-1.39,1.44,4.76,4.76,0,0,1-1.71.8l-1.64.36v8.31a.62.62,0,0,1-.49.69l-3.1.66c-.33.07-.49-.09-.49-.48V45.05a.6.6,0,0,1,.49-.68C27.89,43.94,28.94,43.71,31,43.24Zm.31,5.34a.84.84,0,0,0-.24-.64.6.6,0,0,0-.59-.16L29.39,48V55.1l1.12-.25a1,1,0,0,0,.59-.42,1.29,1.29,0,0,0,.24-.76Z"/><path class="cls-1" d="M46.22,60.28V64a.61.61,0,0,1-.48.69l-7.57,1.76c-.32.07-.48-.08-.48-.47V42.29a.61.61,0,0,1,.48-.69l7.57-1.75c.32-.08.48.08.48.46V44a.61.61,0,0,1-.48.69l-4,.92v4.72l3.45-.8c.33-.08.49.08.49.46v3.68a.61.61,0,0,1-.49.69l-3.45.8v5.59l4-.92c.32-.08.48.08.48.46"/><path class="cls-1" d="M54.9,37.73a3.31,3.31,0,0,1,3.1.81A4,4,0,0,1,58.94,40a5.23,5.23,0,0,1,.35,1.94V56.31a6.62,6.62,0,0,1-.35,2.11A7.13,7.13,0,0,1,58,60.29a6.56,6.56,0,0,1-1.39,1.44,4.6,4.6,0,0,1-1.71.8l-5.23,1.21c-.32.08-.48-.08-.48-.46q0-11.83,0-23.65a.61.61,0,0,1,.48-.69Zm.31,5.34a.88.88,0,0,0-.24-.65.62.62,0,0,0-.59-.15l-1.12.26v16l1.12-.26A1,1,0,0,0,55,57.8a1.29,1.29,0,0,0,.24-.75Z"/><path class="cls-1" d="M66.16,59.35a.63.63,0,0,1-.49.7l-3.1.71c-.33.08-.49-.08-.49-.46V36.65a.63.63,0,0,1,.49-.7l3.1-.71c.32-.08.49.08.49.46q0,11.84,0,23.65"/><path class="cls-1" d="M78.56,32.85v3.68a.61.61,0,0,1-.49.69l-2.47.56V57.17a.62.62,0,0,1-.49.69l-3.1.72a.4.4,0,0,1-.33-.09.45.45,0,0,1-.16-.38V38.72l-2.44.56c-.32.08-.49-.07-.49-.46V35.14a.62.62,0,0,1,.49-.69c3.6-.83,5.4-1.27,9-2.07.33-.07.49.09.49.47"/><path class="cls-1" d="M85.08,55.16a.59.59,0,0,1-.49.67l-3.1.62c-.33.07-.49-.09-.49-.47V32.33c0-.39.16-.62.49-.68,1.24-.26,1.86-.39,3.1-.63.33-.06.49.1.49.49Z"/><path class="cls-1" d="M98,48.81a6.24,6.24,0,0,1-.34,2.07,6.53,6.53,0,0,1-.95,1.77,5.32,5.32,0,0,1-1.39,1.29,4,4,0,0,1-1.71.65l-1.32.2a3.56,3.56,0,0,1-3.1-1,4.43,4.43,0,0,1-1-1.49,5.43,5.43,0,0,1-.34-2v-15a6.39,6.39,0,0,1,.34-2.08,6.84,6.84,0,0,1,1-1.82,5.93,5.93,0,0,1,1.39-1.35,4.08,4.08,0,0,1,1.71-.68l1.32-.19a3.37,3.37,0,0,1,1.71.17,3.77,3.77,0,0,1,1.39.94,4.67,4.67,0,0,1,.95,1.54,5.58,5.58,0,0,1,.34,2ZM93.9,34.58a.94.94,0,0,0-.25-.67.63.63,0,0,0-.59-.2l-.28,0a.87.87,0,0,0-.59.38,1.2,1.2,0,0,0-.25.74V49.42a.94.94,0,0,0,.25.67.68.68,0,0,0,.59.2l.28,0a.85.85,0,0,0,.59-.37,1.22,1.22,0,0,0,.25-.74Z"/><path class="cls-1" d="M111.92,28.67V52.32c0,.38-.17.58-.49.58-.89,0-1.34,0-2.23,0a.58.58,0,0,1-.4-.16.7.7,0,0,1-.26-.36c-1.48-4.27-2.22-6.39-3.7-10.62V52.54c0,.39-.16.59-.49.61-1.24.09-1.86.13-3.1.25-.33,0-.49-.15-.49-.54V29.21c0-.38.16-.59.49-.62l2.3-.19a.58.58,0,0,1,.4.14.72.72,0,0,1,.26.35c1.45,4.72,2.18,7.08,3.63,11.84v-12c0-.38.16-.58.49-.59,1.24,0,1.86-.06,3.1-.06.32,0,.49.19.49.58"/><path class="cls-2" d="M29,70.25c-.38-1.21-.76-2.43-1.14-3.67C24,69.32,20.45,71.86,17.29,74.3a122.63,122.63,0,0,0,11.67-4M96.78,65a50.63,50.63,0,0,0-5-7,39.32,39.32,0,0,0-3.4-3.53l-1.8,3.5a29.69,29.69,0,0,1,6.52,3.79A33.5,33.5,0,0,1,96.78,65M15.65,75.59h0c-.11-.24-.22-.49-.32-.74C16.5,73.94,17.74,73,19,72.07c2.13-1.57,4.38-3.18,6.78-4.88a93.58,93.58,0,0,1-15.89,4c-1,.15-2,.28-2.93.4-1.91.22-3.77.35-5.55.41,1.38,2.17,2.75,4.17,4.1,6s2.7,3.6,4,5.23c.1.43.2.86.29,1.29.67,3,1.43,6,2.29,8.86l2.3-1.2L16.82,91c1.61-.83,3.27-1.66,5-2.52Q19.46,84,17.17,79c-.51-1.11-1-2.23-1.52-3.38m75.49-1.91.77-.94.66-.79.75-.9.33-.38.33-.38.25-.3.51-.58.25-.3.39-.44.33-.37.43-.49.37-.4c.09-.1.18-.21.27-.3l.54-.61c-.68-.74-1.38-1.44-2.09-2.1a30.68,30.68,0,0,0-6.64-4.72c-.77-.4-1.55-.76-2.33-1.09a28.73,28.73,0,0,0-4.81-1.49q-.61-.14-1.23-.24a33.77,33.77,0,0,0-6.3-.48,53.23,53.23,0,0,0-15.86,3c-3.59,1.19-7.2,2.57-10.8,4C41.88,65.57,36.54,67.9,31.38,70a136,136,0,0,1-14.81,5.31l.39.88.24.54c.08.18.16.36.23.54s.19.42.28.62.19.42.28.62l.19.42.29.63.33.73c.08.16.15.33.23.49s.21.45.31.68.11.22.16.33c.19.41.38.81.58,1.21.07.17.15.33.23.49s.15.33.23.49c.2.41.39.81.59,1.21l.45.93.31.62c.11.2.21.41.31.61s.24.49.37.73l.06.14.69,1.34.37.71,1,2,3.68-2c4.37-2.36,9-4.85,13.68-7.11.67-.33,1.34-.65,2-1,1.35-.63,2.7-1.24,4.06-1.81,2-.87,4.08-1.67,6.11-2.38,1.36-.47,2.72-.9,4.06-1.27.68-.2,1.35-.37,2-.54a43.45,43.45,0,0,1,9.86-1.33,25.26,25.26,0,0,1,16,5c.48-.62,1-1.24,1.43-1.85l.35-.45.17-.22.22-.29c.23-.28.46-.57.68-.86l.62-.77.8-1,.65-.8M98.92,62c-.47-.5-1-1-1.43-1.46A32.2,32.2,0,0,0,90,55a45.3,45.3,0,0,1,5.68,7c.34.52.68,1,1,1.59.67,1.08,1.31,2.2,1.92,3.35-.72.73-1.44,1.49-2.16,2.26S95,70.77,94.23,71.59c-1.45,1.62-2.92,3.33-4.39,5.1.77.66,1.52,1.37,2.26,2.12a44.35,44.35,0,0,1,6.16,8.11c.76-1.08,1.49-2.17,2.2-3.27s1.38-2.22,2-3.36a18.8,18.8,0,0,1,5.6,1,19.62,19.62,0,0,1,3.39,1.55c-3.64-8.8-7.86-15.77-12.56-20.85"/><path class="cls-3" d="M29.57,81.91l-.05.26a2.54,2.54,0,0,0-.08.32,5.54,5.54,0,0,1-.19.67c-.05.17-.1.33-.16.5s-.14.33-.22.48a3.13,3.13,0,0,1-.29.42,1.18,1.18,0,0,1-.35.29A1,1,0,0,1,27,84.6a5.81,5.81,0,0,1-.75-.81,7.51,7.51,0,0,1-.59-.88c-.17-.28-.29-.52-.39-.72l-.16-.36s-.11-.22-.26-.54-.32-.7-.51-1.16-.35-1-.52-1.5a8.47,8.47,0,0,1-.35-1.56,3.79,3.79,0,0,1,.06-1.36,1.23,1.23,0,0,1,.66-.87.67.67,0,0,1,.39-.08,1,1,0,0,1,.57.25,3.76,3.76,0,0,1,.94,1.25,9.51,9.51,0,0,1,.74,2,11.47,11.47,0,0,1,.34,2.43A8,8,0,0,1,27,82.9a1.88,1.88,0,0,0,.75.86h0a.51.51,0,0,0,.21,0h0l.05,0a2,2,0,0,0,.67-.82l.14-.32c0-.11.09-.22.13-.35l0,0ZM26,80.62c.17.49.34.92.51,1.31a9.67,9.67,0,0,0,.07-1.05,8.1,8.1,0,0,0-.07-1.36A10.09,10.09,0,0,0,26.14,78a8.49,8.49,0,0,0-.74-1.65,3,3,0,0,0-.21-.32L25,75.8,25,75.72s0,0,0,0a.8.8,0,0,0-.07.4A6.25,6.25,0,0,0,25,77c.07.41.19.91.35,1.51S25.69,79.83,26,80.62Z"/><path class="cls-3" d="M31.14,83.19a2.2,2.2,0,0,1-1.43-.14,2.14,2.14,0,0,1-1-1,3.86,3.86,0,0,1-.45-1.44,5.3,5.3,0,0,1,0-1.22,3.5,3.5,0,0,1,.24-.85l.16-.35s.06-.08.15-.22a2.39,2.39,0,0,1,.42-.43,1.48,1.48,0,0,1,1.61-.23.7.7,0,0,1,.36.41,2,2,0,0,1,.06.43,3.09,3.09,0,0,1-.1.76A8,8,0,0,1,30.83,80a14.62,14.62,0,0,1-.76,1.63.92.92,0,0,0,.26.21,2.49,2.49,0,0,0,.39.14,1.48,1.48,0,0,0,.8,0,2,2,0,0,0,.67-.32,2.38,2.38,0,0,0,.52-.53,4.29,4.29,0,0,0,.37-.58,4.46,4.46,0,0,0,.22-.46c.05-.13.07-.2.08-.21v0l.58-.31v.13c0,.07,0,.16,0,.27a3.25,3.25,0,0,1-.26.95,3.89,3.89,0,0,1-.47.82,3.11,3.11,0,0,1-.6.65,3.29,3.29,0,0,1-.66.46,3.33,3.33,0,0,1-.81.3M29.92,78a1.1,1.1,0,0,0-.46.47,1.93,1.93,0,0,0-.2.73,3,3,0,0,0,0,.88,3.55,3.55,0,0,0,.32,1,7.63,7.63,0,0,0,.52-1.22,4,4,0,0,0,.19-.88,1.53,1.53,0,0,0,0-.58.68.68,0,0,0-.16-.31.18.18,0,0,0-.24,0"/><path class="cls-3" d="M36.9,73.07a.54.54,0,0,1-.48,0,.51.51,0,0,1-.33-.38.73.73,0,0,1,0-.52.76.76,0,0,1,.35-.38.53.53,0,0,1,.49,0,.59.59,0,0,1,.33.38.72.72,0,0,1,0,.52.69.69,0,0,1-.35.38ZM39.15,78a2.68,2.68,0,0,0,.35-.48,4.23,4.23,0,0,0,.21-.45,2.17,2.17,0,0,0,.12-.47l.61-.3s0,.1,0,.27-.07.37-.13.62A5.86,5.86,0,0,1,40,78a3.79,3.79,0,0,1-.51.83l.22.53a4.28,4.28,0,0,0,.17.43c.06.13.11.27.17.42a4.49,4.49,0,0,0,.21.49A4,4,0,0,1,40.54,82a2.94,2.94,0,0,1-.1,1,2.56,2.56,0,0,1-.4.83,2.84,2.84,0,0,1-.6.6,3,3,0,0,1-.33.21,1.77,1.77,0,0,1-.68.18.85.85,0,0,1-.55-.18,2.11,2.11,0,0,1-.7-1.13,3.49,3.49,0,0,1,0-1.37,6.34,6.34,0,0,1,.44-1.48c.22-.51.45-1,.7-1.51l-.2-.48-.23-.51c-.13-.3-.25-.6-.38-.88s-.22-.52-.3-.73-.15-.33-.22-.5-.15-.35-.21-.51l0-.13a2.84,2.84,0,0,1-.19-1.12.86.86,0,0,1,.34-.74.49.49,0,0,1,.38-.12l.2,0h.06l0,.06c0,.16.09.32.14.49s.11.31.17.5.13.39.21.61.07.19.13.35.14.35.21.55l.26.67c.1.24.2.48.29.73Zm0,3.19L39,80.7c-.06-.16-.16-.38-.28-.66-.18.38-.36.76-.51,1.12a5.88,5.88,0,0,0-.35,1,2.79,2.79,0,0,0,0,1,1.5,1.5,0,0,0,.41.81.29.29,0,0,0,.43,0,1.44,1.44,0,0,0,.37-.42,2.69,2.69,0,0,0,.28-.69,2.85,2.85,0,0,0,.1-.84A2.2,2.2,0,0,0,39.17,81.19Z"/><path class="cls-3" d="M45.3,73.66a.07.07,0,0,1,.11,0,.55.55,0,0,1,.14.13,1.13,1.13,0,0,1,.14.27,5.61,5.61,0,0,1-1.15.86,4.31,4.31,0,0,1-.29.83,3.62,3.62,0,0,1-.45.76,5,5,0,0,1-.58.63,2.81,2.81,0,0,1-.65.43,1.82,1.82,0,0,1-1.83-.09,2.63,2.63,0,0,1-.72-.64,4.26,4.26,0,0,1-.46-.79,3.88,3.88,0,0,1-.26-.82c0-.27-.09-.52-.11-.73s0-.39,0-.52,0-.21,0-.21a2.29,2.29,0,0,1,.14-.76,2,2,0,0,1,.28-.53,1.81,1.81,0,0,1,.36-.37,2.18,2.18,0,0,1,.41-.24h0a.57.57,0,0,1,.3-.07.49.49,0,0,1,.44.38l.06.29v.13l-.11,0,0,0c-.63.29-.81,1.06-.56,2.32a2.48,2.48,0,0,0,.2.68,3.07,3.07,0,0,0,.27.49,1.82,1.82,0,0,0,.26.31l.16.15a1.06,1.06,0,0,0,.19.11,1.23,1.23,0,0,0,.25.08,1.58,1.58,0,0,0,.31,0,1,1,0,0,0,.36-.1,2.38,2.38,0,0,0,1-1.39,0,0,0,0,0,0,0,.08.08,0,0,1,0,0,1.87,1.87,0,0,1-.83,0,2.6,2.6,0,0,1-.63-.27,1.61,1.61,0,0,1-.39-.31l0-.06,0-.06a.19.19,0,0,1-.06-.07s0,0,0-.06l0,0-.1-.17a1.5,1.5,0,0,1-.09-.18,2.06,2.06,0,0,1-.12-1.09,1.24,1.24,0,0,1,.7-.94,1.33,1.33,0,0,1,.49-.13l.44,0a1.37,1.37,0,0,1,.59.17,2.22,2.22,0,0,1,.66.52,3.28,3.28,0,0,1,.41.66,2.76,2.76,0,0,1,.2,1,3.35,3.35,0,0,0,.44-.3l.23-.2m-2,.88a2,2,0,0,0,.42,0,1.66,1.66,0,0,0-.48-1.33,1.3,1.3,0,0,0-.52-.29.73.73,0,0,0-.51,0,.05.05,0,0,0,0,0l0,0a.37.37,0,0,0-.13.46.85.85,0,0,0,.16.35,1.7,1.7,0,0,0,.27.33,1.31,1.31,0,0,0,.32.25.75.75,0,0,0,.32.12l.14,0h.1"/><path class="cls-3" d="M51,71.72l-.09.28a1.53,1.53,0,0,1-.07.21c0,.11-.09.25-.16.42l-.24.56q-.15.28-.33.57a1.78,1.78,0,0,1-.75.75s-.05,0-.08,0l-.09,0h-.08l-.1,0h-.11l-.13-.05a1.22,1.22,0,0,1-.25-.18,7.56,7.56,0,0,1-.63.65,2.31,2.31,0,0,1-.72.49,1.08,1.08,0,0,1-.84,0l-.14-.06a1.69,1.69,0,0,1-.23-.2,2.8,2.8,0,0,1-.3-.39,4.39,4.39,0,0,1-.34-.66c-.06-.18-.15-.43-.27-.73s-.21-.62-.31-1a10,10,0,0,1-.24-1,3.08,3.08,0,0,1,0-.89.84.84,0,0,1,.45-.73.62.62,0,0,1,.4,0l.19,0,.07,0v.07c.08.39.16.81.26,1.27s.18.89.27,1.3.17.76.24,1a2.09,2.09,0,0,0,.16.53.61.61,0,0,0,.1.14.33.33,0,0,0,.16.11.61.61,0,0,0,.24,0,1.68,1.68,0,0,0,.33-.09,2.83,2.83,0,0,0,.73-.48c-.06-.09-.11-.19-.17-.3s-.1-.21-.15-.33-.17-.41-.27-.72-.22-.63-.32-1a9.58,9.58,0,0,1-.24-1,2.76,2.76,0,0,1,0-.89.81.81,0,0,1,.46-.74.66.66,0,0,1,.39,0l.2,0,.06,0v.06c.1.5.21,1,.32,1.51s.23,1,.33,1.37.2.74.29,1a1.6,1.6,0,0,0,.2.47l.11,0a.43.43,0,0,0,.2,0,1,1,0,0,0,.18-.11,1,1,0,0,0,.21-.2,3.13,3.13,0,0,0,.28-.4,4.37,4.37,0,0,0,.26-.53l0,0Z"/><path class="cls-3" d="M56,70l-.11.29-.15.38a7.16,7.16,0,0,1-.36.76,5.74,5.74,0,0,1-.53.79,1.39,1.39,0,0,1-.65.51l-.07,0H54a.5.5,0,0,1-.21,0,.9.9,0,0,1-.64-.46,4,4,0,0,1-.41-1,8.28,8.28,0,0,1-.22-1.35c0-.5-.07-1-.07-1.47l-.13.09-.17.1a3.06,3.06,0,0,1-.46.3,4.74,4.74,0,0,1-.54.29c0,.15.07.31.1.48a3.48,3.48,0,0,1,.05.58,3.4,3.4,0,0,1-.05.69,3.44,3.44,0,0,1-.23.79l-.64.24a3.85,3.85,0,0,0,.19-.47,2.73,2.73,0,0,0,.1-.54,3.74,3.74,0,0,0,0-.67,6.32,6.32,0,0,0-.13-.85l0,0a.41.41,0,0,1-.22,0,1,1,0,0,1-.68-.33,1.17,1.17,0,0,1-.31-.59,1,1,0,0,1,.06-.61.91.91,0,0,1,.38-.42.73.73,0,0,1,.74,0,1.27,1.27,0,0,1,.54.9,2.58,2.58,0,0,0,.51-.38,3.77,3.77,0,0,0,.4-.42c.11-.13.2-.24.29-.33a3,3,0,0,1,.23-.25.78.78,0,0,1,.26-.17l.24-.1a.84.84,0,0,1,.23,0s.08,0,.1.12a1.33,1.33,0,0,1,0,.19c0,.09.06.27.1.53s.09.63.14,1.11c0,.26.06.55.09.86s.07.62.1.91.08.55.12.76a1.36,1.36,0,0,0,.12.42s0,0,0,.05a.14.14,0,0,0,.11,0h0a1.65,1.65,0,0,0,.55-.43,3.82,3.82,0,0,0,.61-.94l0-.07Zm-5.51-1.43a1.62,1.62,0,0,0-.18-.53,1.22,1.22,0,0,0-.12-.16h-.08l-.1.07a.33.33,0,0,0-.1.41.56.56,0,0,0,.2.16A.85.85,0,0,0,50.44,68.54Z"/><path class="cls-3" d="M69.08,67.21l-.14.22a1.78,1.78,0,0,0-.13.21c-.07.12-.16.26-.28.43s-.25.34-.4.52a3.29,3.29,0,0,1-.5.49,2.72,2.72,0,0,1-.42.34,1.25,1.25,0,0,1-.45.18.88.88,0,0,1-.28,0,.83.83,0,0,1-.29-.1.87.87,0,0,1-.3-.25,1.59,1.59,0,0,1-.23-.43,1.78,1.78,0,0,1-.08-.64c0-.47.06-.91.07-1.34s0-.8,0-1.14a6,6,0,0,0-.05-.82.93.93,0,0,0-.12-.4h0a1,1,0,0,0-.48.24,2.35,2.35,0,0,0-.43.5,5.18,5.18,0,0,0-.33.62,3.78,3.78,0,0,0-.21.62,1.42,1.42,0,0,0,0,.39c0,.16,0,.33,0,.51s0,.38,0,.58,0,.39,0,.57,0,.52.06.7,0,.32,0,.43a1,1,0,0,1,0,.24A.15.15,0,0,1,64,70a.77.77,0,0,1-.2.07,1.83,1.83,0,0,1-.25.06c-.41.06-.65,0-.73-.18a2.58,2.58,0,0,1,0-.32c0-.17,0-.47,0-.9,0-.26,0-.59,0-1s0-.79,0-1.17-.05-.73-.09-1a1.43,1.43,0,0,0-.13-.56h0a.89.89,0,0,0-.44.28,3.88,3.88,0,0,0-.46.61,4.92,4.92,0,0,0-.34.81,3,3,0,0,0-.16.85q0,.45,0,.87c0,.29,0,.54.05.77s0,.55,0,.74a1.53,1.53,0,0,1-.05.43.35.35,0,0,1-.18.16l-.22.06a1,1,0,0,1-.35,0,.6.6,0,0,1-.34-.12.33.33,0,0,1-.13-.22c0-.15,0-.32,0-.51s0-.4,0-.65,0-.72-.07-1.18c0,0,0-.17,0-.42s0-.56,0-.89,0-.67.06-1a1.92,1.92,0,0,1,.19-.74,1.2,1.2,0,0,1,.14-.21.42.42,0,0,1,.25-.19h0a1.22,1.22,0,0,1,.27,0l.22,0a.48.48,0,0,1,.18.07.26.26,0,0,1,.07.17V65l0,.37a5.09,5.09,0,0,1,.57-.66,2,2,0,0,1,.81-.52,1.28,1.28,0,0,1,1.29.1,1,1,0,0,1,.29.49c.07-.1.15-.2.25-.32s.21-.22.34-.34a2.44,2.44,0,0,1,.43-.28,1.36,1.36,0,0,1,.49-.17l.2,0a1.3,1.3,0,0,1,.86.25.86.86,0,0,1,.25.48,5.44,5.44,0,0,1,0,.58v0c0,.37,0,.74-.07,1.1s0,.7,0,1,0,.57,0,.78a1.26,1.26,0,0,0,0,.38l0,0a.11.11,0,0,0,0,0l.08.09a.18.18,0,0,0,.11,0,.38.38,0,0,0,.1,0v0a3.1,3.1,0,0,0,.57-.38,4.32,4.32,0,0,0,.67-.72v0Z"/><path class="cls-3" d="M69.89,69.37a2.21,2.21,0,0,1-1.18-.8,2.15,2.15,0,0,1-.39-1.37,3.79,3.79,0,0,1,.3-1.48,5.11,5.11,0,0,1,.62-1,3.36,3.36,0,0,1,.61-.63l.31-.24.24-.12a2.28,2.28,0,0,1,.57-.17,1.46,1.46,0,0,1,1.52.57.67.67,0,0,1,.13.53,1.43,1.43,0,0,1-.16.4,2.9,2.9,0,0,1-.45.62,8.21,8.21,0,0,1-.88.83,15.88,15.88,0,0,1-1.44,1.07.6.6,0,0,0,.12.3,1.57,1.57,0,0,0,.28.31,1.33,1.33,0,0,0,.68.43,1.85,1.85,0,0,0,.74,0,2.83,2.83,0,0,0,.7-.21,4.91,4.91,0,0,0,.61-.34,3.38,3.38,0,0,0,.41-.3l.17-.14,0,0h.67L74,67.7l-.17.22a3.28,3.28,0,0,1-.68.71,4.84,4.84,0,0,1-.8.5,4.17,4.17,0,0,1-.84.29,3.24,3.24,0,0,1-.8.08,3,3,0,0,1-.86-.13m1.4-5.12a1,1,0,0,0-.62.2,1.82,1.82,0,0,0-.53.54,3.13,3.13,0,0,0-.38.8,3.79,3.79,0,0,0-.17,1,7.12,7.12,0,0,0,1-.82,4.1,4.1,0,0,0,.59-.68,1.78,1.78,0,0,0,.26-.52.7.7,0,0,0,0-.35.2.2,0,0,0-.2-.15"/><path class="cls-3" d="M82.45,69.55l-.21.15-.2.14c-.12.08-.26.18-.43.28s-.37.22-.58.33a4,4,0,0,1-.65.26,3.23,3.23,0,0,1-.51.14,1.15,1.15,0,0,1-.49,0,1.19,1.19,0,0,1-.26-.11.8.8,0,0,1-.22-.2.94.94,0,0,1-.18-.36,1.23,1.23,0,0,1,0-.48,1.81,1.81,0,0,1,.17-.62c.21-.42.41-.82.59-1.21s.33-.73.45-1a5.24,5.24,0,0,0,.27-.78.93.93,0,0,0,.06-.41h0a1,1,0,0,0-.55,0,2.25,2.25,0,0,0-.58.29,3.79,3.79,0,0,0-.55.44,4.73,4.73,0,0,0-.44.49,1.69,1.69,0,0,0-.2.34l-.19.47c-.07.18-.13.36-.2.55s-.12.37-.18.54-.16.49-.22.66a4,4,0,0,1-.16.41,1,1,0,0,1-.13.2.14.14,0,0,1-.12.06h-.21l-.25,0q-.61-.15-.6-.45a1.06,1.06,0,0,1,.09-.3l.35-.84c.09-.24.21-.55.36-.91s.29-.74.42-1.1.24-.69.32-1a1.41,1.41,0,0,0,.1-.57h0a.86.86,0,0,0-.51.09,2.49,2.49,0,0,0-.66.38,3.66,3.66,0,0,0-.64.61,3.18,3.18,0,0,0-.47.72c-.13.27-.25.53-.35.8s-.18.51-.25.73-.19.51-.26.69a.94.94,0,0,1-.22.37.25.25,0,0,1-.22.08.75.75,0,0,1-.23,0,1.2,1.2,0,0,1-.32-.13.73.73,0,0,1-.27-.25.35.35,0,0,1,0-.25l.16-.48c.07-.18.14-.39.23-.62s.24-.68.4-1.11c0,0,0-.16.14-.4s.2-.52.34-.82a8.18,8.18,0,0,1,.44-.89,2,2,0,0,1,.46-.61,1.78,1.78,0,0,1,.21-.14.46.46,0,0,1,.31-.07h0a1.25,1.25,0,0,1,.25.09l.19.11a.47.47,0,0,1,.14.14.25.25,0,0,1,0,.17,1.82,1.82,0,0,1-.13.3c-.06.11-.11.23-.17.34a6.47,6.47,0,0,1,.79-.39,2.1,2.1,0,0,1,1-.16,1.3,1.3,0,0,1,1.15.6,1.07,1.07,0,0,1,.08.57,2.72,2.72,0,0,1,.35-.2,3.28,3.28,0,0,1,.45-.17,2.11,2.11,0,0,1,.5-.1,1.55,1.55,0,0,1,.52,0l.19.06a1.26,1.26,0,0,1,.69.57.8.8,0,0,1,0,.53,3,3,0,0,1-.18.56h0l-.49,1c-.16.33-.31.63-.43.91s-.23.52-.31.72a1.1,1.1,0,0,0-.1.37.43.43,0,0,1,0,0v0l0,.11a.14.14,0,0,0,.1.06h.11v0a3.54,3.54,0,0,0,.67-.12,4.24,4.24,0,0,0,.9-.4h0Z"/><path class="cls-3" d="M82.11,72a2.18,2.18,0,0,1-.67-1.26,2.1,2.1,0,0,1,.3-1.39,3.89,3.89,0,0,1,1-1.17,4.84,4.84,0,0,1,1-.64,3.08,3.08,0,0,1,.84-.27l.39-.07h.26a2,2,0,0,1,.59.11,1.45,1.45,0,0,1,1.08,1.21.67.67,0,0,1-.14.53,1.6,1.6,0,0,1-.32.29,3.32,3.32,0,0,1-.68.33,10.83,10.83,0,0,1-1.18.33q-.7.15-1.77.27a.61.61,0,0,0,0,.33,1.79,1.79,0,0,0,.1.4,1.39,1.39,0,0,0,.4.69,1.81,1.81,0,0,0,.64.38,2.49,2.49,0,0,0,.72.14,4.28,4.28,0,0,0,1.2-.09l.21,0h.06l.58.32-.11.07-.25.11a3.31,3.31,0,0,1-.93.32,4.28,4.28,0,0,1-.94.06,4.15,4.15,0,0,1-.88-.13,3.67,3.67,0,0,1-.75-.3,3.11,3.11,0,0,1-.7-.52m3.63-3.87a1,1,0,0,0-.65-.12,2,2,0,0,0-.71.23,3.12,3.12,0,0,0-.71.53,3.52,3.52,0,0,0-.61.8,7.33,7.33,0,0,0,1.3-.25A4.51,4.51,0,0,0,85.2,69a1.59,1.59,0,0,0,.47-.35.67.67,0,0,0,.17-.3.18.18,0,0,0-.1-.22"/><path class="cls-3" d="M69.89,62.77s.09,0,.19-.07a6.36,6.36,0,0,1,1-.46.18.18,0,0,1,.24,0c.07.08.51.59.63.78s.08.11.11.12a.19.19,0,0,0,.12,0l.3-.2a.16.16,0,0,0,.06-.08s0-.06-.1-.14l-.87-1a.67.67,0,0,0-.13-.13c-.06,0-.1,0-.2.07s-1.22.76-1.33.84-.1.08-.1.12a.08.08,0,0,0,.06.1"/><path class="cls-2" d="M41,39.43a.32.32,0,0,0-.25-.26l-1.49-.28V37.37a.29.29,0,0,0-.21-.28l-1.44-.47.19-1.5a.31.31,0,0,0-.17-.32l-1.37-.64.38-1.47a.32.32,0,0,0-.14-.33l-1.28-.81.56-1.41a.29.29,0,0,0-.09-.34l-1.17-1,.73-1.33a.29.29,0,0,0,0-.35l-1-1.1L35,24.82a.29.29,0,0,0,0-.35l-.89-1.23,1-1.1a.32.32,0,0,0,0-.36l-.73-1.33,1.16-1a.29.29,0,0,0,.09-.35l-.56-1.4,1.28-.82a.31.31,0,0,0,.14-.33l-.38-1.47,1.36-.64a.32.32,0,0,0,.18-.31l-.19-1.51L39,12.19a.3.3,0,0,0,.21-.28V10.39l1.48-.28A.32.32,0,0,0,41,9.85l.19-1.51,1.51-.09A.3.3,0,0,0,42.92,8l.38-1.47,1.51.1a.3.3,0,0,0,.3-.19l.56-1.41,1.49.28a.31.31,0,0,0,.32-.15l.73-1.33,1.44.47A.32.32,0,0,0,50,4.21L50.88,3l1.37.64a.32.32,0,0,0,.35-.06l1-1.11,1.28.81a.3.3,0,0,0,.36,0l1.17-1,1.16,1a.32.32,0,0,0,.36,0l1.28-.81,1,1.1a.3.3,0,0,0,.35.07L62,3l.89,1.23a.31.31,0,0,0,.34.11l1.44-.47.73,1.33a.31.31,0,0,0,.32.15L67.21,5l.55,1.41a.32.32,0,0,0,.31.19l1.51-.1L70,8a.3.3,0,0,0,.27.23l1.51.09.19,1.51a.33.33,0,0,0,.25.26l1.49.28v1.51a.3.3,0,0,0,.21.29l1.44.47-.19,1.5a.29.29,0,0,0,.17.31l1.37.65-.37,1.46a.3.3,0,0,0,.13.34l1.28.81-.56,1.41a.29.29,0,0,0,.09.34l1.17,1-.73,1.32a.3.3,0,0,0,0,.36l1,1.1-.89,1.23a.29.29,0,0,0,0,.35L78.76,26l-1,1.1a.34.34,0,0,0,0,.36l.73,1.32-1.16,1a.29.29,0,0,0-.09.35l.42,1.06.62-.08-.4-1,1.19-1a.29.29,0,0,0,.07-.38l-.74-1.35,1.06-1.13a.29.29,0,0,0,0-.38l-.91-1.25.91-1.26a.3.3,0,0,0,0-.38l-1.05-1.13.74-1.35a.3.3,0,0,0-.07-.38l-1.19-1,.56-1.43a.29.29,0,0,0-.12-.37l-1.3-.83L77.32,15a.31.31,0,0,0-.16-.36L75.76,14,76,12.46a.29.29,0,0,0-.21-.32l-1.47-.48V10.12a.31.31,0,0,0-.24-.3l-1.52-.29L72.31,8A.3.3,0,0,0,72,7.73l-1.54-.09-.39-1.5a.3.3,0,0,0-.31-.23L68.25,6l-.57-1.44a.3.3,0,0,0-.34-.18l-1.52.29-.74-1.36a.32.32,0,0,0-.36-.14l-1.47.48-.91-1.25A.3.3,0,0,0,62,2.32L60.57,3,59.51,1.85a.3.3,0,0,0-.39-.05l-1.3.83-1.19-1a.3.3,0,0,0-.39,0l-1.19,1-1.3-.83a.33.33,0,0,0-.39.05L52.31,3l-1.4-.66a.33.33,0,0,0-.38.1l-.9,1.25-1.47-.48a.31.31,0,0,0-.36.15l-.75,1.35L45.53,4.4a.3.3,0,0,0-.34.19L44.63,6l-1.54-.1a.31.31,0,0,0-.32.23l-.38,1.49-1.54.1a.29.29,0,0,0-.28.27l-.2,1.53-1.51.29a.3.3,0,0,0-.25.3v1.54l-1.47.48a.32.32,0,0,0-.21.33l.2,1.53-1.4.66a.32.32,0,0,0-.17.35l.39,1.5-1.3.83a.28.28,0,0,0-.12.36l.57,1.44-1.19,1a.3.3,0,0,0-.08.38l.75,1.35L33.52,23a.29.29,0,0,0,0,.38l.91,1.25-.91,1.25a.32.32,0,0,0,0,.39l1.06,1.13-.74,1.35a.3.3,0,0,0,.07.38l1.19,1-.56,1.43a.29.29,0,0,0,.12.37l1.3.83-.38,1.49a.3.3,0,0,0,.16.35l1.4.66L37,36.79a.3.3,0,0,0,.21.33l1.47.48v1.54a.31.31,0,0,0,.24.3l1.52.29,0,.15.59-.15Z"/><path class="cls-1" d="M72.52,24.75l-4.21-12.2,0,0a.55.55,0,0,0-.12-.19.3.3,0,0,0-.08-.07l0,0L68,12.16l-.08,0-.13,0h0l0,0h-.06a.73.73,0,0,0-.25,0L47.89,18.85l-.06,0a.59.59,0,0,0-.17.1h0l-.12.12h0l0,.06a.59.59,0,0,0,0,.08.19.19,0,0,0,0,.09.3.3,0,0,0,0,.09v.09h0l0,0a.47.47,0,0,0,0,.19l1.87,5.43L48,25.64a.71.71,0,0,0-.44.9.73.73,0,0,0,.36.41.74.74,0,0,0,.55,0l1.29-.45L51.65,32a.61.61,0,0,0,.15.23.47.47,0,0,0,.17.14l0,0,.21.07h.11l.22,0,19.54-6.76a.63.63,0,0,0,.24-.15l.07-.08a.64.64,0,0,0,.13-.26l0-.07A.65.65,0,0,0,72.52,24.75ZM70.75,24l-7.82-2,4.53-7.5ZM50.19,19.56,66,14.09l-5.63,9.33Zm8.66,4.8,1.58.59a.7.7,0,0,0,.86-.29l.87-1.45,7.23,1.87L54.32,30.29Zm-1.38-.53-4.91,6.42-3.29-9.52Zm-9.7-4.69h0l0,0v0Z"/><path class="cls-1" d="M43.68,29.84l-4.83,1.67a.72.72,0,0,0-.44.9.76.76,0,0,0,.36.41.71.71,0,0,0,.32.07.66.66,0,0,0,.23,0l4.83-1.67a.72.72,0,0,0,.44-.9.72.72,0,0,0-.91-.44"/><path class="cls-1" d="M46.85,26.79a.7.7,0,0,0-.9-.44l-6.44,2.23a.72.72,0,0,0-.44.9.73.73,0,0,0,.36.41.7.7,0,0,0,.31.07.67.67,0,0,0,.24,0l6.44-2.23a.7.7,0,0,0,.43-.9"/><path class="cls-1" d="M40.56,26.8a.64.64,0,0,0,.31.07.66.66,0,0,0,.23,0l2.07-.72a.71.71,0,0,0,.44-.9.73.73,0,0,0-.91-.44l-2.07.72a.72.72,0,0,0-.44.9.75.75,0,0,0,.37.41"/><path class="cls-1" d="M44.69,25.37a.87.87,0,0,0,.31.07.67.67,0,0,0,.24,0L48,24.45a.71.71,0,0,0,.43-.91.72.72,0,0,0-.9-.44l-2.76,1a.72.72,0,0,0-.44.9.73.73,0,0,0,.36.41"/><path class="cls-1" d="M47.82,28.41l-2.07.71a.74.74,0,0,0-.41.37.72.72,0,0,0,0,.54.68.68,0,0,0,.36.4.71.71,0,0,0,.31.08,1,1,0,0,0,.24,0l2.07-.72a.71.71,0,0,0,.43-.9.7.7,0,0,0-.9-.44"/></svg>