<svg id="Layer_1" data-name="Layer 1" xmlns="http://www.w3.org/2000/svg" viewBox="0 0 67.2 95"><defs><style>.cls-1{fill:#fff;}.cls-1,.cls-2{fill-rule:evenodd;}.cls-2{fill:#00dec8;}</style></defs><title>image footer</title><path class="cls-1" d="M8.46,53.2,7,52.69l-1.41-.64L4.34,51,3.27,49.86,2.5,48.53l-.64-1.46-.43-1.45-.17-.82L1.17,44l.13-.34.13-.13.51-.22,1.76-.08,1.85.12,1.8-.12h1.8l.34.25.08.26.09.22.17.6.52.81.77.64.51.35.69.3.73.21,1.67.17,1.76-.13.81-.17.64-.34.52-.47.43-.73.21-.9,0-.9,0-.86-.21-.68-.35-.61-.47-.42-1.24-.6L16.05,40l-.86,0-.6.09-.6.17-.3,0-.43-.13-.3-.21-.47-.52L12.28,39l-.35-1.16-.08-.3.12-.3,1-1.54,1.11-1.5,2-3.18.13-.38-.05-.34L16,30.06l-.34-.13H12.83l-2.74.17-.3.09-.13.08-.13.22,0,.21,0,1.33,0,.56-.17.77-.08.17L9,33.74l-.17.09-.3,0L7.09,34,5.55,34l-1.5.13H3.4L2.55,34l-.3-.08-.18-.13-.13-.52-.17-1.58.05-1.59.08-1.63L2,26.89l-.17-1.63.08-1.59.05-.3.08-.17L2.33,23l.22,0,1.5-.09,1.54.17,3-.17,3,.26L13.18,23l1.5-.09,3,.17,3-.08,3,.08L25.35,23l1.5.08.17,0,.3.13.09.17.08.26.17,1.59,0,1.63,0,.17-.13.17-.94,1.54-1,1.5-1,1.5-1,1.46-1.2,1.41-.6.86-.3.69v.13l.17.13h.09l.68.08.86.3.77.39,1.33.81,1.2,1.16.86,1.41.47,1.5.17,1.76L28,45.49,27.66,47l-.6,1.5-.85,1.37-1,1.16-1.29,1-1.37.77-1.54.6-1.5.43-1.68.34-1.54.17-1.67.09L13,54.36l-1.54-.21-1.54-.39ZM4.26,35.8v-.21l0-.56,1.33-.09,1.5.05,1.67-.13L9,34.77l.43-.13.26-.12.17-.22.22-.34.12-.34v0l.18-.81.08-.64V32l0-1,1,0,1.33-.09h2l-.65,1h-.38L12.49,32l-1,0,0,1-.09.73-.17.81v0L11,35l-.21.34-.17.21-.26.13L10,35.8l-.26,0L8,36l-1.46-.09-1.33.13H5.07l-.34,0-.3-.09Zm1.41-7.5,0-.08,0,0-.09,0L5.42,28l-.09,0-.08-.09-.09-.25-.09-.09L5,27.44H5l0,0,.09.17,0,.17.13.13.09.13.17,0,0,.17v.09l0,0,0,.08.08,0,0,0ZM5,28.77l0,0-.09.09v.12H5l0,0Zm1.59.47,0-.13-.17,0,0-.08-.09-.13L6.19,29l0,.17v0l0,.09.08.08.18,0Zm.08-3.13.17.05,0-.05L7,26l0-.09v-.08l-.09-.05-.13-.08-.08-.13H6.45l-.09.09-.09.17V26l0,0,0,.08.13.05.09-.09h.13ZM6.45,46.3l0-.21h0l-.09,0,0,.17.09.22ZM7.05,31l0-.17L6.87,31l0,.13h.09Zm.42-6.65,0,0-.08,0H7.22l0,.08.09.09h.13Zm0,3.86,0-.08L7.35,28l-.09,0v0l.13.13ZM30,45.06l-.09,1.67-.3,1.76L29,50l-.9,1.5L26.85,53l-1.33,1-1.46.82-1.58.64-1.55.47-1.71.3-1.59.22L16,56.5l-1.67-.12-1.58-.26-1.2-.3-.77-.3L9.27,55l-1.41-.64-.56-.47.77.26,1.46.51,1.67.43,1.63.26,1.76.13,1.67-.09,1.63-.17,1.8-.34,1.54-.48,1.67-.64,1.51-.86,1.37-1.07L27,50.42,28,48.87l.65-1.58.34-1.8L29,43.77l-.21-1.84-.17-.69.21.26.82,1.42.13.34ZM8.2,48.36,8,48.19V48l0,0-.09,0L7.69,48l0,0v0l-.05,0,0,.13.13.17H8l.08.12.13.09,0-.13ZM8,27.23l0-.09,0,0V27L7.9,27l0,0v0l0,0,.08.17.09.09Zm.13,1.41,0,0v-.09l0,0v.09l0,.08,0,.05Zm.13-3.25h.08l.05,0,.12-.09-.12,0-.05,0H8.25Zm.47,2.91L8.63,28l-.3-.09.09.22v.38l.17,0,.08-.12.05-.05Zm.47,20.23.13.13h.17v0l.17-.09.22-.13.12.05.09,0h0l.09-.09.08,0,0,0v-.09h-.13l-.13,0-.34.13H9.7l0,0,0,.09-.09-.05h0l-.09-.08,0,0H9.27l-.08.09Zm.38-.77,0,0,.08,0v-.09l.05,0-.05,0h0l-.09.08Zm.65-19-.13-.09-.17,0-.13.17.13,0H10l.09.09h.13Zm.08,22.84,0,.13v.09l0,.13.09-.09.13-.08v-.13l-.09,0ZM11,27.79l0-.13-.17-.05H10.6l.05.18h0l0,0,.13.08Zm1.41,22.07.09,0,.08,0h.3L13,50l.18-.13,0-.22-.13-.17,0-.21-.17,0-.26.17,0,.13-.08.13-.09.09Zm.94,3.26L13.18,53h-.3l-.18-.05-.13.13.13.17.18-.08,0,0H13l.13.13.17,0,0,0ZM13.13,26l-.08-.13L13,25.81v0l-.17,0-.08.13.08.17H13Zm.65-1.25-.09,0-.13,0-.08-.09h-.09v.13l.13,0h.17Zm0,26.49.08.22.13.08.09-.13,0-.12,0-.18L14,51l-.09.08ZM14,47.59l0,0v0h.13l.09-.12-.09-.09h-.09Zm.81-5.87-.21-.39-.09-.26.3-.08.39-.05.69.05.51.13,1,.51.26.26.21.34v.09l-.39,0-.6.09-.38.13-.34-.17-.56-.18h-.43ZM14.63,49l.17,0,.13-.08-.13-.05Zm0,3.3.13.26V53l0,.08.21.09L15.1,53V52.9l.05,0-.09-.47Zm.65-26.79-.13-.17v-.39l-.17,0-.09.13,0,0v.05l.13.34ZM15.62,28h-.09L15.4,28h.13Zm.34-1.8,0-.13-.13-.09,0,.13v.09l0,.13.09,0,.08-.09Zm.26,2.74,0,0h-.05l0,.08v0l0,0h.09Zm.21-4.12h.18l.08-.12-.08-.09-.13.09h-.13l-.09-.09-.13,0v.09l.13.13Zm.09,28.72.17,0h.17l.09.13h.13v-.13L17,53.38l-.22-.09ZM17,27.4l.13-.21,0-.09v0l-.08,0-.09,0-.13,0h-.08l-.13,0-.08.08v.22l.08.08,0,.13.13,0Zm.26,6.3-.13-.13-.08.09v.13l0,.13.08-.05.05,0Zm.21,2.57,0-.08h-.08v.08l-.05.09h.13ZM17.55,34h.17l.17-.12v-.13l0-.09-.13,0-.13.13,0,.08Zm.51,1.59h-.34l-.13.17v.09l0,0,.17-.13ZM17.68,32l.25-.17.13-.18.17-.08.22-.13h0l.09,0,.34.25.13.35.25.21v.39h.22l.26-.17-.13-.26,0-.17-.22.08-.13-.17.13-.21.17-.18,0-.21-.09-.17-.17,0-.08.08,0,.17,0,.13h-.13l-.22-.08-.25-.09-.13-.08-.17.12-.18-.08-.17,0-.17.34Zm0,20.06,0,.17.08.08.22.13.13-.17-.09-.21-.21,0Zm.17-17.45h-.09v.13h0l.09,0v-.08Zm.3-1.76v-.21h-.09l-.08.21-.05.22,0,.13.17.08.09,0,0-.09v-.08ZM18,25.22l0,.08h0l.09,0v-.17l0-.05-.08.09Zm.21,7.2.17-.09.17,0,.17-.17-.08-.22-.34,0-.3.3v.26Zm.43,2.14-.09-.17-.21-.3-.22-.39-.08.52.08.42.18.13.25,0Zm-.39-4.5-.13.08.26.09.22,0,.21-.13.13.34.21.22.13-.3L19.18,30V29.8l.08-.21.17.34.13.39-.08.25-.05.26.05.21.21.05,0,0h.05l.3.26.38-.13.26-.17-.13-.35,0-.12v-.18l.09-.08.13.21.08.22L21,31l.17-.05.17.13h.22l.3.22.17.34,0,.09,0,.13L22,32l-.13.08-.12,0h-.09l0-.18-.13-.08h-.13l0,0,0,.17.13.13v.13l-.17.09-.18,0-.08,0,.08.09,0,.13.13.08,0,.17.13,0,.08-.08V32.8l0,0,.08,0,.39-.35.13-.47.17-.13.13-.13-.18-.08h.05l-.05-.17-.08-.13,0,0v0l.13,0,.13-.08.3-.13.26-.13-.18-.22-.42.22h-.22l-.17,0-.13.09L21.79,31l-.21-.13-.09,0,0-.05,0-.3-.26-.12,0-.05v0l-.3-.26-.34-.08-.17.12-.05.22h-.08L20,30.14h-.26l0,0-.08-.3.21-.21.17.08,0,.13.09,0,0-.08v-.52l0-.13v-.25l0-.09v0l0,0,.09-.05,0,0,.09.13.13,0v0h0v0h0l.17.09h.22l.08.17.05.38.3.3.17-.21.21-.13.09-.17,0-.21-.22-.09-.17.13,0,.08-.13.13-.13-.13v-.17l0-.08-.26-.26h-.25l-.17-.26-.26-.08-.17.17v-.17l-.09-.13h0l0,0v.17l.08.13,0,.13-.09.13v0h0v0l-.17.17-.17.26v0l-.05,0-.12,0H19l-.22.09-.17.17-.13-.09-.09,0,0,.22.13.17v0l0,.09-.09.08Zm.13,5,0,0h-.09l0,0v.09l.09.08h0l0,0ZM18.28,33l0,.22.17,0,.09,0,0-.09.13-.21L19,32.8l-.39-.13-.3.26,0,0Zm.51.82,0-.3.13,0h.17l-.3-.13-.22.56Zm.22.77.12-.08.05-.05v0l.3-.21v-.39l-.22.26-.17.25-.17.13-.09.26Zm0-3.73-.13,0V31H19l.09,0v-.05l0-.08Zm.29,4.42-.08-.22L19,35v.09l0,.08.17.09Zm0-7.85,0,0v0l.22-.13.13-.21,0-.13.09,0h.08l.09-.08-.05-.09,0,0-.13,0-.08.13,0,.12-.09.18-.13.08Zm.35,5.36-.18-.08-.13.08v0l.05,0,.13,0Zm.08,2-.08,0-.13-.13-.09.17.13.17.17-.08Zm0-1.2h.05l.08,0,0-.13,0-.08h-.08l-.09.17Zm.3-.94,0-.17v-.3l-.18-.26,0,0h-.08l0,.26.13.17-.05.22v.21L20,33l.13,0h.08l.09-.08V32.8l-.13,0Zm0,1.16-.22.13-.08.12.12.13L20,34Zm.64-.39,0,.13-.09.09-.26-.18h-.25l.12.26.13.3.13-.08.09-.13.17-.13Zm-.56-5.91,0,0h.13V27.4H20.2Zm.3,4.58-.17,0-.09,0v0l.09.13h.26l0,0,.09.13.17,0v-.17l-.17,0v0h-.05Zm-.21-5.91.13.08.17,0h0l.09,0,.08-.08,0-.17-.13-.18-.13.05,0,.17-.09.08Zm.3,3.21-.09,0-.08.08-.05.13.09.09.08,0,.09,0,0-.13Zm.47,3.9L21,33l-.09-.25-.09-.13-.12.13-.22,0,0,.17v.17l.17,0,.13.08.08,0,.09.12.09.05,0-.09Zm-.39-1.5h.09l.13-.08V31.6l-.09,0-.08-.09-.09,0,0,.13ZM21.15,28l0,.13h.17l.09-.09,0-.13,0-.12h-.13l-.13.12Zm.34-1.59,0,.09.09,0,.09,0,0-.09v0l-.13,0-.09,0Zm.34,2,.09.21.21.05.22.08.13.13.13.17.12.09.22-.05L23,29l-.13-.09-.25-.21-.31-.17h-.08l-.13,0,0-.17L22,28.22Zm.35,2.1-.09,0,0,.13h.09l.08-.13.13,0,.09-.13.17,0,.13-.12,0-.18V30l-.17,0-.08.13L22.35,30,22,29.89l.12.3Zm-.09-5.14.13.12.17,0v-.09l-.13-.08Zm.13,1.8h0l-.05,0v.08l.05.09h0l0,0v-.13Zm.17,2.44,0,0,.09,0,0-.13-.08-.13h-.13l-.05.13ZM22.56,28l-.17.09.43.17L23,28l0-.13,0-.09-.17.09-.13.17Zm4.8,1.29.86-1.5.3-.43.09-.47,0-1.5h.51l.17,0,.3.13.09.17.09.26.12,1.15v.09l-.12.47-1.16,1.93-.94,1.5-1,1.5-1,1.54-1.2,1.42-.34.55-.56-.3-.65-.25.22-.35,1.24-1.45,1-1.5,1-1.5Zm-4-1.93.08.08.09,0,.08,0v-.08l-.08-.05h-.09Zm.34,1.11-.09,0h-.08l0,.08,0,0,.08,0,.09,0Zm-.13-1.88.17-.09.09-.13v-.08H23.8l-.12.08Z"/><path class="cls-1" d="M44.72,27.4l0,.39,0,.34.82,1,.77,1,.73,1,.68,1.07.26.17.3.05.3-.13.26-.22.77-.94.77-1,.09-.25-.09-.26-.17-.17L50,29.41l-.42.05-.43-.13-.43-.17-.17-.43V27.44l.13-1.28-.13-1.29,0-1.28.09-.3.08-.18.43-.17.94-.08h.73l1.67.13,3.35.08L57.5,23l1.71-.13,1.67-.09,1.68.09.38.21.13.52.17,1.32v1.33l.13,1.33-.09,1.37,0,.17-.17.35-.21.13-.26.13-.6,0-.56-.09-1.16-.13-.25.09-.22.3-1.16,1.41-1.11,1.5-1.07,1.5-1,1.5-1.11,1.5-1,1.55,0,.17,0,.26,0,.21.13.17.81,1.2L55.18,42,56,43.17l.86,1.16.77,1.24.81,1.16.13.13.17.09.34.08,1.85-.21,1.28-.13.6.08.3.09.22.17.21.3,0,.22.09.6-.13.81-.21,1.41.13,1.38,0,.77-.09.64,0,.17-.13.22-.26.08h-.25l-1.5.22-1.55,0h-1.5l-1.54,0-3.09-.08L52,53.93l-.77,0-.73-.09-.3-.08-.13-.13L50,53.12l-.13-1.89v-2.1l0-.21-.86-1.16-.85-1.11-.86-1.08-.9-1.07-.43-.21-.38.26-.69.85-.73.9,0,.47.17.22.21.08.43,0,.43,0,.39.3.13.18,0,.25L46,49.13l-.09,1.37,0,1.33v.56l-.12.77-.09.3-.13.17-.3.13-.17,0-1,.09-.68-.09-1.72-.17-3.43.17H36.54l-1.72.05-1.71.08-1.72-.17-.3,0-.21-.13-.17-.17-.09-.26-.13-.73.05-.64.08-1.42,0-1.41.17-1.37.17-.47.3-.22.13,0,.3,0H32l.69.08.77.17h.51l.35-.12.25-.26,1.07-1.5,3.09-4.63L39.75,39l.9-1.59.09-.13.08-.21,0-.17-.08-.22-.78-1.16-2.7-3.34L36.54,31l-.77-1.16-.26-.26-.34-.13h-.3l-.6.05-.43.13-.69.13-.6,0-.43-.26L32,29.2l0-.3-.13-1.33.09-1.33V24.91l.17-1.32,0-.35.05-.21.12-.17.26-.13.47-.05.95.05,1.45.21,2.83.09,4.25-.26h.6l.81.13.3,0,.17.13.13.26,0,.26.22,1.88ZM48.2,50.16l-.05-.26L48,49.73l-.39-.3-.43,0-.26,0,0,1.07,0,1.33v.56l-.13.94-.12.6-.09.43-.17.26-.22.13-.21,0h-.43l-.38,0-1.2.09-.69-.09-1.67-.17-3.34.17H36.54L33,54.92h-.13l.09.6.09.26.17.17.21.13.3,0,1.72.17,1.71-.09,1.72,0h1.71L44,56l1.71.17.69.09,1-.09.17,0,.3-.13.13-.17.08-.3.13-.77v-.56l0-1.33.08-1.37ZM34.35,31.56l.13.21.43.26.6,0,.43-.08-1-1.55h-.08l-.39,0-.26,0,.09.73Zm.3,18.56-.08,0-.22,0v.17l.17.13.17-.09.18-.13-.18-.08Zm.17-1.37-.17,0-.08,0,0,.12.17,0,.21,0,0-.26Zm2.06-.69-.09-.17-.21,0,0,.22v.08l.3.3.43-.13L37,48.27Zm1.42-1,.08-.08h0V46.9l0-.08,0,0,0,0h0l-.08,0H38l-.13.09V47l0,0,.21,0Zm-.18,1.59v.25l.13.09h.13l0-.13v-.08l-.12-.13Zm.52,2.4.17-.05.09-.12-.18,0Zm.64-4.46h-.17l.08.26h.09l.09,0v-.12Zm1,2.36,0,0-.05.09-.13,0-.12.08-.22,0,0,.08v.09l0,.21.09,0H40l0,0,.08,0,.18-.13.17-.25,0-.13V49l0,0-.08-.09Zm-.26,2.53h0l-.09.08v.09l0,0h0l.08,0v-.13Zm1.67-20.92v-.09l.05,0-.13-.09-.09-.08-.08.17.08.13ZM42,44.07,41.77,44l-.22,0,0,.17.13.17v.3l.21-.12,0-.26h0l.08-.13Zm.17-10.71,0-.09L42,33.19l-.26.13-.08.3H42ZM42,31.73l.22-.43-.09-.3L42,30.91,41.9,31l0,.3Zm-.08,2.4,0,.26.08.13.17-.09.22-.09-.13-.25Zm.25,11.74V45.7l.09-.13,0-.12h-.13l-.09,0-.08.13,0,.17.13.17.13.13v.26l.08.21h.13v-.34L42.32,46ZM42.11,42l.21-.09.13-.13,0-.08h0l-.18.08Zm.52-9.6v-.09l-.13-.09-.13,0v.13l.13.12.08,0ZM43,36.7l-.09-.13.17-.13.22-.12.13-.13.08-.17-.85-.09-.05.21.13.18v.34l.34.21ZM42.67,34l.08.08.09.05,0,.55.52.3-.18-.51L43,34l0-.34-.25-.3ZM43,35.72v-.35l-.17-.21h-.13l0,.08.13.22Zm.81,1.07-.21-.09-.17.17L43.1,37h-.18l-.12.13.08.09.52.26.42.08.18,0,0-.26L44,37Zm-.51-3.52.51,0h.65l-.6-.47-.6-.22-.3.09-.13.38.17.26Zm-.34,12,0,0,0,.09,0,.08.09,0,0,0,.05-.09-.05,0Zm.47-13.08,0-.08,0,0,0,0-.08,0-.09,0,0,.09Zm.13,3.22-.09.08,0,.13.09.13.17,0,0-.12,0-.13-.08-.13Zm.55-.77.35-.35-.56-.68,0,.38.38.13-.08.26Zm.09,2,.13-.13h.21l.17.17.39.26.43,0,0-.09v-.08l-.34-.17-.34,0-.22-.22-.26-.17-.21-.08-.17.13-.09.17.09.13Zm.77.86.09-.26,0-.13,0-.08-.21.08-.13.22-.13.13h-.26l0,.25.21.09.18-.13h0Zm-.51-4.67.17,0,.13-.17-.05-.22-.12-.12-.18-.13-.12.21,0,.3Zm0,2.74.13.26.17-.17V35.5l0,0h-.09Zm.9,3.17L45,38.63v-.21l-.17-.05-.13.13.13.17v.26l.13.21-.17.18,0,.25.17.22.26.08.13-.13-.09-.25.13-.13.17-.13.17-.17.13-.21Zm-.56-4.46.17.35v.43l.43-.39-.13-.64L45.24,34l-.3-.13-.22.22.05.13ZM45,32.2l.17,0,.09,0,0-.18-.13,0-.22-.08v.25Zm2.15,3.43-.26.13-.3.17-.52-.13-.47.13-.51-.26-.13.26,0,.43.39.08.3.09,0-.3.3-.09.21.35.09.3.3.13h.3l.17-.18L47,36.53l-.22,0-.13-.13.09-.17L47,36l.21-.25.21-.13v-.3l.18-.17.21-.18-.34-.51L47,34l0,.47.13.3v.3l0,.35,0,.08Zm-2.06-2.1,0,.13,0,.13.17,0,.3.17.3.13,0,0V34l-.21-.26-.26-.25-.13-.09-.13,0Zm.25,4.89.13-.09.13,0v-.17L45.45,38l-.17,0-.08.09,0,.21Zm.48-13-.09,2.31.47.56.77,1,0-1.59-.09-1.76,0-.25-.13-.26-.17-.13-.3,0-.52-.09Zm.51,14.36,0-.13-.17-.13-.17,0-.13,0v.08l.17.17h.22Zm.09-4.46.34-.47-.17-.6-.35-.17-.17.3v.25l0,.26,0,.34ZM47.6,40l.21.13h.26l-.17-.38-.3,0-.52.43-.51.09-.22.13-.08.25.13.13.17,0,.43-.26.42-.21.09-.09Zm-1,1.85-.09,0v.13l.09.08.13,0,0,0,0-.09-.08-.12Zm.6-4.8v.13l.17.17h.26l.08-.13,0-.17L47.47,37l-.17,0Zm.34-.39v-.13l0-.17,0,0-.09,0-.08.12,0,.13,0,.09Zm.34,4.54L48,41v-.3l-.47.43.21.47.09.17H48v-.3Zm.22,1.38L48,42.7v.13l.13,0,.09,0,.08-.13v-.08l-.13,0Zm.38,1.88v.13l0,0h.08l.05,0v0l-.05-.09Zm.43-4.67L49,40l.13.13.08-.17v-.09l0-.17H49l.09-.17-.18-.34-.21,0-.08.22,0,.21.17.17H49Zm0,3.56,0,.13.13,0,0-.13Zm.43-2.19V41l-.13,0H49l0,0,.17.17Zm-.17,2.27v.26l.13.22.08,0,0,0,0-.22Zm1.54,1,0-.09-.09-.12,0-.13-.17,0-.13.09,0,.17-.09.13.13.09.21.08h.35l.08,0,0-.09Zm-.39-4.54,0,.17h.25L50.42,40l-.08-.08v-.13l0-.09-.09.09Zm.26,1.15,0,.13h.09l.13-.08,0-.17-.08-.13H50.6l-.09.08Zm.3,1.63H50.6l-.09.13,0,.13h.22l0-.13Zm.39-1.41h-.26l-.21.3.12.34.13-.21.17-.13.05-.09.08,0Zm1.41,5.61-.13,0-.34.09L52,46.82h-.22l0,0v0L52,47h.26l.12,0,.13.08.05.09h.08l.09,0V47Zm-.43-4.2h0l.08.13h.13V42.7l-.13-.08v0l0,0v-.17l-.13-.09h0l-.05.09v.17l.13.13ZM66,50.5l-.09-.6,0-.21-.22-.3-.21-.17-.3-.09-.6-.08v0l-.21,1.28.12,1.29,0,.77-.09.86-.08.64-.09.39-.17.17-.3.13-.43.08-.47,0-1.67.12-1.5.05H58.18L56.6,55l-3.05-.09L52.27,55l0,.52.13.47.13.13.3.08.73.09.77,0,1.54-.09,3.09.09,1.54,0H62l1.54,0L65.09,56h.25l.26-.09.13-.21,0-.17.09-.65,0-.77-.13-1.37.22-1.41ZM52.4,47.68h-.09v.12l0,.09.09,0v-.13Zm.42-3.31,0,.09v0l.09.09.13,0v-.09l0-.09Zm.86,2.79-.13,0-.08,0v.18l.17.12v.05l0,.13h.09l.17-.13,0-.17-.12-.09Zm10.59-21,.13,1.29-.09,1.11v.73l0,.26v.25l0,.26-.13.34-.09.13-.17.13-.34.09h-.3l-.52.08-.55-.08-.86-.09-.69-.08L59.47,32,58.4,33.44l-2.14,3L55.18,37.9l-.85,1.33.17.22.73.89.55-.89,1.12-1.51,1-1.5L59,34.94l1.11-1.5L61.27,32l.21-.3,1.16.17h1.63l.56-.13.26-.13.21-.13.17-.34,0-.17.13-1.07,0-1.33V27.27l-.17-1.33-.13-.51-.39-.22-.64,0ZM55.4,48.57l-.13-.12,0,.17.08.17h0l0,0Z"/><path class="cls-2" d="M4.91,15.07l-.31.18-.14.07-.18.06H4.14l0,0-.06,0-.1-.18,0-.14-.11-.33-.19-.3-.09-.18,0-.14,0-.1.1-.06.22-.1L4,13.7l.06,0,0-.07V13.5l0-.08-.24-.68-.32-.65-.15-.33-.14-.33L3,10.79l-.15-.33-.16-.33,0-.06-.06,0H2.47l-.06,0-.24.13-.09.05-.14,0H1.82l0,0,0-.06-.17-.28L1.16,9l0-.08,0-.07.29-.18.33-.14.33-.13.33-.14.31-.15L3,7.93l.66-.25.65-.28L5,7.11,5.31,7l.33-.14L6,6.74l.35,0,.37,0,.34.06.35.09L7.74,7,8,7.22l.23.29.2.29.16.32.16.34.09.33,0,.36,0,.36-.1.34-.14.33-.21.28L7.91,11l-.28.23-.31.18L7,11.54l-.29.12-.28.11-.54.29-.05,0v.06l.13.26.12.26,0,0h.06l.31-.16.22-.1.11,0H7l0,0,0,.06.08.12,0,.16.11.31.15.28.07.15,0,.14v.11l0,0,0,0-.31.17-.34.12-.31.16-.31.17-.65.28ZM3.17,9h0l0,0H3.16Zm.37-.69,0,0,0,0h0Zm0,.4h.07V8.69l0,0,0,0H3.63l0,0h0v0Zm.14-.29h.06V8.32l0,0v0h0l-.05,0v.09l0,0h0v0ZM3.9,11l0,.05V11h0Zm.34.47,0,0h0l.06,0v-.06l0,0v0h0l0,0Zm.09-2.82,0,0h0l0-.05h0Zm0,3.69,0,0h0l0,0h0Zm.1.55,0,0,0,0,0,0h0l0-.06,0,0v-.07h0v0Zm0-4.78h0l0,0,0,0h0V8h0l0,0,0,0,0,0,0,.06v0Zm.09-.54h0v0h0v0Zm.36,2.57.15.28,0,.05.06,0h.12l.16-.07.11-.05.41-.18.23-.08L6.32,10,6.46,10l.12-.11.09-.12.08-.13,0-.14,0-.14V9.15L6.77,9l-.09-.14-.11-.1-.13-.06-.14,0-.14,0H6l-.16,0-.15,0-.31.14L5,9l-.31.13-.06.06,0,.08,0,.08,0,.09Zm-.3,1.51h.15l0,0,0,0,0,0v0l-.06-.06H4.69l0,0v0H4.6v.07Zm.08,1.64v.05h.07l.08-.06,0-.11,0,.06,0,0Zm0-1.87,0,0h0v0h0l0,0Zm3.07,1.4.07.12.06.16.1.31.2.44.05.12v.11l0,0-.05,0-.3.16-.3.13-.32.16-.3.18-.66.27-.64.3-.31.17-.14.08L5,15.66H4.87l0,0-.06-.05,0-.12L5,15.29,5.65,15l.66-.28.31-.17.3-.16.34-.12.32-.17.09,0,.1-.08.06-.08,0-.11,0-.16,0-.14-.08-.19L7.51,13l-.09-.27,0,0,.09,0h.13l0,0ZM4.84,8.55H4.78v0h0v0H4.9l0,0v0h0Zm-.06-.83h0l0,0h0Zm.43,2.51L5.1,10l-.3-.67.28-.14.42-.17.29-.13.13-.05.11,0h.12l.1,0,.11,0,.07,0,0,0h0l-.31.12-.42.17-.32.15-.1,0-.06.06V9.6l.24.52-.07,0-.09,0Zm-.35,3.51H4.8l0,0,0,0,0,0,0,0h0v0Zm0-5.6h0v0l0,0h0V8.16Zm0,4.83h.06l0,0v0H4.9l0,0Zm.32-.47,0,0-.06,0H5l0,0H5v0l0,0,0,.06v.05h.1v0Zm0-4.25-.09,0,0,0,0,0v0h0l0-.05h0Zm0,5.67h.05l0,0v-.05l0,0,0,0,0,0Zm.26-1.06,0,0v0l0,0Zm.12-4.58,0,0,0,0,0,0,0,0H5.57Zm.11,4.27h0v0h0Zm0-4.63,0,0h.07v0l0,0Zm.24-.59,0,0h0l0,0h0l0,0Zm.3.44-.07,0,.06,0h.06l0,0v0Zm2.94.37.17.37.11.36,0,.43,0,.39-.1.38-.19.4-.22.29L8.62,11l-.25.27-.28.24-.34.2-.35.16-.56.24-.25.12-.2.09-.15.08-.1-.23.4-.21.27-.1.3-.13.34-.17.34-.2.28-.24.25-.26.26-.28.22-.28L9,9.93l.1-.39,0-.39,0-.43L9,8.36,8.81,8l-.15-.28-.22-.35-.16-.19.19.1.22.19,0,0L9,7.85ZM6.26,8.06v.07h0l0,0v0ZM6.35,8v.06L6.4,8l0,0h0Zm0-.26,0,0h0l0,0v0H6.42Zm.05.2,0,0V8h0l0,0,0,0V7.94h0l0,0,0,0H6.49l0,0Zm0-.65h0l0,0v0H6.46Zm.09.44,0,.08h.09l0,0,0,0v-.1l0,0H6.61l-.06,0Zm0,.61v0h0v0ZM6.63,7.1h0V7h0V7.1Zm.15,1.17,0-.06h0l0,0v0h0l0,0h0Zm-.13-.93,0,0h0v0h0Zm.11.23,0,0h.06V7.55l0,0,0,0,0,0h0v.06Zm.06-.35h.06v0h0v0h0Zm.13,1H6.89v0h0l0,0h0v0H7Zm0-.23L7,8,7,8V8l0-.06h0l0,0Zm0,.41h0v.06l0,0V8.38Zm0-.68,0,0v0l0,0,0,0,0,0v0L7,7.69Zm.16,1.15h0v0l0,0h0v0ZM7.44,8H7.38l-.07.06,0,0h-.1l0,0h0v0l0,0h0v0h0l.07.06v.14h0l0,0,0,0,0,0,0,0h0l0,0,0,0,0,0,0,0,0,0,0,0V8L7.5,7.92l-.07,0,0,0,0,0H7.31v0h0l0,0V8h.09Zm-.28.53,0,0,0,0h.06v0h0v0h0v0l0,0h0l0,0v0H7.23l-.05,0,0,0,0,0h0Zm0-.55h0l0,0h0V8Zm.06.94H7.18V9h0l0,0Zm0,1.13,0,0h0v.06h0Zm0-2.75,0,0h0l0,0v0h0l0,0Zm0,.35,0,0h0l0,.06,0,0h0l0,0v0l0,0,0,0h0ZM7.3,8.92h0l0,0H7.32ZM7.36,10h0l0,0V9.89l0-.05h0l0,0v0l0,.07Zm.29-1.39v0l0-.05h0l-.09,0H7.42l-.06.07,0,.08h0l0,.05h.22Zm-.27.89h0Zm.16.14,0,0V9.54h0v0h0l0,0h0l0,.05H7.39v0h0l0,0,0,.11v0h0l0,0h.06v0h0V9.68Zm0-.72,0,0V8.83h0l0,0H7.44l0,.07,0,0v0h0v0h0l.06,0,0,0h0Zm-.14.28v.05h0l0,0V9.19h0Zm.06.74h0l0,0ZM7.55,8.4h0l.06,0h.07l0,0v0h-.1l-.07,0v.06Zm0-.57,0,0h.06l0,0v0l-.06,0,0,0,0,0Zm.15,2.23h0l0,0,0,0,0,.05v0l.09,0,0-.08h0Zm.11-2L7.71,8h0l0,0V8l0,.05,0,.08h0l0,0h0l0,0,0-.06Zm-.06.5,0,0h0l0,0h-.1l0,0h0Zm-.06.9h0l0,0h0Zm.05.41h0l0,0,0,0h0l0,0v0h0l0,0ZM7.8,8.67,7.73,8.6v.17h0v0h.08l0,0v0Zm0,1.37v0h0l0,0H7.78l0,0Zm.08-.91H7.76v.09l0,0h0v0l0,0v0Zm.08.61,0,0,0,0h0l0,0v0h0l0,0h0Zm0,.19-.07,0,0,0,0,0H8Zm.06.28H8l0,0,0,0v0h0L8,10.25v0ZM7.91,8.66v.1h0v0h0l0,0h.12V8.7h0l0-.08L8,8.59l0,0,0,0,0,0v0ZM8,10.25H8ZM8,9.09h.08V9H8l0,0Zm.05-.64,0,0,0,0h0l0,0,0-.05,0,0,0,0,0,0h0v0h0Zm.08.22h0l0,0h.05v0h0l0,0Zm.1.7,0-.06h0v0h0v0l0,.05h0l0,0V9.37Zm.08-.82h0l0,0,0,.05v.18h0l.06,0V8.64l0-.07Zm.09.88v.11l0,0v.07l.05,0,0,0V9.5Zm0-.17h0l0,0v0l.05,0v-.1Z"/><path class="cls-2" d="M15.09,11.05H15l-.06,0,0,0,0-.06-.13-.48-.07-.25-.07-.26V9.83l0-.07.05,0,.1-.05.08,0,.07-.05,0-.07V9.34l0-.05-.08-.11-.08-.1,0-.05-.06,0-.06,0H14.5l-.36.13-.35.14-.8.18h0l-.33.12-.33.1-.08.07,0,.11v.29l0,.06,0,.05.07.06.06,0h.07l.19-.06h.07l.08,0,.07.06.06.08.08.26.08.24.07.26.07.24,0,.1,0,.08-.05.06-.07,0-.75.25-.79.25-.8.2-.74.25H9.88l-.08,0-.05-.1-.09-.28-.07-.28-.11-.28-.11-.28,0-.1,0-.09.06-.06.08,0,.47-.17.06,0,0-.07.07-.59.07-.34.06-.35,0-.34.05-.34,0-.35,0-.34,0-.34.05-.36,0-.34,0-.38V6.68l-.06,0h-.1l-.37.11H10l-.09,0-.05-.06,0,0-.09-.27L9.62,6l-.17-.56,0-.11.05-.1.08-.06.34-.12L10.22,5l.35-.07.69-.17.33-.09.67-.25h0l.64-.17h.13l0,0,0,0,.44.54.27.29.25.28.27.26.28.28.25.27.25.29.24.29.25.28.24.31.23.29.23.3.24.28.24.24.24.23.07,0h.08l.22-.06.22-.08h.07l.06,0,0,0,.05,0,0,0,0,.05L18,9l.1.27.08.3.08.29V10l0,0,0,0,0,0-.05,0-.73.25-.39.08-.41.11-.38.14-.39.13h0l-.37.09Zm-1.5-.34,0-.05-.08-.06-.1,0h-.17v0l.09.26.07.25.08.25,0,.15,0,.09,0,.11-.07.09-.07,0-.11.05-.08,0-.76.25-.8.25-.79.2-.18.05,0,.12,0,.08.07.07h.16l.74-.25.81-.2.54-.17.75-.25.07-.06.05,0,0-.08v-.1l-.07-.24-.07-.25L13.69,11ZM10.84,8.62l0-.1.07-.09,0,0,.13,0,.08.09.1,0,0,0,0,.07.05,0,0,0,0,0-.06-.07,0,0-.05,0-.06,0,0-.08,0-.07,0-.06-.05,0h-.06v0l0,0v0l0,0h-.2l0,.06h-.12v.14l0,.13Zm0,.65,0,0,.05.08v0l0,0,0-.05h-.05Zm.21-.6,0-.07,0-.06-.13,0,0,.13,0,.08.07,0h0v0Zm0,.32,0,0,0-.06,0-.07h0V9h0l.06,0ZM11,8.23l0,0v0h0l0,0v0h0Zm0,1,0,0h0l0,0V9.3l0,0,.05,0,0-.05Zm0-2.15,0,0V7h0l0,0v0l0,0Zm0,1.08,0,0v0l0,0h0v.08h.07Zm0,.83h.06V8.92l0-.09,0,0,0,0-.13,0-.05.12h0l0,0Zm.12.25-.07,0,0,0,0,.17,0,0,0,0v0l.08,0,0,0,0,0V9.33l-.06,0Zm0-1.65,0-.06v0l0,0,0,0v.08l0,0Zm0,1.88h0v0h.05Zm.1-.44L11.37,9h-.1v.19l.06-.05Zm0,.78,0,0h0l0,0v0l0-.09-.07.06Zm0,.17h0l0,0v0h0l0,0v0l0,0Zm0-2.72h0V7.19h0v.07Zm0,2.27h0v0l0,0h0l0,0v0Zm0-.79h0l.06,0V8.68h0Zm.14-.21,0,.12,0,0h.06l0,0v0l0,0h0l0,0V8.52l0-.08-.09-.06h0l0,0,0,.07Zm.16-.92-.1,0h-.06l0,0,0,0,0,.09,0,.05h.15l.1.06h.06l.05,0v0h0Zm-.1,1.65,0,0,.06-.09,0-.06,0-.06v.21l0,.06v.08l0-.06Zm.14-1.94v0h0l0,0v.07h-.06l0,0h.15Zm-.15,1.11v0h0l.06,0h0l0,0,0,0,0,0h-.08l-.05,0,0,0Zm0,.39v.08h0V8.83l0,0Zm0,.6v0l0,0h.06l.06,0-.07,0Zm.09-1.17,0,0v0h-.09v.05l0,0Zm.18-.3,0,.06h-.18l.08.09,0,.09,0,0,0,0h0v0l0,0,0-.05,0,0,0,0V8l0,0Zm-.19,1.29v0l.06,0,0,0v0h-.09Zm.08-1.33V7.83l0,0h0v0l0,0ZM11.67,9v0h0V8.91L11.66,9Zm.18-.28v0H11.7l0,0,0,0,0,0,.08.06,0,0v0l0,0,0-.08Zm-.12-2v0h0l0,0v.08l0-.06Zm.14,1.84-.06-.07-.05,0v0l-.06,0v.06l0,0h.13l0,0h0v0l0,0Zm-.09-1.52h0l0,0v0h0v0Zm.17.33h-.06v0H12Zm.1-1.54H12v0l0,0,.1,0Zm.09-.31h-.06v0h.1l0,0h0Zm1.18,2.2.07,0,.06-.09V7.43l0,0-.17-.21L13.07,7l-.16-.2-.15-.22-.07,0H12.6l-.09,0-.07,0,0,.08v.53l0,.27,0,.25v.08l.05.08.08.06.08,0h.07l.36-.1Zm1.09,1.89.09-.1.05,0,.14-.07v0l0-.08-.07-.09h0l-.31.11-.39.16-.79.18-.32.11-.27.08v.21l.14,0h.16l.11.05.72-.22.33-.11.4-.09ZM12.65,5.53l0-.1h0l0,0h0l.06.09h.09Zm.2,2.07,0-.3V7.13l-.25-.34v.37l0,.3,0,.21ZM13,5.7l0,0,0,0v.06l0,0h0l0,0Zm-.07.54h0l0,0h0Zm.27-1-.07,0-.06,0H13l0,0h0l.05,0h0l.08,0h.11l0,0,0,0Zm0,1.19h0v0h0v0h0Zm.13-.54-.07,0h0v0h0V6h0l0,0V6h0l0,0,.05-.1,0,0v0h0Zm.54.41h-.1l-.05,0h-.07l.07,0h.07l0,0,0,0v0h0l0,0v0l0,0Zm-.07-1.63.25.28.25.27.26.26.54.56.25.29.49.58h0l.22.3.24.29.23.3.23.28.23.22.19.19.18-.05.05,0L17,7.93l-.23-.3-.24-.31L16.32,7l-.24-.29-.25-.28-.25-.29L15,5.65l-.25-.28-.27-.28-.43-.54L14,4.49h-.14l-.17,0Zm0,.82h0v0l0,0,0,0,0,0v0h0Zm0,1h0v0l0,0h0V6.48Zm.34-.15,0,0h0v0l.05,0v0h0l0,0v0l0,0Zm.46.36v0h0V6.68l0,0ZM15,8.23h0v0l0,0v0l0,0Zm.48.3,0,0h0l0,0h0l0,0v.05l0,0,0,0,0,0Zm.24.65,0,0,0,0h0v0h.06Zm.06-.63,0,0h0l0,0h0l0,0v0l0,0h0l.08,0,.05,0h0l-.06,0Zm-.05-.14h0l0-.05h0v0Zm3,1.27-.19-.57,0,0,0,0-.05,0,0,0-.06,0h-.06l-.05,0,.17.56.08.28,0,.14V10l0,.1,0,0-.05.06-.05,0-.07,0-.11,0-.36.12-.79.22-.39.1L16.3,11l-.54.17v.09l0,.06.06,0,.07,0H16l.37-.1.37-.1.4-.13.38-.14.41-.1.39-.09.38-.13.08,0,.07,0,.06-.06,0-.08v-.09L18.87,10ZM16,9.62l0,0h0l0,0h0v0h0l0,.06,0,0v0h0v0l0,0Zm.35-.54h-.1v0h0l0,0h0v0h.05l0,0V9.11l0,0Zm0,.49h.05v0h0l0,0h-.05v.06l0,0Zm.11.24,0,0v0h0l0,0,0,0h0l0-.09-.08,0Zm.18-.63h0v0h0ZM16.69,9h0Zm.11,1.12,0,0h0l0,0h0v0Zm.25-.17h0V10l0,0,0,0v0Z"/><path class="cls-2" d="M19.73,9.9l-.34.09-.34,0-.13,0-.06-.1-.08-.33,0-.32-.11-.32-.05-.32,0-.12.12-.08.31,0,.31-.06,0-.06,0-.1-.06-.38L19.16,7l-.06-.38L19,5.88l-.1-.38-.1-.37,0-.38-.08-.39-.06,0-.11.06-.27.07L18,4.5l-.12,0-.09-.12L17.72,4l0-.33-.1-.31-.05-.32,0-.11.11-.05L18,2.8l.35-.06.34,0,.34,0,1-.23.67-.12.34,0h.12l0,.09.09.3,0,.33.08.32,0,.32v.12l-.09.07-.26.08-.28,0-.09,0,0,0,0,.38.1.37.06.38.22,1.14.08.37L21.3,7l.06.37.08.39,0,.1,0,0,.34,0,.34-.06h.14l.06.08.09.32.06.33.06.32,0,.32,0,.12-.1.06-.33.08-.36,0-.33.07-.34.09-.34.06-.33.07ZM18.22,3.74l0-.05h-.05l0,0Zm.42-.1,0,0h0v0l0,0h0l-.05,0h-.06l0,0,0,0Zm.18-.35h0v0h0v0Zm.1.16v0H19l0,0,0,0h.05l0,0v0h0l-.06,0,0,.06,0,0h-.08Zm.39.67h0v.07l0,0,0,0v0l0,0,0,0h0Zm0-.16,0,0v0h0V4Zm3.73,4.69.05.32.06.32,0,.32,0,.12-.1.06-.33.08-.35,0-.33.07-.35.09-.33.06-.34.08-.68.13-.34.08-.34,0-.13,0-.06-.1,0-.12.31-.08.67-.13.34-.07.34-.07.67-.15.34,0,.35-.09.07,0,.1-.06.09-.06,0-.09,0-.12V9.16l0-.35-.06-.32,0-.23.1,0h.13l.07.08ZM19.61,4.48h.07l.05-.07,0-.09,0,.06-.06,0h0v.07Zm.21,2.15v0h-.07l0,.06.07,0,.06,0Zm-.12.22,0,0h.09l0-.06h-.06Zm.11.75.08,0h0v0l0,0,0-.07-.05,0,0,0h-.08l-.05,0,0,0v0l0,0Zm-.06-.39,0,0v.12l.06.06V7.36l.09,0,0,0,0,0-.09,0Zm0-3.09h.06l0,0v0h-.05v.07Zm0-.49h0l0,0,0,0v0h0l.05,0v0h0v0h0v0l0,0-.06,0h-.1Zm.08,1.17h-.05l.05,0v0l0,0h0l0,0Zm0,2.26,0,0,0,0,0,.07,0-.06V7.08Zm.07-1h0l0,0V6l0,0,0,0V6Zm0,.73v.05h0v0l0,.12.09.09V7l0-.1V6.78l0-.08Zm0-.46L20,6.24V6.16h0l0,.07Zm0,.17,0,0h0v0l0,0h0v0ZM20.1,8.1h0l.05,0,0,0-.1,0-.07-.06v0l0,0,0,0,0,0L20,8V8l-.06,0v0l0,.06,0,0,0,0V8.12ZM20,7.27V7.19H20v.07Zm.18.37,0,0h-.05l0,0H20l0,0,0,0h.14l0,0Zm.14-.85-.09-.14-.11-.09h-.08L20,6.63l0,.07h.06l.12,0Zm-.22.62,0,0,0,0,0,0v0l0,0h.09l0,0,.07.08.1,0v0l-.05,0-.08,0Zm.05,1.3h-.05l0,0v0h.06Zm0-3.87,0,0,0,0v0h0v0h0l0,0Zm0,3h-.08v0l0,0h.06V7.84Zm0-1.37,0,0,0,0h0v0h0Zm0,.5-.06.09.09,0-.06-.18,0,.07Zm0,1.23h-.07v.06l.06,0h0v0Zm.34.17,0,0-.08,0-.07,0h-.17l0,0v0h0l.11,0h.11l.06,0,0,0,.05,0Zm-.4-1.09v.06l.06,0V7.26h0Zm0-3.34h0L20.2,3.9Zm.6,3.34,0,.13,0,0v0l-.14,0-.11-.07h-.11l-.1-.1,0,0,0,.1.08,0,.05,0,0,0h.09v.15l.06,0,.06,0,.06,0v0l0,0,0,0,0,0,.07,0,.06,0h.06l0-.07.06,0,.05,0,0-.12-.08-.12,0,.1Zm-.5-3.63h.05v0l0,0h0Zm.08,3.29-.06,0,0,.14,0,.09.11,0,0-.14V7h0Zm.05-.28,0,0,0,0,0,0v.07l0,0,0,0,0,0Zm0,2.32h-.07V9l0,0h0Zm.1-.4-.13,0v.16h0l0-.06V8.66l.05,0Zm-.05-1.71h0V7h0l.06,0,.05,0V7l-.06-.13,0,0Zm.06-.36,0,0v0l0,.05h.06v0l0,0Zm0,2.78,0-.08,0,.06v.06h0Zm.17-2.15-.06-.06-.06,0,0,0,0,.05,0,.08.07,0,.1-.06Zm0,.66,0,0h-.07v.07l.06,0h0Zm0,.93,0,0h0v0l0,0h0Zm0-1.08h0v0l0,0v.07l0,0Zm.07.67h0l0,0v.05l0,0h0l0,0V8.32ZM21.58,4l.09,0,0-.1,0-.09,0-.16,0-.36L21.6,3l0-.24h.26l.05.1.09.3,0,.33.08.31,0,.27v.12L22,4.22l-.26.08-.28,0-.07,0,0,0,0,.38.1.37.07.39.21,1.13.08.37.09.39,0,.16-.22,0-.09,0-.06-.31-.06-.39-.08-.38-.09-.37-.21-1.14-.07-.4L21,4.29V4.18l.18,0,.28-.06.07,0ZM21.1,8.81l0,0,0,0v0h.05l0,0Z"/><path class="cls-2" d="M24.06,9.13l-.32,0-.22,0h-.13l-.05,0,0-.06-.05-.19V8.57l0-.39V7.65l0-.05,0,0,.06,0,.15,0,.22,0,.14,0,0,0,0,0,0,0v-.3l0-.3-.06-.44-.06-.29-.05-.44-.07-.74V4.6l0-.45v-.3l0-.22,0-.06,0,0,0,0H23.3l-.2,0h-.2l0,0,0,0,0-.06-.05-.19L22.72,3l0-.38V2l0,0,.06,0,.22,0,.32,0h.22l.53,0h.23l.37-.06.15,0,.6-.07.38,0,.38,0h.15l.44,0h.16l.37,0,.38-.05.38,0,.22-.05.31-.07h.22l.06,0,0,0,0,.05.1.41.06.56,0,.28.06.56,0,.36v.13l0,0-.06,0-.17.05h-.46l-.18,0L28,3.9l-.25,0-.05,0,0,0,0-.06,0-.13V3.18l0,0h-.26l-.36.08-.26,0-.63,0-.26,0-.07,0,0,0,0,0v.06l0,.24,0,.33,0,.22,0,.07,0,.05h0l.08,0h.2l.15,0,.14,0,.21,0,.21,0,.14,0h.42l.06,0,0,0,0,.06,0,.19v.46l0,.19,0,.26v.26l-.08.09-.06,0-.19,0L27,6h-.2l-.19,0L26.5,6l-.33,0-.11,0L26,6.17l-.06.09v.1l0,.21,0,.15,0,.13,0,.21,0,.05v0l0,0h0l.27,0,.36-.06L27.46,7h.19l.26,0H28l0,0,0-.16,0-.12,0-.12,0-.17V6.33l0,0,0,0,.07,0,.18,0,.25,0,.19,0,.31-.06.13,0h.26l.05,0,0,0,0,.07,0,.21,0,.3V7l0,.21.05.27,0,.22,0,.21.05.29v.28l0,.06-.05,0-.06,0-.22,0-.16,0h-.16l-.23,0-1.76.17h-.55l-.23,0-.3.06-.23,0-.54,0-.47,0-.31,0Zm6.33-.62,0,.15v.28l0,.05,0,0-.07,0-.22,0h-.55l-1.76.18h-.16l-.38,0-.23,0-.31.06L26,9.49l-.61,0-.31,0-.23,0-.23,0-.15,0-.47,0H24l0,0,0-.05,0-.14.2,0,.22,0,.38,0,.61-.06h.16l.62-.06.32-.06.21,0,.37,0h.16l2-.19h.17l.19,0,.24,0,.09,0,.06,0,.05-.05,0,0,0,0,0,0V8.17L30,8l0-.15,0-.41-.05-.3,0-.18V6.75l0-.14v0h.22l0,0,0,0,0,.07,0,.21,0,.29v.22l0,.21.05.28,0,.22,0,.21ZM23.94,3.9h0l0,0,0,0,0-.05v.07l0,0Zm.18.24,0,0h.05V4.08h0v0h0Zm0-.69,0,0h.12l0-.09-.06,0-.05,0h0ZM24.22,6l0,0,0,0,0,0V6h0Zm0-2.86h0l0,0,0,0V2.91h0l0,0V3l0,0,0,0Zm.27,2.61,0,0v0l0,0Zm0-2.38,0,0h0l0,0v0l0,0h0Zm.15,2.78,0,0v0l.06.06.06,0,0,0h0v0l0,0V6.11l0,0h-.05Zm.29,1,0,0h-.06l0,0,0,0-.05,0h0l0,.08.08,0h0V7.2l0,0,0,0,0,0Zm-.18.17h0v0h0v0Zm0-4.79,0,0h0l0,0v0h-.05v0Zm.05.66v0H25V3.15l0,0,0,0h0l0,0v.11ZM25,3.6v0l0,0v0Zm0,1.22,0,0,0,0h0V4.75l0,0-.05,0Zm0,1,0,0h0l0,0,0-.05-.07,0,0,0Zm.13,1.57,0,0h0v0h.07l.05,0,0,0-.05,0,0,0,0,0Zm.11-1.89v.11l0,0h.12v0l0,0h0Zm0-2h0v0h0ZM25.3,5l.06,0,0-.08,0,0v0h0V5Zm.11,1.53,0,0,0,0h0v0l0,0h0Zm0,1.38,0,.05V8h0l0,0Zm0-5,0,0,.06-.05,0-.07v0l0,0h0v0l0,0h-.05l0,0v.1l0,0ZM25.47,6V6l0,0v0h0l0,0V6h0V6l0,0,0,0Zm.12-3.46h.05l0,0h0l0,0,0,0,0,0,0,0v0Zm.12.32h0Zm1.65.61v.1l0,.21-.12,0L27,3.8h-.18l-.18,0-.26,0H26.3l0,0,0,0v.25l-.16,0H26l0-.18,0-.29V3.58l.34,0h.18l.27,0,.29,0,.19,0,.16,0h.05Zm-1.3-1.28h.09v0l0,0Zm2.09,3v.47l0,.19,0,.13V6h-.09L28,6l-.09.06-.07.1,0,.13v.14h-.37l-.19,0H27l-.2,0h-.12l-.1,0-.05,0,0,.1,0,.13-.16,0-.11,0V6.81l0-.16,0-.13,0-.18.08,0,.19,0,.26-.06.17,0h.49l.19,0,.11,0,0,0,.07-.06L27.78,6l.06-.13V5.54l-.07-.45V4.85H28l0,0,0,.06ZM26.34,8l0,0,0,0,0,0h0l0,0h0Zm.22.27,0,0h.07l.09,0,.07-.06h-.27Zm.14-.23v0h0v0H26.7Zm0-.14h0Zm.08-.49,0,0h.07l.06,0,0,0,0-.08h-.11Zm.05,1,0,0,0,0V8.49Zm0-.44h0l.05,0,0,0h0l0,0h-.07Zm.07-.24,0,0v.09l0-.08,0,0Zm.14.28h.05v0l0,0,0,0Zm0-.14v0h0l0,0Zm.06.08,0,0h0l0,0,0-.07,0-.09,0,0-.06,0L27.15,8Zm0-.31h.06v0h0Zm0-.15,0,0h.07l.09,0,0-.08h0l-.05,0h0Zm0,.67,0,0,0,0,0,0h0Zm.06-1,0,0v.07l0,0,0,0v0h0v0l0,0h0Zm.13.94h-.05v0l0,0,0,0V8.21ZM27.41,8l0,0,.07.06,0-.07h-.06l-.07,0Zm.14.34h0l0,0-.05,0,0,0,0,0v.05l0,0v0h0l0,0,.06,0,0-.05Zm-.14-.56v0h0l0,0,0,0,0,0h0l-.06,0H27.4Zm.16.33H27.5Zm-.12-.72.06,0h0l.05,0,.07,0h0v.1l-.05.07v.07l-.08.06,0,0,.06,0,0-.06,0,0,0,0V7.62h.12l0,0,0,0,0,0h0l0,0,0,0v0l0,0,0,0v0h0v0l0,0-.09,0Zm.2.74,0,0H27.6v0Zm.16.26h0v0l0,0v0l0,0,0,.06,0,.06h.07l.05,0ZM27.69,8h0V8l0,0V8Zm.08.51,0,0h-.05v0h0Zm.12-.82,0,0v0l-.05,0,0,0,0,0v0l0,0h0l0,0V7.81l0,0,.06,0V7.69h0Zm.09.59,0,0,0,0h0v0l0,0h.12l.11-.05.05,0h0v0l0,0v0h0v0h0l.13.05V8.26l-.06,0-.05,0v0l0,0h0V8.1l0,0V8l.06,0,0,0h0v-.1l0-.06h-.05l-.05,0v0l0,0,0-.06,0-.07.09,0v0l0,0v0h0l0,0,0,0,0,0,0,0h0l0,0v0h0v0l0,0h0v0l0,0v0l0,0-.06.07,0,.08h.07l.06,0,0,0,0,0v0h0l0,0h0v0l0,0,0,0V7.62l0,0V7.52l0-.06h-.06l0,0v0h0l0,0,0,0h-.22l0,0v0l-.06,0h-.06v0l0,0,0,0V7.4H28v0l0,0,0,0h.05l0,.07v.07l.07,0,0,0,0,0,.06,0-.05.08,0,.08-.06,0-.05,0,0,0,0,0v.11l.1,0,.06,0,0-.07h0l0,0h0v0l0,.05,0,0,0,0v0l0,0v.07l0,.08h0l0,0,0,0,0,0,0,0,0,0v0h0l0,0v0h-.06l0,0h0v.08Zm0-.64v0h0Zm.12.41h0V8h0V8Zm1.12-4L29.33,4l0,0V3.85l0-.1V3.58l0-.36,0-.36,0-.36-.07-.68h.2l0,0,0,0,.1.41.06.56.06.49,0,.21v.29l0,.18v.13l0,0-.06,0-.17,0-.63.06h-.51l0,0,0,0,0-.06,0-.14.26,0,.44,0,.22,0Zm-.79,3.24,0,0h0v0h0Zm0,.45h0l0,0,0,0,0,0h-.05v0Zm.3.43,0,0h0v0l0,0,0,0,0,.06-.06,0h0l0,0,0,0h.1l0,0h.08Zm-.25-.69h0Zm.19-.37h0v0h0Zm.11.92h0l0,0V8h.05Zm0-.39,0,0H29v0l0,0h-.06Zm0,.41,0,0h0V7.86l0,0,0,0v0H28.9l0,0,0,0v.09l0,0ZM29,7.81l0,.09h.11v0l0,0h0l0,0Zm.12.25h0v0h0Zm.05-.62v0h.05v0l0,0h0Zm.11.44h0v0h0l0,0h0v0Z"/><path class="cls-2" d="M37.2,8.57l-.34,0-.33-.06-.1,0,0-.09,0-.33V7.39l0-.33,0-.08,0,0,.06,0,.06,0,.28,0h.27l.08,0h.05l0-.06V6.39l0-.39V5.61l0-.79,0-.39,0-.07,0,0h-.08l-.06,0-.28.31-.29.3-.27.33L36,5.59l-.24.33-.28.31-.09,0h-.1l-.07,0,0,0L35,6l-.22-.25-.18-.28-.18-.27-.22-.24L34,4.68,33.8,4.4l-.11-.2-.06-.09-.05,0-.06,0-.06,0,0,0V5.85l0,.41v.42l0,.06,0,0,.05,0,.06,0h.28l.13,0,.15,0,0,0,.05,0,0,.11,0,.32,0,.33,0,.33,0,.33,0,.08,0,0,0,.05h-.06l-.34,0-.35,0-.34-.06-.34,0-.35,0-.34,0-.69-.1H31l-.34,0-.13,0,0,0,0-.06,0-.17,0-.16.06-.33-.05-.34V7l0-.13.07-.1.12,0,.63,0,.06-.06V6.25l0-.37,0-.37V5.14l0-.36,0-.37V4l0-.37,0-.36V2.81l0-.05-.05,0-.12,0-.18,0-.14,0h-.2l-.06,0,0,0,0-.06,0-.18,0-.15,0-.33,0-.33V1.47l0-.19,0-.1.06,0h.07l.23,0h.1l.35,0h.34l1,0h.69l.06,0,.05.07.21.26.19.26.37.58.23.25.22.25.11.17.06.13.22.24,0,0,.06,0,.06,0,.05,0,.26-.22L36,3l.42-.53.46-.51.18-.29.11-.16.09-.11.06-.05.08,0,.35,0,.34,0,.34,0h.34l.69,0,.34,0H40l.18,0h.05l.08,0,0,.06,0,.06v.34l0,.34v.32l-.07.32v0l0,.06-.06,0h-.05l-.26,0-.26,0-.12,0,0,0v.06l0,.36,0,.37,0,.75,0,.37,0,.36,0,.37,0,.37v.37l0,.37,0,.09h.11L40,7l.07,0,0,0,0,0v.06l0,.32,0,.33v.33l0,.19,0,.14,0,.07,0,.05,0,0-.09,0-.17,0-.17,0-.35,0h-.68l-.34,0-.34-.05h-.34Zm-2.43-1,0,.32,0,.32,0,.66,0,.08,0,0,0,.05-.06,0h-.31l-.35,0L33.58,9l-.34,0H32.9l-.34,0-.34,0-.68,0-.35,0-.13,0,0,0,0-.06,0-.17.33,0,.32.05.37,0,.38,0,.31,0,.31.05.34.05.38,0h.44l.09,0,.06,0,.08-.06,0-.09,0-.09V8.39l0-.07V8l0-.35,0-.26.15,0,.05,0,0,0ZM32.06,4.23h0l0,0v0h0Zm.09-1.35,0,0h0v0h0l0,0h0Zm.12,1.29v0l0,0,0,0V4l0,0h0V4l0,.06,0,0v.06l0,0h0l0,0Zm.08.83L32.3,5l0,.05h0l0,0Zm.07-.53,0,0V4.38l0,0v.06l0,0v0h.06l0,0Zm.12-1.23,0,0,0,0,0,0h0v0l0,.06,0,.05v0h0l0,0v0l0-.06Zm-.12-.45v0l0,0v0Zm.5.29,0,0h0l0,0v.05h0Zm0,.77,0,0v0h0v.05h.07Zm.39-.9,0-.05h-.12l0,.09h.07l.06,0h0Zm-.07.37h0l0,0v.07l0,0,0,0,0,0v0h0v0l0,0Zm.09-1.1,0,0h0l0,.05v0h.07Zm.06.42h0l0,0v0l0,0h0Zm0-.09,0,.05V2.53l0,0v0h0l0,0Zm0,.26,0,.09,0-.1,0-.06h0l0,0Zm.07.48,0-.06,0,0,0,0,0,0v.06Zm.1.13,0,0-.06,0v.06h0ZM33.55,3h0l0,0h0V3h-.06Zm.12,2.86,0-.85V4.7l.05.11,0,0,.17.22v.51l0,.41v.42l0,.17h0l-.1,0h-.13V6.27Zm0-2.51,0,.11.11,0-.05-.1-.07-.07,0-.07-.05,0v.11Zm0-.21,0,0h.06l.11,0H34L33.88,3l-.13,0-.06,0Zm0,.45,0,0,0,0V3.61l0,0h0Zm.13.32-.05-.05,0,0,0,0,0,0v0h-.18v0l0,0,0,.06Zm-.12-1h0v0h0ZM34.07,4l0,0V3.91l0-.05h0l0,0,0,0,0,0h0l0,0,0,0h0L34,4H34Zm-.14-.4h0l0,0,0,0,0,0h0v0ZM34,3.33v.1l.06-.08-.13-.12v.08ZM34,3V3l0,0h0l0,0,0,0,0,0,0,0Zm.14.82h0l0,0,.09,0,.08,0v0l-.07,0-.07,0-.05,0-.06,0h-.05l0,0v.07h0Zm-.05-1v0l0,0h0l0,0v0h-.08Zm.12.55,0,.08.07-.08,0-.13h0l-.07,0,0,0,0,0v0Zm0,.63,0,0V3.91h0l0,0V4h-.08v0l0,0,0,0Zm-.05-.46h0l0,0,0,.05,0,0Zm0-.38,0,0h0l.14,0v0l-.06-.05-.05,0,0,0h0v0Zm.49.61,0,0,0,0h0l0,0v0l0,0,0-.07,0,0,0-.06,0,0,0-.05-.09-.09-.11-.07,0,.09,0,.06v.17l-.1.08h-.11l-.09,0-.11-.05,0,.06,0,.1h.15V3.69l.06,0,0,.06,0,.07Zm-.14.42h-.1l-.1,0v0h0v0l0,0v0l0,0,0,0,0,.05.05,0h0l0,0,0,0,0-.06,0,0Zm-.15-.15,0,0v0h0l0,0,0,0v0l0,0Zm0-.76v.1l0,.08h.07l.07-.1-.07-.11-.07,0Zm.22,1.06,0,0h0l0,0v0l0,0h.05Zm.27,0,.05,0h0l0-.08h-.06l-.08.09-.1,0,0,0v.06l0,0,0,0,.07-.06.08,0,0,0Zm-.09-.6,0,0,0,0,0,0v0l0,0h.05v0Zm0-.11v0h0v0h0l0,0Zm0,1.13,0,0,0,0v0l0,0h0v0ZM35,4.75V4.69l0-.05v-.1l-.09.1.07.09,0,0Zm.1.17v0h0V5h.05Zm.06-.67,0,0,0,0h0v0l0,0,0,0h0Zm.09.32h-.06v0l0,0h0Zm.1.57v0l-.05,0v.06l0,0h0Zm.2-.65,0,0h0l0,0v0h0l0,0Zm1,1.27-.25.32-.49.52-.08.05h-.1l-.07-.05,0,0,0,0h0l0,0,.13-.08L36,6.08l.26-.33.54-.63L37,4.81l.06-.06v.06l0,.39-.22.24Zm.25,1.81,0,0,0,0h-.05l0,0,0,0h.09Zm.2-.31H37l0,0h0v0h0l0,0Zm3.67.79,0,.33v.33l0,.19,0,.12,0,.07,0,.05,0,0-.08,0h-.31l-.35,0h-.68l-.34,0-.34-.05h-.35l-.35,0H37.4l-.33-.06L37,9l0-.09V8.79l.27,0,.36,0h.32l.68.07h.68l.35,0,.18,0h.29l.14,0,.1-.05.06-.06,0-.09V8.36l0-.2V7.57h.1l0,0,0,0,0,0,0,.06Zm-3.34-.71,0,.09.09,0,0,0V7.3h0l0,0Zm.15.76h0l0,0h0Zm.12-.54,0,.06v0l0,0v0h0l0,0Zm0-2.06v0l0,0v0h0Zm.11,2.83h0v0l0,0h0Zm.78-1.79,0,0h0l0,0,0,0V6.43h0V6.27l.06,0,0,0V6.14h0l0,0,0,0V6l0,0v0h0l0,0,0,0L38.5,6l-.07,0v.08l0,0,0,0v.05l-.07,0-.06-.07V6l0-.07,0,0,0,0h0l-.08,0L38.13,6l0,.06.06.06,0,.06h0v0l-.08-.06,0,0,0,0h0l0,0h-.07l-.07,0v0l0,0V6l0,0,0,0h0l0,0h0l0,0,0,0h0l0,0,0,0v0h0l0,0h0l0,0h0v0l0,0v0h0l0,.12,0,.11,0,0v0h0l0,0h0v0l-.05.06,0,.06.05,0,0-.1.05,0,0-.06H38l0,.06h.06v0l.09,0,.06,0,0,0,0,0h.07l.06,0,0,0,0,.08h0l0,0h0v.06l0,0,0,0,0,0v0h0v0l0,0h-.08l0,0,0,0,0,0,0-.07-.07,0v.06l0,0v.05l0,0h0l0,0,0,0v0h0l0,0,0,0h.06l.05,0,0,0,.06,0v0Zm-.8-1.87,0,0h0l0,0Zm.12,2.56h0l0,0h0v0l0,0h.07Zm-.08-2,0,0h0v0l0,0,0,.06,0,0h0v0l0,0v0l0,0h-.09Zm0,.38V5.55h.07l0,0-.1-.08,0,0v0l0,0Zm.12.88h.05l0,0h0l-.06,0,0-.06,0,0,0,0h0v.1h0V6.5l0,0h0Zm0,.43h0V7h0Zm.21.93h-.18l0,0h0v0l0,0h0V8H38l0,0,0,0,0,0h0Zm.09-1.11,0,0h-.21l0,0v0h.2l0,0,0,0Zm-.23-2.2,0,.08,0,.08V4.55l0,0V4.44l0,0v0h0Zm0,.65h0v0h0l0,0Zm0,1.38h0v.05h0l0,0ZM38,5l0,0,0,0,0,0V5Zm0,2.13h0v0h0l0,0Zm0,.18h0l0,0v0Zm.12-.45-.09,0V7h0l0,0v0l0,0ZM38,5.44v0h0v0h0Zm.06.49h0V6h0l0,0Zm0-.59V5.26Zm.07-.4V5h0v0h0Zm0-.12,0,0V4.71h0l0,0Zm0,.71h0v0h0l0,0Zm.14-.31,0-.11L38.22,5h0l0,0v0l0,0,.06,0Zm-.16-.59h0l0,0,0,0h0v0Zm.07.74V5.23l0,0,0,0-.05,0Zm0-1.07v0h0V4.24l0,0Zm.1,1.38v0l0,.06.05,0h0v0l0,0,0,0,0-.08v0h0l0,0v0h0Zm0-.7V5h0V5h0Zm0,1.39,0,0h0v0h0v0Zm.06.37,0,0,0,0v.07h0l0,0V6.74Zm-.05-2.08v0Zm0,.11.06,0,.05.05,0-.09Zm.12.76,0-.07,0,0,0,.07,0,0,0,0,0,0h0v.06l0,0,.07.07,0,0v0l0,0v0l0,0h0l0,0h0l0,0h.07v-.1l0-.09,0,.06v0l0,0,0,.06h-.1l-.06-.06Zm0-.1,0-.1v0h0l0,0v0l.06.08h0Zm0,.71h0Zm0,1h0v0h0v0Zm0-1.22h0v0h0l0,0Zm0-.79v0h0v0l0,0h0ZM38.54,7V7l0,0,0,0h0l0,0v0l0,0h-.05l0,0Zm0-1.7.08,0,0-.1h0l0,0h0v.1Zm.13,2.14,0-.06,0,0v0l0,0v0h0l0,0v0l0,.08v0l0,0h0Zm0-2.51,0,0,.08,0v-.1l0,0,0,0,0,0,0,0Zm.07,1.53V6.36l0,0v0h0Zm.06,0,0,0,0,0,0,0,0,0Zm0-1.26,0,0,0,0h.09l0,0v0h-.09Zm0,2,0,0,0,0,0,0h0Zm0-.55,0,0h0v0h0Zm1.41-3.52.09,0,0-.09L40.45,3v0l.08-.36,0-.36,0-.31.06,0h0l.08,0,0,.06,0,.06v.33l0,.34,0,.32-.06.22v0l0,.06-.06,0h-.05l-.22,0-.26,0-.12,0,0,0v.06l0,.46,0,.37,0,.74,0,.37,0,.37,0,.37v.46h-.08l-.2,0,0-.26V6.1l0-.36,0-.38,0-.36,0-.39,0-.74h0V3.25l.25,0,.26,0h.06Z"/><path class="cls-2" d="M41.51,8.89l-.3-.06L41,8.76l-.07,0h-.05l0-.05V8.42l.06-.27L41,7.77l0-.26.05-.19,0-.06,0,0,0,0h.21l.2.09h.2l0,0,0,0,0-.06.06-.22L42,6.63l0-.44,0-.3.06-.44.11-.74.07-.29L42.39,4l.06-.29,0-.22V3.4l0,0,0,0,0,0-.14,0H42l-.14,0-.06,0,0,0,0,0V2.58l.06-.37L41.88,2l.06-.18,0-.07,0-.06,0,0h.29l.3.11.21.06.53.08.23,0,.37,0h.15l.6.09.37.06.38.07.15,0,.43.08.16,0,.37.07.37.05.38.06h.54l.21,0,.06,0,0,.05V3.1l-.09.55,0,.28L48,4.49l-.1.33,0,.07,0,.06,0,0h-.24l-.26-.06-.19,0-.17,0-.25,0-.24-.08,0,0,0,0V4.48l0-.18,0-.13,0-.1V4l0,0-.25-.06-.38,0-.26,0-.62-.12-.26,0h-.07l0,0,0,0,0,.06,0,.24-.06.31v.31l0,0,0,0,.07,0,.19.06.15,0H45l.21,0,.21,0h.14l.14,0,.27.08.06,0,0,0v.26L46,5.7l0,.2,0,.18,0,.26,0,.19,0,.07-.09.06h-.26l-.27-.08-.19,0-.19,0h-.13l-.33,0h-.11l-.1,0L44,6.58l0,.09,0,.21v.3l0,.2v.1l0,0,0,0,.27,0,.36,0,.71.12.19,0,.26,0h0l0,0h0l0,0L46,7.64V7.4l.06-.16,0-.06,0,0,.06,0h.07l.18,0,.25,0,.18,0,.32,0h.13l.18,0,.07,0,0,0,0,0V7.7L47.5,8l-.06.22,0,.21,0,.28,0,.22v.21l0,.29-.06.2,0,.07,0,.05-.06,0h-.29l-.16,0-.16,0-.23,0-1.74-.28-.32-.07L44,9.25l-.23,0-.32,0-.22,0-.54-.09L42.28,9,42,9Zm6.28,1V10l-.05.2,0,.07,0,0-.06,0h-.29l-.16,0-.16,0-.22,0L45,10l-.16,0-.37-.08-.23,0-.31,0-.62-.1-.6-.1-.31-.06-.23,0-.23,0-.14,0-.45-.13h0l0-.05v-.2l.2,0,.22,0,.37.07.61.09.15,0,.62.09.32,0,.22,0,.36.07.15,0,2,.32.17,0,.19,0h.34l.07,0,.06,0,0,0,0,0,0,0,0-.06,0-.09.06-.21,0-.19V9.12l.06-.41,0-.3,0-.19,0-.17.05-.14,0,0,.14,0,.06,0,0,0,0,0v.07l0,.21L48,8.6l-.05.22,0,.21,0,.28,0,.22,0,.21Zm-5.33-4v0l0,0v0h0Zm.18,1.45,0,0h0v0h0Zm.21-.12,0,0,0,0,0,0,0-.06,0,0h0l0,.09.06,0h0v.1h.06ZM42.71,3.8l0,0,0,0,0,0,0,0v.07h0Zm0,1.89v0Zm.08.43h0v0l0,.07,0,0,0,0h0V6.18l0,0,0-.05h0Zm0-2,0,0h0l0,0,0,0h-.07ZM43,7.45v0h0l0,0v0H43l0,0V7.49l0,0v0l0,0Zm.06-4v.05h0l.09,0,.07-.07h-.07l0,0h0Zm.08,4.65-.05,0,0,.05h0l0,0Zm.06-5h.07l0,0V3l0,0,0,0V2.94h0l0,0,0,0V3h0l0,0Zm.06,2.8v0l0,0,0,0,0,0-.06,0h0Zm.17-2.51v0h0l0,0,0,0v0l0,0h0Zm.07,3.34,0,0,0,0h0v.06h0Zm0-1.78V5l.05,0h0l0,0,0,0-.05,0Zm.06.7,0,.1.06,0h.12l0-.05,0,0h0Zm.14.55v0l0,0v0h0l0,0v.06h0l0,0,0,0,0,0Zm.1-2.43v0l0,0v0Zm0,1.46,0,0V5.2l0,0v0h0l0,0Zm0-1.9v0h0l0,0h.07V3.3l0,0h0l0,0v.07l0,0Zm.12-.65,0,0H44v0l0,0h0l0,0ZM44,8.4v0l0,0h.05v0l0,0Zm0-4.64v0h0v0h0Zm.09,5,0,0,0,0h0l.08.05.08,0-.07,0h-.08l0,0Zm2.33-2.65-.11.44,0,.19v.19h-.25l-.1,0L45.89,7l-.07.12,0,.14,0,0-.12,0-.2,0-.19,0-.13,0-.13,0-.2,0-.11,0-.11,0-.06,0,0,.08v.14h-.27l0-.11V6.9l0-.19h.08l.19,0h.26l.17,0,.17,0,.12,0,.14,0h.4l.09,0,.06,0L46,6.68l0-.1.06-.21,0-.45,0-.17,0-.06.11,0,.06,0,.06,0,0,0v.26ZM44.33,8.53v0h0Zm0,.44,0,0V9l0,0Zm0-5.74v0l.07,0,0-.07v0h.07l0,0v0h-.05l0,0,0,0v0l-.05,0Zm0,5.17,0,0h.06l-.05,0Zm.08.15h0l0,0,0,0h0l0-.06,0,0Zm.14-.22h0l0,.09.05-.07.06,0Zm1.52-4.11,0,.1,0,.21H46l-.26,0-.18,0-.18,0-.26,0H45l0,0,0,0,0,.06,0,.19-.16,0-.13,0V4.44l.06-.29,0-.17L45,4l.18,0,.27.06.29,0h.19l.16,0h0ZM44.59,8l0,0,0,0V8h0l.06,0,0,0V8l-.05,0h0Zm.1-4.72v0h0v0h0Zm0-.35.05,0,0,0h.07l0-.06,0,0h0l0,0Zm0,5.76h0V8.6l0,0Zm.07-.13v0h0l0,0Zm0,.3,0,0,0,0,0,0h0Zm0-.21,0,.05h0l0,0,0-.06L45,8.49h-.12l-.08.05Zm.09-.3v0h.05l0,0h0l0,0Zm.07.53h0l0,0,0,0h0V8.83Zm0-.67v0H45l.09,0V8.17l-.05,0,0,0h0Zm.18.83,0,0,0,0H45l0,0v.09l0,0v0h0l0,0,.06,0,0,0ZM45,8.63l.05,0,0,.07V8.59H45Zm.13.15H45.1l-.08,0,.08,0Zm-.12-.89,0,0V8h0V8h0v0l0,0h0Zm0,.53v0h0v0l0,0,.05,0,0,0h-.16Zm.24.69h0V9l0,0,0,0-.05,0,0,0h0l.05,0Zm-.07.11,0,0h-.07v0h.09Zm0-.4,0,0H45.2v0Zm0-6.16,0,0,0,0v0l0,0Zm0,5.39.06,0h.05l0,0,.06,0h0l0,.1-.06.05,0,.07-.09,0,0,0,0,0,.06,0,0,0,0,0,0-.05h.06l0,0,.05,0,0,0v0h-.09V8.23l0-.06v0l0,0V8h-.09Zm.08.65h0v0l0,0,0,0Zm.28-.25-.05,0,0,0h-.09l0,0v0l0,0h.05v0l0,0h0l.06,0,0-.06h0Zm-.07.6h0v0h0l0,0,0,0,.12.05.11,0,0,0h0v0l0,0v0h0v0h0l.11.08,0-.05,0,0-.05,0v0l0,0h0V8.93h0v0l.07,0V8.81h0l0-.1,0-.06,0,0H46v0l0,0V8.5l0-.05.08,0v0l0,0v0h.11l0,0,0,0h0l0,0v0l0,0h0l0,0v0h0v.05l0,0v0l0,0-.08,0,0,.07.07,0,.05,0h0l0,0v0l0,0,0,0,0,0,0,0h0l0,0,0,0V8.59l0-.05,0,0V8.43h0l0,0h0v0h0l0,0h-.06l-.06,0-.09,0,0,0v0l0,0-.06,0v0l0,0h0l0,.05h-.06l0,0,0,0v.05l0,0,0,0,0,0,0,.07h.07l.06,0,0,0H46L46,8.43l-.07.06h-.11l-.05,0,0,0v0l0,.09.08.06.06,0,.06,0H46l0,0,0,0,0,0,0,0V9l0,.07,0,.06h-.08l-.05,0,0,0,0,0V9l0,0,0,0V9h0l0,0,0,0,0,0V9l0,0Zm.15-.63v0h0l0,0h0Zm0,.43h.05V8.8h0l0,0Zm.61.27v0h0V8.94l0,.06-.07,0,0,0,0,0,0,0h0l0,0h0v0l0,0h.08Zm-.17-.5,0,0h0l0,0v0h-.06v0Zm.07-.44,0,0h0l0,0H46.2Zm0,.21h0Zm.16.6h0l0,0h0l0,0V9h0Zm.06,0,0,0h0V9l0-.14v0h0l0,0h-.06l0,0,0,0v.06l0,0,0,0Zm.06-1v0h0v0h0Zm0,.55,0,0h.07V8.62h-.09Zm.13.25V9l.11,0,0,0,0,0h0l0,0Zm.06.27,0,0h0v0h0Zm1.06-3.9.13,0,.05,0,0-.06L48,5l0-.08,0-.09.1-.34.06-.36,0-.36.11-.67.13,0,.06,0,0,.05,0,0v.42l-.09.56-.06.49,0,.21-.07.28,0,.16,0,.07v.06l0,0H48l-.62-.1-.25,0-.24-.08,0,0,0,0V5.08l.25,0,.43.1h.33ZM46.92,9h0v0H47V9Zm0-.45v0h0v0l0,0h0Z"/><path class="cls-2" d="M54.09,7.77l0,0,0,0,0,.07.09,0,.08,0,0-.07,0-.21V7.5l0-.34,0-.2.06-.18.21-.67,0-.05V6l-.36-.09-.19,0-.14-.07,0-.09.06-.11.1-.31L54.42,5l.08-.32.13-.3,0,0,0,0h.1l.4.07.4.13.8.22.39.13.39.12.4.11L58,5.2l.09.06v.11L58,5.68,57.87,6l-.08.32-.12.3-.05.08h-.11l-.25,0-.26,0-.11,0h-.07v0L56.7,7l-.06.39-.14.37-.13.36-.07.38-.08.38L56,9.56l-.22.74-.09.39-.08.37-.28.72-.06.08h-.1l-.38,0-.36-.1L54,11.6l-.34-.15H53.6l-.05,0-.14-.34-.13-.34-.13-.34L53,10l-.13-.34-.14-.34L52.62,9l-.13-.33-.12-.36L52.26,8l-.15-.32L52,7.31l0-.11V7.09l0,0h-.07l-.09,0v0l-.16.64-.07.33-.09.32-.19.53,0,.08,0,0,.59.21,0,.07,0,.1-.08.31-.09.31-.06.33-.1.31-.09.1h-.13l-.4-.1-.39-.16-.81-.19-.81-.24-.4-.09-.39-.15L48,9.77l0-.13L48,9.33l.13-.3.07-.33.11-.3.07-.1h.12l.1,0,.17.08.25.08h.08l.06,0,.09-.1L49.38,8l.07-.36.11-.36.11-.35.09-.36.11-.36L50,5.86,50,5.5l.14-.35.07-.36V4.67l0,0-.06,0-.26-.07h-.12l-.15-.06-.08-.07V4.26l0-.32.08-.32.07-.33L49.89,3,50,2.9h.13l.39.06.39.11L52,3.43l.37.14.07,0,0,.05.15.34.14.34L53,5l.61,1.35.11.37.1.35.16.34Zm-2,2.64.08-.31,0-.1,0-.06L52,9.86l-.08.24-.06.35-.1.3,0,.06,0,.06-.05.09-.08.07-.08,0-.12,0-.13,0-.44-.12-.36-.15-.8-.19-.8-.23-.46-.12,0,.12,0,.12.1.08.4.15.4.1L50,11l.81.19.4.16.4.11h.12l.09-.1.1-.3.07-.33ZM49.68,8v.1l0,0v0h0l0,0,0-.07Zm.27-.5H49.9l0,.05,0,.06h.15l.06-.11-.08,0Zm0,.91,0,0,0,.06,0,.05,0,0,0-.07V8.43Zm0-1.35,0,0L50,7V7l0,0,0,0L50,6.9,50,7h0V7l0,0v0Zm.4-.67h0l0,0v0l0,0h0l0,0Zm.07.91h0l0,0,0,0,0,0h.05l0,0ZM51,7.06l0-.07,0,0h0l0,0,0,0,0,.08,0,.05,0,0,0,0,.06,0h0V7.14ZM51,5.51h0l0,0v0H51l-.07,0v.06l0,0,0,.09.05,0Zm0-.73,0,0v0h0l-.06,0v.06ZM51,7.72v0l0,0,0,0ZM51.25,6l0,0V5.88l0,0h0l0,0,0,0,0,0,.05,0,0,0v.08l0,.06h0l0-.09Zm.09-.82h.09l0-.06,0,0,0,0-.06,0Zm0,2.39h0v0l0,0h0v0Zm0-2.27,0,0,0,0h0l.05,0,0-.06Zm0,.47h0v.06h0v0Zm0-1.3,0,0,0,0,0,0h0v0Zm0,4.28-.05.15.28.08.07-.25.07-.32L52,8.07,52,8l-.1-.26-.06-.13,0,.18-.07.33-.09.32Zm0-2.86,0,0,.05,0,0,0,.06-.06-.1,0-.09,0,0,.05,0,0v.08l.07.05ZM51.5,4.75l0-.09V4.59h0v.17ZM51.78,6l0-.06-.06,0,0,0h0l0,0h0l0,0V6l0,0,.08,0,.09,0h0V6Zm-.19-.31V5.57l0-.05h0l0,.06Zm0-.74,0,0h0l0,0h0l0,0h0v0Zm0,.35v0h0v.12l.1.08,0-.11,0-.1V5.21l-.06-.08v.13Zm.16-.15.12,0H52L51.89,5,51.76,5h-.08l0,.08,0,.06Zm0,.49,0,0,0,.06,0,0V5.61Zm.07-.71h0l0,0h0l0,0h0Zm.11,1,0,0L52,6h.1v0l-.07,0H52l-.06-.05,0-.06h0l0,0,0,0v0l0,0,0,0ZM52,6V6l0,0,0,0,0,0h0l0,0,0,0,0,0h0l.06,0Zm-.13-.59L52,5.39l-.11-.17,0,.08.08,0,0,0Zm.07.87v0h0l0,0,0,0v.1l0,0v.06l0,.06,0,0,0,0,0,0,0,0h0l.08-.08-.1,0Zm0-.69,0,0,0,.06,0,0V5.64h0Zm0-.57,0,0,0,0V5l0,0,0,0,0,0V5Zm0,1.17v.06l.07,0v0l0,0h0Zm.55-.7v.14l0,0-.07,0-.07,0-.1,0-.12,0-.11-.08,0,.06v.09l.15,0,0-.06h.08l0,.07V6l.06,0h.07l0,0v0h0l0,0,0,0,.06,0,.06,0,.06,0V5.66l.11-.08-.06-.12-.11-.09v.09Zm-.49,0,.11-.09V5.34h0v0l-.06,0-.06,0,0,0,0,.09Zm.06-.29h0l.07,0,.06,0v0l0-.06,0-.06,0,0h0l0,0Zm.07,1.27h-.07v0l0,0h.06v0Zm-.08-1.66,0,0h.06v0l-.07,0Zm.48,1.84,0-.09h-.07l-.07,0-.06,0h-.12l-.06,0,0,.06,0,0h0l.21-.09,0,0,0,0,0,0Zm-.39.35h0v0l0,0h0l0,0v0Zm.09-1.54v.08h.08l.09-.09,0-.13-.06,0,0,.06ZM52.52,7l0,0,0-.06-.13.08,0,.11,0,0h0V7Zm0-.94,0,0v0l0,0h.07v0l0,0Zm0,1.24,0,0v0h0V7.27Zm0-1.33,0,0,0-.07h0l0,0Zm.18,1.55v.06l0,0h0V7.54Zm.1-.94,0,0,0,.05v0l0,0h0l0,0v0Zm0,1.08h0v0l0,.07,0-.07v0Zm0-.67h-.06l0,0h0V7Zm.39,1.23h0v0h0l-.06,0,0,0,0,0h.05l0,0,0,0,0,0Zm-.07-1.24h0V7h0l0,0V6.94Zm.09,2.17h-.06v0l0,0h.06V9.11Zm.06.63h0v0l0,0v0l0,0v.09l0,0h0l0,0V9.8Zm.33-1.35h0l0,0v0l0,0,0,0v.06l0,0h.11l.06.05.06,0h0v0l-.07-.06Zm0,1.75-.06,0h0l0,0v.05l.06,0h0l.09-.07,0-.12Zm.09.62V10.7l-.07,0,0,0,0,0,0,0,0,0h0ZM53.64,8.2h0l0,0,0,0h0l0,0v0Zm.2,1.59-.06,0,0,.05v0h.07l0,0Zm4.49-3.43L58.4,6v-.1l-.09-.06-.11,0-.09.22L58,6.37l-.14.38-.05.13,0,.09-.07,0h-.1l-.2-.06-.21,0-.22,0,0,.15-.07.42-.13.36-.12.35-.08.35-.08.39-.13.39-.13.36-.21.73-.08.37-.09.38-.28.74-.06.16-.07.1-.12,0-.12,0-.44-.09-.39-.1L54,11.82l-.18-.07.14.34.06,0,.09,0,.34.14.36.07.37.1.37.05h.1l.06-.08.29-.66.07-.38.1-.38.21-.74.25-.72.08-.39.08-.37.13-.37L57,8l.07-.42.1-.37,0,0h.06l.11,0,.26,0,.22,0H58L58,7.26,58.14,7l.08-.32ZM54.05,9.45l0,0,0,0,0,0-.06,0-.11,0h0v.05h0l0,0v.08l0,0Zm0,1.34,0,.05h0v.06h.06l0,0,0-.05Zm.33-1v0l0,0v0Zm.21-.37h0v0h0v0Zm.79-2.73h0l-.05,0v0h.06Zm.12-.75h0v0h0Zm.19.29,0,0h0l0,0h0l0,0v0l0,0h0l0,0V6.23Zm0-.24,0,0V5.85l0,0V5.74h0l0,.06v.13l0,0V6h0Zm.63.06h0l0,0V6l0,0h0Zm.25-.55,0,0h0v0h0l-.07,0,0,0v0h0v0h.12l0,0h0Zm-.08.65h-.07v0h0l0,0h0v0h0Zm.22-.34h0l0,0v0l0,0v0l0,0v0Zm.11-.69h0l0,0h0v0Zm0,.94v.12l0,0,0,0,0,0V6.1Zm.07-.64h0Zm.4.91h-.05l0,0h.07l0,0h0v0Zm.28-.21-.09,0v.07l.05,0,0,0Z"/><path class="cls-2" d="M65.81,8.63l0,0,0,.12-.15.39-.16.38-.19.37-.19.37-.14.39,0,.13-.14.24,0,0-.05,0H64.6l-.15-.05L64.27,11,64,10.82l-.35-.11-.14-.05-.17-.1,0,0,0,0v-.05l0-.06.09-.36.12-.34,0-.09V9.51l0-.07,0,0-.14-.06-.15,0h-.18l-.05.07-.13.32L62.6,10l-.29.65-.16.32-.16.32-.16.31-.16.33-.14.32-.13.34-.07.08v.07l.31.15.33.12.08,0v.07l0,.13-.09.2-.18.3-.14.32-.14.32,0,.08-.06,0-.17,0L61,14.41l-.32-.18-.34-.14-.32-.15-1.34-.57-.35-.12-.15-.07-.17-.11L58,13l0-.11.13-.3.15-.29.1-.31,0-.14.11-.15,0,0,0,0h.12l.19.07.11.06.3.13.05,0,0-.1.16-.31.15-.33L60,10.8l.17-.32.74-1.63L61,8.52V8.39L61,8.32l0,0-.17-.06-.19-.05-.09,0-.07.05-.16.37-.1.2-.1.14L60,9l0,0L59.9,9h-.07L59.65,9l-.15-.09-.32-.18-.33-.13-.3-.17-.06-.05,0,0v0l0-.07.15-.39.19-.36L59,7l.14-.39.18-.38.22-.35,0,0,0,0h.06l.06,0L60,6l.33.17.35.15.34.13.32.18.33.17.34.15.35.13,1,.49.34.15.33.17L64.4,8l.68.29.35.12.18.07.15.1Zm-3.58,5.15-.16-.06-.1.18-.14.31-.14.32-.08.18-.07.08-.08,0-.08,0h-.07l-.21-.06-.16-.08-.32-.18-.34-.14L60,14.16l-1.33-.56-.24-.09-.09.21,0,.08.17.11.15.07.35.13,1.33.56.33.15L61,15l.33.18.16.09.17,0,.06,0,0-.08.13-.32.13-.33.18-.3.09-.2,0-.12,0-.08ZM59.94,9.64l.18.06h.11l.55-1.22-.09,0-.1,0-.12.24-.1.21L60.29,9l0,.11,0,.06,0,.05-.07,0,0,0h-.14l-.06,0-.06,0-.22-.06-.49-.28-.27-.11-.05.13v.14l.06,0,.31.17.33.13.33.14Zm-.46-2.56,0,0h0l0,0,0,0Zm.48,0,0,0h0v.08h0l0,0h0l0,0h0Zm.19-.22v0h0v0h0Zm.15,0,0,0V7h0l0,0,0,0V7h0l0,0,0,0h0l0,0H60.3Zm.18.55v0l0,0v0h0Zm.38.23h0l0,0v0h.06l0,0h0l0,0Zm.08-.59h0l0,0h0v0h0l.09,0,0,0v0l0-.07Zm.14,3.56h0v0h0v0h0Zm0-3.21v0l0,0,0,0v0l0,0Zm.08,4.12,0,0,0,0,0-.06-.06,0,0,0Zm0-3.88v0h0v0h0l0,0h0V7.68l-.07,0Zm.06,2.83v-.06l0-.06h0v.08l0,.06,0,0v.09h.05l0,0v0l0,0Zm0-3.64h0v0h0v0Zm0,2.36v0l0,0h0v0Zm0-2.12h0ZM61.4,11v0h0v0h-.06l0,.06h0l0,0v0l.05,0h.06v0Zm.12-3.07,0,0h0v0h0v0l0,0Zm.06,1.91v0h0l0,0v0l0-.06,0,0,0-.05,0,0,0,0h0v0l0,.06Zm0-1.93v0h-.05v0l0,0Zm0,1.36,0,0v0l0,0Zm.15,3.5.14,0,0-.07.16-.33.16-.31.16-.32.15-.32.3-.65.1-.27v-.05l0-.14.09-.36.12-.33,0,0-.12,0-.1.24-.13.34-.3.66-.32.65-.16.31-.16.32-.13.31-.11.29Zm0-4.84v0l0,0,.06,0,0-.07-.05,0Zm.1-.15h-.07v0h0l0,0,0,0Zm.12.29h0v0H62V8Zm0,2.27h0v0l0,0h0l0,0v0Zm0-2.1h0l0,.05,0,0,0,0V8.2ZM62,9.5v0l0,0h.05l0,0,0,0,0,0h0ZM62,7.89h0v0h0l0,0h0Zm.13.18.15-.13h-.14l-.1,0L62,8l0,.05,0,0Zm0,.24h0l0,0,0,0h0l0,0Zm0-.08.08.07h.11l-.08,0-.09,0,0,0h-.08l0,0,0,0h0Zm0-.36,0,0h.06v0l0,0h-.07Zm.06-.11,0,0H62.2l0,0Zm.13,2.07v0h0l0,0,0,0h0l0,0,0,.05,0,0V9.86Zm0-1.69,0,0V8.1l-.16,0,0,.06.08,0Zm-.07,1.2-.06.08h.07l.07,0h0l0,0,0,0h-.12Zm0-1v0h.05l.06,0,0,0Zm.24.22-.06,0v0l0,0V8.43l-.06,0-.07,0,0,0,0,0,0,0ZM62.46,8h0l.11,0v0h-.07l-.06,0h0v0h0Zm.07,0h-.08V8l.11.05,0,.05V8.05Zm0,.4h0l0,0,0,0,0,0h0l0,0Zm.26.2,0,0,0-.05h-.1v.05l0,0,0,0h-.06l0,.05v0h.06l0,0,0,0h.12l.07,0Zm-.15-.36h0v0l0,0V8.25l0,0Zm.23.17,0-.05v0l-.06,0,0,0h-.15v.06h0v0l0,0h.12Zm-.15.67V9l0,0v0h0l0,0,0,.05Zm.08-1,0,0v-.1l-.1-.06h-.07l0,.06,0,.07ZM62.93,8l0,0h0v.06l0,0-.09,0,0,.06-.11,0,0,0,0,.06.07,0,0,0,0,0,0-.05.06,0,0,0,.06,0,0,0v0H63v0l0-.06V8l0,0,0,0v-.1l-.1,0h-.13l.06.06.06,0Zm.37.93v0l0,0,.06-.14h.08V8.6h0l.06-.09V8.44l0,0h-.07V8.24l.07,0,.08.05,0,.05h0v0h.17l0,0h.14l0,0v0h0v.1l0,0h0l-.1,0-.06.09.07,0,0,0,.06,0,0,0V8.64l0,0h0l0,0,0,0h.1l0-.06V8.4l0,0V8.29l0,0h0l0,0h-.06l0,0h-.08v0l0,0-.08,0,0,0V8.05l0-.06-.07,0,0,0v0h0l0,0h0l0,0,0,0,0,0,0,0v.06l0,.06,0,0-.08,0,0,.06.08,0,.08,0h.12l-.08.06-.09,0h-.14l-.06,0v.07l-.05.09.06.09.06,0,.08,0h.12l-.06,0,0,0,0,0,0,0,0,0v0l0,.09-.08,0H63l0,0v0l0,0,0,0,0,0h0l0,0h0l0,0v0l0,0h0l0,0,0,0h0v0l0,0h0l0,0v0l.12.09h.14l0,0,0,0v0l0,0,0,0h0v0l0,0,.06.06,0,.06,0-.05,0-.06,0,0Zm-.45-.31v0h0l0-.06,0,0v0h0l0,0,0,.06v0l0,0,0,0Zm.19,0,0-.05H63l0,0v0l0,0Zm.08-.46h0l0,0v0h0v0h0Zm.44.82V8.8l-.08,0-.07,0,0,0h0v0h0l0,0,0,0V9l0,0h.1V9l-.05,0ZM65.38,11l.18-.38.19-.37.16-.38.16-.39,0-.11,0-.05,0,0-.12-.07,0,0-.17.39-.19.38-.17.36-.15.38,0,.13-.16.27,0,.08,0,0,0,0,0,0-.06,0h-.2l-.07,0-.19-.06-.19-.1L63.86,11l-.3-.1,0,.12,0,.06v.06l0,0,.05,0,.17.1.14.06.35.1.31.18.18.1.13,0H65l0,0,0-.05.13-.21,0-.12ZM63.54,8.4v0l0,0h0l0,0v0h-.07Zm.15.47,0,0v0h.06l0,0v0Zm.21-.07v0l0,0,0,0,0,0,0,0h0l0,0L64,8.83V8.78h0l.05,0-.07,0-.06,0ZM64,8.55v0l0,0h.06v0l-.07,0Zm.05.58h0v0h0v0Zm.06-.25,0,0,0,.1.12.05,0,0,0,0,0,0Zm.17-.12h0l0,0h0v0Zm0,.31h0v0h0l0,0Zm.15-.5,0,0h0l0,0h0v0l0,0Zm.08.52,0,0,0,0h0l0,0Z"/><polygon class="cls-2" points="16.38 83.87 16.39 84.13 16.38 84.37 16.36 84.54 16.31 84.66 16.21 84.73 16.04 84.78 15.7 84.78 15.22 84.72 14.96 84.7 13.92 84.7 12.09 84.77 11.36 84.72 11.01 84.72 10.85 84.77 10.79 84.88 10.77 85.1 10.74 86.53 10.75 86.71 10.77 86.81 10.85 86.87 11.04 86.92 11.46 86.92 12.01 86.87 12.26 86.86 13.23 86.89 14.45 86.89 14.69 86.87 15.3 86.82 15.69 86.82 15.86 86.86 15.96 86.94 16.02 87.06 16.05 87.26 16.07 87.39 16.09 87.63 16.05 88.11 16.05 88.35 16.07 88.72 16.05 88.96 16.04 89.22 16.01 89.41 15.96 89.54 15.88 89.6 15.69 89.65 15.3 89.65 14.7 89.57 14.45 89.56 13.48 89.59 13.23 89.59 11.49 89.56 11.25 89.57 11.03 89.6 10.87 89.65 10.8 89.75 10.8 89.96 10.79 90.87 10.79 91.13 10.72 92.03 10.72 92.29 10.74 92.64 10.72 92.9 10.7 93.17 10.69 93.36 10.64 93.46 10.54 93.51 10.37 93.54 10.09 93.57 9.84 93.59 9.24 93.57 8.98 93.57 8.33 93.62 7.84 93.59 7.67 93.56 7.57 93.49 7.54 93.38 7.52 93.2 7.47 92.35 7.46 92.09 7.44 91.24 7.46 90.99 7.52 90.13 7.54 89.88 7.49 89.03 7.49 88.77 7.44 87.9 7.44 87.64 7.47 86.79 7.47 85.43 7.51 84.57 7.51 83.21 7.54 82.36 7.55 82.16 7.59 82.05 7.68 82 7.84 81.97 8.2 81.97 8.81 82.02 9.06 82.02 10.01 81.97 10.27 81.97 11.2 82.02 11.46 82.02 12.41 81.97 12.66 81.96 13.61 82 13.87 82 14.82 81.96 15.07 81.96 15.48 81.97 15.73 81.99 16.01 82.02 16.18 82.04 16.28 82.08 16.34 82.18 16.36 82.36 16.38 82.5 16.38 82.74 16.34 83.22 16.34 83.48 16.38 83.87"/><path class="cls-2" d="M29,93.51l-.2.06H26.53l-.72,0H25.6l-.15-.07-.13-.12-.51-.73-.14-.19-.52-.69L24,91.6l-.45-.74-.15-.2L22.9,90l-.11-.13-.1,0-.19,0-.52,0h-.21l-.12.1,0,.21,0,.88v.26l.07.9v.26l0,.38V93l0,.26,0,.19-.08.08-.18,0h-.25l-.77,0-.74,0h-.26l-.74,0-.19,0-.1-.07,0-.16,0-.22v-.24l0-.42v-.26l.07-.87V91l-.05-.87,0-.26V88.78l.05-.86v-.26l-.05-.87v-.26l.05-.86v-.26l0-.85V84.3l0-.87v-.25l0-.53,0-.24v-.1l0-.21.1-.13.19,0h.13l.24,0,.72,0,1.91.07,1.1-.07H23L24.1,82H25l.24,0,.34.1.24.08.24.09.26.1.24.11.21.13.3.21.18.15.16.16.16.19.22.32.15.21.19.3.11.23.12.24.08.26,0,.25,0,.26,0,.36v.51l0,.27,0,.28-.07.25-.1.24-.11.24-.14.25-.15.21-.14.19-.15.18-.25.25-.18.15-.32.17-.19.12-.21.11-.21,0-.13,0,.06.13.58.82.15.19.58.79.16.19.58.81.16.19.49.58.15.18.08.17Zm-4.51-6.25.21-.08.19-.11.16-.2.11-.24.07-.26,0-.25,0-.28,0-.27-.07-.24L25,85.09l-.14-.19-.18-.15-.23-.09-.35-.09-.26,0H22.8l-.82,0-.19,0-.11,0-.1.09v.55l0,.26,0,.27v.27l0,.89,0,.18,0,.09.11.05.19,0,.84.07h.26l1.06-.07Z"/><path class="cls-2" d="M42.76,93.11l.05.22-.12.18-.17.08-.21,0h-.23l-.37,0-.24,0h-.72l-1,.07-.21-.08-.09-.12-.08-.17-.5-1.35-.11-.16-.15,0h-.19l-1-.07H37.2l-1.21,0H33.81l-.21,0-.13.08-.09.2L33,93l-.1.26-.18.2-.24.09h-.26l-.93,0h-.25l-1,.06-.21,0-.19-.1-.13-.17,0-.21,0-.13.09-.26.23-.5L30,92l.4-.9.09-.22.42-.9.1-.25.37-.86.09-.24.44-.9.1-.23.57-1.32.45-1,.12-.26.35-.72L33.6,84l.31-.73L34,83l.29-.66.08-.17.16-.1.24,0,.74,0h1.26l.74,0,.27.05.17.12.09.21.22.63.1.24.4.76.09.22.36.79.09.22.29.82.1.23.35.77.1.22.35.79.1.23.32.8.1.22.5,1,.38.75.11.23.44,1Zm-5.37-4.53-.06-.21L37,87.27,36.9,87l-.33-1-.08-.2-.16-.12-.21-.05-.17.05-.16.16L35.35,87l-.09.24-.42,1.07-.05.25.05.19.17.08.23,0h1l.76.05.21-.07.12-.13Z"/><polygon class="cls-2" points="47.85 91.05 47.85 91.31 47.79 92.17 47.79 92.43 47.77 93.31 47.77 93.49 47.73 93.59 47.6 93.62 47.37 93.64 46.55 93.62 45.56 93.62 44.75 93.56 44.66 93.52 44.61 93.47 44.61 93.31 44.58 92.91 44.58 92.66 44.56 92.42 44.56 92.17 44.51 91.31 44.53 91.05 44.58 90.18 44.59 89.92 44.54 89.04 44.54 88.78 44.53 87.92 44.53 86.53 44.51 85.65 44.51 85.39 44.53 84.53 44.53 83.14 44.49 82.26 44.54 82.08 44.64 82.02 44.8 82 44.93 82 45.17 81.99 45.56 82 45.81 82 46.55 81.97 47.55 81.97 47.73 82 47.76 82.1 47.77 82.28 47.8 82.69 47.82 82.95 47.82 84.53 47.84 85.39 47.84 85.65 47.82 86.53 47.82 86.79 47.84 87.66 47.84 87.92 47.8 88.78 47.8 90.18 47.85 91.05"/><polygon class="cls-2" points="59.76 89.97 59.74 90.25 59.71 90.52 59.66 90.78 59.58 91.13 59.5 91.35 59.36 91.68 59.24 91.88 59.05 92.17 58.89 92.37 58.7 92.56 58.51 92.74 58.19 92.94 57.98 93.09 57.73 93.22 57.51 93.33 57.14 93.46 56.66 93.62 56.4 93.67 56 93.73 55.76 93.76 55.41 93.8 55.18 93.81 54.81 93.83 54.04 93.88 53.69 93.88 53.46 93.86 53.09 93.83 52.85 93.8 52.58 93.75 52.34 93.67 51.98 93.56 51.76 93.44 51.52 93.33 51.29 93.22 51.08 93.09 50.57 92.74 50.38 92.58 50.09 92.35 49.9 92.19 49.72 92.01 49.59 91.87 49.57 91.76 49.65 91.61 49.72 91.53 49.88 91.35 50.33 90.94 50.47 90.76 50.74 90.34 50.89 90.17 51.05 89.99 51.23 89.89 51.41 89.92 51.58 90.05 52.09 90.41 52.34 90.53 52.56 90.65 52.93 90.83 53.17 90.9 53.43 90.99 53.69 91.03 54.06 91.05 54.31 91.06 55.33 91 55.58 90.97 55.71 90.94 55.95 90.84 56.16 90.71 56.32 90.55 56.4 90.44 56.5 90.2 56.48 89.92 56.45 89.8 56.32 89.57 56.24 89.47 56.03 89.31 55.9 89.27 55.66 89.17 55.39 89.11 55.12 89.06 53.59 88.91 53.11 88.82 52.85 88.75 52.5 88.62 52.26 88.54 52.02 88.43 51.47 88.16 51.26 88.01 51.02 87.87 50.81 87.72 50.54 87.5 50.39 87.29 50.25 87.05 50.15 86.81 50.04 86.47 49.99 86.23 49.94 85.88 49.91 85.36 49.93 85.11 49.96 84.72 50.01 84.48 50.07 84.27 50.15 84.03 50.31 83.67 50.42 83.45 50.55 83.26 50.71 83.08 50.97 82.84 51.18 82.68 51.39 82.53 51.61 82.42 51.92 82.25 52.4 82.05 52.64 81.97 53.01 81.91 53.27 81.86 53.75 81.8 54.1 81.73 54.36 81.7 54.6 81.68 54.86 81.68 55.34 81.73 55.58 81.76 55.69 81.8 55.95 81.83 56.5 81.92 56.77 81.99 57.03 82.07 57.3 82.15 57.56 82.25 57.8 82.36 58.04 82.45 58.35 82.63 58.57 82.74 58.78 82.89 58.92 83.03 58.92 83.19 58.83 83.37 58.65 83.69 58.52 83.88 57.91 84.69 57.73 84.91 57.54 85.07 57.41 85.12 57.3 85.11 57.14 85.02 56.9 84.88 56.66 84.78 56.55 84.73 56.3 84.66 56.18 84.62 55.9 84.56 55.53 84.48 55.28 84.46 54.86 84.43 54.44 84.43 54.17 84.45 53.9 84.49 53.64 84.57 53.54 84.62 53.35 84.77 53.27 84.86 53.16 85.09 53.12 85.35 53.17 85.56 53.3 85.76 53.48 85.92 53.67 86.02 53.78 86.07 54.02 86.12 54.42 86.17 54.97 86.2 55.24 86.25 55.79 86.37 56.3 86.53 56.67 86.61 56.91 86.68 57.37 86.84 57.69 86.98 57.91 87.1 58.14 87.22 58.35 87.35 58.81 87.74 58.99 87.93 59.15 88.13 59.34 88.42 59.47 88.62 59.58 88.86 59.65 89.11 59.71 89.46 59.74 89.7 59.76 89.97"/><path class="cls-2" d="M22.12,68.54c0-.06.06-.14.1-.24s.05-.17.08-.27.05-.22.08-.35a2.24,2.24,0,0,0-.29-1.13,2.84,2.84,0,0,0-.85-.94A2.73,2.73,0,0,0,20,65.15a2.7,2.7,0,0,0-1.47.25,2.59,2.59,0,0,0-1.24.95,2.38,2.38,0,0,0-.35,1,2.34,2.34,0,0,0,.1.86,4.45,4.45,0,0,0,.16.42,3.24,3.24,0,0,0,.21.35,2.39,2.39,0,0,0,.25.33,8.36,8.36,0,0,0,1.72,1.37c.76.49,1.65,1,2.65,1.57a4.33,4.33,0,0,1,1.49,1.38,3.72,3.72,0,0,1,.58,1.69,3.86,3.86,0,0,1-.28,1.76,4.2,4.2,0,0,1-1.08,1.52,4.94,4.94,0,0,1-1.82,1,6.28,6.28,0,0,1-2.54.22,5.44,5.44,0,0,1-2.24-.62,3.16,3.16,0,0,1-1.21-1.13,2.76,2.76,0,0,1-.43-1.38,5.44,5.44,0,0,1,.11-1.36,4.88,4.88,0,0,1,.38-1.1,1.42,1.42,0,0,1,.39-.56.44.44,0,0,1,.49,0,1.76,1.76,0,0,1,.52.35,3.56,3.56,0,0,1,.56.63,4.79,4.79,0,0,0-.84,1.63A2.12,2.12,0,0,0,16,77a1.25,1.25,0,0,0,.18.65,1.74,1.74,0,0,0,.53.56,3.13,3.13,0,0,0,1,.45,4.21,4.21,0,0,0,1.78.16,3.25,3.25,0,0,0,1.34-.5,3,3,0,0,0,.87-.94,3.64,3.64,0,0,0,.44-1.14,3,3,0,0,0,0-1.12,2,2,0,0,0-.42-.88,7.64,7.64,0,0,0-1.06-.86l-1.54-1.06c-.55-.39-1.09-.79-1.6-1.22a7,7,0,0,1-1.24-1.26,5.76,5.76,0,0,1-.8-1.19,3.2,3.2,0,0,1-.35-1.51,3.46,3.46,0,0,1,.12-1.06,2.27,2.27,0,0,1,.52-.93v0c.14-.15.31-.32.52-.51a3.87,3.87,0,0,1,.74-.52,4,4,0,0,1,1-.4,5.41,5.41,0,0,1,1.33-.15,6.39,6.39,0,0,1,1.87.24,5.44,5.44,0,0,1,1.3.59,3.14,3.14,0,0,1,.82.74,3.18,3.18,0,0,1,.41.71A3.81,3.81,0,0,1,24.18,67a3,3,0,0,1,0,1.13,1.17,1.17,0,0,1-.46.77,1.42,1.42,0,0,1-.36.14,1.29,1.29,0,0,1-.44,0,2.61,2.61,0,0,1-.37-.14l-.27-.15-.13-.08h-.05l0,0Z"/><path class="cls-2" d="M30.44,79a3.91,3.91,0,0,1-.89.58,3.67,3.67,0,0,1-1.57.29,2.74,2.74,0,0,1-1.15-.22,3.18,3.18,0,0,1-.78-.5,2.57,2.57,0,0,1-.46-.51c-.1-.16-.15-.26-.17-.28L25.28,78a3.12,3.12,0,0,1-.2-.77A6.8,6.8,0,0,1,25,76.1a6,6,0,0,1,.25-1.51,8.38,8.38,0,0,1,.4-1,8,8,0,0,1,.71-1.16,5.52,5.52,0,0,1,1-1.06,3,3,0,0,1,1.23-.64,2.66,2.66,0,0,1,2.34.63l0,0a2.43,2.43,0,0,1,.21-.29l.21-.24a1.15,1.15,0,0,1,.57-.34.82.82,0,0,1,.57.16,1.1,1.1,0,0,1,.23.2l0,0s.05,0,.07,0l0,0,.08.09,0,.1c-.17.79-.31,1.59-.45,2.39s-.25,1.53-.35,2.19-.17,1.21-.2,1.67a2.46,2.46,0,0,0,0,.83.18.18,0,0,0,.14.06h.08a2.43,2.43,0,0,0,1-.33,5.78,5.78,0,0,0,1.36-1l.06-.07h1l-.28.33a2.8,2.8,0,0,0-.22.25,5.74,5.74,0,0,1-.45.5c-.19.2-.4.41-.65.63a6.34,6.34,0,0,1-.76.61,5.73,5.73,0,0,1-.81.48,1.79,1.79,0,0,1-.79.19h-.12a.92.92,0,0,1-.6-.22.9.9,0,0,1-.16-.17,2.55,2.55,0,0,1-.29-.44M27.3,77.74a2,2,0,0,0,.75.7,1.39,1.39,0,0,0,.92.11,1.65,1.65,0,0,0,1.11-.81l0-.34c0-.12,0-.25,0-.39s0-.54,0-.91,0-.77.08-1.19.09-.86.15-1.3a8,8,0,0,1,.26-1.23,2.16,2.16,0,0,0-1.33-.61,1.23,1.23,0,0,0-.81.3,2.86,2.86,0,0,0-.86,1.2,7.47,7.47,0,0,0-.47,1.66A6.58,6.58,0,0,0,27,76.57a2.48,2.48,0,0,0,.29,1.17"/><path class="cls-2" d="M44.64,76.87l-.28.35s-.12.13-.28.31-.36.4-.61.65a10.32,10.32,0,0,1-.82.75,5.39,5.39,0,0,1-.95.63l-.12.06a.34.34,0,0,0-.12.06,1.91,1.91,0,0,1-.77.18h-.12a.42.42,0,0,1-.22-.08h-.06a2.3,2.3,0,0,1-.69-.52,2.23,2.23,0,0,1-.41-.72,2.29,2.29,0,0,1-.09-1.14s0-.22.1-.62.13-.87.2-1.42a1.51,1.51,0,0,1,0-.24q.12-.75.18-1.26a7.46,7.46,0,0,0,.06-.84,3,3,0,0,0,0-.49.5.5,0,0,0-.09-.24h-.08a1.83,1.83,0,0,0-.84.25,4.25,4.25,0,0,0-.91.67,5.06,5.06,0,0,0-.79,1,3,3,0,0,0-.43,1.16c-.06.43-.12.85-.16,1.26s-.07.79-.1,1.14,0,.86-.09,1.16a1.53,1.53,0,0,1-.19.66.49.49,0,0,1-.3.2,1.73,1.73,0,0,1-.37,0,2.28,2.28,0,0,1-.54-.08,1.11,1.11,0,0,1-.48-.26.5.5,0,0,1-.16-.37c0-.18,0-.39,0-.62s0-.49.06-.79.07-.62.11-1,.07-.75.1-1.17v0c0-.15,0-.42.1-.84s.11-.83.18-1.29.14-.86.21-1.24a3.28,3.28,0,0,1,.21-.72,1.27,1.27,0,0,1,1.07-.75A1.59,1.59,0,0,1,37,71l.1.09-.22,1.37.23-.25c.09-.08.19-.16.29-.26a4,4,0,0,1,2.4-1.17H40a1.32,1.32,0,0,1,1.05.47c.59.72.68,2.14.27,4.25a12.24,12.24,0,0,0-.25,1.73,4.74,4.74,0,0,0,0,.77c.1.2.23.31.39.31a.1.1,0,0,0,.08,0,3.11,3.11,0,0,0,.92-.41,5.83,5.83,0,0,0,1.11-.89l.06-.07Z"/><path class="cls-2" d="M51.72,76.37l.47,0,.22,0h.22l0,.24a1.48,1.48,0,0,1,0,.19c0,.06,0,.11,0,.13a.76.76,0,0,1-.15.12l-.19.09a2.88,2.88,0,0,1-.56,0,7,7,0,0,0-1.18.09,4.31,4.31,0,0,1-1.39,1.9,3.55,3.55,0,0,1-1,.56,2.93,2.93,0,0,1-1.06.2,3.06,3.06,0,0,1-1.39-.34l-.11-.06a.76.76,0,0,1-.18-.18,1.14,1.14,0,0,1-.17-.27.72.72,0,0,1-.06-.36c0-.52.63-1,1.85-1.55a16,16,0,0,1,1.76-.55A3.29,3.29,0,0,0,49,76a2.8,2.8,0,0,0-.06-.7,2.39,2.39,0,0,0-.28-.72,2.22,2.22,0,0,0-.6-.67c-.16-.13-.31-.26-.46-.36l-.43-.33-.4-.32-.34-.28c0,.12-.1.29-.18.5s0,.4-.06.67a6,6,0,0,1-.18.9,6.43,6.43,0,0,1-.45,1.06,5.62,5.62,0,0,1-.84,1.18h-1a5.62,5.62,0,0,0,.55-.64,3.88,3.88,0,0,0,.45-.81A6,6,0,0,0,45,74.35a9.75,9.75,0,0,0,.21-1.53c0-.12,0-.21,0-.26s0-.1,0-.14,0-.09,0-.13,0-.13.05-.24.1-.25.17-.41a2.45,2.45,0,0,1,.3-.44,1.54,1.54,0,0,1,.49-.37,1.52,1.52,0,0,1,.71-.15h0a1.3,1.3,0,0,1,1,.35.62.62,0,0,1,.22.43c0,.15,0,.28,0,.37s0,0,0,0a1.45,1.45,0,0,0,.31.36,5.51,5.51,0,0,0,.46.43l.19.17.17.15.42.43a4.6,4.6,0,0,1,.52.66,5.45,5.45,0,0,1,.44.83,2.13,2.13,0,0,1,.16.89,2.07,2.07,0,0,0-.06.26,3,3,0,0,0-.08.32h.51a2.7,2.7,0,0,0,.41,0M48.17,78.1c.06-.06.1-.13.15-.19a1.82,1.82,0,0,1,.14-.19,11.22,11.22,0,0,0-1.52.54,1.6,1.6,0,0,0-.42.25l.25.08a1.18,1.18,0,0,0,.34,0,1.39,1.39,0,0,0,1.06-.53"/><path class="cls-1" d="M32.32,18.9l-4.16-1.45a.26.26,0,0,0-.27.43l.93.95H27.44l-2.62-.92a.19.19,0,0,0-.2.32l.58.6H20.57L17,17.56a.26.26,0,0,0-.27.42l.81.83H3.84a3.67,3.67,0,0,0-1.24.14,1.26,1.26,0,0,0-.84.88.78.78,0,0,0,.7.92c.52.05.79-.49,1.2-.72a4.87,4.87,0,0,1,1.79-.28c1.35-.11,10.23-.13,11.59-.14h.32l-.77.9a.25.25,0,0,0,.27.41l3.85-1.35,4.35-.07-.55.65a.19.19,0,0,0,.21.3l2.78-1h1.12l-.88,1a.27.27,0,0,0,.29.42l4.29-1.51a.27.27,0,0,0,0-.5m32.28,0a3.67,3.67,0,0,0-1.24-.14H49.66l.81-.83a.26.26,0,0,0-.27-.42l-3.57,1.26H42l.59-.6a.2.2,0,0,0-.21-.32l-2.62.92H38.38l.93-.95a.26.26,0,0,0-.27-.43L34.89,18.9a.26.26,0,0,0,0,.5l4.28,1.51a.27.27,0,0,0,.29-.42l-.88-1H39.7l2.78,1a.19.19,0,0,0,.21-.3l-.54-.65,4.34.07,3.85,1.35a.25.25,0,0,0,.27-.41l-.77-.9h.32c1.36,0,10.24,0,11.59.14a4.87,4.87,0,0,1,1.79.28c.41.23.68.77,1.21.72a.78.78,0,0,0,.69-.92,1.26,1.26,0,0,0-.84-.88"/><path class="cls-1" d="M32.32,59.79,28,58.28a.26.26,0,0,0-.29.42l.88,1H27.5l-2.78-1a.19.19,0,0,0-.21.3l.55.65-4.35-.07-3.85-1.35a.25.25,0,0,0-.27.41l.77.9H17c-1.36,0-10.24,0-11.59-.14a4.87,4.87,0,0,1-1.79-.28c-.41-.23-.68-.77-1.2-.72a.78.78,0,0,0-.7.92,1.26,1.26,0,0,0,.84.88,3.7,3.7,0,0,0,1.25.14H17.54l-.81.83a.26.26,0,0,0,.27.42l3.57-1.26H25.2l-.58.6a.19.19,0,0,0,.2.32l2.62-.92h1.38l-.93,1a.26.26,0,0,0,.27.43l4.16-1.45a.27.27,0,0,0,0-.5m32.43-1.34c-.53-.05-.8.49-1.21.72a4.87,4.87,0,0,1-1.79.28c-1.35.11-10.23.12-11.59.14h-.32l.77-.9a.25.25,0,0,0-.27-.41l-3.85,1.35-4.34.07.54-.65a.19.19,0,0,0-.21-.3l-2.78,1H38.58l.88-1a.26.26,0,0,0-.29-.42l-4.28,1.51a.26.26,0,0,0,0,.5L39,61.74a.26.26,0,0,0,.27-.43l-.93-1h1.38l2.62.92a.19.19,0,0,0,.2-.32l-.58-.6h4.63l3.58,1.26a.25.25,0,0,0,.26-.42l-.81-.83h13.7a3.67,3.67,0,0,0,1.24-.14,1.26,1.26,0,0,0,.84-.88.78.78,0,0,0-.69-.92"/></svg>