<svg id="Layer_1" data-name="Layer 1" xmlns="http://www.w3.org/2000/svg" viewBox="0 0 40 40"><defs><style>.cls-1{fill:#00dec8;}.cls-2,.cls-3{fill:none;}.cls-2{stroke:#fff;stroke-miterlimit:10;stroke-width:0.5px;}.cls-4{fill:#fff;}</style></defs><title>image footer</title><circle class="cls-1" cx="20" cy="20" r="20"/><circle class="cls-2" cx="20" cy="20" r="18.5"/><rect class="cls-3" x="15.49" y="19.98" width="1.93" height="9.81"/><path class="cls-3" d="M17.42,14.3a3.8,3.8,0,0,1,4.07-4.09h-6v6.32h1.93Z"/><path class="cls-3" d="M21.47,14.51v2h3L24.15,20H21.47v9.81h3V13.57H22.33A.83.83,0,0,0,21.47,14.51Z"/><polygon class="cls-3" points="24.51 10.23 24.51 10.21 21.71 10.21 24.51 10.23"/><path class="cls-4" d="M21.49,10.21a3.8,3.8,0,0,0-4.07,4.09v2.23H15.49V20h1.93v9.81h4V20h2.68l.35-3.44h-3v-2a.83.83,0,0,1,.86-.94h2.18V10.23l-2.8,0Z"/></svg>