<svg id="Layer_1" data-name="Layer 1" xmlns="http://www.w3.org/2000/svg" viewBox="0 0 165 83"><defs><style>.cls-1{fill:none;}.cls-2,.cls-3{fill:#00dec8;}.cls-2{opacity:0.2;}.cls-4{fill:#fff;}</style></defs><title>image footer</title><rect class="cls-1" y="12" width="6" height="0.33"/><rect class="cls-1" y="37.87" width="6" height="0.13"/><polygon class="cls-2" points="11 34 11 12.45 6 13.25 0 14.21 0 14.21 6 21.17 8.97 24.61 6 29 0 37.87 0 37.87 6 36.91 11.77 35.99 11.77 33.87 11 34"/><polygon class="cls-2" points="49 16.04 47 13.65 49 10.59 55.68 0.38 55.68 0.38 49 1.48 44.29 2.26 44.29 25.92 49 25.14 55.68 24.04 49 16.04"/><path class="cls-3" d="M27.72,18.27a1.75,1.75,0,0,0,.28-1V15.12a1.3,1.3,0,0,0-.27-.89A.68.68,0,0,0,27,14l-1,.21V19l1-.21A1.08,1.08,0,0,0,27.72,18.27Z"/><polygon class="cls-3" points="11 12 11 12.33 11.77 12.33 11.77 33.87 12 33.84 12 12 11 12"/><polygon class="cls-3" points="11.77 12.33 11 12.33 11 12.45 11.77 12.33"/><polygon class="cls-3" points="11 34 11.77 33.87 11.77 12.33 11 12.45 11 34"/><path class="cls-3" d="M11,9.39V12h1V33.84l32-5.23V4ZM21.93,28.14l-6.39,1.05V12.74l2.34-.39v14l4.05-.66Zm9-11.6a4.65,4.65,0,0,1-1.07,3,4.19,4.19,0,0,1-2.6,1.58l-1.35.22v6.19l-2.35.39V11.43l3.7-.61a3,3,0,0,1,2.73.7,3.53,3.53,0,0,1,.94,2.63Zm8.55-5.23L35.13,12V16.5L38.3,16v2.49L35.13,19v7L33,26.33V9.87l6.46-1.06Z"/><path class="cls-4" d="M83.66,10.56c-1.47.46-2.48.83-3,.92V10.29c.1-.73-.64-1.19-2.56-1.92A4,4,0,0,0,76.6,8c-.27,0-.73.09-1,.09h-.36L73.3,16l-6.14,4.3Q62.63,24,63,25.76l.65.64c.82.83,2.29,2,3.11,2h.28c1.19.09,1.83-2.75,2.29-3.57.55-1,1.74-1.47,2.57-2.11a183.73,183.73,0,0,0-2.66,21.33l-1.1,1.84,1.1,1.46-.37,1.92V65.22a13.81,13.81,0,0,0,1,4.31c.64,1.65,1.47,2.47,2.47,2.47a8,8,0,0,0,4-1.28c.91-.73.73-2.2,1.19-3.39Q88.55,64.41,95,57.71V40.05a10.25,10.25,0,0,0-1.44-.74,8.22,8.22,0,0,0-3.21-.55c-1,0-3.39.19-4.58.19H85l.46-.37a25.11,25.11,0,0,0,4.31-3.94,71.62,71.62,0,0,0,5.2-6V10.45a9.06,9.06,0,0,0-4.65-1.26A20.65,20.65,0,0,0,83.66,10.56ZM90.17,43c1.56,0,2.47.45,2.66,1.37.64,2.84-.92,6-4.5,9.61-3.2,2.93-5.13,4.12-8,5.13l-2.66,1.1.64-3.66h-.18c-.28,0-.73.91-1.1,2.47-.09.27-.46,1-.46,1.1l-.27.64c-.46.73-1.2,1.83-1.56,1.83s-.37-.37-.37-1.1c0-1.83.28-4.49.64-8.42.28-2,.46-3.66.55-4.86l1.1-.73A29.77,29.77,0,0,1,82,44.72,42.69,42.69,0,0,1,90.17,43ZM94,16.61c-.09,1.1-.92,3-2.48,5.86a53.87,53.87,0,0,1-5,7.87A62,62,0,0,1,78,39l3.48-22.53A66.24,66.24,0,0,1,87.78,14a11.14,11.14,0,0,1,3.49-.64C93.38,13.4,94.29,14.5,94,16.61Z"/><path class="cls-4" d="M96,56.62c4.42-4.92,4.58-13.13-1-16.57V57.71C95.35,57.35,95.71,57,96,56.62Z"/><path class="cls-4" d="M98.6,23.11c2.11-3.94,1.83-7.33-.82-10.35A11.39,11.39,0,0,0,95,10.45V28.61A42.14,42.14,0,0,0,98.6,23.11Z"/><path class="cls-4" d="M110,56.22c-.73,1.36-1.36,2.22-1.73,2.08-.75-.19-1-2.57-1-5,0-1.56-.09-4.4-.09-6-.19-4.68.66-12.57,2.44-23.85.09-.64,1.32-6,3.57-16,.38-1.56-1.13-2.39-3.29-2.48a3,3,0,0,0-1.88.83,8.33,8.33,0,0,0-.84,2L106.49,10c-.41,1.05-.93,2.68-1.49,4.63V65.12a4.9,4.9,0,0,0,2.71.88q3.53,0,6.06-7H110Z"/><path class="cls-4" d="M102.45,24.91a132.27,132.27,0,0,0-2.26,18.16c-.37,7.06-.19,12,.47,14.86.78,3.36,2.41,5.93,4.34,7.19V14.58C104.14,17.58,103.19,21.34,102.45,24.91Z"/><polygon class="cls-4" points="125 35.04 125 35.04 125 34.69 125 34.69 125 35.04"/><path class="cls-4" d="M125,35v-.35l-.43,0Z"/><path class="cls-4" d="M115.08,43.61a2.3,2.3,0,0,0-.13.56,92.23,92.23,0,0,1-5,12V59h3.77A58.2,58.2,0,0,0,116,50.34a12,12,0,0,1-1-5.42C115,44.48,115,44,115.08,43.61Z"/><path class="cls-4" d="M118.9,33.86l-.06.13.09-.09Z"/><polygon class="cls-4" points="125 52.61 125 52.61 125 35.04 125 35.04 125 52.61"/><polygon class="cls-4" points="125 32.52 125 34.69 125 34.69 125 32.52 125 32.52"/><path class="cls-4" d="M124.57,34.64l.43,0V32.52c-1-.36-1.66-.85-2.44-1.12-3.83-1.85-4-1.57-4.78-.83-1.25,1.57.28,1,.28,2.13l.84,1.16c.53-1.18.87-1.8,1-1.8s0,1.19-.56,3.58-1.13,5-1.79,7.7l-1.13,4.77c-.13.77-.27,1.51-.41,2.23a6.23,6.23,0,0,0,3.84,3.48c.67.09,1.15.18,1.44.18A5.32,5.32,0,0,0,125,52.61V35Zm-1.91,11.58a7.64,7.64,0,0,1-1.34,3.61.72.72,0,0,1-.38.19c-.87-.65-.67-4.17-.2-6.67.39-3.06,1.06-4.63,2-4.82C123.61,38.9,123.52,42.24,122.66,46.22Z"/><path class="cls-4" d="M118.84,34l-.87.93c-1.12,1.25-2.55,4.7-2.89,8.69.27-.91,1-2.83,2.12-5.77C117.88,36.2,118.42,34.93,118.84,34Z"/><path class="cls-4" d="M117.58,43.34c.66-2.75,1.32-5.32,1.79-7.7s.75-3.58.56-3.58-.5.62-1,1.8l0,0-.09.09c-.42.94-1,2.21-1.64,3.85-1.15,2.94-1.85,4.86-2.12,5.77,0,.43-.07.87-.08,1.31a12,12,0,0,0,1,5.42c.14-.72.28-1.46.41-2.23Z"/><path class="cls-4" d="M127.63,33a7.22,7.22,0,0,1-2.63-.46v2.17l2,.23a12.64,12.64,0,0,0,3.73-.56,11.47,11.47,0,0,0,1.87-.7c.33-.71.66-1.36,1-2A17.68,17.68,0,0,1,127.63,33Z"/><path class="cls-4" d="M126,51.5c1.62-2.22,2.77-7.22,2-11.58A8.91,8.91,0,0,0,125,35V52.61A8.4,8.4,0,0,0,126,51.5Z"/><path class="cls-4" d="M144.65,28.91c1.67.19,1.86.82.47,1.92-.84,1.18-1.76,2.91-3,5.09-.75,1.42-1.46,2.69-2.15,3.79v8.56a64.75,64.75,0,0,0,6.6-10.16l2.41-5a94.13,94.13,0,0,1,.28,17.67,97.29,97.29,0,0,0-9.92,13,28,28,0,0,0-3.71,6.92,23.63,23.63,0,0,0-1,5.92,5.67,5.67,0,0,0,2.87,5.73,4.13,4.13,0,0,0,2.23.64c1.76,0,3.71-1.09,6-3.37s4.54-6.55,6.3-12.66a78.35,78.35,0,0,0,3.34-18.12,47,47,0,0,1,3.53-4.73c1.76-2.09,3.15-3.19,4.17-3.19a.8.8,0,0,1,.56.18.77.77,0,0,0,.55.28A.73.73,0,0,0,164.6,40a5.23,5.23,0,0,0-1.58-.36c-3-.09-7,3.91-7.24,4.48v-5a33.93,33.93,0,0,0-.27-3.46A12.37,12.37,0,0,0,154,30c-.93-1.55-2.78-2.28-5.66-2.28a14.36,14.36,0,0,0-3,.27,4.48,4.48,0,0,0-4-2,8.65,8.65,0,0,0-1.41.16V32C141.49,30.35,143.44,28.84,144.65,28.91Zm-.18,40.89q-3.06,7.23-5.84,7.92c-.38.09-.75-.18-1.12-.82-1.48-2.73.65-7.92,6.4-15.48l5-6.83A60.08,60.08,0,0,1,144.47,69.8Z"/><path class="cls-4" d="M133.55,31.69c.47-.17.95-.36,1.45-.57l-.1.56a4.94,4.94,0,0,1-2.34,2c-.33.7-.66,1.45-1,2.26-1.58,3.92-2.23,9.29-.75,11.93,1.4,2.1,3,3.1,4.64,3.1a4.85,4.85,0,0,0,2.13-.55,8.88,8.88,0,0,0,2.4-2.13V39.71c-.34.54-.67,1-1,1.5a12.31,12.31,0,0,1-3.16,3.36,1.9,1.9,0,0,1-1.2.64c-.65,0-.74-1-.28-2.91A22.6,22.6,0,0,1,138,34.47L139.09,33c.27-.35.58-.7.91-1.06V26.16c-.44.08-.93.17-1.47.3C136.87,26.91,135.21,28.64,133.55,31.69Z"/><path class="cls-4" d="M134.9,31.68l.1-.56c-.5.21-1,.4-1.45.57-.33.61-.66,1.26-1,2A4.94,4.94,0,0,0,134.9,31.68Z"/><polygon class="cls-4" points="37.35 52.99 37.35 52.93 37.14 52.99 37.35 52.99"/><polygon class="cls-4" points="34.42 53.43 34.21 53.32 34.24 53.4 34.21 53.46 34.32 53.54 34.32 53.57 34.34 53.54 34.4 53.54 34.42 53.43"/><polygon class="cls-4" points="38.48 52.74 38.51 52.8 38.48 52.85 38.54 52.91 38.54 52.93 38.59 52.93 38.59 52.88 38.62 52.8 38.56 52.8 38.48 52.74"/><polygon class="cls-4" points="34.53 53.62 34.45 53.62 34.37 53.71 34.37 53.73 34.4 53.79 34.37 53.84 34.48 53.76 34.56 53.65 34.53 53.65 34.53 53.62"/><polygon class="cls-4" points="38.86 52.71 38.78 52.71 38.83 52.8 38.91 52.8 38.94 52.82 38.99 52.82 39.02 52.77 39.05 52.74 38.94 52.66 38.86 52.71"/><polygon class="cls-4" points="32.22 51.53 32.22 51.47 31.98 51.45 31.95 51.47 31.98 51.7 32.09 51.61 32.25 51.58 32.22 51.53"/><polygon class="cls-4" points="57.94 37.99 58 38.06 58 38.02 57.94 37.99"/><polygon class="cls-4" points="57.97 36.97 58 36.99 58 36.97 57.97 36.97"/><polyline class="cls-4" points="48 35.06 48.8 35.11 49 35.11"/><path class="cls-4" d="M43,52.77l0-.44,0-1.54,0-.31-.09-.19-.18-.17L42.27,50h-.4l-.43,0-.44,0-.47.06-.43,0-3.87,0H35.8l-.81.06-.91-.06-.33,0-.13-.11L33.56,50l0-.14,0-.27.16-3.64v-.44l-.08-1.6v-.44l-.05-1.6v-.44l.08-1.6V39l0-1.24v-2.4l-.13-.19-.19-.12H33l-1.91,0h-.43L29.32,35l-.41,0H28.7l-.3,0-.18.09-.11.16-.08.36,0,.25v.41l.05.83v2.34l0,1.46v.44l.11,3.36v.44l-.06,3.36V49l-.05,1.46v.44l.11,1.46,0,.42-.13,1v.44l0,.33.14.17.18.11.3.06.38,0h.4l1.24-.08h2l1.56.11,2.42-.16h2L41,55l.68,0,.38,0h.21l.27,0,.19-.08.16-.2.08-.33v-.25l0-.44Zm-1.64-1.05,0,0,.08,0,.08.08h-.1l-.08,0Zm-.31,0-.07.05-.22-.17.29,0h.15v.06Zm0,1v.06h0l-.1,0-.08-.08h.11l.07.05Zm.05-1.65.06.08v0l-.12,0h0L41,51h0Zm-.29-.33h.11l.1.11V51l-.48.33Zm-.46.14.06,0,0,0h0V51l-.05,0h0l0-.06Zm-.16.74,0,0h.1l0,.08,0,0h-.05l-.08,0Zm0,1,.08,0,0,.05,0,.08,0,.09-.08.08-.08-.17ZM40,52.3l-.05,0h-.22l0-.06,0-.05.08,0,.16,0Zm-.32-.85.13,0,0,.14h-.08l-.08-.08h-.14l.08-.09Zm-.3-.69,0,0,.11.06-.06.05h-.05l0-.05ZM39.45,52l-.13.14-.08,0,0-.06,0-.08.08,0Zm-.27-.49.06,0,0,0,.08,0-.08,0h0l0,0Zm-.11-.25,0,.19L39,51.34l-.14.11-.1-.09Zm-.48.86.11,0,0,.19-.05,0-.08-.09Zm-.59-1,.27.06.08.25-.3-.09H38l-.06-.11Zm0,.44.08,0,0,.14H38l-.1-.06Zm-.29.42.08,0,.08-.11.13,0,.08.08,0,.27,0,.06,0,.08H38l-.19-.16-.1-.14Zm.29.55-.08.16h0l0-.05-.29-.14.37,0Zm-.51-1.32h.08l.11.11v.11l0,0,0,.14-.08.06-.08-.06,0-.11,0,0v0l-.06-.08Zm-.35.35v.11l.16.06.08.11.14,0,0,.11-.14,0L37,52v0h0Zm-.64.14.24,0,.08.25-.08.11L36.49,52l-.16-.2ZM36,51.53l.06-.11.13,0,.08.08-.1.28-.11,0L36,51.67Zm-.83-.47.05,0h.06l0,.06-.08.11-.05,0,0-.05Zm-.64.17v0l0-.06v0h0v.06l0,.05h-.05ZM34,50.9h0l.05.11,0,.13L34,50.92Zm-.46.52.11-.17.32.06.05,0-.11.06h-.13l0,0v.08l.08.14.11,0,.06-.08.08.06.05.16,0,0,.1,0,.14-.19.08.19.86.14.11-.14h0v0l0,0-.62-.19.16-.08.16,0,.11-.08,0-.16.16.24h0v0h.14l.08.08-.27.5,0,.05,0,.23-.3,0,.16-.28-.37,0-.19.08,0,.22-.08.05h0v0h0l0,0v0l0,0v0l.13-.05.14.11-.22.22.08.19L34.64,53l-.08-.24-.46-.25.11-.08,0-.2h-.24l-.08.11-.19-.16L33.62,52l-.14,0-.16.14-.21,0-.22-.11.08-.33.22-.22v-.19l-.19,0-.08-.05,0-.11.08,0,.11,0,.11,0,.11.19,0,.22h.11l0-.08Zm2.2,1.13-.05.05h-.06v-.08l.06,0Zm-.51.14-.16.3-.19-.06.16-.08.06-.14,0-.19Zm-1.53-.25,0,0h-.16l-.13-.09.13-.08.16.06Zm-1.61.33-.41,0v0l0,0,0-.08-.11-.09,0-.05.27-.06v-.13l-.05-.06.05-.16.11,0,.11.17v-.12l.08-.05L32,51.72l-.27-.25.06-.16.16-.06.13.14.06,0,.16.08h.11l.08.08-.06.11-.11,0-.08.08,0,.11.1.19.22,0,.13.08.06.11-.06.11h-.4v0h0l-.08.08H32Zm-1.62-1.16,0-.16h.05l.08,0v.11l.05.14,0,.16h0l0,.09-.05,0-.14,0-.1-.08,0-.11.11,0,.08-.17Zm.14-.25.08-.08,0,0,0,0,0,.06-.08,0Zm0,.83h.13l.06.05,0,.06h-.3Zm-.08-1.29-.08.11h-.3v-.14l.11-.19-.06-.36.11-.06h.19l.05.17.3-.11,0-1.08.16.25-.1,1.43ZM30.18,52v.06l-.24.22h-.22l.19-.14L30,52l0-.11-.14-.13,0-.2.17.11.26-.11.06,0,0,.06v0l-.22.08Zm-.43-1.59,0-.06.11,0,0,.33-.14.05-.13-.08.05-.17Zm0-.77.08-.22.16.16v.22l-.08.06h-.13Zm.11,2.89-.06.11-.13.05.13-.22Zm.32-3.17.11-.08.08,0,0,.06,0,.06-.05.05-.09,0Zm.38.5v-.09h.08l.11.09-.14,0Zm.59-2.15-.22-.09-.08.23-.19,0,.11-.25-.13-.19-.22,0v.06l0,0v.24l-.22.14-.08-.19.05-.19-.05-.09-.27-.11.06-.27-.06-.14.54-.33,0-.14L30,46.35l-.11.06-.29-.06-.06-.17.24-.13.17-.28,0-.3-.21-.22-.33-.11v-.06h.41l.08-.13v-.2l.59.25.05-.19.17-.11.16.08.16.47.29.22.06-.06v0l1.07-.3.14.11-.08.22h-.11l-.22.22-.26-.14-.17.08h-.18l-.06,0-.13.55-.24-.69-.17,0-.08.11-.21-.28-.11.06,0,.24-.13.09,0,.13-.08.09.16.47h.21l.11.13-.05.17.1.08H31V46.6l.08-.11.16.11v.66l.08.16h.13v0l0,0,.3.05.24.2.3-.11.24.55-.11.08-.05,0,0,0,0,.11v.14l-.19.3-.35-.06-.14.28,0-.22.16-.33-.08-.28,0-.08-.18-.16h0v0l-.11.11.11.08,0,.14-.22,0,0,.09.08,0,.05.11,0,.08h-.1l-.27-.24-.06-.25-.08.16-.16.06v.14H31l.14.08-.06.08,0,.08.11.11,0,.14-.19.3L31,49l.17-.14-.33-.44h-.29l.08-.16h.21l.08-.17.16-.08,0-.05h.06Zm-.78.47-.14.35-.21-.3L30,48l.21,0Zm-.78-.58-.3-.36.19-.33,0-.22.09-.17v0l.18,0v0h.14l.13.11-.43.24ZM29.29,52v0l-.16,0-.05-.11.05-.06.08,0h.11l.08.06Zm.16.5-.05.11-.14,0-.1-.05v-.11l.13,0Zm-.29.24,0,.11-.08,0-.06,0,0-.08,0-.11.09-.08Zm0-7.08.21-.16.27.14-.22.13Zm.8,2.21-.13.14-.19-.14Zm-.43-4,.11,0,.11.28-.08.11-.11,0L29.45,44Zm-.08-2.76V41l0,0,.05,0v.08h0Zm.32,3.31.09.11v.13l-.06,0-.05,0-.06-.11Zm.35-1h.11l0,0,.06,0,.11.08,0,.14.27.14-.05.14h-.06l.11.08.06.22-.14.05-.16-.11-.05-.13.1-.17,0,0,0-.17h-.08l-.13-.11,0-.11-.05.17-.14.14v-.2ZM30,40.65l0-.09,0,.06v.08Zm.57,1.15,0,.06h0l-.24-.25v-.08l.08,0,.05-.08.19.08,0,.25Zm0,1.63,0,.08,0,0-.08,0,0-.08.11-.08Zm1.69-.77h-.13l-.16.11-.17-.08-.08-.33.25-.25v-.25l.13-.14h0l0,0v.19l-.13.17Zm.08,2,.16,0,.06.06,0,0-.19.06-.19-.06Zm-.24-.82-.08-.17L32,43.24l0-.09.13,0,.11.16,0,.33Zm0-4.46-.06.05,0,.17L32,39.46v-.13l.05-.09h.06ZM32,41.23l.05,0,0,0v.08l-.06.08,0,.14-.05.08-.06,0v-.25Zm-.08-.75-.35.08.05-.22.21-.05.11.08Zm-.19,2.12,0,0H31.6v-.11l.06,0Zm-.06.8.14.25-.08.28-.16,0-.11,0-.06-.13Zm-.27-.66-.08,0,0,0v-.08l0-.08.08,0,0,.05ZM31.23,41l-.08,0-.06,0,0-.06,0-.05.08,0,.11.05Zm0,2.17,0,.17-.08.13h-.08l-.05,0,0-.14Zm.35,1.24.26-.16.06.19-.06.22-.35-.14-.29-.44H31l0,0,.14.14,0,.08-.08.08H31l0,.08-.08,0h0l-.11-.14.08-.36,0-.08,0-.16Zm0,.36,0,.14-.14.08-.16,0-.05-.17.05,0,.08,0,.14-.06Zm-.81-2.07-.08-.11.08-.05.11.08.05.14ZM30.26,44v.08l-.06,0,0,0V44l.05,0Zm.16.11.13.47-.05.14h-.24L30,44.5v-.16Zm2,2.29-.11.16-.08-.19-.16-.08,0-.14.13-.14h.19l.06.06,0,.11,0,0Zm-.78.11-.22-.2h.24l.33.28,0,.11-.13.25.27.14v.13l-.08,0-.35-.11-.25.14.27-.61Zm.05-.47,0-.14.13,0V46l-.08.11-.05,0Zm-1-.14,0-.33.49.58,0,.16-.05,0-.08,0-.24-.06L31,46Zm1.9,5.46h-.08v0h-.08l-.05,0v-.05h.05l.06,0,0,0h0l0,.05Zm0,.38v.08l-.08.06h-.11l-.08-.06v-.08l.06,0,.13,0Zm-.59-2.59.11-.08h.13l-.08.11-.13.05v0Zm.08,1.49.27-.33,0,.3L32,50.7l0-.16Zm-.59.63-.11,0v-.11l.08-.11-.05-.25.16.14Zm0,.2,0,.11-.06,0,0,0,0-.11.05,0Zm-.25-1.63,0,.33-.11.06-.05-.14.08-.39.27,0Zm0,2.18.27-.31.27.31h0l-.05,0-.27.11-.08.08-.11,0Zm0-2.68.27-.19.29.17,0,.08Zm.53.64-.05.11-.13,0,0-.11.08-.09Zm-1,1.62V51.5l.1,0,.11,0,.06.11-.06.14-.08,0v0l-.11,0,0-.06,0-.11Zm.05.75.13-.14h.19l.06.08-.08.39-.3-.19Zm.46.3.08.06v.08l-.22-.11Zm.05-.25,0-.19.05.08v.11l-.05,0Zm1.21-.91,0,0h0l.09,0-.06.06,0,0Zm-.11-.63.06-.08,0,0h.14l.13.11,0,.05Zm-1.18-12,.08,0,.08.06,0,.08-.1.09,0,0V38.8ZM28.94,53.13V53H29l.11.08h.13l-.18.08Zm.38.77-.08-.06.05-.05h.05l0,.05Zm.19-.8,0,0-.11-.06.08,0h0l0,0Zm0-3.69-.19-.36,0-.11h.08l.06.05h.11l.1-.08h.08v-.08h.06v-.14l.08-.08,0,0h0v0l-.06.11-.11,0v-.28l.25,0,0,.06,0,.08.8.39v.08L30.15,49l0,.09-.46.08,0,.16Zm.29,4.32h-.11l-.05,0,.05-.06h.11l0,.09Zm.08-.58L29.75,53l0-.22.14.24H30L30,53l0-.11L30,52.66l0,.11-.16-.25,0-.11.08,0,.13.08.05-.14.22.25-.24,0,0,.49-.08.28-.1-.2Zm.46,1-.24-.09L30,53.82l.16.08h.24l0,.14Zm.05-.47h-.05l0-.06,0-.08.08,0,.08.06Zm.3-.39-.08,0-.08.08-.22-.08V53l0-.05h.05l.19.13.11.14Zm-.22-.49,0,0,0-.06,0-.08,0-.05.08,0,0,.05.27.17Zm.43,1.26h-.08L30.74,54l0-.27.08-.08.08.08-.06.11,0,0v0l0,.08Zm.73-.35-.08,0,0,.06-.16.05-.16,0-.32-.28-.06-.28,0,0-.05,0,0-.11.11,0v-.09l0,0H31l0-.08.08-.14.41.3.05-.11.38.17-.27,0,0,0h0l-.17.11,0,.3-.11.11,0,0v0l.13,0,.16-.14.08,0,0,.11Zm.05-.47.08-.14.3.19.08.14-.11.08-.24,0Zm.49.74L32,54l-.08-.08,0-.14.11-.14.11,0,0,.25Zm.7,0h0v0l0,.09-.3.08-.24-.19,0-.14-.06-.17.14-.14-.11-.19-.08,0,0-.08h-.08l0-.08,0,0h0l.08-.08v-.36l.35-.22.19.06.08.19,0,.05h-.08l-.29.25,0,0,0,.3.1.06.06.25.1,0,0,0,.06,0,.18.11.06.19-.19-.11Zm2.93-.33-.11.08v.11l-.06.11-.05-.06-.11,0-.19-.25-.42.14.13.11h.08v0L35,54l-.08,0-.16,0-.11.11-.19,0-.27-.22v-.14l-.1,0-.08,0,.1.53h.06l0,0,0,0h-.35l-.08-.11h0v0L33,53.51l.56-.44,0,0v0l-.08-.11-.7.33-.05-.08,0-.11,0,0h-.06l0,0L32.62,53l0-.05.35-.17,0-.22,0-.16.13-.09.11.06.08.16.54.22v.17l0,0,0,.06,0,.08.22.11h.11l0-.14-.13-.22.08-.08.16,0,.11.14,0,.25.16.19v0h0l0,.3.08.06.41-.47V53l.21-.14.27.08-.24.22-.05.36h.18l.17-.11,0-.14.08-.11v0l0-.06.06.06v.08l-.08,0Zm.18.13-.1,0-.06-.06,0,0h0l.11.08Zm0-.44h.1l.06,0-.06,0H36Zm.56.86L36.33,54l0,0-.14,0L36.06,54l.17,0,.1,0h.41Zm.43-.61-.46.08-.16,0,.08-.39.22,0,0-.06h.05l0,.08-.06.09,0,.11.11,0,0,0,.14.11Zm.49.5-.09.11-.05-.06.05-.08.06,0,0,0Zm.29,0-.08.05h0l0,0,0-.11.11-.09Zm-.13-.33,0-.08,0,0,0,0,0,.08-.05.08Zm1.23.36h0l-.22-.31-.32,0,.19-.23.32.28.14.22Zm.84-.06h0l-.08,0v-.06h.08l0,.06Zm.8-.19h-.4l.08.11-.08.11,0-.22-.46-.25.21-.36V53l-.05-.08h-.3l-.08.11-.1,0-.19.33-.11.06-.11-.11,0-.19h-.17l-.1.13-.35-.13-.11,0,0,.09.08.22-.14,0-.13,0-.16,0-.27-.25-.14.22-.21-.19L37,53l.08-.16-.38-.36-.21.19-.06.44-.08,0,0-.09-.14-.13-.19,0,0,.11-.35-.17h.3l.18-.11v-.33l.11-.08v0l0,0-.11,0-.16.14-.08,0,0-.11,0-.08.08,0,0-.09.35,0,.13.22.17.05.05.2h0l.27-.25.11.05-.11.22,0,.2h.21l.08-.31.11-.05,0,0v.11l-.08.05,0,.08,0,.09.11,0,.16.22-.06.14h0l0,0h.16l.08-.08.17,0,.16,0v0l0,0,0-.14.59-.16.13-.14.3.06.08.08.11,0,.08.11.4,0,.11.27.05,0h.11l.11.06-.22.08v.08l-.05.08v.11H40l.21.17h.14v-.08l.08,0,0,.06,0,.11Zm.16-.83V53l-.05,0,0-.08-.06-.58.16.14-.05.19.16.09Zm.37.91-.18,0,0-.22.2.2v0l.05,0,0,0,0,.14Zm.09-1.57v-.06l0,0,.08.05v.06l-.05,0Zm.3.39.21.16-.4,0,0-.06Zm-.19.66,0-.06h0l.08.06,0,.08h-.11Zm.35.38-.11,0-.11-.14,0-.16.46-.33Zm.13-1.79.06-.19-.16-.08.16-.25.08.11,0,.11.05.44ZM42,53.6l-.06,0h0l0,0v-.06l.05-.06.06.06Z"/><polygon class="cls-4" points="50.75 37.05 50.66 37.05 50.64 37.03 50.58 37.03 50.58 37.08 50.53 37.11 50.66 37.19 50.75 37.14 50.83 37.14 50.77 37.11 50.75 37.05"/><polygon class="cls-4" points="49.51 44.89 49.46 44.89 49.51 45.11 49.51 44.89"/><polygon class="cls-4" points="52.28 36.95 52.53 36.89 52.28 36.89 52.28 36.95"/><polygon class="cls-4" points="49.32 43.69 49.32 43.74 49.27 43.8 49.4 43.82 49.4 43.8 49.43 43.77 49.46 43.77 49.46 43.71 49.4 43.69 49.32 43.69"/><polygon class="cls-4" points="49.32 43.38 49.35 43.36 49.35 43.33 49.29 43.27 49.21 43.38 49.24 43.52 49.32 43.47 49.32 43.38"/><polygon class="cls-4" points="55.36 36.42 55.33 36.51 55.55 36.62 55.58 36.48 55.44 36.4 55.47 36.37 55.36 36.42"/><polygon class="cls-4" points="51.08 36.92 51.02 36.92 50.99 37 50.99 37.05 51.1 37.11 51.13 37 51.08 36.95 51.08 36.92"/><polygon class="cls-4" points="55.25 36.31 55.33 36.31 55.41 36.2 55.39 36.2 55.41 36.1 55.3 36.18 55.19 36.29 55.22 36.29 55.25 36.31"/><polygon class="cls-4" points="48.22 50.34 48.2 50.18 48.17 50.2 48.11 50.2 48.09 50.31 48.09 50.45 48.31 50.42 48.22 50.34"/><polygon class="cls-4" points="57.77 38.34 57.75 38.4 57.64 38.37 57.55 38.4 57.61 38.51 57.8 38.56 57.83 38.53 57.86 38.53 57.83 38.31 57.77 38.34"/><polygon class="cls-4" points="48.03 48.34 48.2 48.34 48.31 48.18 48.22 48.1 48.25 48.04 48.44 47.96 48.41 47.85 48.25 47.71 48.41 47.66 48.55 46.81 48.44 46.73 48.33 46.89 48.31 46.89 48.25 47.27 48.17 47.11 48.2 46.95 48.11 46.84 48 46.84 48 48.1 48 48.1 48.03 48.34"/><polygon class="cls-4" points="48 50.36 48 50.38 48 50.37 48 50.36"/><polygon class="cls-4" points="50.03 47.79 50.01 47.71 49.92 47.71 49.81 47.9 49.95 47.93 50.03 47.79"/><polygon class="cls-4" points="50.2 47.77 50.2 47.74 50.31 47.77 50.12 47.58 50.12 47.6 50.09 47.6 50.12 47.69 50.2 47.77"/><polygon class="cls-4" points="48.14 48.73 48 48.57 48 48.79 48.14 48.81 48.14 48.73"/><polygon class="cls-4" points="47.98 43.36 48 43.39 48 43.3 47.95 43.36 47.98 43.36"/><path class="cls-4" d="M61.92,50.81l0-.3-.11-.17-.16-.08-1-.11-.41,0H59.8l-1.8.1h-.58l-2-.11L54,50.23h-.44l-1.51,0-.3,0L51.63,50l-.09-.19,0-.27V49l0-.44.09-.68,0-.41.09-.19.13-.09.33,0,.47,0,1.1.08h.44l1.75.06,2-.13h.16l.44,0,1.23.13h.55l.28-.05.19-.14.11-.19,0-.33.06-.82L61,45.11v-.9l0-.47,0-.47,0-.3-.08-.16-.16-.14-.31-.05-.85-.06-1.5.08-1.57.09H53.82l-.88.05-.87-.05-.31-.09-.11-.13,0-.2,0-.3,0-.46v-.44l.06-.66,0-.3,0-.16.14-.14.27-.06.22,0h.41l1.24.08,1.43,0h.44l1.4,0H58l2.24,0,.44,0h.22l.33-.06.14-.11.11-.19.05-.33,0-.41,0-.41,0-.69v-.46l.05-.69v-.74l-.05-.35-.06-.19-.16-.14L60.9,35h-.68l-.94.08-.46,0-.82,0-2.92,0h-.43L53,35.19h-.44l-1.65-.11h-.44l-1.47,0h-.2l-.8,0L47,35l-.36,0-.22,0-.14.11-.08.22,0,.38-.08,1.43v.41l0,.82v.66l0,.44L46.17,41l0,.44-.11,1.45v2.33l0,1.48,0,.44.08,1.45,0,.44,0,1.45v.44L46,52.37v.41l0,.41,0,.44,0,.63.06.3.08.19.19.14.33,0,.93.06L48,55l2-.12h.44L51.9,55h1.89l.44,0,1.43-.1.44,0,1.45.11H58l3.59-.11.14-.11.11-.19,0-.28L62,52.75l0-.44Zm-7-4.85-.14.14,0,.16-.11.11,0-.14.14-.35.11-.06.08,0Zm.85-2.19.09,0-.17.31,0-.17Zm-.93,1,.27.05.09.14-.09.11-.24-.11-.17,0Zm-.41-.94h.14l.05.09-.14.13h-.13Zm-.47,1.32.06-.06h.11l.08.14-.08.06H54l-.06-.06Zm-.9-.9,0,.11,0,.08,0-.08Zm-.2,1.12.11,0v0l.09,0,.11.08v0l0,.08-.11.11,0,.17,0,0-.06,0v-.06l0,0-.13-.31Zm-.3.68.06,0-.14.17-.11-.06,0-.08Zm-.38-1.59,0,0h0l0,.13h-.06l-.05-.05ZM54,51.16l.11.36-.17,0,.09-.11-.31-.24Zm-.6.5,0,0,.08.08,0,.11-.11,0,0-.08Zm-.2.33.25.16h.16l0,.11-.11.05-.35-.08Zm-.3-.36,0,.25-.06.24-.19-.24.14-.28Zm-.14-.22-.08,0,0-.11,0-.11ZM51.57,46l0,0-.3.54-.09,0-.11-.08.06-.08h.08l.08-.06,0-.11.24-.27Zm0-7.21-.27-.08-.06-.25.14.09h.27l.06.13Zm.06-.46-.09-.06,0-.08.08,0,.09.06Zm.13-.28-.22-.11.06-.27-.06-.05,0-.09h.08l.31.41Zm-.13-.68.11-.17.08,0,0,.08.27.14-.38,0Zm.52,1.34h-.08L52,38.56v-.27l.09-.08,0,.08,0,.19.08.08Zm.38-.35v-.06L52.15,38l0-.11.14-.08.38.08v0h0Zm.66-.11-.25-.06-.08-.22.08-.14.39.33Zm.44.3-.14,0-.08-.08.11-.27.11,0,.08.25Zm.91.38-.06,0-.08-.06,0-.08.08,0,.05.09Zm.65-.08h0l0-.14h.06Zm.53.25,0,0L55.63,39l0-.16.11.25Zm1-.22-.11,0-.13-.19,0-.22-.11,0-.08.11-.08,0-.14.17-.33-.06-.05-.08.11-.06.16,0V38.4l-.08-.11-.08,0-.09.11-.11-.14v-.08h0l0,0h-.11l-.14.2-.08-.2L54.37,38l-.11.14.06.08.52.11-.47.13,0,.2-.16-.28h0l-.14,0L54,38.23l0-.16.17-.11.08-.22-.06-.06,0-.21.3,0-.16.3.57,0,0-.25.11-.05,0,0v-.11l0,0v0l-.14.08-.16-.13L55,37v-.11L55,36.84l.14,0,.08.25.47.27-.11.08,0,.19h.22l.08-.1.22.16,0,.25.31-.17.46.11-.35.74v0l.11,0,.19.11v.08l-.08,0ZM54,37.36l0-.06.06,0v.08H54Zm.52-.11.19-.33.17.08-.17.08,0,.14-.06.19Zm1.59.3,0-.06.33.09-.17.08-.16-.06Zm1.13,1.7-.33-.14,0,0L57,39l.28.13ZM57,38.51l0,0,0-.06.06.06v.05H57Zm.38.24-.11.06-.11,0,0-.11.06,0,0,0v0l0,0h0l.06.06Zm-.25-.49v-.08l.09-.06h.1l.09.06v.11l-.06.05h-.13Zm.94.44-.08,0-.09,0-.14-.13-.05.05-.36-.19.06-.08.11,0,.08-.08,0-.11L57.55,38l-.38-.06,0-.14.06-.11h.38v0h0l.14.11.13.52.09.05,0,.08h0l.13.1Zm.35-1,0,.11-.06-.19.06,0Zm0-.38v-.08l.24.11-.16,0Zm-.11.16-.08,0-.11.05v.11l.05,0-.05.17-.08,0h0l-.22-.44,0-.16.23,0h.16l.19.28Zm.08,1.07-.05,0-.06-.06.11-.11,0,0Zm.16-.55-.27.31v0L58,38.06,57.94,38,58,38l0,0,.27-.11.08-.08.11,0Zm0-.27.11-.38.19.11,0,.05.06,0-.2.27h-.16v0Zm.22.68,0,.06,0,0,0-.27,0,0Zm.08.17h0l0-.17L59,38h.08l0,0-.09.22,0,0-.17.21h.06Zm.22-1.34h.47v.11l-.14.11h-.08v-.06Zm.2.46-.17.14-.11,0,0-.11Zm-.17,1,0-.14-.14,0,0-.11,0,0h.11l.13-.3h.25l.11.13-.19,0Zm.55.33-.16-.19v-.11h.08l.16.16Zm.52-.5,0,.09L60,38.51l-.06-.17.14,0,.11.08Zm-.41-.46,0-.08.11,0L60,38Zm.41-.33-.19.11.08-.33,0,0-.16,0-.41.44,0-.38.16.16.52-.55Zm.33.77-.05.08h-.22l.08-.17.11,0,.08.05ZM60.35,38l.06-.09.05,0V38h-.05Zm.33.46-.13-.3.19.08,0,.14Zm.22-.57V38h-.08l0-.06,0,0Zm-.11-.52,0,.08h-.08l-.08-.19v-.06h.08ZM60.16,36l.17.08.27.46-.08.31-.11-.28-.28-.38Zm-.22.41.17.13,0,.09-.06,0-.08,0,0-.08v-.06h0Zm0,.49-.19.22v.11h0l0,0-.06-.17,0,0L59.5,37l-.08-.13,0-.11.38-.11Zm-.57-.82,0-.11.09,0,.19.11-.11.3-.14.06-.11-.06.11-.11v-.08Zm-1,.14.47,0,.19.22.25.08,0,.16h0l0,.11-.3.14-.16.47-.09-.09v-.05l-.16-.14-.19,0-.06.09L58,37l0,0h.27l0,0,.19-.11,0-.36.13-.05,0,0v0l0,0-.14,0-.16.14-.08,0,0-.11Zm-.27.32.08.22-.06.14-.1-.08-.31-.25.14-.08.17,0ZM57.69,36l.17,0,.08.11-.14.27h-.11l0-.24ZM57,36h0v0h0l0-.08.33-.08.24.22v.3l-.11.11.09.19.22.14,0,.08,0,0h-.06l-.08.08v.36l-.38.22-.2-.06L57,37.27h.08l.33-.24V37l0,0,0-.25-.11-.08,0-.25-.22.05-.16-.1-.08-.2.19.11ZM54,36.23,54.1,36l.35.36.39-.16,0,0-.14-.13h0l0-.06.08-.08.55-.14.31.28v.11l.08,0,.11,0-.11-.53h-.06l0,0,0,0,.36,0,.8.79-.64.52.09.11.74-.33.05.11L57,37h0v0l.11,0,.06.06,0,0-.36.17,0,.38-.14,0-.11,0-.08-.14-.17-.08v0h0l-.35-.16,0-.36-.14,0-.08-.09-.14,0,0,.11.13.22-.08.11-.16,0-.14-.17v-.24l-.17-.2v0h0l0-.3L55,36.26l-.41.47v.16l-.24.16L54,37l.28-.24,0-.36-.36.14,0,.3-.06,0-.08-.06,0-.08,0,0,0-.35Zm-.27-.08.08,0,0,.08,0,.06h-.06l-.08,0,0-.11Zm0,.38v.09l-.17,0,.09-.06Zm-.58-.76.22.08,0,0,.25.11-.17,0-.11-.06H53Zm-.9,0,.05,0,.06,0-.09.13-.05,0Zm-.33.11.08-.09h.06l0,0-.05.11-.11.08Zm.14.3,0,.11,0,0,0-.11,0-.11Zm-1.29-.36h0l.25.3.3,0-.19.22-.33-.27-.11-.22Zm-.85,0,.1,0V36h-.1Zm-.75.14.31,0-.09-.11.11-.11,0,.22.49.28-.24.32.05.33h.33l.06-.11.13,0,.2-.36.11,0,.11.11,0,.2.17,0,.11-.16.35.16.2-.13-.09-.09v-.11l.14-.05.11.08.19,0,.28.25.13-.22.31.41-.09.17.36.35.25-.19.05-.46-.22.05,0,0h-.09v-.08l.06-.06,0-.14-.11,0,0,0-.14-.11,0-.08.5-.08.16.08-.11.39.25.27.19,0,.06-.08.35.16-.49.11,0,.3-.11.08,0,.08.14,0,.16-.13.08,0,0,.11-.16.11,0,.08h-.33l-.16-.22-.17,0,0-.19-.22.08-.09.16-.13,0,.13-.25,0-.16h-.25l0,.19-.16.14,0,0v-.08l.08-.06,0-.16L52,37l.08-.14h.05l-.21,0-.09.08-.19,0-.16,0v0l0,0,0,.13-1,.28-.17-.14-.14,0,0-.11-.44-.06-.16-.3-.22,0,.22-.08.08-.17,0-.11-.44-.19,0,.11H49.1L49,36.12Zm.64,15.15.08-.06.11,0v0l.16-.06.17.08-.14.06,0,0h.11l.08,0,0,.06h-.14l0-.11-.06,0h-.05l-.06.08v0l0,0-.1,0-.09-.11V51.3Zm-.86.49-.43-.58-.2.09,0-.17.08-.13.22.13v0l0,0,.06,0v.33l.05.06.11,0,0,0v-.28l.14.17-.06.16-.05.09Zm0,.38-.06.14-.14.06-.05-.06,0-.3.13,0Zm-.41-.74v.28l-.11-.14,0-.16Zm-.66-1.39h.05l0,0,0,.14-.05,0,0-.08Zm0-.39v-.05l.11,0,0,.06,0,.05h-.08ZM48,51.71l0,.09,0,.05L48,52h0l-.13,0-.39-.27.25-.11Zm0-1h0l-.06-.16.11-.14h0l0,0,0-.11v0h0l0-.11,0-.06.11,0,0,.11.17.11.19-.11,0-.33.11,0,.08,0,0,.39h0l-.71.38-.11.11Zm.06-1.3v0l0-.06h0l0,0,0,.05Zm.25.33-.09-.13.06-.14.11,0Zm.11.08,0,.09V50l0,.08h-.11l-.06-.16.08-.09ZM49,50.94l-.25,0,0-.08.11,0Zm0-.3.08-.13.17-.06,0,.11,0,.11.33-.11.11.06v.16l-.14.16h-.11l-.08-.08-.11-.19-.11,0Zm.63-.65h-.22l0,0h-.09l0,.06h-.08l0-.11,0-.09-.31-.16v-.41l.14-.14.19,0,.06.05-.06.06,0,.38h.11l.17.17.11-.06.22.08.08-.08,0-.11.19-.11.19.06-.19.08.17.08v0l.08.11-.08.28-.3.11-.09-.08-.16-.06Zm.63.93-.05.11L50,50.84h.22ZM50,49l-.47-.55h0l-.11.08.3.66-.08.05-.08,0,0,0,0,.17-.22-.36-.36,0v0L48.85,49l.42-.72.33,0,.1-.22,0-.11h-.14l.06,0-.25.09-.08-.09,0-.16L49.1,48,49,47.93h-.14v.22l.09.08-.09.08v.06l-.3.11.19.49-.11.22-.32-.08-.2-.22h-.19l-.08.27h-.08l0-.08.05-.08,0-.11.16-.11H48v-.22l-.11-.12,0-.3.08,0V46.84h0l0,0,.2-.13v0l.08-.22.16.05.11.14.22.08v0l0,0,.22,0L49,47l-.27-.16.05.54.22,0,.06.14h0l0,0h.06l0,0-.08-.11.14-.13.19.19h.08l.09-.06,0,.11-.25.09-.08.16.14-.11h.24l.17-.16h0v0l.27,0,0-.11-.74-.61.09-.24.21.24.33.06-.1-.33h-.14l-.09-.06h-.08l0-.08,0-.05.47.11,0,.08.22.05,0,.09v.08l-.28.19.17.33,0,.08.11-.14v0l.06,0,.08.08v.22l.11.11,0,.17-.25.27H50.2l0,.11,0,.08.49-.11v0l0,0,0,0v.33l-.11.08v0Zm-2.58.38.11-.25.05,0,0,.06-.11.24-.08,0Zm0-6.46.05-.09.06.06v0l-.06,0Zm.16,5.2v0l0,0,.11-.06.13,0ZM48,37,47.89,37H48l.33,0v0l0,.06-.17.08Zm.5.09v-.06l0,0,.16.13h-.11Zm.88,1.07,0,0-.11.06,0,0,0,0,0-.06Zm-.11-1L49.4,37l.09.16,0,.11-.08,0Zm.13,4.08h0l0,0L49.24,41l.14-.19Zm-.16.16h.08l0,.11-.11.06v-.08Zm0,.41.08-.16.14.11.08,0-.63.11.13-.16Zm.38-1.17.55.24,0,.11-.14.11-.14,0Zm.28.43v.11l-.11,0,0,0,.05-.08Zm.16-.63,0,.06,0,0v0H50l0-.08.05,0Zm0-1.34.06-.08.05,0,0,0,0,0Zm.22,2.3,0-.08.11,0-.08.31-.19,0Zm-.05-3.06,0-.06.06,0,0,0v.08Zm.11-.44-.09,0-.16-.08.16-.14.11.11Zm-.22.41-.09.08-.13,0-.11-.06v-.13h.08l.08.08Zm-.25-.66-.22,0,0-.11,0-.06.08,0h.11l.09.06Zm-.22,4.55.05.22h.12l0,.05H50v-.14l.16-.16V42l-.08,0,0-.06.14-.08.08,0v.39l.11-.08.11.08-.22.05-.24.44-.31-.22h-.21l-.09.06v.3l.11,0,.06.11.3.19,0,.09-.08.11-.2,0v.17l.14.08-.14.36.14.16.17-.08,0,.14,0,.1,0,.17-.25.25.23.13-.39.3-.14-.08-.33.36.17.19.44,0,0-.19,0-.05v-.06l.24,0,.11-.3.08.05.09.47-.06.14-.38-.09-.25.22,0,.2.09,0-.14.33v-.3l-.11-.14-.3,0L48.85,46l0,0h0l0,.11.14.17,0,.08-.11,0-.08-.08v-.05l-.08,0,0-.33.44-.35-.08-.2-.17-.08.06-.14.22.11.16,0v-.2L48.94,45l-.06-.11h0v0H49l.11.11.33-.28.14.06v-.17l-.06-.08.06-.16-.11-.17-.14,0-.28-.71.06-.28,0,0V43l.09,0,0-.42.19-.05,0-.06.06,0Zm.85-3.59,0-.22.13.16.14-.13.14.11Zm.36,7.56v0l-.11,0,0,0v-.06l.06,0Zm-.33-.25-.11.22,0-.63.13.2-.08.19Zm-.36-1.23-.11,0v0l.08,0,.09.06Zm.06,1.56-.09.14,0,0,0-.11.08,0Zm0-2.49,0,.3L50,43.85l.47-.41,0,0v.05Zm.14-1V42.7l.08,0,0,0,0,0,0,0Zm.11,1.75.08.09v0l0,0-.11,0-.08-.11Zm.08.42-.06,0,0-.11.11,0,0,0Zm-.66,1.2v.08h0l0-.08,0-.08Zm-.63.77.27.16,0,.17-.08-.14L49.07,47Zm-.19-.44.05-.06.06.06v.05l-.06,0Zm-1.21-1.73.11-.13h.14l0,0,.11,0,.06.08-.06,0-.19,0,0,0,0,.05Zm.08,2.85v.06l-.05,0h-.06l0,0v0Zm.41-3.37,0,.09,0,.08-.11-.11,0-.06Zm-.11-2,0,0v-.14l0,0,.06,0,0,.08,0,.06Zm.52.22.11-.05.06.05,0,.19-.05.06-.06,0v-.08Zm.11,1.18,0,0-.08.08-.11,0V43.6Zm-.22-.49-.08-.06,0-.08.08-.14.08.06,0,.11Zm-.08,1.09.25,0,.08,0,.06,0v.06l-.06.05-.3.25-.11-.17v-.1Zm0,.52.05.11-.05.36,0,0-.44-.11.11,0,0-.14.11-.08,0-.11Zm-.36-1.64,0,0h-.06v-.06l.06-.08,0,0Zm-.13,2.82.24.11,0,.11-.22.06-.11,0L48,46Zm.22-.16,0-.25.19-.08.14.05-.16.3-.14.09Zm.74-1.45.05,0,.17.08v.08l-.06,0-.14.27Zm.08-2.14,0-.06.08,0,.11,0,0,.09-.08,0-.08,0-.08,0Zm-1,.41h.11v.08l0,.08v.14l-.11-.19Zm0,.6-.09.1v.1l.06.08-.06.07,0,0-.09-.33.11,0ZM48,44l.06,0-.06.41h0l-.13,0-.09-.08v-.06l.06-.22Zm-.19,3-.05,0-.06,0,0-.08.06,0,.05,0Zm2.91.36-.11-.09,0-.13,0-.06.36,0-.11.11,0,.14Zm.19-9.62v-.19H51l.08.08,0,.11Zm-2-.88v0l.05,0,0,0,0,0,0,.58,0,0-.12-.1.08-.19L48.8,37ZM48.72,36l0,.22L48.55,36l-.08,0,0,0,0-.14Zm-.39.46,0,.06h0l-.08-.06,0-.08h.11ZM48,36.07h0l.09,0,.11.14,0,.16-.17.11-.33.22Zm-.39.08,0,0h0l0,.08-.05,0h0l0-.11Zm-.32,15.18.43-.08.17.11-.39.08-.19.05Zm0,.85.16,0,.11.08v.06l0,.05-.17,0Zm.19.57h.11l0,.06,0,.08-.14,0Zm.11.52-.11-.08v-.11l.28.17Zm.41-1,.42-.41-.17-.25h.38l-.13.33-.39.28v.13l0,0v0l.33-.06-.16.19L48,52.46h0l-.22.06Zm0,1.53h0l-.11-.08,0-.08.11,0,.14,0,.08.05,0,.11Zm.47-.21-.14-.09.14-.05h.11l0,.05Zm.16-.5-.16.19h-.14l-.24-.35H48l-.14-.08L48,52.7l0,0,.14,0,0,.14-.08.14h.16l.28-.11.13,0Zm.86,1-.14-.22.11-.25.14.22ZM51,54l-.33-.19-.19,0-.14-.08h0l0-.17h0v-.13l.08-.11.25.38.66,0Zm.22-.82-.11.08-.08.25-.39,0L50.34,53,50.2,53l-.08.36.08.22-.06.16-.16,0-.36-.38-.27,0-.3.52H49v-.38l-.3-.09.25-.52-.2,0-.08-.17.08-.13.39-.14.22-.3-.28-1,.09-.11.19.08,0,.11.16.16-.11.25.06.36.08,0h0v0l.14-.16v0h0l0-.11.14,0,.25.16.11-.22.08.06.06-.11.08,0,.25.14.11-.25h.13l0,.08-.11.3.14.22-.55-.22-.17.08,0,.09.08.13-.19,0,0,0v0l-.22-.11-.11,0,0,.06L50,52l-.61.22,0,.16.11.06-.2.08,0,.11,0,.11.2,0,.08.11h.11l.08,0v0l.44-.16v-.2l.11-.11.16.06.09-.11,0-.11h-.17l-.11-.08.11-.14H51l.13-.08v-.14h.06l.22-.6-.08-.11v-.06l.35-.22h.14l.08.09,0,0-.06,0,.49.22-.05.33.25.13-.2,0-.3-.16-.27.08-.06-.06-.16.2v0l.11.11,0-.11.14,0,0,.19.22-.14.11,0V52l-.25.27-.22.06.14.05,0,.14H52l.06-.25.08,0,.08,0,.08-.1.28,0,.13.14-.19,0-.11-.13-.41.27.06.17-.06.11-.14-.09v-.19l-.13-.05-.09-.14,0,0v-.05h-.22l-.08.19.19.08,0,.19-.22-.11-.19.11,0,.22h0l0,0,.25,0,.11.22-.17.06Zm-1.07-1-.09.3-.21-.09-.12.22-.27,0,.52-.44h.14Zm1.34,1.45,0-.14,0-.16.14.13Zm.39-.33-.22,0,0-.19.19-.08.14,0,.19.06Zm.71.63-.08,0,0,0,0-.06,0-.22,0,0v0l-.05,0v0l-.22-.05v0h0l.14.13H52l0-.19.06-.08h.08l.33-.77.08,0-.06.6.09.06.08.41.14,0,.08.11Zm.22-.88,0,0,0,0,.06,0,0,.13-.08,0,0,0Zm.11.44.16-.14.2,0,0,.22Zm.41-.66h-.08l.05-.13,0,0,.06.08Zm.69.8-.17,0-.11-.19.11,0,.17,0,0,.11Zm.33-.47-.61,0-.05-.09v-.16l.16,0,0-.17-.11-.11-.93,0,.22-.17,1.29.11,0,.33.11.06ZM54.56,52h-.08l-.08-.08-.22.06.11-.14.16,0,.11,0Zm.09.8-.06-.17h.06l.05,0,0,.06Zm.35-.28h-.22l0-.11,0-.08.08,0,.14,0,.06.08Zm.52-1.39v.16l.09.11,0,.11-.14,0-.08-.17Zm-.11,1.15,0-.06.11,0,.06.05,0,0h-.14Zm.28,1.23-.08,0-.06-.08,0-.11.11,0,.22.11Zm.22-2.36,0,0,.11,0v0L56,51.3Zm.35,1.46-.08,0,0-.08-.11,0v-.06l.27,0,.06.11Zm.42,1.06-.14.06,0-.06.08-.1.14,0Zm0-.46-.16,0,0-.08.11,0,.11.08Z"/></svg>