<svg id="Layer_1" data-name="Layer 1" xmlns="http://www.w3.org/2000/svg" viewBox="0 0 87.36 95"><defs><style>.cls-1{fill:#fff;}.cls-1,.cls-2{fill-rule:evenodd;}.cls-2{fill:#00dec8;}</style></defs><title>image footer</title><path class="cls-1" d="M26.24,29.31l0,.08-.05.07-.07,0-.08,0H26l-.15,0h-.37l-.39,0-.08,0,0,0,0-.07-.19-.53,0-.06h-.13l-.38,0H22.69l-.05,0,0,.07-.14.43,0,.1-.07.08-.09,0h-.1l-.36,0h-.1l-.39,0h-.08l-.08,0,0-.06v-.13l0-.1.09-.2,0-.09.15-.35,0-.09.16-.35,0-.09.14-.34,0-.09.17-.35,0-.08.23-.52.17-.37.05-.1.13-.28.05-.1.12-.29,0-.09.12-.25,0-.07.06,0,.09,0H24.2l.11,0,.07,0,0,.08.08.25,0,.09.16.29,0,.09.14.31,0,.08.11.32,0,.09.14.3,0,.08.14.31,0,.09.12.31,0,.09.19.38.15.3.05.08.16.39ZM24.1,24.37l-.08,0h-.14l-.28,0-.19,0h-.23l-.06,0-.05-.05-.31-.38-.17-.2-.06-.08,0,0,0-.09,0,0,.08,0h.16l.29,0,.42,0h.22l.07,0,0,.08,0,0,0,.1.06.14L24,24l.1.18.05.1,0,.09Zm.06,3.18,0-.08L24,27,24,27l-.12-.37,0-.08-.06,0-.08,0-.07,0-.06.06-.17.42,0,.1-.16.42,0,.09,0,.07.07,0,.08,0h.4l.29,0,.08,0,.05-.05Z"/><path class="cls-1" d="M33.42,26.59v.29l0,.16,0,.1,0,.12,0,.09-.06.12-.06.08-.08.12-.07.07-.08.08-.08.07-.09.05-.08.06-.14.06-.09,0-.11,0-.09,0-.14,0H32l-.1,0h-1l-.11,0h-.07l0,0v.08l0,.42v.59l0,0H29.56l-.08,0,0,0,0-.08v-.86l0-.33v-.1l0-.33v-.1l0-.76v-.1l0-.33v-.1l0-.33v-.1l0-.33v-.43l0-.06,0,0,0,0h1.32l.41,0H32l.09,0,.15,0,.1,0,.1,0,.09.05.09.05.08.06.12.1.07.07,0,0,.11.12.07.08,0,0,0,.08,0,0,0,.08,0,.09,0,.09v0l0,.09v.05l0,.09,0,.17Zm-1.29.11v-.15l0-.1,0-.05,0-.08,0,0L32,26.21l-.05,0-.1-.05-.16,0-.1,0h-.14l-.19,0-.27,0H30.8l-.06,0h0l0,0v.22l0,.23v.53l0,0,.06,0,.33,0,.42,0h.11l.11,0,.05,0,.09-.05,0,0L32,27l0,0,0-.08v-.05l0-.09Z"/><path class="cls-1" d="M38.3,29.31l0,.08,0,.07-.06,0-.09,0H38l-.15,0h-.37l-.39,0-.08,0,0,0,0-.07-.19-.53,0-.06h-.13l-.38,0H34.75l0,0,0,.07-.14.43,0,.1-.07.08-.09,0h-.1l-.36,0h-.1l-.39,0h-.08l-.07,0,0-.06v-.13l0-.1.09-.2,0-.09.15-.35,0-.09.16-.35,0-.09.14-.34,0-.09.17-.35,0-.08.22-.52.17-.37,0-.1.13-.28,0-.1.12-.29,0-.09.12-.25,0-.07.06,0,.09,0h1.06l.11,0,.07,0,0,.08.08.25,0,.09.16.29,0,.09.13.31,0,.08.11.32,0,.09.14.3,0,.08.14.31,0,.09.12.31,0,.09.19.38.15.3,0,.08.17.39Zm-2.08-1.76,0-.08L36.06,27,36,27l-.13-.37,0-.08-.06,0-.08,0-.07,0-.06.06-.17.42,0,.1-.16.42,0,.09,0,.07.07,0,.08,0h.4l.29,0,.08,0,.05-.05Z"/><path class="cls-1" d="M43.14,29.46l-.08,0H41.82l-.06,0,0,0-.2-.28,0-.08-.2-.26-.06-.08L41,28.43,41,28.36l-.2-.27,0-.05,0,0h-.07l-.2,0h-.08l-.05,0,0,.08v.44l0,.35v.52l0,0-.07,0h-.1l-.3,0-.28,0h-.1l-.29,0H39l0,0,0-.07v-.44l0-.33v-.1l0-.34v-.53l0-.34v-.1l0-.33v-.1l0-.34v-.1L39,26v-.87L39,25l0-.05.07,0h.42l.75,0,.42,0h.1l.41,0h.34l.1,0,.13,0,.09,0,.09,0,.1,0,.1.05.08.05.12.08.06.05.07.07.06.07.09.12,0,.09.08.11,0,.09,0,.1,0,.09v.54l0,.11v.1l0,.1,0,.1,0,.09-.06.09,0,.08-.06.08-.06.07-.09.1-.07.05-.13.07-.07.05-.08,0-.08,0-.05,0,0,.05.23.31.05.08.23.3.06.08.22.31.06.07.2.23.05.07,0,.07ZM41.39,27l.08,0,.07-.05.07-.07,0-.09,0-.1v-.21l0-.11,0-.09,0-.09-.05-.08-.07-.05-.09,0-.13,0h-.51l-.32,0h-.08l0,0,0,0v.31l0,.11V27l0,0h.08l.32,0h.1l.41,0Z"/><polygon class="cls-1" points="47.12 25.48 47.11 25.57 47.12 25.76 47.11 25.86 47.11 25.91 47.1 25.98 47.08 26.03 47.04 26.06 46.97 26.07 46.87 26.07 46.68 26.05 46.58 26.05 46.29 26.07 46.19 26.07 46.04 26.05 45.94 26.05 45.9 26.06 45.84 26.08 45.81 26.12 45.81 26.2 45.78 26.57 45.78 26.66 45.81 27.04 45.8 27.14 45.77 27.51 45.77 27.61 45.78 27.98 45.78 28.55 45.77 28.92 45.77 29.01 45.81 29.29 45.81 29.39 45.79 29.47 45.76 29.5 45.68 29.51 45.56 29.5 45.41 29.49 45.3 29.48 45.02 29.5 44.92 29.5 44.64 29.48 44.57 29.47 44.53 29.45 44.52 29.39 44.52 29.28 44.53 29.02 44.54 28.92 44.54 28.45 44.55 28.08 44.55 27.98 44.55 27.61 44.55 27.51 44.53 27.14 44.52 27.04 44.52 26.57 44.51 26.2 44.51 26.11 44.49 26.06 44.43 26.05 44.34 26.05 44.14 26.06 44.02 26.06 43.86 26.05 43.75 26.04 43.65 26.05 43.5 26.05 43.41 26.05 43.36 26.05 43.29 26.04 43.25 26.01 43.23 25.97 43.22 25.91 43.22 25.87 43.21 25.77 43.22 25.58 43.22 25.49 43.2 25.25 43.21 25.15 43.23 25.07 43.25 25.03 43.29 25.01 43.35 25 43.49 25 43.73 25.01 43.82 25.01 44.19 24.99 44.29 24.99 44.65 25.02 44.75 25.02 45.22 24.99 45.58 25 45.67 25 46.14 24.99 46.6 24.99 46.81 24.98 46.91 24.98 46.97 24.99 47.04 25 47.08 25.03 47.11 25.07 47.13 25.14 47.13 25.19 47.13 25.28 47.12 25.48"/><polygon class="cls-1" points="49.04 28.51 49.04 28.61 49.02 28.95 49.02 29.04 49.01 29.39 49.01 29.45 48.99 29.49 48.94 29.5 48.85 29.51 48.54 29.5 48.15 29.5 47.84 29.48 47.8 29.47 47.78 29.45 47.78 29.39 47.77 29.23 47.77 29.13 47.76 29.04 47.76 28.95 47.74 28.61 47.75 28.51 47.77 28.17 47.78 28.07 47.76 27.73 47.76 27.63 47.75 27.29 47.75 26.76 47.74 26.41 47.74 26.32 47.75 25.98 47.75 25.44 47.74 25.1 47.76 25.03 47.79 25.01 47.86 25 47.91 25 48 25 48.15 25 48.25 25 48.54 24.99 48.92 24.99 48.99 25 49 25.04 49.01 25.11 49.02 25.27 49.03 25.37 49.03 25.98 49.03 26.32 49.03 26.41 49.03 26.76 49.03 26.86 49.03 27.19 49.03 27.29 49.02 27.63 49.02 28.17 49.04 28.51"/><path class="cls-1" d="M54.05,29.46l-.08,0H52.73l0,0,0,0-.2-.28-.06-.08-.2-.26-.05-.08-.18-.29,0-.07-.2-.27,0-.05,0,0h-.08l-.2,0h-.08l0,0,0,.08v.44l0,.35v.45l0,.07,0,0-.06,0H51l-.29,0-.29,0h-.1l-.29,0H50l0,0v-.51l0-.33v-.1l0-.34v-.53l0-.34v-.1l0-.33v-.1l0-.34v-1.3l0-.08L50,25l.08,0h.42l.74,0,.42,0h.1l.41,0h.35l.09,0,.13,0,.09,0,.1,0,.1,0,.09.05.08.05.12.08.07.05.06.07.06.07.09.12.06.09.07.11,0,.09,0,.1,0,.09,0,.1v.1l0,.14v.31l0,.1,0,.1,0,.1-.05.09,0,.09-.06.08,0,.08-.06.07-.1.1-.07.05-.12.07-.08.05-.08,0-.08,0,0,0,0,.05.22.31.06.08.22.3.06.08.23.31.06.07.19.23.06.07,0,.07ZM52.3,27l.08,0,.08-.05.06-.07,0-.09,0-.1v-.32l0-.09,0-.09-.06-.08-.07-.05-.08,0-.14,0h-.51l-.32,0h-.07l0,0,0,0v.52l0,.35V27l0,0h.07l.33,0h.09l.42,0Z"/><path class="cls-1" d="M61.41,27.36v.25l0,.1,0,.14,0,.1,0,.1,0,.1,0,.1,0,.1-.07.13-.05.08-.09.1-.06.07-.11.1-.13.14-.09.07-.11.09-.08.05-.13.07-.08,0-.14.05-.09,0-.1,0-.1,0-.38.06h-.09l-.14,0H57.47l-.26,0-.05,0,0,0,0-.07v-.15l0-.19V26.75l0-.33v-1.2l0-.09v-.07l0,0,.07,0h2l.2,0h.1l.17,0,.1,0,.09,0,.22.08.1,0,.09.05.09,0,.2.15.08.07.08.06.14.13.06.06,0,.07.05.08.07.14,0,.09,0,.1,0,.1,0,.1,0,.1,0,.14,0,.1,0,.1v.46ZM60,27.89l0-.09,0-.11,0-.09,0-.14v-.53l0-.14,0-.09,0,0,0-.09-.09-.14,0,0-.06-.07-.07-.06-.08-.06-.13-.08-.09,0-.09,0-.1,0h-.65l-.13,0-.07,0,0,0,0,.08v.43l0,.14v.94l0,.14v.32l0,.15,0,.07,0,0h.08l.58,0h.14l.1,0,.11,0,.1,0,.09,0,.08-.06.11-.1.07-.07Z"/><polygon class="cls-1" points="65.65 28.9 65.64 29 65.62 29.34 65.61 29.4 65.59 29.44 65.55 29.47 64.74 29.49 64.64 29.49 64.31 29.47 64.21 29.47 63.88 29.5 63.79 29.5 63.36 29.5 63.03 29.48 62.93 29.48 62.4 29.51 62.19 29.5 62.11 29.49 62.07 29.45 62.05 29.41 62.03 29.34 62.02 29.2 62.02 29.1 62.02 29.01 62.02 28.91 62.05 28.58 62.05 28.48 62.05 28.15 62.05 28.05 62.03 27.72 62.02 27.62 62.03 27.29 62.03 26.76 62.06 26.43 62.05 26.33 62.03 26 62.03 25.9 62.03 25.75 62.04 25.56 62.04 25.47 62.06 25.14 62.07 25.06 62.09 25.01 62.12 24.98 62.17 24.98 62.25 24.96 62.65 24.99 63.03 24.98 63.13 24.98 63.51 25.01 63.6 25.01 63.98 24.98 64.08 24.98 64.92 25 65.03 24.99 65.24 24.97 65.4 24.97 65.49 24.99 65.52 25.02 65.54 25.06 65.55 25.14 65.55 25.31 65.54 25.47 65.54 25.57 65.54 25.73 65.55 25.82 65.54 25.92 65.53 25.99 65.5 26.04 65.47 26.06 65.4 26.07 65.35 26.07 65.25 26.08 64.66 26.07 64.56 26.07 64.25 26.08 64.15 26.08 63.82 26.07 63.54 26.05 63.45 26.05 63.4 26.05 63.34 26.07 63.3 26.1 63.3 26.14 63.29 26.2 63.27 26.35 63.27 26.45 63.28 26.56 63.29 26.63 63.3 26.67 63.32 26.7 63.39 26.72 63.59 26.73 63.79 26.72 64.38 26.72 65.08 26.68 65.27 26.7 65.34 26.71 65.38 26.74 65.4 26.78 65.41 26.84 65.42 26.95 65.42 27.06 65.42 27.26 65.44 27.41 65.42 27.59 65.41 27.67 65.39 27.71 65.34 27.74 65.28 27.75 65.16 27.75 64.88 27.72 64.78 27.72 64.28 27.75 63.88 27.74 63.78 27.74 63.53 27.72 63.42 27.72 63.35 27.73 63.32 27.75 63.3 27.79 63.29 27.89 63.27 28.04 63.27 28.14 63.27 28.28 63.27 28.34 63.29 28.38 63.32 28.41 63.39 28.41 63.73 28.43 63.83 28.43 64.17 28.4 64.61 28.43 64.71 28.43 65.15 28.4 65.24 28.4 65.34 28.41 65.56 28.43 65.6 28.45 65.62 28.49 65.63 28.56 65.65 28.9"/><path class="cls-1" d="M15.91,57.83l0,.11-.17.1-.14,0-.84,0-.87,0L13,58l-.86,0L11.28,58l-.84-.07-.87,0H8.73L7,58l-.86,0H3.61l-.87,0H2.41L1.9,58l-.14,0-.07-.05-.05-.11,0-.12-.12-.89v-.86l0-.89v-.87l0-1,.12-.86L2,51.39l.4-.79.53-.77.64-.64.79-.46.84-.35L6,48.12l.89-.19.91-.16.89-.1.82,0,.77-.14.37-.19.28-.23.21-.33.07-.44-.07-.42L11,45.55l-.26-.29-.32-.21-.21-.11-.5-.14-.79-.1-.82,0-.26,0-.47.17-.23.16-.28.33-.19.37-.11.42-.07.12-.1,0-.26,0-1,.07h-1l-1,.09-.52,0-.49-.07H2.09l-.17-.14-.07-.12-.07-.16.14-.85.24-.77.33-.77L2.93,43l.59-.56L4.19,42l.73-.35,1.57-.52.79-.18.8-.07.84,0,.82,0,.84.09.8.19.79.28.77.3.73.38.68.49.58.58.47.68.35.77.14.77,0,.87,0,.89-.16.77-.31.84-.42.68-.63.59-.73.44-.72.37-.82.31-.82.16-.86.1H9.57l-.46,0h-.4l-.4.07-.47.12-.47.23L7,52.05l-.28.23-.33.38-.21.39L6,53.83l.12.09.84.09H8.66l.87,0,.86.07.87,0,.16,0,.1-.07.09-.14.05-.12,0-.3V53l.05-.66.05-.14,0-.07.24,0,.86-.13.87,0,.89,0,.86.08.12,0,.14.09.07.12,0,.19.1.86v.89L16,55l0,.89.07.88v.61l-.05.26ZM2.28,54l0,.07.1,0,0-.09.07-.12-.09-.14V54Zm.65-1.2-.05,0-.09.09.09.12.05,0h.28l.14-.21-.19,0-.18,0Zm-.05,1.85-.07.1.07.09.12,0,.07-.12v-.09H3l0,0Zm14.37,3.37v.61l-.05.26-.05.18,0,.12-.17.09-.14,0-.79,0-.87,0-.84,0-.87,0-.86-.05-.84-.07-.87,0H10l-1.71,0-.87,0H4.9l-.87,0H3.7l-.51-.07-.14,0L3,59.16l0-.12,0-.11-.05-.35.77,0H6.16l.89,0,1.68,0H9.6l.82,0,.84.08.89,0,.86,0,.84-.05.82.05h1.27l.25-.05.19-.14.07-.23L16.5,58l0-.23,0-.4v-.61l-.07-.89,0-.84.05-.87v-.93l.28,0,.12,0,.14.1.07.12,0,.18.09.87v.89l0,.86,0,.89Zm-14-6.9,0,.12,0,.07,0,.09L3,51.56l0,.21,0,0h.07l.05-.07.07,0,.07-.23,0-.07v0l.05-.07.07-.07,0,0v-.07l-.09,0H3.26Zm0-3.53,0-.07-.07-.17.05-.25h.11l1-.1h1l1-.07.28,0,.19,0,.19-.1L7,46.55l.12-.19L7.21,46l.12-.26.18-.21.12-.09.33-.1.19,0,.74,0,.73.07.38.15.14,0,.23.16.16.19.1.17h0l-.09,0-.37-.12-.73-.07-.75,0-.19,0L8.15,46,8,46l-.19.23-.11.26-.1.37-.12.19-.14.19-.56.11-.91.17-.19,0h-1l-1,.09H3.33Zm.86,4.93,0,0-.05,0H3.91l-.07.05.05.09.07,0h.09l.07,0,0-.07,0,0Zm.8,2.53,0,0h0v0l0,0H4.9l0,0,0,0ZM5,50.53l0-.07-.1-.05v.16l0,0,0,0Zm.24,1.89v0l0-.1,0-.07v-.07l0,0-.07,0v.07L5,52.24l0,0-.1,0,0,0,0,.07,0,.05.07,0h.09l.09,0,0,0Zm0,1.06,0-.1,0-.09,0,.09Zm.63-9.6v0l0,0L6,44l.12-.07-.14,0Zm.94-.63.07,0v-.12l0,0v0h0l0,0v0l-.09,0-.05,0,0,.05v0h-.1v0l0,0,.07.14,0,0Zm.54,10.2H7l-.31-.05,0-.14L6.86,53l.23-.28.26-.18.31-.21L8,52.09,8.4,52l.47,0h1.55l.91-.1-.05,0,0,.09-.07.22v.07l0,.18-.3,0-1.54,0-.47,0-.4.12-.37.18-.31.21-.26.19Zm-.61-2.66v.09l0,.14,0,.14-.07.12v.16l0,0h0l.09-.16,0-.21L6.81,51l.05-.1.07,0v-.09l0,0H6.81Zm.19-8.66v-.05l0,0,0,0,0,0v0l0,0h.05Zm.14,7.63-.12.07V50h0l0,.07-.07.09H7l0,0L7.09,50h.14v0l0,0,0-.14-.07,0Zm.3-7.68-.07.17v.09l-.07,0H7.14l0,.07,0,.07.05,0h.07l0-.07,0-.12,0-.14.1-.07L7.54,42l0,0Zm0,8.89h0l0,0v0l0,0H7.4V51h0Zm.94-1.92-.12.05.12.09h.14v0l0,0Zm.09-5.56,0,.07v.09l0,0v-.11l0,0Zm1-1.13.07-.07,0-.11-.07-.1V42l-.09,0-.12.1-.09.11,0,.05,0,.07.07,0,.07,0h0l.07,0ZM9.34,44l0,0-.1,0,0,.1,0,.06.1,0,0,0h.05l.07.07.09,0v-.07L9.48,44Zm.54-1-.1.09.05.12.07.05,0-.07V43ZM10,41.61l.05,0v0l-.05,0h0l0,.07,0,0v0Zm.07,2v.09l0,.16,0,.1V44l0-.1,0,0v0l0-.09.05-.12L10,43.58Zm.37-1.83-.11.05.11,0,.12,0Zm.24,2.58-.12.07.07,0h.07l0,.09,0,0,0-.07,0-.07Zm.49-.64h-.07l0,.1h.07l.05-.05v0l0-.05Zm.18.29,0,0v0l.07.1.09-.07V44l-.09,0-.07,0Zm.22-.22-.07,0v0l.11.1.17.14-.07-.24Zm.16,4.94,0,0,.12,0,.12-.11H11.8l-.1,0Zm.16-4v.14l.17-.07,0-.16,0,0h-.07Zm.14-.61,0,0v0l0,0h0l.05,0v-.07H12Zm.21.84,0,0-.07,0v.1h0l.05-.07.07-.07,0,0Zm.33-.6.14-.05.12-.07.14-.07.16,0-.21-.07-.18,0-.31,0-.14.11,0,.22.11.07Zm.26,1.7,0,0V46l0-.11-.07-.14-.09-.08-.1.08-.09,0-.1,0-.09,0-.07.07,0,0,.1,0,.14.14h0l0,0h.12l0,0Zm-.45,2h-.07l0,.07,0,.05.07,0,.05,0,0-.07-.07-.07Zm.31-3.18-.05,0v0l-.07-.07h0V44.7l0,0h0l-.07,0-.1,0,.07.14,0,0v0l0,0,0,0,0,0,0,.12h0v0h0l0,0,.15,0Zm-.26-1.06,0,0v0l0,0,0,0,0,0v.07h0Zm.24,1.69,0,0,0,0,0,0-.19,0-.09,0h-.09v.07h0l0,0h0l0,0h.09l0,0,0,0,.09,0,.12,0Zm-.31,1.92,0,.07.07.07h0l0-.07-.07-.07Zm0-2.23.21.22,0-.17-.09-.09h-.07Zm.4,1.5h0l.07,0,0,0H13l.09,0h.23l-.09,0-.09-.08-.07,0,0-.05,0,0,0-.09-.05,0-.09,0,0,.11,0,.1v0h-.17v0l.05,0,0,0Zm-.07,1.31,0,0v0l.07,0h.07l.09-.12L13,48l.14,0-.28-.14Zm.19-2.76h0l0,0v0l0,0h.07l0,0v-.05Zm.23-1.47,0,0v0l-.05,0-.07,0h-.11v.12l.07.11h.18Zm-.18,2.31,0,0h.26l.07-.07.05,0v0l0,0,0,0h-.07l0,0,0,0-.07,0,0,0-.07,0h0l-.05,0,0,0Zm.51,1.41-.09,0-.07,0-.05,0,0,0,0,0-.07,0-.12-.07h-.09v0l.07.07.18.14.21.14h.07l0,0h0v0l0,.09,0,.07,0,0,.14-.12,0,0,0-.1,0-.07Zm-.54-3.14v.19H13l.09,0,0,.14v.12l.14-.19L13,44.56l-.14-.16Zm.05,1.13-.05.07,0,.06.07.08.09,0h.09l0,.12.05,0,0,0,.1,0h.09l.12,0,0,0v0l-.07,0-.05,0,0,0-.16,0-.1-.12-.11-.11-.1,0Zm.16-2,.07-.05,0-.07,0,0h-.19l0,.07,0,0ZM13,47v.11l.07.08h.05l0,0V47l-.07,0,0-.05Zm.07,2.45,0,.05,0,.07h.11l.12,0,0,0v0l-.07,0-.14,0Zm.1-.7,0,0,0-.07,0,0v0h0l0,0,0,.07,0,.07Zm.6,2.67h-.65l.79-.4.85-.54.65-.63.47-.75.37-.95.17-.89.07-1-.05-.87-.14-.77.31.47.14.32.11.66,0,.7,0,1-.16.89-.38,1-.47.77-.65.61-.66.37Zm-.44-4.91,0-.1-.1,0-.07,0,0,.1,0,0h.14Zm0-1.13,0,0v-.07h-.07l-.05,0,0,0v.11l.07,0Zm.12-.49v0l0,.09v.09l.1-.11.09-.1,0-.07v0l0,0v0l-.07-.14,0,0-.14,0-.1.11.05,0,0,.07Zm1.12-.28-.14-.07,0,.12v.23l.05.14V45l0,0v0l0,.14,0,.16,0,0v0l-.16,0-.14,0L14,45.48l-.26,0-.11-.1-.07-.07,0,0v0l-.05.05,0,.07,0,.21.18.07.14.05,0-.14h.16l.05.19,0,.11,0,.1.07,0,.05.07.09.1h0l0,0h.05l0,0,0-.14-.1-.09v0l0-.07,0-.09.1,0,.07,0,.11-.11.14,0,0,0v-.07l0-.07.1-.07.11-.07,0-.14-.07-.14Zm-.75,0v-.07l-.11-.1-.14-.12-.07-.07-.07.05,0,0v.08l0,0,.05.07.07,0Zm.22,3.39-.07,0L14,48l0,0-.07.12v.05l0,0h.05l.07,0,.12-.09,0,0,.05-.12-.05-.14Zm0-3.07L14,45v.24l.16,0,.21-.16v-.05l0,0-.07-.28-.05-.12-.12-.07-.06-.07h0l0,0v.07l0,.1,0,.09v.07Zm.26,1.55-.05,0,.05.12.09.05.07,0V46.5l0-.09-.07,0Zm.23-.31,0,0,0,.09v0l0,0v.07l.05-.07h0v0l0-.05v0l0,0Z"/><path class="cls-1" d="M20.76,57.59,20,57.31l-.67-.37-.66-.54-.35-.49-.26-.47L17.9,55l-.18-.66-.07-.42,0-.46.07-.26.09-.17.14,0,.87-.07,1.1.07,1.26,0,.68,0,.26.09.12.24.23.44.44.37.33.14.8.19.65.05.59,0,.58-.12.73-.33.25-.19.33-.32.35-.68.05-.47-.14-.54-.09-.37L27,51.25h-.12v0l-.72.37-.89.26-.87.09-1.85,0L21.67,52l-.79-.23-1-.45-.85-.53-.63-.61-.61-1-.25-.7-.19-1-.07-.89.12-1,.18-.71.33-.82.45-.72.56-.66.68-.56.72-.42.87-.37.84-.21.86-.17.75-.09,1,0,.89,0,.89.09.91.19.79.26.75.33.82.49.7.54.59.63.44.58.47.94.16.75.1,1v1.9l-.12,1.89v1.9l-.07.86-.19.87-.32.79-.47.77-.66.73-.58.49-.7.42-.89.38-.7.18L26.44,58l-.79.16-1,.12-.82-.07L22.49,58l-1-.24Zm-1.9-8.44,0-.1-.1-.07,0,.05v0l.05.07Zm1.2,0L20,49h-.12l-.05,0,0,0,0,.12,0,.09h.09l.07-.07,0,0Zm.3-.7,0,0,0,0h0l-.05,0,0,0h0l.05,0Zm.52.14,0,0-.14,0-.12.09,0,.07-.07,0-.05,0-.05,0v.07l0,0,.07,0,.11-.12.07-.09h.12l.1-.07Zm12.53-1.38v6.08l0,.54-.07.65-.19.75-.18.47-.21.45-.28.46-.57.66-.3.3L31,58l-1,.54-.84.33-.68.19-.52.11-.91.14-.72.07h-.66l-1.19,0-1.08-.14-.68-.12-.63-.18-.72-.28-.87-.52.66.16.82.24,1.52.23.82.07.6-.07.8,0,1-.09,1-.21,1.15-.36.84-.39.49-.31.54-.42.63-.61.61-.89.25-.56.26-.79.14-.8,0-.7v-3l.14-1.66,0-1.92,0-.7.35.54.16.42.12.37ZM21.25,52.59l-.49-.33.47.14.67.07.87.12,1,.07.86,0,.91-.12.75-.21.61-.23,0,.19.12.37-.3.54-.19.21-.49,0-1.17,0H24l-1-.09-.26-.07-.3-.1-.14-.07,0-.07-.14-.25-.23-.07-.47,0h0ZM21.16,50l0,0h-.07l0,.07v0l0,0,.05,0,.05,0Zm.21-.68,0,0,0,0,0,0v.05h.05l.05,0Zm.72,1.38,0-.07-.1,0,0,0h0l0,0-.07,0,0,.07h.12l0,0,.05.08h.07l0,0Zm-.28-6.78.07,0,.1,0-.1,0h-.07Zm.56,5.26,0-.09V49l-.07,0-.12,0-.09.1-.07,0v0l0,0,.05,0,.07,0,.05,0,.07,0,.07,0Zm5-2.45-.11-.63-.4-.56-.38-.29-.28-.14L25.67,45l-1-.14-.66,0-.58.07-.54.24-.51.49-.24.47-.09.61.14.67.42.61.3.21.87.4.86.12,1.1-.12.75-.28.54-.49.24-.54Zm-4.7,3.2-.05,0-.07,0,0,0v.09l.05,0,.09-.1Zm-.07-7.34,0,0h.05l0,0v0l0,0h-.07Zm0,.72,0,.1.1,0,.07,0v-.1l0,0,.05,0-.1,0-.07.05h-.09Zm.35,7.25-.16-.09,0,.14-.05.12v0l0,0,.09.05.07-.05,0,0v0ZM26,45.78l.49.47L26,46,25.37,46l-.61,0-.59.09-.37.17-.37.49-.1.61.17.49-.26-.14-.31-.35-.16-.68.16-.56.33-.35.54-.19.58-.09h.43l.67.09Zm-3.14-3,0,0,0,0,.05,0,0-.06,0-.1v-.07l0,0,0,0h0v0l0-.05,0,0-.05,0-.09.09h0v0l0,.14,0,0-.05.05-.07,0Zm.33,6.27-.07,0-.07,0,.07.05Zm-.09,7.11,0,0,.05,0v0l0,0h0l0,0Zm.58-5-.07,0-.09,0-.09.07h.14l0,.07.05,0Zm-.07,5.29,0,0,0,0v-.07l0,0h0l0,0Zm.1-.28,0,0,.05,0v-.09l-.05,0,0,0Zm.07-12.64,0,0,0,0,0,0,0-.05,0,0-.05,0Zm.25,12,0,.07.07.05,0,.21.21,0h.14l.14,0h.26l0,0,.05-.09h-.1l0,0h-.07l-.14,0-.17,0,0-.08v-.09l.07,0,0-.09-.05-.07-.06,0H24.2l-.1,0H24Zm.21-4.77,0-.1-.09,0-.07,0v.09l.11.12Zm.12,5.52,0-.09v-.07l-.05-.05-.07.07v.12l0,.07h.05Zm0-13.66.05,0,.05,0h.12l.06,0,.05,0,0-.09-.08-.07,0-.07h0l-.1.09-.07.1-.05,0Zm.4,1.19h-.09l0,0-.06,0,0,.07.05,0,0,0h.08l0,0,.07,0v0ZM25,56.66l.07,0,.11,0,.05-.11-.07,0-.05,0-.07,0,0,0Zm0-14.9,0,0,0,0h0v0h.05l0,0h0v0h0l0,0Zm0,1.42,0,0,0,0v0l0,0,0,0v-.05l0,0v-.07h0l0,0,0,0v0Zm.14.49,0,.12v.05l0,0v0l0,0,0,0v0l.05-.09,0-.09v0l0,0,0,.07Zm.26-1.42.09,0h.1l-.1-.05Zm.09,2h.07l.05,0,0,.07.05,0,0-.07,0-.05-.07,0Zm0,12.12,0,.07h.07l.1,0,.06.07v-.16l-.14,0h-.07Zm.16.35,0,0-.07,0,0,.09,0,0,0,0Zm0-1.08,0,.07.07.05v-.1l0,0h0ZM26.14,44l.07.06.07,0V44l-.07,0-.07,0Zm.09,11.2,0,.05v.07l0,0,0,0v-.07l0-.05Zm.28,0,.07,0,.07,0,0-.07h-.07l0,0Zm.14-11.77,0,0v0l0,0,0,0v-.05H26.7Zm.14,12.66,0,.16.07.14h0v0l0-.14Zm.1-12.54,0,.07.1.12,0-.17-.07-.07h0Zm.23,12,0,.07v.1l0,.07.07,0,0-.09.14,0,.12,0,0,0h0l.07,0,0,0h0l.1,0,0,0h.05l0,0-.18-.18-.07-.05-.05-.07-.05,0,0-.09h0l0,0h-.07l-.05.16.07,0,.05-.05h0l0,.07,0,.05h0l0,0v0l0,0-.07,0-.07,0,0,0h0Zm.05-11.25,0,.12.1-.07,0-.14h-.09Zm0-.44,0,0v0h0l0,0v-.07Zm.31.58-.07,0-.08.07,0,.09h.05Zm-.07-.82h0l0,0v0l0,0h-.07v0Zm0,.21,0,.14.07,0,.09-.07.14-.12.19-.16h-.23l-.21.07Zm.11.45h.05l.09.14.1,0h0l0,0h0v0h0v0l-.07-.05-.14,0,0-.09-.12,0,.05.1Zm.12.54,0,0v0l0,0,.12,0-.05,0,0,0,.11-.12,0-.07,0,0v0l-.05,0-.07,0-.09.09v0l0,0Zm.09-.21,0-.05h-.05l0,0,0,0h.1ZM28,54.83l-.07-.16.16,0,0,0,0-.09,0-.15L28,54.25v.07l0,.09,0,.1-.07,0h-.16l-.1.07.14.05.1.19,0,0Zm-.16-9.94-.05,0-.07,0,0,.07,0,0h.21l.14,0,.05-.05,0-.07,0-.09-.1,0h-.09l0,.07Zm-.07-1.43,0,.07h.07l.05,0v-.07l-.05-.07h0l-.07,0Zm.07-.28,0,0,.07,0,0,0v0l0,0h-.07l0,0Zm.25.77-.25-.07,0,.12L28,44v0l0,0v.07l0-.09Zm1.74.47-.19.07-.21,0-.1-.05-.11,0-.12,0-.05.09,0,0h0l-.17.14v.21l0,.12.19,0,0,0,.07,0,.05.05-.14,0-.12,0-.07,0,0,.09-.07.07,0,.1-.16.14-.16,0-.05,0-.05,0-.09,0,0-.1v0l0,0h.09l.07-.07v0l0-.05-.1,0-.07,0h-.07v-.21l0,0h-.07l-.07.07h-.07l-.05.07,0,0h.05l0,.05v0l.1.24.23.09,0,.07.05.07,0,0,0,0,.14,0v0l0,.07,0,.14,0,.05L28.6,46l.07-.07v0l0-.05,0,0v-.07l0-.1.17-.16,0,0,0,0,.16,0,.07-.14.05,0,.18-.17.07-.14,0-.11-.09,0v0h0l.14-.28.14,0,.1.14-.05,0-.1,0,0,0,0,0h.1l0,0h.05l.07,0,.05,0H30l.21.07,0,0h0l0,.05,0,0v0l0,0-.09,0-.05,0,0,0h0v0l-.09.07-.05.05,0,0h-.12l0,0-.21,0-.19.09.07.1v0l-.05.1.05.07h0l0,0,.05,0,0,0,.05-.09,0,0h0v-.07l.1-.05.05,0,0,0h0l.05,0h0l.12,0,.05,0,.05-.07h.07l.09,0,0-.07.07-.07V45l.07.07h0l.05,0v-.07L30.56,45h-.14l-.14-.14h0l0,0-.09-.17-.1-.07,0,0v0h0l0,0,.05-.07,0-.07v-.12L30,44.09l.05,0,0,0L30,44l-.11.05h0l0-.05,0,0,0-.07-.05-.07,0,.07,0,0v.12l0,.09-.18,0-.14.12.11.07.14,0h.12Zm-1.92.1,0,0h0l0,0,0,0h0l0,0v0Zm.21,0-.05.05,0,.07,0,0,.07,0,.05,0,.07,0,.07,0,.14,0,.14-.07v-.05H28.5l-.11.05-.1,0-.09,0Zm.3,12-.12,0-.07,0h0v-.09l-.12,0,.07.09.05,0,.07.05Zm-.3-12.73.09,0,.07,0,.05.09v.07l.07-.09.05-.1-.07-.11-.08-.07h-.09l-.07,0v.05Zm0-.18,0,0h.07l.07,0h.22v-.07l-.14,0-.08,0,0,0H28.2l-.05,0Zm.14.6,0,0v0h0l0,.05,0,0,0,.07.07-.07Zm0,.8.05-.07,0,0h0l.07-.07,0-.12-.05,0-.07.07,0,.07,0,0,0,0-.07,0V45Zm.8,9.64L29,54.62l-.1,0-.07,0-.09-.05,0,.05,0,.07.07.07,0,.09,0,.1v.07l-.14.14h-.17l-.14.09-.19,0,0,.1.05.11h.23l0-.09.09-.07.1.09,0,.1H29l.05-.07L29,55.21l-.07,0,0,0L29,55,29,54.9l0,0v0l0-.07Zm-.52-10.41-.18,0,0,.12.05.12.14,0,.09,0v-.09l.1-.07.09.09.05.1.09,0,.12,0,0-.09,0-.05-.07,0-.05,0v-.07l.09-.1.05-.11.07-.07,0-.1.07-.07,0-.09-.14-.12-.09,0-.09,0,0,0v.05l0,0v.05l0,.07.07.07.05.18V44l-.17.17-.18,0Zm0,.82h0l.05,0,0,0v0l-.07,0,0,0,0,0Zm0-1.34,0,0v.09l0,.1.12,0,.09-.18,0-.07-.05-.05v0l0,0-.07,0-.07,0Zm.1,8.61,0,.12.07,0h.07l0-.11-.05-.12Zm.09-6.55v.07l0,0,0,0v0h0l0,0h0l0,0h.05l0,0,0-.05,0,0,.07,0,.07-.07.05,0,0,0-.09,0-.14,0-.05,0v-.05l0,0h0l0,0Zm.3,6.88v-.09l0-.1-.07,0-.19,0,0,.1.09.11.14,0,.05,0ZM29,46.55h0l.05,0v-.07l-.05,0h0l0,0Zm0,3.37,0,0h0l0,0,0,0,0,0h0Zm.28,3.91,0-.1-.05,0,0,0-.05.07,0,.07,0,0v0l-.07.05,0,.07h.07l0-.07h0l0,0Zm0-8,0,0h-.07l0,0v0l0,0h.07Zm.56.19,0-.12-.1-.05-.12.07-.11.05h-.19l-.12,0,0,.07,0,.05.07,0,.19,0,.16,0,0,0,0,0,.07.07Zm-.52-1.78v-.12h0l0,0Zm0,7.93h.09l.05-.07-.05,0H29.3l-.05,0H29.2v.09Zm0-1.31,0,0h.12l.16.05h.1l0,0h0l0,0-.1,0Zm.32.89-.07-.14-.14.14,0,.07,0,.07.07,0,.07,0Zm0,2,0-.05-.07,0-.05,0,0,.07.05.07h.07l0,0Zm.11-7.58-.23.09.05.17v0l.07,0,0-.1,0-.09.07-.05Zm-.23.58v0l0,0,.1,0v0l0,0,0,0Zm.16,2.79,0,0v0l0,0h0l0,0v0Zm.07-4.45h0l.05,0,0,0,0-.07-.08,0,0,0-.05,0,0,0v.07Zm.12,6.37.05,0h0l0-.16-.07-.14.09-.07V51l0,0h0l-.07.07,0,.09v.05l-.14.11,0,.19.1.05ZM29.65,50h0l0,0,0,0,0,0h0l0,0,0,0Zm.19-2.79-.05-.09-.05.07,0,.07,0,0h0Zm.09,3.49v0l-.09,0,0,0v0h0v0H30ZM30,52.73l0-.14-.14,0-.05.12.07.19.07-.1Zm.05-.42-.19-.05.07.12Zm0-.73.14-.07-.16-.07-.14.07Zm0-5.24h0l0,0v0l0,0h0l0,0v0Zm.14-.49V45.8l-.07,0-.07,0v.07l.05.07h0l.07,0Zm0,4.61-.09.07v.07l.05,0,0,0,0,0v0Zm0,3.13h0l0,0,0-.07h0l-.05,0,0,0,0,0Zm.11.31-.07-.07,0,0,0,.05h.07ZM30.44,51V51h.07V51l0-.07,0,0,0,0Zm.21,1.15,0,0L30.58,52v0l0,0-.07.06,0,.12,0,0h0Zm0-5.73-.05,0,0,.05v0l0,0,.07,0,0,0v0Zm.12,3.9.05.1.09,0,.07,0-.05-.09-.14-.07Z"/><path class="cls-1" d="M37.16,56.35l0,.35-.09.49-.14.61-.19.66-.16.61-.1.44-.13.42-.26.56-.07.12-.07.07-.07,0-.14,0-.85.12h-.32l-.49-.1-.19,0-.12-.1-.07-.11v-.19l.12-.66.12-.42.14-.42.09-.63v-.14l0-.09-.07-.1-.1-.09-.33-.21-.25-.28-.19-.4-.09-.49,0-.47.12-.42.16-.35.23-.3.33-.26.4-.19.4-.09.42,0,.42,0,.4.1.37.18.31.26.21.28.16.35.09.4Zm-1,2.15-.07,0v-.05l0,0,0,0,0,0H36l-.07,0,0,.07-.07-.09-.12,0v.12l.1.14v.07l-.19-.19v-.07l0-.09,0-.07-.07,0h0l0,0-.12,0-.12.07-.05.07.08.1,0,0v.07l-.14-.09,0,0H35l0,0-.12,0-.12-.07,0,0,0,0v0l0-.07h0l0,0,0,.05,0,0,0,0v0l0,0,0,0,0,0,0,0,.07,0v0l0,0,0,0h0l0-.05h-.07v.1l0,0-.09.14,0,.16,0,.05v0l0,0h0l0,0,0,0h-.07l0,.05-.14.14.09,0,.1-.09.07,0,0,0,0,0,.07,0h.07l0,0h0l0,.1h.1v0l.12,0h.11l0-.07,0,0h0v0h.09l.1,0,.07.1,0,.09,0,0h0l0,0,0,0v0l0,.09,0,.07,0,0,0,.05v0l0,0h0v0l0,0,0,0,0,0h-.14l0,0h0l0-.12-.12-.07,0,.1-.07,0V59l0,.07h.07l.05-.07,0,0,0-.05,0,0,0,.07h0l0,0,.07,0h.1l.07.05.09,0,0,0,0,0,0,0h0V59l-.07,0,0,0V58.9h0v0l0-.05,0-.09v0l0,0h0l.07,0,0,0v-.05l0,0,0,0Zm-1.52-1.14,0,.07v.07l0,0v-.07Zm0,2,0,.05,0,0v0h0l0,0Zm.38-.58-.1-.07,0-.1,0,0,0,0h0v0l0,0v0l-.07,0,0,0v.07l0,0h0l0,0h.14Zm-.19-1.27,0,0h.09l0,0-.14-.14,0,0v0l0,.07,0,.07,0,0Zm.16,1.62-.07,0,0,0-.07,0v0l0,0,.24,0h0l0,0v.07l0,0,.05-.09-.07-.05H35Zm-.18.56,0,0h0l0,0,0,0h0Zm.09-2.48.07.07,0,0,0,0,0-.05v-.07l0-.07h-.09l0,0,0,0,0,0v.09Zm0,1.71,0,0,0,0h0l0,0v0l0,0,0,0Zm0,.58,0,0,0,0,0-.05,0,0,.05-.05h-.14l0,.12Zm3.37-2.69v.89l-.14.87-.35,1.23-.33,1.08-.32,1L37,62l-.19.07h-.7l-.72,0L35.08,62l-.07-.3,0-.19,0-.16h.82l.42-.15.23-.35.1-.28.09-.32.63-2.06.3-1.57,0-.35,0-.35.19.14.17.14Zm-3.13,1.31,0,0h0l0,0v0l0,0,0,0ZM35.19,57l0,0,0,0V57l0,0,.05,0Zm0,.54,0,0h0l0,0v0l0,0h0l0,0Zm.19-.68v0h0v0l-.07,0h0l0,0,0,0,0,0Zm-.12.59,0-.14,0,.05Zm.14-.94v-.07l0,0,0,0h0l0,0h0l0,0h0l.07.07Zm0,1.2,0,0,0,0h0l0,.07Zm-.07,1.61v.05l0,0,0,0,0-.05v0l0,0,0,0Zm.16-.54v0l0,0h0l0,0v0l0,.05h0Zm0-1.49,0,0,0,.05,0,0,0,0,0,0h.12v-.21Zm-.09,2.52,0,0h0l0,0v0l0,0h0Zm.12-2.67,0,0,.07,0,.05.08V57.1L35.66,57l-.07-.05h-.07v0l0,.07,0,0Zm0,.66,0,0,0,0,0,.05,0,0h0l0,0v0l0,.09.09.07v0l0,0-.09-.09Zm.19-1.15v0h-.05l0,0,0,0h.09Zm.52,1.13-.12.11h-.1l-.07,0-.07-.09-.09,0-.07-.12-.05,0-.07.07.12.11,0,0,.07,0,0,.14,0,.07.05,0H36l0,0,0,0v0l0,0,.07,0,.07,0,.08,0,0-.05h.12l0-.11,0-.14,0,.07Zm-.5-1.57V56.1l0,0,0,0,0,.07,0,0Zm0,.28,0,0v0l0,0h0v0Zm0,1,0,0,0,.07,0,.07v0h0v-.14l0,0h-.07Zm.05.75v0h-.05v.07l0,0Zm.28-1.34v0l0-.07v-.07l-.14,0,.1.1Zm-.05.33,0,0h0v0l0,.05,0,0v0h0Zm.1.24h.07l0,0,0,0h0v0l0-.05h0v0l0,0v0l0,0h0Zm0,1.56.05,0,0-.09,0,.09Zm.17.33v.05l0,0,0,0,0,0v0Zm.37-2.43,0,0-.07.05-.1.09,0,.05v0h.17l.12-.18,0-.07v0l-.05,0Zm0,.65h-.07l0,0h0l0,0h-.05l0,0,.08,0h0l.07,0h0Z"/><path class="cls-1" d="M41.77,57.59,41,57.31l-.67-.37-.66-.54-.35-.49-.26-.47L38.92,55l-.19-.66-.07-.42,0-.46.07-.26.09-.17.15,0,.86-.07,1.1.07,1.26,0,.68,0,.26.09.12.24.23.44.44.37.33.14.8.19.65.05.59,0,.58-.12.73-.33.25-.19.33-.32.35-.68.05-.47-.14-.54-.09-.37L48,51.25h-.12v0l-.72.37-.89.26-.87.09-1.85,0L42.68,52l-.79-.23-1-.45-.84-.53-.64-.61-.6-1-.26-.7-.19-1-.07-.89.12-1,.19-.71.32-.82.45-.72.56-.66.68-.56.72-.42.87-.37.84-.21L44,41l.74-.09,1,0,.89,0,.89.09.91.19.8.26.74.33.82.49.7.54.59.63.44.58.47.94.16.75.1,1v1.9l-.12,1.89v1.9l-.07.86-.19.87-.32.79-.47.77-.66.73-.58.49-.7.42-.89.38-.7.18L47.45,58l-.79.16-1,.12-.82-.07L43.5,58l-1-.24Zm-1.9-8.44,0-.1-.1-.07,0,.05v0l0,.07Zm1.2,0L41,49h-.12l-.05,0,0,0,0,.12,0,.09h.09l.07-.07,0,0Zm.3-.7,0,0,0,0h0l0,0,0,0h0l.05,0Zm.52.14,0,0-.14,0-.11.09,0,.07-.07,0-.05,0,0,0v.07l0,0,.07,0,.12-.12.07-.09h.11l.1-.07Zm12.54-1.38v6.08l0,.54-.07.65-.19.75-.18.47-.21.45-.28.46-.57.66-.3.3L52,58l-1,.54-.84.33-.68.19-.52.11-.91.14-.72.07h-.66l-1.19,0-1.08-.14-.68-.12-.63-.18-.72-.28-.87-.52.66.16.82.24,1.52.23.82.07.6-.07.8,0,1-.09,1-.21,1.15-.36.84-.39.49-.31.54-.42.63-.61.61-.89.26-.56.25-.79.14-.8,0-.7v-3l.14-1.66,0-1.92,0-.7.35.54.16.42.12.37ZM42.26,52.59l-.49-.33.47.14.68.07.86.12,1,.07.86,0,.92-.12.74-.21.61-.23,0,.19.11.37-.3.54-.19.21-.49,0-1.17,0h-.86l-1-.09-.26-.07-.3-.1-.14-.07,0-.07-.14-.25-.23-.07-.47,0h0ZM42.17,50l0,0h-.07l0,.07v0l0,0,0,0,.05,0Zm.21-.68,0,0,0,0,0,0v.05h0l.05,0Zm.72,1.38,0-.07-.1,0,0,0h0l-.05,0-.07,0,0,.07h.12l0,0,0,.08h.07l0,0Zm-.28-6.78.07,0,.1,0-.1,0h-.07Zm.56,5.26,0-.09V49l-.07,0-.12,0-.09.1-.07,0v0l0,0,0,0,.07,0,.05,0,.07,0,.07,0Zm5-2.45-.11-.63-.4-.56-.38-.29-.28-.14L46.68,45l-1-.14-.65,0-.59.07-.54.24-.51.49-.24.47-.09.61.14.67.42.61.31.21.86.4.87.12,1.1-.12.74-.28.54-.49.24-.54Zm-4.7,3.2,0,0-.07,0,0,0v.09l0,0,.09-.1Zm-.07-7.34,0,0h0l0,0v0l0,0h-.07Zm0,.72,0,.1.1,0,.07,0v-.1l0,0,0,0-.1,0-.07.05h-.09Zm.35,7.25-.16-.09,0,.14-.05.12v0l0,0,.09.05.07-.05,0,0v0ZM47,45.78l.49.47L47,46,46.38,46l-.61,0-.59.09-.37.17-.37.49-.1.61.17.49-.26-.14-.3-.35-.17-.68.17-.56.32-.35.54-.19.59-.09h.42l.67.09Zm-3.14-3,0,0,.05,0,0,0,0-.06,0-.1v-.07l0,0,0,0h0v0l0-.05,0,0,0,0-.09.09h0v0l-.05.14,0,0,0,.05-.08,0Zm.33,6.27-.07,0-.07,0,.07.05Zm-.09,7.11,0,0,0,0v0l0,0h0l0,0Zm.58-5-.07,0-.09,0-.09.07h.14l0,.07.05,0Zm-.07,5.29,0,0,0,0v-.07l0,0h0l0,0Zm.1-.28,0,0,0,0v-.09l0,0,0,0Zm.07-12.64,0,0,0,0,0,0,0-.05,0,0,0,0Zm.26,12,0,.07.07.05,0,.21.21,0h.14l.14,0h.26l0,0,0-.09h-.1l0,0H45.7l-.14,0-.16,0,0-.08v-.09l.07,0,0-.09,0-.07-.07,0h-.12l-.1,0H45Zm.2-4.77,0-.1-.09,0-.07,0v.09l.11.12Zm.12,5.52,0-.09v-.07l-.05-.05-.07.07v.12l0,.07h0Zm0-13.66,0,0,.05,0h.12l.07,0,0,0,0-.09-.07-.07,0-.07h0l-.1.09-.07.1,0,0Zm.39,1.19H45.7l0,0-.07,0,0,.07.05,0,0,0h.07l0,0,.07,0v0ZM46,56.66l.07,0,.11,0,0-.11-.07,0,0,0-.07,0,0,0Zm0-14.9,0,0,0,0h0v0h0l0,0h0v0h0l0,0Zm0,1.42,0,0,0,0v0l0,0,0,0v-.05l0,0v-.07h0l0,0,0,0v0Zm.14.49,0,.12v.05l0,0v0l0,0,0,0v0l.05-.09,0-.09v0l0,0,0,.07Zm.26-1.42.09,0h.1l-.1-.05Zm.09,2h.08l0,0,0,.07,0,0,0-.07,0-.05-.07,0Zm0,12.12,0,.07h.07l.1,0,.07.07v-.16l-.15,0h-.06Zm.16.35,0,0-.07,0,0,.09,0,0,0,0Zm0-1.08,0,.07.07.05v-.1l0,0h0ZM47.15,44l.07.06.07,0V44l-.07,0-.07,0Zm.09,11.2,0,.05v.07l0,0,0,0v-.07l0-.05Zm.28,0,.08,0,.06,0,0-.07h-.07l0,0Zm.14-11.77,0,0v0l.05,0,0,0v-.05h0Zm.14,12.66,0,.16.07.14H48v0l0-.14Zm.1-12.54.05.07.09.12,0-.17L48,43.53H47.9Zm.23,12,0,.07v.1l0,.07.07,0,0-.09.14,0,.12,0,0,0h0l.07,0,0,0h0l.1,0,0,0h.05l0,0-.18-.18-.07-.05,0-.07-.05,0,0-.09h0l0,0h-.07l0,.16.07,0,.05-.05h0l0,.07,0,.05h0l0,0v0l0,0-.07,0-.07,0,0,0h0Zm0-11.25,0,.12.1-.07,0-.14h-.09Zm0-.44,0,0v0h0l0,0v-.07Zm.31.58-.07,0-.07.07,0,.09h0Zm-.07-.82h0l0,0v0l0,0h-.07v0Zm0,.21,0,.14.07,0,.09-.07.14-.12.19-.16h-.23l-.21.07Zm.11.45h.05l.09.14.1,0h0l0,0h0v0h0v0l-.07-.05-.14,0,0-.09-.12,0,0,.1Zm.12.54,0,0v0l0,0,.12,0,0,0,0,0,.11-.12,0-.07,0,0v0l-.05,0-.07,0-.09.09v0l0,0Zm.09-.21,0-.05h0l0,0,0,0h.1ZM49,54.83,49,54.67l.17,0,0,0,0-.09,0-.15-.1-.11v.07l0,.09,0,.1-.07,0h-.16l-.1.07.14.05.1.19,0,0Zm-.16-9.94,0,0-.07,0,0,.07,0,0H49l.14,0,0-.05,0-.07,0-.09-.1,0H49l0,.07Zm-.07-1.43,0,.07h.07l.05,0v-.07l-.05-.07h0l-.07,0Zm.07-.28,0,0,.07,0,0,0v0l0,0H48.9l0,0Zm.26.77-.26-.07,0,.12L49,44v0l0,0v.07l0-.09Zm1.73.47-.19.07-.21,0-.09-.05-.12,0-.12,0,0,.09,0,0h0l-.17.14v.21l0,.12.19,0,0,0,.07,0,0,.05-.14,0-.12,0-.07,0,0,.09-.07.07-.05.1-.16.14-.16,0,0,0-.05,0-.09,0,0-.1v0l0,0h.09l.07-.07v0l0-.05-.1,0-.06,0h-.07v-.21l0,0h-.07l-.07.07h-.07l0,.07,0,0H49l0,.05v0l.1.24.23.09,0,.07,0,.07,0,0,0,0,.14,0v0l0,.07,0,.14,0,.05.07-.05.07-.07v0l0-.05,0,0v-.07l0-.1.17-.16,0,0,0,0,.16,0,.07-.14.05,0,.19-.17.07-.14,0-.11-.09,0v0h0l.14-.28.14,0,.1.14-.05,0-.09,0,0,0,0,0h.09l0,0h0l.07,0,.05,0H51l.21.07,0,0h0l0,.05.05,0v0l0,0-.09,0,0,0,0,0h0v0l-.09.07,0,.05,0,0h-.12l0,0-.21,0-.19.09.07.1v0l0,.1,0,.07h.05l0,0,0,0,0,0,.05-.09,0,0h0v-.07l.09-.05.05,0,0,0h0l0,0H51l.11,0,0,0,.05-.07h.07l.09,0,0-.07.07-.07V45l.07.07h0l0,0v-.07l0-.09h-.14l-.14-.14h0l0,0-.09-.17-.1-.07,0,0v0h0l0,0,.05-.07,0-.07v-.12L51,44.09l.05,0,0,0L51,44l-.12.05h0l0-.05,0,0,0-.07,0-.07,0,.07,0,0v.12l0,.09-.19,0-.14.12.12.07.14,0h.11Zm-1.92.1,0,0h0l0,0,0,0h0l0,0v0Zm.21,0,0,.05,0,.07,0,0,.07,0,.05,0,.07,0,.07,0,.14,0,.14-.07v-.05h-.12l-.11.05-.1,0-.09,0Zm.3,12-.12,0-.06,0h0v-.09l-.12,0,.07.09.05,0,.07.05Zm-.3-12.73.09,0,.07,0,.05.09v.07l.07-.09,0-.1-.07-.11-.08-.07h-.09l-.07,0v.05Zm0-.18,0,0h.07l.06,0h.22v-.07l-.14,0-.08,0,0,0h-.07l-.05,0Zm.14.6,0,0v0h0l0,.05,0,0,0,.07.06-.07Zm0,.8.05-.07,0,0h0l.07-.07,0-.12-.05,0-.07.07,0,.07,0,0,0,0-.07,0V45Zm.8,9.64L50,54.62l-.1,0-.07,0-.09-.05,0,.05,0,.07.07.07,0,.09,0,.1v.07l-.14.14h-.17l-.14.09-.19,0,0,.1.05.11h.23l0-.09.09-.07.1.09,0,.1H50l.05-.07L50,55.21l-.07,0,0,0L50,55l.07-.05,0,0v0l0-.07Zm-.52-10.41-.18,0,0,.12.05.12.14,0,.09,0v-.09l.1-.07.09.09,0,.1.09,0,.12,0,0-.09,0-.05-.07,0-.05,0v-.07l.09-.1,0-.11.07-.07,0-.1.07-.07,0-.09-.14-.12-.09,0-.09,0,0,0v.05l0,0v.05l0,.07.07.07.05.18V44l-.17.17-.18,0Zm0,.82h0l0,0,0,0v0l-.07,0,0,0,0,0Zm0-1.34,0,0v.09l0,.1.12,0,.09-.18,0-.07,0-.05v0l-.05,0-.07,0-.07,0Zm.1,8.61,0,.12.07,0h.07l0-.11,0-.12Zm.09-6.55v.07l0,0,0,0v0h0l0,0h0l0,0h0l0,0,0-.05,0,0,.07,0,.07-.07.05,0,0,0-.09,0-.14,0-.05,0v-.05l0,0h0l0,0Zm.3,6.88v-.09l0-.1-.07,0-.19,0,0,.1.09.11.14,0,.05,0ZM50,46.55h0l0,0v-.07l0,0h0l0,0Zm0,3.37,0,0h0l0,0,0,0,0,0h0Zm.28,3.91,0-.1,0,0,0,0,0,.07,0,.07,0,0v0l-.07.05,0,.07h.07l0-.07h0l0,0Zm0-8,0,0h-.07l0,0v0l0,0h.07Zm.56.19,0-.12-.1-.05-.11.07-.12.05h-.19l-.12,0,0,.07,0,.05.07,0,.19,0,.16,0,.05,0,0,0,.07.07Zm-.52-1.78v-.12h0l0,0Zm0,7.93h.09l.05-.07-.05,0h-.09l-.05,0h0v.09Zm0-1.31,0,0h.12l.17.05h.09l0,0h0l0,0-.09,0Zm.33.89-.07-.14-.14.14,0,.07,0,.07.07,0,.07,0Zm0,2-.05-.05-.07,0,0,0,0,.07.05.07h.07l0,0Zm.12-7.58-.24.09.05.17v0l.07,0,0-.1,0-.09.07-.05Zm-.24.58v0l0,0,.09,0v0l0,0,0,0Zm.17,2.79,0,0v0l0,0h0l0,0v0Zm.07-4.45h0l0,0,0,0,0-.07-.07,0,0,0,0,0,0,0v.07Zm.11,6.37,0,0h0l0-.16-.07-.14.09-.07V51l0,0h0l-.07.07,0,.09v.05l-.14.11,0,.19.09.05ZM50.66,50h.05l0,0,0,0,0,0h0l0,0,0,0Zm.19-2.79-.05-.09,0,.07,0,.07,0,0h0Zm.09,3.49v0l-.09,0,0,0v0h0v0H51ZM51,52.73l0-.14-.14,0,0,.12.07.19.07-.1Zm0-.42-.19-.05.07.12Zm0-.73.14-.07-.16-.07-.14.07Zm0-5.24h0l0,0v0l0,0h0l0,0v0Zm.14-.49V45.8l-.07,0-.07,0v.07l.05.07h0l.07,0Zm0,4.61-.09.07v.07l.05,0,0,0,0,0v0Zm0,3.13h0l.05,0,0-.07h0l0,0,0,0,0,0Zm.11.31-.07-.07,0,0,0,.05h.07ZM51.45,51V51h.07V51l0-.07,0,0,0,0Zm.21,1.15,0,0,0-.09v0l0,0-.07.06,0,.12,0,0h0Zm0-5.73,0,0,0,.05v0l0,0,.07,0,0,0v0Zm.12,3.9.05.1.09,0,.07,0,0-.09-.14-.07Z"/><path class="cls-1" d="M58.22,57.59l-.73-.28-.68-.37-.65-.54-.35-.49-.26-.47L55.36,55l-.18-.66-.07-.42,0-.46.07-.26.09-.17.14,0,.87-.07,1.1.07,1.26,0,.68,0,.26.09.11.24.24.44.44.37.33.14.8.19.65.05.59,0,.58-.12.73-.33.25-.19.33-.32.35-.68,0-.47-.14-.54-.1-.37-.25-.24h-.12v0l-.73.37-.88.26-.87.09-1.85,0L59.13,52l-.79-.23-1-.45-.85-.53-.63-.61-.61-1-.25-.7-.19-1-.07-.89.12-1,.18-.71.33-.82.44-.72.57-.66.67-.56.73-.42.87-.37.84-.21.86-.17.75-.09,1,0,.89,0,.89.09.91.19.79.26.75.33.82.49.7.54.59.63.44.58.47.94.16.75.1,1v1.9l-.12,1.89v1.9l-.07.86-.19.87L69,54.9l-.47.77-.66.73-.58.49-.7.42-.89.38-.7.18L63.9,58l-.79.16-1,.12-.82-.07L60,58l-1-.24Zm-1.9-8.44,0-.1-.1-.07,0,.05v0l.05.07Zm1.2,0L57.45,49h-.12l0,0-.05,0,0,.12,0,.09h.1l.07-.07.05,0Zm.3-.7,0,0,0,0h0l0,0,0,0h0l0,0Zm.52.14,0,0-.14,0-.12.09,0,.07-.07,0,0,0,0,0v.07l0,0,.07,0,.11-.12.07-.09h.12l.1-.07Zm12.53-1.38v6.08l0,.54-.07.65-.19.75-.18.47-.21.45-.29.46-.56.66-.3.3-.63.49-1,.54-.84.33-.68.19-.52.11-.91.14-.72.07h-.66l-1.19,0-1.08-.14-.68-.12-.63-.18-.72-.28L58,58.13l.66.16.81.24,1.52.23.82.07.61-.07.8,0,1-.09,1-.21,1.15-.36.84-.39.49-.31.54-.42.63-.61.61-.89.25-.56.26-.79.14-.8,0-.7v-3l.14-1.66,0-1.92,0-.7.35.54.16.42.12.37ZM58.71,52.59l-.49-.33.47.14.67.07.87.12,1,.07.86,0,.91-.12.75-.21.61-.23,0,.19.12.37-.3.54-.19.21-.49,0-1.17,0h-.87l-1-.09-.26-.07-.3-.1-.15-.07,0-.07-.14-.25-.23-.07-.47,0h0ZM58.62,50l0,0h-.07l0,.07v0l0,0,0,0,0,0Zm.21-.68,0,0,0,0,0,0v.05h.05l0,0Zm.72,1.38,0-.07-.09,0,0,0h0l0,0-.07,0,0,.07h.12l0,0,.05.08h.07l0,0Zm-.28-6.78.07,0,.09,0-.09,0h-.07Zm.56,5.26,0-.09V49l-.07,0-.11,0-.1.1-.07,0v0l0,0,.05,0,.07,0,0,0,.07,0,.07,0Zm5-2.45-.12-.63-.39-.56-.38-.29-.28-.14L63.13,45l-1-.14-.66,0-.58.07-.54.24-.51.49-.24.47-.09.61.14.67.42.61.3.21.87.4.86.12,1.1-.12.75-.28.54-.49.23-.54Zm-4.7,3.2-.05,0-.07,0,0,0v.09l0,0,.09-.1ZM60,42.6l0,0h.05l0,0v0l0,0H60Zm0,.72,0,.1.1,0,.07,0v-.1l0,0,.05,0-.1,0-.07.05H60Zm.35,7.25-.16-.09,0,.14,0,.12v0l0,0,.09.05.07-.05,0,0v0Zm3.09-4.79.49.47L63.41,46,62.83,46l-.61,0-.59.09-.37.17-.38.49-.09.61.16.49-.25-.14-.31-.35-.16-.68.16-.56.33-.35.54-.19.58-.09h.42l.68.09Zm-3.14-3,0,0,0,0,0,0,0-.06,0-.1v-.07l0,0,0,0h0v0l0-.05,0,0-.05,0-.09.09h0v0l0,.14,0,0,0,.05-.07,0Zm.33,6.27-.07,0-.07,0,.07.05Zm-.09,7.11,0,0,0,0v0l0,0h0l0,0Zm.58-5-.07,0-.09,0-.1.07H61l0,.07,0,0Zm-.07,5.29,0,0,0,0v-.07l0,0h0l0,0Zm.09-.28,0,0,.05,0v-.09l-.05,0,0,0Zm.08-12.64,0,0,0,0,0,0,.05-.05-.05,0,0,0Zm.25,12,0,.07.07.05,0,.21.21,0h.14L62,56h.25l0,0,0-.09h-.09l0,0h-.07l-.14,0-.17,0,0-.08v-.09l.07,0,0-.09,0-.07-.07,0h-.11l-.1,0h-.09Zm.21-4.77,0-.1-.09,0-.07,0v.09l.11.12Zm.12,5.52,0-.09v-.07l0-.05-.07.07v.12l0,.07h0Zm0-13.66,0,0,0,0h.11l.07,0,.05,0,0-.09-.07-.07,0-.07h-.05L62,42.5l-.07.1,0,0Zm.4,1.19h-.09l0,0-.07,0,0,.07,0,0,0,0h.07l.05,0,.07,0v0Zm.17,12.8.06,0,.12,0,0-.11-.07,0,0,0-.07,0,0,0Zm0-14.9,0,0,0,0h0v0h0l0,0h0v0h-.05l0,0Zm0,1.42,0,0,0,0v0l0,0,0,0v-.05l0,0v-.07h0l0,0,0,0v0Zm.14.49,0,.12v.05l0,0v0l0,0,0,0v0l0-.09,0-.09v0l0,0,0,.07Zm.26-1.42.09,0H63l-.1-.05Zm.09,2H63l.05,0,0,.07.05,0,0-.07,0-.05-.07,0Zm0,12.12,0,.07h.07l.09,0,.07.07v-.16l-.14,0H63Zm.16.35,0,0-.07,0,0,.09,0,0,0,0Zm0-1.08,0,.07.07.05v-.1l-.05,0h0ZM63.6,44l.07.06.07,0V44l-.07,0-.07,0Zm.09,11.2,0,.05v.07l0,0,0,0v-.07l0-.05Zm.28,0,.07,0,.07,0,0-.07H64l0,0Zm.14-11.77,0,0v0l0,0,0,0v-.05h0Zm.14,12.66,0,.16.07.14h0v0l0-.14Zm.1-12.54,0,.07.1.12,0-.17-.07-.07h0Zm.23,12,0,.07v.1l0,.07.07,0,0-.09.14,0,.12,0,0,0h0l.07,0,0,0h0l.1,0,0,0h0l0,0-.19-.18-.06-.05,0-.07,0,0,0-.09h0l0,0h-.07l0,.16.07,0,0-.05h0l-.05.07,0,.05h0l0,0v0l0,0-.07,0-.07,0,0,0h0Zm0-11.25,0,.12.09-.07,0-.14h-.1Zm0-.44,0,0v0h0l0,0v-.07Zm.31.58-.08,0-.07.07,0,.09h0Zm-.08-.82h.05l0,0v0l0,0h-.07v0Zm0,.21,0,.14L65,44l.09-.07.14-.12.19-.16h-.24l-.2.07Zm.12.45h0l.09.14.1,0h0l0,0h0v0h0v0l-.07-.05-.14,0,0-.09-.12,0,0,.1Zm.12.54,0,0v0l0,0,.12,0,0,0,0,0,.12-.12,0-.07,0,0v0l0,0-.07,0-.09.09v0l0,0Zm.09-.21,0-.05h0l0,0,0,0h.1Zm.26,10.24-.07-.16.16,0,0,0,0-.09,0-.15-.09-.11v.07l0,.09,0,.1-.07,0h-.16l-.1.07.14.05.1.19,0,0Zm-.16-9.94,0,0-.07,0,0,.07,0,0h.21l.14,0,0-.05,0-.07,0-.09-.1,0H65.4l0,.07Zm-.07-1.43,0,.07h.07l.05,0v-.07l-.05-.07h0l-.07,0Zm.07-.28,0,0,.07,0,0,0v0l0,0h-.07l0,0Zm.25.77-.25-.07,0,.12.14,0v0l0,0v.07l0-.09Zm1.73.47-.18.07-.21,0-.1-.05-.11,0-.12,0,0,.09,0,0h0l-.17.14v.21l0,.12.19,0,0,0,.07,0,0,.05-.14,0-.12,0-.07,0,0,.09-.07.07-.05.1-.16.14-.17,0,0,0-.05,0-.09,0,0-.1v0l0,0h.09l.07-.07v0l0-.05-.1,0-.07,0h-.07v-.21l0,0h-.07l-.07.07h-.07l0,.07,0,0h.05l0,.05v0l.1.24.23.09,0,.07,0,.07,0,0,0,0,.14,0v0l0,.07L66,46l0,.05.07-.05.07-.07v0l0-.05,0,0v-.07l0-.1.17-.16,0,0,0,0,.16,0,.07-.14,0,0,.18-.17.07-.14,0-.11-.09,0v0h0l.14-.28.14,0,.09.14,0,0-.1,0,0,0,0,0h.1l0,0h0l.07,0,0,0h.1l.21.07,0,0h0l0,.05.05,0v0l0,0-.09,0,0,0,0,0h0v0l-.09.07,0,.05,0,0h-.12l0,0-.21,0-.19.09.07.1v0l0,.1,0,.07H67l0,0,0,0,.05,0,0-.09,0,0h0v-.07l.1-.05,0,0,0,0h0l0,0h0l.12,0,0,0,.05-.07h.07l.09,0,0-.07.07-.07V45l.07.07h0l0,0v-.07L68,45h-.14l-.14-.14h0l0,0-.09-.17-.1-.07,0,0v0h0l0,0,0-.07,0-.07v-.12l-.07-.12,0,0,0,0-.1,0-.11.05h0l0-.05,0,0,0-.07,0-.07,0,.07-.05,0v.12l0,.09-.18,0-.14.12.11.07.14,0h.12Zm-1.91.1,0,0h0l0,0,0,0h0l0,0v0Zm.21,0,0,.05,0,.07,0,0,.07,0,0,0,.07,0,.07,0,.14,0,.14-.07v-.05H66l-.12.05-.09,0-.09,0Zm.3,12-.12,0-.07,0h0v-.09l-.12,0,.07.09,0,0,.07.05Zm-.3-12.73.09,0,.07,0,0,.09v.07l.07-.09,0-.1-.07-.11-.07-.07h-.09l-.07,0v.05Zm0-.18,0,0h.07l.07,0H66v-.07l-.14,0-.07,0,0,0h-.07l0,0Zm.14.6,0,0v0h0l0,.05,0,0,0,.07.07-.07Zm0,.8,0-.07,0,0h0l.07-.07,0-.12,0,0-.07.07,0,.07,0,0,0,0-.07,0V45Zm.8,9.64-.07-.05-.1,0-.07,0-.09-.05,0,.05,0,.07.08.07,0,.09,0,.1v.07l-.15.14H66.1l-.14.09-.19,0,0,.1,0,.11H66l0-.09.09-.07.09.09,0,.1h.19l0-.07,0-.07-.07,0,0,0,.12-.23.07-.05,0,0v0l0-.07ZM66,44.26l-.19,0,0,.12.05.12.14,0,.09,0v-.09l.09-.07.1.09,0,.1.09,0,.12,0,0-.09,0-.05-.07,0,0,0v-.07l.09-.1,0-.11.07-.07,0-.1.07-.07,0-.09-.14-.12-.09,0-.09,0,0,0v.05l0,0v.05l0,.07.07.07,0,.18V44l-.17.17-.19,0Zm0,.82h0l0,0,0,0v0l-.07,0,0,0,0,0Zm0-1.34,0,0v.09l0,.1.12,0,.09-.18,0-.07,0-.05v0l-.05,0-.07,0-.07,0Zm.09,8.61,0,.12.07,0h.07l0-.11,0-.12Zm.1-6.55v.07l0,0,0,0v0h0l0,0h0l0,0h0l0,0,0-.05.05,0,.07,0,.07-.07.05,0,0,0-.09,0-.14,0,0,0v-.05l0,0h0l0,0Zm.3,6.88v-.09l0-.1-.07,0-.19,0,0,.1.09.11.14,0,.05,0Zm-.11-6.13h0l0,0v-.07l0,0h0l0,0Zm0,3.37,0,0h0l0,0,0,0,0,0h0Zm.28,3.91,0-.1,0,0,0,0,0,.07,0,.07,0,0v0l-.07.05,0,.07h.07l0-.07h0l0,0Zm0-8,0,0h-.07l0,0v0l0,0h.07Zm.56.19,0-.12-.09-.05-.12.07L66.9,46h-.19l-.12,0,0,.07,0,.05.07,0,.19,0L67,46,67,46l0,0,.07.07Zm-.52-1.78v-.12h0l0,0Zm0,7.93h.09l.05-.07-.05,0h-.09l-.05,0h0v.09Zm0-1.31,0,0h.12L67,51h.1l0,0h0l0,0-.1,0Zm.32.89L67,51.63l-.14.14,0,.07,0,.07.07,0,.07,0Zm0,2L67,53.73l-.07,0,0,0,0,.07.05.07H67l0,0Zm.11-7.58-.23.09,0,.17v0l.07,0,0-.1,0-.09.07-.05Zm-.23.58v0l0,0,.1,0v0l0,0,0,0Zm.16,2.79,0,0v0l0,0h0l0,0v0Zm.07-4.45h0l0,0,0,0,0-.07-.07,0,0,0,0,0,0,0v.07Zm.12,6.37,0,0h0l0-.16-.07-.14.09-.07V51l0,0h0l-.07.07,0,.09v.05l-.14.11,0,.19.1.05ZM67.11,50h0l0,0,0,0,0,0h0l0,0,0,0Zm.18-2.79,0-.09,0,.07,0,.07,0,0h0Zm.1,3.49v0l-.1,0,0,0v0h0v0h.12Zm.09,2.06,0-.14-.14,0,0,.12.07.19.07-.1Zm0-.42-.19-.05.07.12Zm0-.73.14-.07-.17-.07-.14.07Zm0-5.24h0l0,0v0l0,0h0l0,0v0Zm.14-.49V45.8l-.07,0-.07,0v.07l0,.07h.05l.07,0Zm0,4.61-.09.07v.07l.05,0,0,0,0,0v0Zm0,3.13h0l.05,0,0-.07h0l0,0,0,0,0,0Zm.11.31-.07-.07,0,0,0,.05h.07ZM67.9,51V51H68V51l0-.07,0,0,0,0Zm.21,1.15,0,0L68,52v0l0,0-.07.06,0,.12,0,0h0Zm0-5.73,0,0,0,.05v0l0,0,.07,0,0,0v0Zm.12,3.9,0,.1.1,0,.07,0,0-.09-.14-.07Z"/><path class="cls-1" d="M85,57.27l-.07.3-.26.16-.54.14-1,.19-.63,0-.87,0H81L80,58.06,79.2,58l-1-.21-.85-.31-.74-.37-.78-.45-.68-.51-.58-.68-.47-.7L73.73,54l-.33-.77-.07-.12-.11,0-.52,0-.54,0-.42-.07-.28-.1-.07-.21-.16-1.19.09-1,.14-.32.26-.1.49.07.45,0,0-.14,0-.19v-.49l.09-.3,0-.12-.37,0-.26.07-.33,0-.28-.09-.12-.21-.11-1.06.11-1,.14-.32.24-.1.4,0,1.24.09,0-.28.37-.79.4-.66.45-.58.65-.66.63-.51.7-.42.73-.4.75-.33.86-.33.68-.18.89-.07h.77l.77,0,.85.07,1,.14.68.14.14.14,0,.16-.05.22-.33,1.4-.46,1.36-.1.16-.23.09h-.19L83,44.63l-.38-.11-.84-.17h-.84l-.8.17-.44.18-.49.31-.45.42-.25.28-.17.3.14.12.8.07,1.1-.14L81.45,46l.77.1.19,0,.16.12.05.26-.09.84-.42,1.26-.17.21-.23.07-.94.07-1.19,0-1.83-.07-.28,0-.11.12,0,.21,0,.52,0,.21.14.11h1.92L80.61,50l.68.07.18.07.17.14,0,.24-.14,1.14-.32,1.06-.14.25-.26.1h-.7L79,52.89l-.53.07-.12.14.37.26.49.26.59.32.77.31.63.14.87.07h1l.52-.1.14,0,.19,0,.16.15.3,1.42.47.94ZM73.8,51.16l0,.05.05,0,0,0,0,0,0,0Zm.77-5,.1-.19h0l.07-.09,0,0h0v0h0l.1,0,.28.14.07.09,0,.05v0l0,0,.19.14v0l.09.25.15,0,.07-.1,0,0,0-.07,0-.1L75.74,46l-.14,0L75.49,46l.07-.16.09-.12-.05-.16-.07-.12h-.12l-.07.07.07.11,0,.08-.09,0-.17-.05-.16,0-.12,0-.11.1-.12,0h-.16l-.07.17,0,.16,0,0v.09l0,.28.14-.14Zm-.18,4.46V50.5l0-.09v.09Zm0-2.8,0,.07.09.14,0,0,0,0v-.09l-.09,0ZM75,46.43l.11-.14-.07-.07,0-.07-.14,0h0v0h-.11l-.12.28,0,.16.16,0,.09-.1Zm0,5L75,51.35h-.09l-.07.09-.07.05,0,.09.1.09.14.07,0,0,0,0,0-.05,0-.07,0-.14Zm-.16-4.14h0l0-.05,0-.09,0-.08v0l0,0v0l0-.07-.07-.16,0,0h0v.17l0,.16v.14l0,0v0l.07,0Zm0,.58.07-.09,0-.1,0,0-.09,0,0,.09v.1l0,.09Zm.17-.7.14,0v-.08l0,0,.07-.19.14-.14h-.3L75,47V47l0,0v.08l0,0Zm.58.77-.35-.21-.26-.19.12.35.16.26.19,0,.14-.12Zm-.42-2.57,0,0v-.07l0,0h0l0,0-.07,0v.07h.07Zm-.07,2.85-.05,0v0l.05,0h.07l0,0-.07-.07Zm.28,2.43,0,0,0,0v0l0,0,.07,0,0,0,.09-.1v0h0l0,0Zm.14,2.86-.09-.07-.12,0,0,0v.05l.12.12.16,0,.09,0,.05.07,0,0,.07,0,.05,0v-.07l0-.07-.07,0Zm-.09-8.24.07-.07,0-.11V45l0,0-.07,0-.09.09,0,.07v0l0,.09Zm-.05,2,.07,0,0-.05h0l0,0h-.24l0,.07,0,.32.15-.11-.07-.1,0-.07Zm0,1.8,0,0h0l0-.14.08-.19-.17.12Zm.13.3,0,0-.07.07,0,0,0,.05,0,0,.05,0Zm-.06-.79v.12l0,.09.07,0,0,0,0-.12-.07,0Zm.14-.12v0l0,0v0h0v0l-.08,0,0,.05v0h0l0,0Zm0-1.87-.09.09,0,0h.11l0-.12Zm0,7.49,0,0,0,.07,0,.05h.05v-.05l0,0Zm.39-6.65h0v0L76,47.28l0,.09,0,0v.26l-.09.14,0,.19.09-.12,0-.09v-.05l0,0,.14-.21,0,0Zm0,2.67-.21.07,0,.23.12-.07.14,0h.09l0-.12-.09-.09ZM76,46.43l0,.07.05.1.11,0,0,0h0l0-.05,0,0-.09,0,0,0,0-.05v-.07l0-.23L76,46h0l0,0,0,.16.11.14Zm0,1.71v0l0,.07h.14l.14-.07-.14-.12Zm.16-1.21-.07,0h0l0,.07V47l0,0h.07Zm.23-.73h0l.07.09.1,0v-.12l-.12,0-.05-.05L76.37,46l-.14.05,0,0v.05l.09.07.12,0ZM76.23,49l0,.09v.12l.09.09,0-.09,0-.07.07-.07,0-.07Zm0-1.26v.14l.12.07.12-.1,0-.07-.07,0Zm0,4.4,0,0,0,0,.07,0h0v0h0l0,0h-.05l0,0Zm0-4.75v0h0l0,0h0v-.07l0-.16-.12.09v.07Zm.23-3.3.05-.1,0-.07-.09,0-.07,0-.07.07v.09l.09,0Zm.14,2.83-.14,0-.07,0-.09,0,.28.33.07-.07,0-.12.12-.11,0-.17,0,.14Zm-.23,3.91,0,0,0,.09,0,.12,0,0v.12l.1.05,0-.1L76.44,51V51l0-.09,0-.09Zm0-5.13v.07l.07.07h0l0,0v0l0,0v0h0l-.05,0-.07-.05Zm.12,8.07,0,0h0l0,0v.07l0,0,0,0,0,0h0v0l0,.07h.07l.07-.1v-.11l-.07,0-.09,0Zm.4-7,0,0h0v-.1l-.09-.16-.1-.07-.07.09-.14.05v.07l.09,0h0l0,0,.19,0,0,0,.05,0h0Zm.3-1.22,0,0H77.1l-.09.07-.1,0-.07,0-.11,0-.12,0,.07.21,0,.11v.08l0,0,0,0h0l0,.05,0,0h0v0h0l.05,0,.07-.1.11.05.1-.07.07-.12v-.07l0,0ZM77,44.59l-.07,0-.07,0,.05-.12,0-.12-.16.12v.14l.14.12.12.09,0,.12.14.23h.14l0-.07,0-.07-.16-.19Zm0,.7v0l0-.05v0h0l0,0h0l0,.07.12.12ZM78,58.34l-.31-.16-.91-.59,1.29.56.65.19.89.19.86.12.73,0,.68,0,1.1-.07,1-.15.94-.21.23-.11L85.4,58l.1-.26,0-.28-.58-1.78h.28l.18.21.5,1.41.3,1.17v.23l-.09.14-.19.07-1,.21-1,.14-1.1.07-.94,0-1-.09L80,59l-.77-.21-.89-.31Zm-.68-14,0,0h0l-.05,0h-.12l.1.12.11.12,0,0h0l.05,0,.11,0,.07,0v-.07l-.14,0ZM77.24,43l.14,0,0-.07,0,0h-.12l-.09,0v0l0,.07Zm0,.66v.07l0,0,.05,0,0-.05v-.07h-.07Zm.42,10.73v.12l0,.1h0l0,0,0-.11Zm.11-9.38,0-.07v0l0,0h0l0,0V45l0,.05Zm5.76,2.46.12.19v.14l-.47,2.1-.12.19-.23.07-.68,0,0,0-.07-.26-.16-.14-.17,0-.53-.07-.5,0-.7,0h-.18v0h-.4l-1.71,0v-.25l0,0h4.16l.33-.1.21-.16.12-.26L83,47.46h.39Zm-5.73,8,0,.05,0,.09H78l0-.07,0,0ZM78,44.19l0,0v0l0,.05.05.07h0v-.09l0,0ZM78.27,55H78.2v.07l.07,0,.12,0,.07-.09-.07,0h-.07Zm.28-11.11.09,0,0,0v0l-.12,0-.14.1Zm.75,11.32-.1,0-.09.09,0,.19.19.05,0-.12Zm0,1.62.07,0-.07,0-.07,0Zm6.46-14.2.11.18V43l-.58,1.31-.49,1.36-.1.16-.25,0-.14,0h0L84,45.78l-.53-.14-.68-.12-.56,0-.61,0-.56.14-.4,0h-.26l-1.12.14.77-.59.61-.21.49-.09.42,0,1,.12.89.23.18,0,.26,0,.23-.16.17-.26.82-2.41.46.12ZM79.6,55.93V56l.07,0,0,0,0,0,0-.06-.07,0Zm.05,1.4-.05.05.05,0h0l0,0,0,0v0Zm2.9-5.89.14.16,0,.24L82.2,54v0h-.28L81.26,54l-.61-.14-.3-.09-.51-.23H81l.33-.07.21-.19.14-.26L82,51.42l.36,0Zm-2.39,3.84.1,0,0,0,0-.07-.1,0,0,0h0l-.07-.05H80v.07l.07.07h.12Zm0,1.21-.07,0-.07,0,0,.1.07.07,0,.07h.07l.12-.07.14-.14v0l-.07,0-.05,0Zm.91-.91,0,0,0,0h.09l0,0,0,0,0,0Zm1,1,0,.05-.09.14-.12,0-.07.07v0l0,0,.14,0,.09-.09,0-.07.08,0h.07l0,0,0,0,0-.05Zm.24.37,0,.05h0l0,0,0,0h-.07Zm.3-.77-.05.07,0,0-.07,0,.09.07.12,0,.07,0,0,0v-.1l-.07-.09Zm1-.14.1.07.07,0,0,0v0L83.79,56Z"/><path class="cls-2" d="M26,18.94v.17l0,.24,0,.16-.06.32,0,.24,0,.16,0,.17,0,.16-.11.23-.07.16-.28.49-.1.15-.1.14-.11.13-.16.19-.12.12-.13.12-.13.1-.19.15-.13.09-.16.1-.14.08-.21.1-.16.06-.33.14-.18.07-.16.05-.18.06-.18.05-.18,0-.56.06h-.84l-.16,0-.56-.13-.17,0-.18,0-.33-.12L19.28,23l-.15-.07L19,22.82l-.13-.11-.13-.12-.11-.12-.29-.26-.1-.11-.1-.13L18,21.84,18,21.65l-.16-.46L17.74,21l0-.16,0-.16,0-.15,0-.23,0-.15v-.54l0-.18,0-.18,0-.18,0-.19.05-.18,0-.16.07-.17L18,18.1l.07-.17,0-.1.09-.17.14-.24.11-.16.05-.08.12-.14.18-.17.14-.11.13-.11.31-.24.14-.1.15-.09.14-.09L20,16l.15-.06.15-.07.16-.06.4-.11.15-.05.52-.11.34-.06h.31l.25,0h.18l.17,0,.18,0,.18,0,.16,0,.16,0,.16,0,.22.07.14,0,.35.17.13.08.14.09.17.15.12.09.11.1.1.12.14.18.09.13.07.13.08.13.12.19.08.13.07.15.06.14.05.24.06.3,0,.18,0,.17Zm-2.18.4V19l0-.16-.06-.31,0-.14-.12-.22L23.46,18l-.14-.18-.11-.1-.15-.15-.12-.09-.27-.13-.15,0-.16,0-.17,0-.33,0-.16,0-.23,0-.16,0-.27.1-.16.08-.24.15-.15.11-.16.16-.12.14-.11.17-.09.14,0,.07-.09.22-.06.17,0,.07,0,.15,0,.15v.62l0,.17v.09l0,.15,0,.07,0,.15,0,.07.08.14.05.08.12.13.06.07.13.12.2.15.15.08.17.07.15,0,.22.05h.6l.26-.05.16,0,.23-.08.15-.07.23-.17L23,21l.17-.18.1-.13.14-.18.09-.15.11-.24.06-.17,0-.24,0-.16Z"/><polygon class="cls-2" points="32.8 15.82 32.81 15.99 32.8 16.14 32.79 16.26 32.76 16.34 32.7 16.39 32.58 16.44 32.37 16.46 32.05 16.45 31.89 16.45 31.21 16.52 30.02 16.68 29.55 16.69 29.32 16.72 29.22 16.76 29.18 16.84 29.16 16.98 29.14 17.91 29.15 18.03 29.16 18.09 29.22 18.12 29.34 18.14 29.61 18.12 29.97 18.05 30.14 18.02 30.76 17.98 31.55 17.9 31.71 17.88 32.1 17.81 32.35 17.78 32.47 17.79 32.53 17.84 32.57 17.92 32.59 18.04 32.6 18.12 32.62 18.28 32.59 18.59 32.59 18.75 32.6 18.99 32.59 19.15 32.58 19.31 32.56 19.44 32.53 19.53 32.48 19.57 32.35 19.62 32.1 19.64 31.72 19.63 31.55 19.64 30.93 19.72 30.76 19.73 29.63 19.82 29.48 19.85 29.33 19.89 29.23 19.93 29.18 19.99 29.18 20.13 29.18 20.72 29.18 20.89 29.13 21.48 29.13 21.65 29.14 21.88 29.13 22.04 29.12 22.22 29.11 22.35 29.08 22.41 29.02 22.45 28.9 22.48 28.73 22.52 28.56 22.55 28.17 22.57 28.01 22.59 27.58 22.66 27.27 22.68 27.15 22.67 27.09 22.63 27.07 22.56 27.06 22.45 27.03 21.9 27.02 21.73 27.01 21.18 27.02 21.01 27.06 20.45 27.07 20.29 27.04 19.74 27.04 19.57 27.01 19.01 27.01 18.84 27.03 18.29 27.03 17.4 27.05 16.85 27.05 15.96 27.07 15.41 27.08 15.28 27.1 15.21 27.16 15.17 27.27 15.14 27.5 15.11 27.89 15.11 28.06 15.09 28.68 15 28.84 14.98 29.45 14.95 29.61 14.94 30.23 14.84 30.39 14.82 31.01 14.79 31.18 14.77 31.79 14.68 31.96 14.66 32.22 14.65 32.38 14.64 32.56 14.64 32.68 14.64 32.74 14.67 32.78 14.73 32.79 14.84 32.8 14.93 32.8 15.09 32.78 15.4 32.78 15.57 32.8 15.82"/><polygon class="cls-2" points="39.82 15.13 39.83 15.29 39.82 15.45 39.81 15.57 39.78 15.64 39.71 15.7 39.6 15.74 39.38 15.77 39.07 15.75 38.9 15.76 38.22 15.83 37.03 15.99 36.57 16 36.34 16.02 36.23 16.07 36.19 16.14 36.18 16.29 36.16 17.22 36.17 17.33 36.18 17.39 36.23 17.43 36.36 17.45 36.63 17.42 36.98 17.36 37.15 17.33 37.77 17.29 38.57 17.21 38.72 17.18 39.12 17.11 39.37 17.09 39.48 17.1 39.55 17.14 39.59 17.23 39.61 17.35 39.62 17.43 39.63 17.59 39.61 17.9 39.61 18.06 39.62 18.3 39.61 18.45 39.6 18.62 39.58 18.75 39.55 18.83 39.49 18.88 39.37 18.93 39.12 18.95 38.73 18.94 38.57 18.94 37.94 19.02 37.77 19.04 36.65 19.13 36.49 19.16 36.35 19.19 36.24 19.23 36.2 19.3 36.2 19.44 36.19 20.03 36.19 20.2 36.15 20.79 36.15 20.95 36.16 21.18 36.15 21.35 36.14 21.53 36.13 21.65 36.1 21.72 36.03 21.76 35.92 21.79 35.74 21.83 35.58 21.86 35.19 21.88 35.02 21.9 34.6 21.97 34.28 21.98 34.17 21.97 34.11 21.94 34.09 21.87 34.08 21.75 34.05 21.2 34.03 21.04 34.02 20.49 34.03 20.32 34.08 19.76 34.09 19.59 34.05 19.04 34.05 18.88 34.02 18.32 34.02 18.15 34.05 17.59 34.05 16.71 34.06 16.15 34.06 15.27 34.09 14.71 34.1 14.59 34.12 14.51 34.18 14.47 34.28 14.44 34.51 14.42 34.91 14.41 35.08 14.4 35.69 14.3 35.86 14.29 36.46 14.26 36.63 14.24 37.24 14.15 37.41 14.12 38.02 14.1 38.19 14.08 38.81 13.99 38.97 13.97 39.23 13.96 39.4 13.95 39.58 13.95 39.69 13.95 39.76 13.98 39.8 14.03 39.81 14.15 39.82 14.24 39.82 14.4 39.8 14.71 39.8 14.88 39.82 15.13"/><polygon class="cls-2" points="47.11 19.72 47.1 19.89 47.06 20.46 47.05 20.57 47.01 20.64 46.96 20.69 45.59 20.86 45.43 20.88 44.87 20.89 44.71 20.92 44.16 21.02 44 21.04 43.28 21.11 42.74 21.13 42.57 21.14 41.67 21.28 41.32 21.3 41.2 21.29 41.12 21.24 41.09 21.17 41.07 21.06 41.05 20.82 41.04 20.66 41.05 20.5 41.05 20.34 41.09 19.79 41.09 19.62 41.1 19.07 41.09 18.9 41.06 18.35 41.05 18.18 41.07 17.62 41.07 16.73 41.11 16.18 41.1 16.01 41.07 15.46 41.06 15.3 41.06 15.05 41.08 14.73 41.08 14.58 41.11 14.03 41.12 13.88 41.15 13.8 41.2 13.75 41.29 13.73 41.42 13.7 42.1 13.67 42.74 13.6 42.91 13.58 43.53 13.56 43.7 13.54 44.32 13.44 44.49 13.43 45.91 13.31 46.08 13.28 46.44 13.21 46.7 13.19 46.84 13.2 46.91 13.25 46.93 13.32 46.95 13.45 46.95 13.73 46.93 14 46.93 14.17 46.94 14.43 46.95 14.59 46.94 14.75 46.92 14.87 46.88 14.95 46.82 15 46.7 15.03 46.62 15.04 46.45 15.07 45.47 15.14 45.3 15.16 44.77 15.23 44.6 15.25 44.06 15.28 43.59 15.3 43.44 15.31 43.35 15.33 43.25 15.36 43.2 15.42 43.19 15.48 43.16 15.6 43.14 15.85 43.14 16.02 43.15 16.19 43.16 16.31 43.19 16.38 43.23 16.43 43.34 16.45 43.67 16.43 44.01 16.38 45 16.28 46.17 16.11 46.49 16.09 46.6 16.1 46.67 16.15 46.7 16.21 46.71 16.32 46.73 16.5 46.74 16.68 46.74 17.02 46.76 17.26 46.74 17.57 46.72 17.7 46.68 17.77 46.6 17.84 46.5 17.86 46.29 17.89 45.82 17.88 45.66 17.89 44.82 18.02 44.16 18.07 43.99 18.08 43.57 18.09 43.4 18.12 43.27 18.14 43.22 18.18 43.19 18.26 43.17 18.41 43.14 18.68 43.13 18.85 43.13 19.07 43.14 19.18 43.17 19.25 43.22 19.29 43.33 19.29 43.91 19.25 44.07 19.23 44.63 19.14 45.38 19.1 45.54 19.09 46.28 18.97 46.44 18.96 46.59 18.95 46.97 18.96 47.03 18.98 47.07 19.04 47.08 19.15 47.11 19.72"/><path class="cls-2" d="M55.3,19.85l-.14.06-.73.07-.57.05h-.17l-.47.07h-.13l-.1,0L52.91,20l-.33-.44-.1-.12-.33-.41-.09-.12-.29-.45-.1-.11L51.34,18l-.07-.07-.07,0h-.46l-.13,0-.09.07,0,.14,0,.57v.17l0,.58,0,.16v.59l0,.13,0,.05-.11,0-.17,0-.5,0-.48.08H49l-.48,0h-.13l-.06,0,0-.11v-.3l0-.27v-.17l0-.56v-.17l0-.56v-.88l0-.57v-.17l0-.56V16l0-.56v-.17l0-.55v-.9l0-.34v-.22l0-.14.06-.09.13,0,.08,0,.16,0,.47,0,1.24-.08.71-.12h.16l.69,0,.4,0h.33l.22,0,.15,0,.16,0,.17,0,.15.06.14.07.2.12.11.08.11.09.1.12.15.19.09.13.12.18.08.14.07.15.05.16,0,.17,0,.16v.56l0,.18,0,.18,0,.18-.06.16-.07.16-.1.17-.09.14-.1.14-.09.12-.17.18-.11.11-.21.13-.12.09-.14.09-.14,0-.08,0,0,.08.38.49.09.12.38.47.1.12.38.48.1.12.32.34.1.11.05.11Zm-2.93-3.76.14-.07.12-.08.1-.14.08-.16,0-.17v-.35l0-.17,0-.15-.08-.15-.09-.12-.11-.08-.15,0-.23,0H52l-.52,0h-.17l-.53.09-.12,0-.07,0-.07.07V15l0,.17,0,.17,0,.18,0,.57v.12l0,.06.07,0h.67l.16,0,.69-.11Z"/><polygon class="cls-2" points="61.96 12.53 61.95 12.69 61.96 13 61.95 13.17 61.94 13.26 61.92 13.38 61.89 13.46 61.82 13.52 61.7 13.55 61.53 13.56 61.22 13.56 61.05 13.57 60.57 13.65 60.41 13.67 60.15 13.67 59.99 13.69 59.92 13.7 59.81 13.75 59.77 13.81 59.76 13.95 59.72 14.57 59.72 14.73 59.76 15.36 59.75 15.53 59.71 16.15 59.7 16.32 59.72 16.94 59.72 17.89 59.7 18.51 59.71 18.67 59.76 19.13 59.77 19.3 59.74 19.43 59.69 19.48 59.55 19.52 59.35 19.53 59.09 19.52 58.92 19.53 58.45 19.61 58.28 19.62 57.81 19.64 57.69 19.64 57.62 19.61 57.6 19.5 57.6 19.32 57.63 18.88 57.64 18.71 57.64 17.93 57.66 17.31 57.66 17.14 57.67 16.52 57.67 16.36 57.62 15.73 57.61 15.57 57.61 14.78 57.59 14.16 57.59 14.02 57.56 13.94 57.46 13.93 57.3 13.94 56.97 14 56.78 14.01 56.5 14.02 56.32 14.03 56.14 14.06 55.9 14.09 55.75 14.11 55.66 14.1 55.55 14.1 55.49 14.06 55.45 14 55.42 13.9 55.42 13.82 55.41 13.66 55.44 13.35 55.44 13.19 55.41 12.79 55.41 12.63 55.45 12.49 55.49 12.41 55.55 12.37 55.65 12.34 55.89 12.32 56.28 12.31 56.45 12.29 57.05 12.19 57.22 12.18 57.83 12.17 58 12.15 58.77 12.03 59.38 11.98 59.54 11.96 60.32 11.87 61.09 11.79 61.44 11.74 61.62 11.73 61.7 11.73 61.82 11.74 61.9 11.78 61.95 11.85 61.97 11.97 61.97 12.04 61.98 12.2 61.96 12.53"/><polygon class="cls-2" points="69.07 17.55 69.06 17.72 69.02 18.29 69.01 18.4 68.96 18.47 68.91 18.52 67.55 18.7 67.38 18.71 66.83 18.73 66.66 18.75 66.12 18.85 65.95 18.88 65.23 18.95 64.69 18.96 64.53 18.97 63.63 19.11 63.27 19.13 63.15 19.12 63.08 19.07 63.05 19 63.02 18.89 63 18.66 62.99 18.49 63 18.33 63 18.18 63.05 17.62 63.05 17.45 63.06 16.9 63.05 16.73 63.01 16.18 63 16.02 63.02 15.45 63.02 14.56 63.07 14.01 63.06 13.84 63.02 13.29 63.01 13.13 63.01 12.88 63.03 12.56 63.03 12.41 63.07 11.86 63.08 11.71 63.11 11.63 63.16 11.58 63.24 11.56 63.38 11.53 64.06 11.5 64.69 11.43 64.86 11.41 65.48 11.39 65.65 11.38 66.28 11.27 66.44 11.26 67.86 11.14 68.04 11.11 68.39 11.04 68.65 11.02 68.8 11.03 68.86 11.08 68.88 11.15 68.9 11.28 68.9 11.57 68.88 11.83 68.88 12.01 68.89 12.27 68.9 12.42 68.89 12.58 68.87 12.71 68.83 12.78 68.78 12.83 68.65 12.86 68.57 12.87 68.4 12.9 67.42 12.97 67.26 12.99 66.72 13.06 66.56 13.08 66.02 13.11 65.55 13.13 65.39 13.14 65.31 13.16 65.2 13.19 65.15 13.25 65.14 13.31 65.12 13.43 65.1 13.68 65.1 13.85 65.11 14.03 65.12 14.14 65.14 14.21 65.18 14.26 65.3 14.28 65.63 14.27 65.96 14.21 66.95 14.12 68.12 13.94 68.44 13.93 68.56 13.94 68.62 13.98 68.65 14.04 68.66 14.15 68.68 14.33 68.69 14.51 68.69 14.85 68.71 15.09 68.69 15.4 68.67 15.53 68.63 15.61 68.56 15.67 68.45 15.7 68.25 15.72 67.78 15.71 67.61 15.72 66.78 15.85 66.11 15.9 65.94 15.91 65.53 15.92 65.35 15.95 65.22 15.97 65.17 16.01 65.14 16.09 65.13 16.25 65.1 16.51 65.09 16.68 65.09 16.91 65.1 17.01 65.13 17.08 65.17 17.12 65.29 17.12 65.86 17.08 66.03 17.06 66.59 16.97 67.33 16.93 67.5 16.92 68.24 16.8 68.39 16.79 68.55 16.78 68.92 16.79 68.99 16.81 69.03 16.87 69.04 16.99 69.07 17.55"/><path class="cls-1" d="M20.07,12.61l-.22.28a2.66,2.66,0,0,0-.27.35,8.58,8.58,0,0,1-.63.7c-.15.18-.31.35-.48.52a4.78,4.78,0,0,1-.54.47,3.88,3.88,0,0,1-.57.36,1.7,1.7,0,0,1-.57.18c-.53,0-.92-.25-1.19-.89a6.14,6.14,0,0,1-.38-1.34,9.7,9.7,0,0,1-.14-1.34,9.13,9.13,0,0,1,0-1.05c0-.29,0-.46,0-.51s0-.32,0-.77.06-1,.13-1.64.16-1.32.29-2a12.15,12.15,0,0,1,.55-2A5.8,5.8,0,0,1,17,2.24a1.83,1.83,0,0,1,1.28-.72.9.9,0,0,1,.49.09,1.17,1.17,0,0,1,.5.59,4.73,4.73,0,0,1,.31,2,12.77,12.77,0,0,1-.35,2.73A16,16,0,0,1,18.13,10a12.08,12.08,0,0,1-1.6,2.56,2.32,2.32,0,0,0,.32,1.39v0a.76.76,0,0,0,.23.13h.11a2.88,2.88,0,0,0,1.26-.65l.34-.32c.12-.11.24-.22.36-.35l.05-.06ZM16.77,9.3c-.1.66-.17,1.27-.21,1.82q.33-.49.72-1.23A12.34,12.34,0,0,0,18,8.23a13.94,13.94,0,0,0,.54-2,10.56,10.56,0,0,0,.15-2.35c0-.2,0-.36,0-.49a2.84,2.84,0,0,0-.06-.29.57.57,0,0,0-.06-.15.09.09,0,0,1,0,0,1.2,1.2,0,0,0-.3.44,7.4,7.4,0,0,0-.45,1.2,20.09,20.09,0,0,0-.5,2C17.08,7.28,16.92,8.22,16.77,9.3Z"/><path class="cls-1" d="M19.75,15a.53.53,0,0,1-.15-.12,1.5,1.5,0,0,1-.23-.36,3.34,3.34,0,0,1-.22-.64,4,4,0,0,1-.1-1c0-.25,0-.58,0-1s.05-.85.11-1.32.13-.91.23-1.35a4.49,4.49,0,0,1,.38-1.11,1.22,1.22,0,0,1,.9-.74.7.7,0,0,1,.49.1l.21.12.07.06,0,.09c-.13.66-.26,1.32-.37,2s-.21,1.27-.29,1.82-.14,1-.17,1.37a1.5,1.5,0,0,0,0,.66c0,.06.16.09.34.07h.09l.13,0a5,5,0,0,0,1.55-1.21l.84-.08-.18.24-.13.17L23,13c-.11.14-.25.29-.4.45s-.31.33-.48.49a3.55,3.55,0,0,1-1.84,1.15.71.71,0,0,1-.54-.13M20.9,6.8a.67.67,0,0,1-.58-.2A.72.72,0,0,1,20.17,6a1,1,0,0,1,.33-.61,1.15,1.15,0,0,1,.64-.3.63.63,0,0,1,.56.2.71.71,0,0,1,.17.61,1.12,1.12,0,0,1-.35.62,1.1,1.1,0,0,1-.62.3"/><path class="cls-1" d="M30.63,10.87A.38.38,0,0,0,31,11l.19-.05v.77l-.14.05h-.13a1.48,1.48,0,0,1-.39,0,1,1,0,0,1-.5-.29,2.55,2.55,0,0,1-.59-1.66l-.18.71c-.06.23-.13.48-.2.72-.6,2.09-1.21,3.16-1.83,3.23a.74.74,0,0,1-.26,0,1,1,0,0,1-.5-.4,4.11,4.11,0,0,1-.42-.76,8,8,0,0,1-.36-1c-.11-.36-.21-.72-.29-1.09s-.16-.71-.22-1-.12-.63-.16-.88a9.63,9.63,0,0,1-.45,1.4,6.08,6.08,0,0,1-1,1.63l-.85.08a6.15,6.15,0,0,0,.73-1,5.58,5.58,0,0,0,.58-1.49l0-.2,0-.2a7.36,7.36,0,0,0,.12-.77c0-.28.09-.59.17-.92l0-.11,0-.1a.88.88,0,0,1,.05-.15.61.61,0,0,0,.07-.14s.05-.09.07-.14a.67.67,0,0,1,.27-.23.84.84,0,0,1,.33-.1h0a1.7,1.7,0,0,1,.39,0A.73.73,0,0,1,26,7a1.51,1.51,0,0,1,.27.46,3,3,0,0,1,.17.84c0,.1,0,.24.05.41s.06.37.1.59.1.45.16.7.12.49.19.74a6.82,6.82,0,0,0,.31,1,3.53,3.53,0,0,0,.25.49.52.52,0,0,0,.22.22l0,0a.43.43,0,0,0,0-.07.36.36,0,0,0,.06-.11c.09-.21.18-.45.27-.73s.17-.57.25-.88.17-.64.26-1,.16-.63.23-.93c.11-.47.2-.86.28-1.15s.14-.51.19-.67a1.82,1.82,0,0,1,.15-.33.34.34,0,0,1,.14-.13.37.37,0,0,1,.46.07.91.91,0,0,1,.12.8,7,7,0,0,0,0,.72,9.59,9.59,0,0,0,0,1.06,6.56,6.56,0,0,0,.14,1.14,1.27,1.27,0,0,0,.3.65"/><path class="cls-1" d="M38,10.84l-.25.33-.35.43c-.21.25-.46.53-.76.83a8.84,8.84,0,0,1-1,.84,2,2,0,0,1-1,.43h-.1a.4.4,0,0,1-.13,0,.58.58,0,0,1-.26-.06,1,1,0,0,1-.57-.78,4.92,4.92,0,0,1,0-1.41,11.8,11.8,0,0,1,.32-1.78c.17-.64.35-1.26.56-1.86l-.2.07L34,8c-.2.08-.43.15-.69.23s-.53.14-.78.19c0,.19-.05.41-.09.64a5.05,5.05,0,0,1-.19.74,4.81,4.81,0,0,1-.36.84,5.18,5.18,0,0,1-.62.93l-.88.09a4.33,4.33,0,0,0,.43-.53,4,4,0,0,0,.36-.65,5.84,5.84,0,0,0,.29-.84,10.34,10.34,0,0,0,.21-1.1l0,0a.54.54,0,0,1-.27-.07,1.13,1.13,0,0,1-.68-.62,1.69,1.69,0,0,1-.11-.85,1.49,1.49,0,0,1,.34-.74,1.26,1.26,0,0,1,.63-.41.88.88,0,0,1,.92.18,1.62,1.62,0,0,1,.26,1.3,3.68,3.68,0,0,0,.78-.31,6,6,0,0,0,.66-.4c.18-.13.34-.24.49-.33A4.35,4.35,0,0,1,35.06,6a1,1,0,0,1,.38-.13,2.27,2.27,0,0,1,.34,0,1.07,1.07,0,0,1,.29,0c.06,0,.08.09.08.18s0,.18,0,.25,0,.37-.11.7-.17.82-.32,1.44c-.07.34-.16.71-.26,1.11s-.19.8-.27,1.18-.15.7-.2,1a1.91,1.91,0,0,0,0,.55.1.1,0,0,0,0,.08.23.23,0,0,0,.13.06h0A2.15,2.15,0,0,0,36,12a5.7,5.7,0,0,0,1.15-1l.06-.07ZM32,7.3a2.2,2.2,0,0,0,0-.73,1.28,1.28,0,0,0-.08-.24.13.13,0,0,0-.09,0,.41.41,0,0,0-.15.07.47.47,0,0,0-.31.47.58.58,0,0,0,.18.26A.9.9,0,0,0,32,7.3Z"/><path class="cls-1" d="M41.66,12.26a3.63,3.63,0,0,1-.75.56,3.33,3.33,0,0,1-1.32.38,2.47,2.47,0,0,1-1-.09,2.54,2.54,0,0,1-.66-.35,2.06,2.06,0,0,1-.39-.4l-.14-.22-.12-.26a2.53,2.53,0,0,1-.17-.64,5.72,5.72,0,0,1-.06-1A5.56,5.56,0,0,1,37.29,9a7,7,0,0,1,.34-.84,7.48,7.48,0,0,1,.6-1,5.46,5.46,0,0,1,.83-1,2.85,2.85,0,0,1,1-.64,2.09,2.09,0,0,1,2,.33l0,0,.18-.26.18-.22A1,1,0,0,1,42.92,5a.66.66,0,0,1,.49.09.86.86,0,0,1,.19.15h0l.05,0,0,0,.06.06v.08c-.14.69-.26,1.37-.38,2.06s-.21,1.31-.29,1.87a14.2,14.2,0,0,0-.17,1.43,2,2,0,0,0,0,.7.11.11,0,0,0,.11,0h.07a2.13,2.13,0,0,0,.84-.36,5.32,5.32,0,0,0,1.15-1l.05-.05L46,10l-.23.3a1.25,1.25,0,0,0-.18.23c-.1.13-.23.28-.39.46l-.54.58a6,6,0,0,1-.65.58,4.87,4.87,0,0,1-.68.47,1.63,1.63,0,0,1-.66.23h-.1a.7.7,0,0,1-.51-.14s-.07-.05-.14-.12a1.71,1.71,0,0,1-.24-.35M39,11.45a1.4,1.4,0,0,0,.64.53,1.13,1.13,0,0,0,.77,0,1.63,1.63,0,0,0,.94-.77c0-.09,0-.18,0-.29s0-.21,0-.32,0-.46,0-.78,0-.65.07-1,.07-.73.12-1.11a6.49,6.49,0,0,1,.22-1,1.65,1.65,0,0,0-1.13-.4,1.13,1.13,0,0,0-.68.32,2.92,2.92,0,0,0-.72,1.08,6.77,6.77,0,0,0-.48,2.83,2,2,0,0,0,.25,1"/><path class="cls-1" d="M45.69,12.42s-.07-.05-.14-.12a1.4,1.4,0,0,1-.23-.35,3.34,3.34,0,0,1-.22-.64,4.09,4.09,0,0,1-.1-1c0-.25,0-.58,0-1s.05-.85.11-1.32.13-.92.23-1.36a4.49,4.49,0,0,1,.38-1.11,1.21,1.21,0,0,1,.9-.73.7.7,0,0,1,.49.1l.21.12.07.06,0,.09c-.13.66-.26,1.32-.37,2s-.21,1.27-.29,1.81-.14,1-.17,1.37a1.54,1.54,0,0,0,0,.66c0,.07.16.09.35.07H47l.13,0a6.38,6.38,0,0,0,.72-.44,4.79,4.79,0,0,0,.82-.77l.85-.09-.18.24-.13.18-.28.34-.4.45-.49.49a3.5,3.5,0,0,1-1.83,1.15.71.71,0,0,1-.55-.14m1.16-8.19a.62.62,0,0,1-.58-.2.67.67,0,0,1-.15-.61,1,1,0,0,1,.33-.61,1,1,0,0,1,.64-.3.62.62,0,0,1,.56.2.7.7,0,0,1,.17.61,1.12,1.12,0,0,1-.35.61,1,1,0,0,1-.62.3"/><path class="cls-1" d="M55.5,8.67l.4-.06.18,0,.19,0,0,.2a.9.9,0,0,1,0,.16.1.1,0,0,1,0,.11l-.12.11L56,9.23a1.63,1.63,0,0,1-.46.07,7.72,7.72,0,0,0-1,.17,3.88,3.88,0,0,1-.49.95,4.28,4.28,0,0,1-.68.78,4,4,0,0,1-.81.55,2.58,2.58,0,0,1-.89.25,2.48,2.48,0,0,1-1.17-.17l-.1,0a.58.58,0,0,1-.15-.13,1.39,1.39,0,0,1-.15-.22.56.56,0,0,1,0-.3c0-.44.54-.93,1.57-1.46.35-.17.84-.37,1.48-.61a3.61,3.61,0,0,0,.06-.5A3,3,0,0,0,53.12,8a1.7,1.7,0,0,0-.24-.58,1.76,1.76,0,0,0-.5-.52L52,6.62l-.36-.24-.34-.24L51,5.93c0,.11-.09.25-.15.44s0,.34-.06.57a4.32,4.32,0,0,1-.15.77,5.19,5.19,0,0,1-.37.94,5.53,5.53,0,0,1-.72,1.06l-.86.09a5.2,5.2,0,0,0,.46-.59,4.07,4.07,0,0,0,.39-.72,5.8,5.8,0,0,0,.29-1A7.53,7.53,0,0,0,50,6.22c0-.11,0-.18.05-.23s0-.09,0-.12,0-.07,0-.11a1.36,1.36,0,0,1,0-.2,2.53,2.53,0,0,1,.15-.36,1.66,1.66,0,0,1,.66-.75,1.51,1.51,0,0,1,.6-.19h0a1,1,0,0,1,.86.2.45.45,0,0,1,.18.35,1.57,1.57,0,0,1,0,.32,0,0,0,0,0,0,0,.87.87,0,0,0,.25.28c.15.13.28.24.39.32l.16.13a.83.83,0,0,1,.15.11l.35.33a3.24,3.24,0,0,1,.44.51,4.18,4.18,0,0,1,.37.66,1.73,1.73,0,0,1,.13.74c0,.06,0,.13-.05.22a2.29,2.29,0,0,1-.07.28l.44,0,.34,0m-3,1.75a1.36,1.36,0,0,0,.12-.17,1.36,1.36,0,0,1,.12-.17,12.92,12.92,0,0,0-1.28.57,1.84,1.84,0,0,0-.35.25l.21,0a1.26,1.26,0,0,0,.28,0,1.32,1.32,0,0,0,.9-.54"/><path class="cls-1" d="M63.9,7.75a.1.1,0,0,1,.14,0,1.65,1.65,0,0,1,.09.22,1.63,1.63,0,0,1,0,.39,7.19,7.19,0,0,1-1.8.55,6,6,0,0,1-.78.89,5.8,5.8,0,0,1-.94.73,6,6,0,0,1-1,.52,3.51,3.51,0,0,1-1,.25,2.11,2.11,0,0,1-2.08-.9,2.87,2.87,0,0,1-.48-1.09A4.19,4.19,0,0,1,56,8.2a5.62,5.62,0,0,1,.14-1.11c.09-.36.17-.67.26-.94a5.88,5.88,0,0,1,.26-.64l.12-.26a3.55,3.55,0,0,1,.58-.87,3.61,3.61,0,0,1,.61-.53,2.32,2.32,0,0,1,.62-.29,3.54,3.54,0,0,1,.6-.12h0a.62.62,0,0,1,.38.05.65.65,0,0,1,.2.15.67.67,0,0,1,.1.5,3.11,3.11,0,0,1-.09.38l-.07.16h-.2c-.88.09-1.52,1-1.9,2.59a3.55,3.55,0,0,0-.14.92,4.87,4.87,0,0,0,0,.72,3.08,3.08,0,0,0,.13.49l.11.25a1.05,1.05,0,0,0,.15.21,1.37,1.37,0,0,0,.26.2,1.5,1.5,0,0,0,.36.15,1.09,1.09,0,0,0,.45,0A3.44,3.44,0,0,0,61,9l0,0,0,0a2.33,2.33,0,0,1-.94-.42,2.76,2.76,0,0,1-.58-.61,1.74,1.74,0,0,1-.29-.54.51.51,0,0,1,0-.09l0-.1a.26.26,0,0,1,0-.11.15.15,0,0,0,0-.08.26.26,0,0,1,0-.07,2.42,2.42,0,0,1,0-.25,2.17,2.17,0,0,1,0-.26A2.94,2.94,0,0,1,59.5,5a1.74,1.74,0,0,1,1.31-.84,1.71,1.71,0,0,1,.65.05,3.61,3.61,0,0,1,.52.16,1.49,1.49,0,0,1,.6.46,2.61,2.61,0,0,1,.48.91,3.9,3.9,0,0,1,.11,1,3.37,3.37,0,0,1-.32,1.34,4.42,4.42,0,0,0,.68-.18l.37-.15M61.08,8a2.26,2.26,0,0,0,.5.16,2.18,2.18,0,0,0,.17-1.84,1.4,1.4,0,0,0-.46-.57.82.82,0,0,0-.6-.18l-.07,0-.06,0a.53.53,0,0,0-.41.51,1.19,1.19,0,0,0,0,.5,2.72,2.72,0,0,0,.13.51,2.63,2.63,0,0,0,.24.44.86.86,0,0,0,.32.29L61,7.9l.11.06"/><path class="cls-1" d="M72.29,7.43l-.24.32L71.81,8q-.19.26-.51.6a7.69,7.69,0,0,1-.7.7,4.3,4.3,0,0,1-.79.61.3.3,0,0,1-.11.06l-.1.06a1.62,1.62,0,0,1-.65.22h-.1a.33.33,0,0,1-.18,0h0A1.94,1.94,0,0,1,68,9.87a1.55,1.55,0,0,1-.35-.58,2,2,0,0,1-.08-.95s0-.19.09-.53.11-.74.17-1.22a1.88,1.88,0,0,1,0-.2q.1-.64.15-1.08a5.18,5.18,0,0,0,0-.71,2.43,2.43,0,0,0,0-.42A.3.3,0,0,0,68,4l0,0h0a1.66,1.66,0,0,0-.71.28,3.79,3.79,0,0,0-.77.64,4.68,4.68,0,0,0-.67.9,2.6,2.6,0,0,0-.35,1c-.06.37-.11.73-.14,1.07s-.06.68-.09,1,0,.73-.07,1a1.34,1.34,0,0,1-.16.57.46.46,0,0,1-.26.19,1.25,1.25,0,0,1-.31.07,1.82,1.82,0,0,1-.45,0,.68.68,0,0,1-.41-.18.38.38,0,0,1-.14-.29,5.13,5.13,0,0,1,0-.53c0-.19,0-.42.06-.67s0-.53.08-.84.06-.64.09-1v0c0-.13,0-.37.08-.71s.1-.72.15-1.11.12-.74.18-1.06a2.51,2.51,0,0,1,.18-.63,1.19,1.19,0,0,1,.9-.72,1.28,1.28,0,0,1,.72.18l.08.06-.18,1.18A1.86,1.86,0,0,1,66,4.1l.25-.25a3.77,3.77,0,0,1,2-1.19h.12a1,1,0,0,1,.88.3c.5.57.58,1.76.23,3.57A9.33,9.33,0,0,0,69.26,8a2.72,2.72,0,0,0,0,.65.33.33,0,0,0,.32.22l.07,0a3.1,3.1,0,0,0,.78-.43,5.42,5.42,0,0,0,.94-.85l0-.05Z"/><path class="cls-2" d="M41.9,36.14l-5.71-2a.35.35,0,0,0-.38.56L37,36.07H35.49l-3.7-1.3a.25.25,0,0,0-.28.4l.73.86-5.78-.09-5.12-1.79a.34.34,0,0,0-.37.54l1,1.2h-.43c-1.8,0-13.61,0-15.41-.18a6.18,6.18,0,0,1-2.39-.38c-.54-.3-.9-1-1.6-1a1.06,1.06,0,0,0-.92,1.24,1.64,1.64,0,0,0,1.11,1.16A4.85,4.85,0,0,0,4,36.94l18.22,0L21.16,38a.34.34,0,0,0,.36.56l4.76-1.67,6.15,0-.78.8a.26.26,0,0,0,.27.42l3.49-1.22h1.83L36,38.17a.35.35,0,0,0,.36.57L41.9,36.8a.35.35,0,0,0,0-.66m43.15-1.79c-.71-.05-1.06.66-1.6,1a6.21,6.21,0,0,1-2.39.38c-1.8.15-13.61.17-15.41.18h-.43l1-1.2a.34.34,0,0,0-.37-.54l-5.12,1.79L55,36l.72-.86a.25.25,0,0,0-.27-.4l-3.71,1.3H50.23L51.4,34.7a.35.35,0,0,0-.38-.56l-5.7,2a.35.35,0,0,0,0,.66l5.52,1.94a.35.35,0,0,0,.37-.57L50,36.9h1.84l3.48,1.22a.26.26,0,0,0,.27-.42l-.78-.8,6.16,0,4.76,1.67a.34.34,0,0,0,.35-.56L65,36.92l18.22,0a4.88,4.88,0,0,0,1.66-.19A1.68,1.68,0,0,0,86,35.59a1.06,1.06,0,0,0-.92-1.24"/><path class="cls-2" d="M86,68.08a1.66,1.66,0,0,0-1.11-1.16,4.88,4.88,0,0,0-1.66-.19H65l1.07-1.1a.34.34,0,0,0-.35-.56l-4.76,1.67-6.16,0,.78-.8a.26.26,0,0,0-.27-.42l-3.48,1.22H50l1.24-1.27a.35.35,0,0,0-.37-.57l-5.52,1.94a.35.35,0,0,0,0,.66l5.7,2A.35.35,0,0,0,51.4,69L50.23,67.6h1.49l3.71,1.3a.25.25,0,0,0,.27-.41L55,67.65l5.77.08,5.12,1.8a.34.34,0,0,0,.37-.54l-1-1.2h.43c1.8,0,13.61,0,15.41.18a6.21,6.21,0,0,1,2.39.38c.54.3.89,1,1.6,1A1.06,1.06,0,0,0,86,68.08M41.9,66.87l-5.53-1.94a.35.35,0,0,0-.36.57l1.23,1.27H35.41l-3.49-1.22a.26.26,0,0,0-.27.42l.78.8-6.15,0-4.76-1.67a.34.34,0,0,0-.36.56l1.08,1.1H4a4.85,4.85,0,0,0-1.66.19,1.64,1.64,0,0,0-1.11,1.16,1.05,1.05,0,0,0,.92,1.23c.7.06,1.06-.65,1.6-1A6.18,6.18,0,0,1,6.16,68c1.8-.15,13.61-.17,15.41-.18H22L21,69a.34.34,0,0,0,.37.54l5.12-1.8,5.78-.08-.73.85a.26.26,0,0,0,.28.41l3.71-1.3H37L35.81,69a.35.35,0,0,0,.38.56l5.71-2a.35.35,0,0,0,0-.66"/><path class="cls-2" d="M56.62,82.46l-.78-3.14a.46.46,0,0,0,.37-.46v-.5a2,2,0,0,0-2-2H50.65V75.32a1,1,0,0,0-1-1H31.48a1,1,0,0,0-1,1v8.6a.47.47,0,0,0,.94,0v-8.6s0,0,0,0H49.67a0,0,0,0,1,0,0v8.6a.48.48,0,0,0,.48.47.47.47,0,0,0,.47-.47v-.54h5.6a1.55,1.55,0,0,1,1.47,1.07H56.24a.48.48,0,0,0-.47.48v1a1.49,1.49,0,0,0,1.49,1.48h.53v2.09H56.55a3,3,0,0,0-5.67,0h-.23V85.94a.48.48,0,0,0-.47-.48.49.49,0,0,0-.48.48v3.57H39.87a3,3,0,0,0-5.67,0H31.48a0,0,0,0,1,0,0v-1H33.5a.47.47,0,0,0,0-.94H29a.47.47,0,1,0,0,.94H30.5v1a1,1,0,0,0,1,1H34v0a3,3,0,0,0,6,0v0H50.72v0a3,3,0,0,0,6,0v0h1.55a.48.48,0,0,0,.47-.48v-5A2.5,2.5,0,0,0,56.62,82.46Zm-6-3.13h4.21l.78,3.1h-5Zm3.57-2a1,1,0,0,1,1,1v0H50.65V77.31ZM37,92.54a2.06,2.06,0,1,1,2.05-2.05A2.05,2.05,0,0,1,37,92.54Zm16.68,0a2.06,2.06,0,1,1,2.05-2.05A2.05,2.05,0,0,1,53.72,92.54Zm3.54-6.07a.54.54,0,0,1-.54-.53V85.4h1.07v1.07Z"/><path class="cls-2" d="M37,89.51a1,1,0,1,0,1,1,1,1,0,0,0-1-1"/><path class="cls-2" d="M53.72,89.51a1,1,0,1,0,1,1,1,1,0,0,0-1-1"/><path class="cls-2" d="M40.61,88a.52.52,0,0,0,.47.55h7.08a.52.52,0,0,0,.47-.55.51.51,0,0,0-.47-.54H41.08a.51.51,0,0,0-.47.54"/><path class="cls-2" d="M30,86.56H36a.56.56,0,0,0,0-1.1H30a.56.56,0,0,0,0,1.1"/><path class="cls-2" d="M44.28,79l-4.21,4.22-2.19-2.2a.48.48,0,0,0-.67,0,.46.46,0,0,0,0,.67l2.52,2.53a.51.51,0,0,0,.34.14.47.47,0,0,0,.33-.14L45,79.7A.46.46,0,0,0,45,79a.48.48,0,0,0-.67,0"/></svg>