<svg id="Layer_1" data-name="Layer 1" xmlns="http://www.w3.org/2000/svg" viewBox="0 0 40 40"><defs><style>.cls-1{fill:#00dec8;}.cls-2{fill:none;stroke:#fff;stroke-miterlimit:10;stroke-width:0.5px;}.cls-3{fill:#fff;fill-rule:evenodd;}</style></defs><title>image footer</title><circle class="cls-1" cx="20" cy="20" r="20"/><circle class="cls-2" cx="20" cy="20" r="18.5"/><path class="cls-3" d="M30,11.75a8.87,8.87,0,0,1-2.75,1.05,4.32,4.32,0,0,0-7.48,3,4.46,4.46,0,0,0,.11,1,12.28,12.28,0,0,1-8.92-4.52A4.35,4.35,0,0,0,12.26,18a4.32,4.32,0,0,1-2-.54v.05a4.32,4.32,0,0,0,3.47,4.24,4.14,4.14,0,0,1-1.95.08,4.32,4.32,0,0,0,4,3,8.69,8.69,0,0,1-5.37,1.86,8.94,8.94,0,0,1-1-.06,12.32,12.32,0,0,0,19-10.37c0-.19,0-.38,0-.56a9,9,0,0,0,2.16-2.24,8.66,8.66,0,0,1-2.49.68A4.35,4.35,0,0,0,30,11.75"/></svg>