<?xml version="1.0" encoding="utf-8"?>
<!-- Generator: Adobe Illustrator 23.0.1, SVG Export Plug-In . SVG Version: 6.00 Build 0)  -->
<svg version="1.1" id="Layer_1" xmlns="http://www.w3.org/2000/svg" xmlns:xlink="http://www.w3.org/1999/xlink" x="0px" y="0px"
	 viewBox="0 0 190 95" style="enable-background:new 0 0 190 95;" xml:space="preserve">
<style type="text/css">
	.st0{fill:#00DEC8;}
	.st1{fill:#FFFFFF;}
	.st2{fill:#444444;}
	.st3{opacity:0.5;fill:#00DEC8;enable-background:new    ;}
</style>
<title>image footer</title>
<path class="st0" d="M178.5,59.4V39.5l-5,0.9l-5.3,0.9l-7.6,1.3l-6.4,1.1l-6.4,1.1l-6.3,1.1l-5.2,0.9l-5.1,0.9l-2.2,0.4l-7.8,1.3
	l-7,1.2l-5,0.9l-2.7,0.5l-4.3,0.7l-2.2,0.3l-6.6,1.1H93v0.1l-4.8,0.8l-4.8,0.8l0,0l-5.7,1L76.9,57L76,57.2l-2,0.3l-2,0.3l-3.4,0.6
	l-6.7,1.2l-6.2,1.1l-3.5,0.6l-10.6,1.8l0,0h-0.2L27,65.6L25,66l-8.5,1.5l-0.8,0.1l-5.8,1v2.3l1.6-0.3v19.8l5-0.9l0.5-0.1l9.3-1.6
	l7.8-1.3l8.8-1.6l1-0.2l9.6-1.7l7.4-1.3l5-0.8l5.2-0.9l2.4-0.4l3.3-0.6l4.2-0.7l0,0l4.8-0.8l0,0l0.4-0.1l1.5-0.2l0,0l6.7-1.2
	l1.5-0.2l11-1.9l4.5-0.8l4.2-0.7l7.8-1.3l9.2-1.6l7.7-1.3l5.9-1l3.7-0.6l5.9-1l6.9-1.2l10.8-1.8l1.9-0.3l4.7-0.8v-2.3L178.5,59.4z
	 M29,83.2l-4,0.6l-4.3,0.7c0.3-0.2,0.5-0.5,0.5-0.8V71.9c0-0.3-0.2-0.6-0.5-0.7l3.8-0.6c-0.3,0.2-0.5,0.5-0.5,0.8v10.3l1-0.2
	l2.6-0.4c0.6,0,1.1-0.3,1.4-0.8V83.2z M38.8,71c-0.4-0.4-0.9-0.5-1.4-0.4L34,71.1v3.3l1.8-0.3c0.5,0,0.9-0.3,1.3-0.6v3
	c-0.4-0.2-0.8-0.3-1.3-0.2L34,76.6V80l3.4-0.5c0.6,0,1.1-0.3,1.4-0.8v2.8L34,82.3l-4,0.6c0.3-0.2,0.5-0.5,0.5-0.8V70.2
	c0-0.3-0.2-0.6-0.5-0.7l4-0.6l4.8-0.8L38.8,71z M52.1,74.7c-0.4,0.1-0.7,0.2-1.1,0.3c-0.4,0.1-0.8,0.1-1.2,0v3.8
	c0,0.3,0.2,0.6,0.5,0.7L46.5,80c0.3-0.2,0.5-0.5,0.5-0.8V66.3c0.1,0.1,0.2,0.1,0.3,0.2c0.1,0,0.2,0,0.3,0c0.2,0,0.7-0.2,1.2-0.3
	c0.5-0.2,1.1-0.3,1.6-0.4c0.5-0.1,1-0.1,1.5,0c2.1,0,3.8,1.8,3.8,3.9c0,0,0,0.1,0,0.1C55.8,72,54.3,74,52.1,74.7z M66,66.3
	c-0.4-0.4-0.9-0.5-1.4-0.4l-2.7,0.4l-1,0.2l-0.5,0.1v3.3l0.5-0.1l1-0.2l1.1-0.2c0.5-0.1,0.9-0.3,1.3-0.6v3c-0.4-0.2-0.8-0.3-1.3-0.2
	l-1.1,0.2l-1,0.2L60.4,72v3.4l0.5-0.1l1-0.2l2.7-0.4c0.6,0,1.1-0.3,1.4-0.8v2.8l-4.1,0.6l-1,0.2l-3.8,0.6c0.3-0.2,0.5-0.5,0.5-0.8
	V65.5c0-0.3-0.2-0.6-0.5-0.7l3.8-0.6l1-0.2l4.1-0.6V66.3z M73.9,64.3l-1.1,0.2v10.4c0,0.3,0.2,0.6,0.5,0.7L72,75.7l-1,0.2l-1.5,0.2
	c0.3-0.2,0.5-0.5,0.5-0.8V64.9l-1.1,0.2c-1.6,0.2-1.9,0.6-2,1.1v-3l4.1-0.6l1-0.2l2.5-0.4l0.3,2.2C74.5,64.2,74.1,64.2,73.9,64.3
	L73.9,64.3z M87.7,73v-0.6c0.1,0.2,0.3,0.4,0.5,0.5L87.7,73z M90.9,62.2c-0.2-0.4-0.5-0.7-2-0.5L88,61.8v-2.2l2.9-0.5L90.9,62.2z
	 M106.5,59.3c-0.4-0.4-0.9-0.5-1.4-0.4l-2.8,0.4l-1,0.2v3.3l1-0.2l1.4-0.2c0.5-0.1,0.9-0.3,1.3-0.6v3c-0.4-0.2-0.8-0.3-1.3-0.2
	l-1.4,0.2l-1,0.2v4.9c0,0.3,0.2,0.6,0.5,0.7L98,71.2c0.3-0.2,0.5-0.5,0.5-0.8V58.5c0-0.3-0.2-0.6-0.5-0.7l4.3-0.7l4.2-0.7
	L106.5,59.3z M118,55.2v8.5c-0.2,2.2-1.7,4.1-3.8,4.8c-0.4,0.2-0.9,0.3-1.3,0.4c-0.5,0.1-0.9,0.1-1.4,0c-2,0-3.6-1.6-3.7-3.6v-8.5
	c0-0.3-0.2-0.6-0.5-0.7l3.8-0.6c-0.3,0.2-0.5,0.5-0.5,0.8v7.8c-0.1,0.8,0.3,1.7,1,2.1c0.4,0.2,0.9,0.3,1.4,0.2
	c0.5-0.1,0.9-0.3,1.3-0.6c0.7-0.6,1.1-1.5,1.1-2.5v-7.8c0-0.3-0.2-0.6-0.5-0.7l3.8-0.6C118.2,54.6,118,54.9,118,55.2z M131.9,65.5
	c0.2-0.2,0.4-0.5,0.4-0.8c0-0.5-0.1-1-0.2-1.5l-0.9-6.2l0,0l-3.9,9.5l0,0l-3.7-8.1l-0.1-0.2l0,0l-0.9,6.3c-0.1,0.6-0.2,1.2-0.2,1.8
	c0,0.2,0.1,0.4,0.3,0.6l-3.3,0.5c0.3-0.3,0.5-0.8,0.5-1.2l1.5-9.7c0.1-0.5,0.3-1.6,0.3-2c0-0.3-0.1-0.6-0.4-0.8l2.4-0.4l0.6-0.1
	l3.1,7.3l0,0l3.2-8.3l0.7-0.1l2.4-0.4c-0.3,0.2-0.4,0.6-0.4,0.9c0.1,0.6,0.1,1.3,0.3,1.9l1.5,9.2c0,0.4,0.2,0.7,0.5,1L131.9,65.5z
	 M145,52.7c-0.4-0.4-0.9-0.5-1.4-0.4l-2.1,0.3l-1,0.2l-1,0.2v3.3l1-0.2l1-0.2l0.5-0.1c0.5,0,0.9-0.3,1.3-0.6v3
	c-0.4-0.2-0.8-0.3-1.3-0.2l-0.5,0.1l-1,0.2l-1,0.2v3.4l1-0.2l1-0.2l2.1-0.3c0.6-0.1,1.1-0.4,1.4-0.8v2.8l-3.5,0.5l-1,0.2l-4.3,0.7
	c0.3-0.2,0.5-0.5,0.5-0.8V51.9c0-0.3-0.2-0.6-0.5-0.7l4.3-0.7l1-0.2l3.5-0.5V52.7z M157.3,48.5V57c-0.2,1.9-1.3,3.6-3,4.5
	c-0.7,0.4-1.4,0.6-2.1,0.7c-0.7,0.1-1.4,0.1-2.1-0.1c-1.7-0.3-2.9-1.8-3-3.5v-8.5c0-0.3-0.2-0.6-0.5-0.7l3.5-0.5h0.2
	c-0.1,0-0.2,0.1-0.3,0.1c-0.2,0.2-0.3,0.4-0.3,0.6v7.8c0,0.5,0.1,0.9,0.3,1.3c0.4,0.8,1.3,1.2,2.1,1c0.9-0.1,1.7-0.7,2.1-1.6
	c0.2-0.5,0.3-1,0.3-1.5v-7.8c0-0.2-0.1-0.4-0.3-0.5c-0.1-0.1-0.2-0.1-0.2-0.1h0.2l3.6-0.5C157.5,47.8,157.3,48.1,157.3,48.5
	L157.3,48.5z M166.6,59.5c0.2-0.3,0.4-0.6,0.4-0.9c0-1.8-1.6-3.5-4.2-3.7h-0.3v4.6c0,0.2,0.1,0.4,0.3,0.5c0.1,0,0.1,0.1,0.2,0.1
	h-0.2l-3.6,0.5c0.3-0.2,0.5-0.5,0.5-0.8V46.9c0.2,0.1,0.3,0.1,0.5,0.2c0.2,0,0.3,0,0.5,0c0.3-0.1,0.7-0.2,1-0.3
	c0.3-0.1,0.7-0.2,1.1-0.3c0.1,0,0.2,0,0.3-0.1c2.6-0.4,4.7,1,4.7,3.5c0.2,1.5-0.7,2.9-2.2,3.4l0,0c2.2,0.2,3.9,1.8,4.1,4
	c0.2,1.1,0.4,1.4,0.8,1.5L166.6,59.5z"/>
<path class="st1" d="M20,11.8h-4.7v3.7H20c1.4,0,2.1-0.8,2.1-1.8c0-1-0.8-1.9-1.8-1.9C20.2,11.8,20.1,11.8,20,11.8z"/>
<path class="st1" d="M21.5,6.3c0-0.8-0.7-1.5-1.5-1.5c-0.1,0-0.1,0-0.2,0h-4.4v3h4.4C20.9,7.7,21.5,7.1,21.5,6.3z"/>
<path class="st1" d="M9.9,19.8V0.3h10C23.8,0.3,27,2,27,5.8c0.1,1.6-0.7,3.1-2.1,3.8c1.7,0.9,2.7,2.6,2.7,4.5c0,4.4-4,5.7-7.6,5.7
	H9.9z"/>
<path class="st2" d="M22,13.7c0,1.1-0.7,1.8-2.1,1.8h-4.6v-3.7H20c1-0.1,1.9,0.6,2,1.7C22,13.5,22,13.6,22,13.7z"/>
<path class="st2" d="M19.8,4.8c0.8-0.1,1.6,0.5,1.7,1.4c0,0.1,0,0.1,0,0.2c0,0.9-0.6,1.4-1.8,1.4h-4.4v-3L19.8,4.8z"/>
<path class="st1" d="M24.8,9.5c1.4-0.7,2.3-2.2,2.1-3.8c0-3.8-3.2-5.5-7.1-5.5h-10v19.5h10.1c3.6,0,7.6-1.3,7.6-5.7
	C27.5,12.2,26.5,10.4,24.8,9.5z M15.3,4.8h4.5c0.8-0.1,1.6,0.5,1.7,1.4c0,0.1,0,0.1,0,0.2c0,0.9-0.6,1.4-1.8,1.4h-4.4L15.3,4.8z
	 M20,15.5h-4.7v-3.7H20c1-0.1,1.9,0.6,2,1.7c0,0.1,0,0.1,0,0.2C22,14.8,21.4,15.5,20,15.5z"/>
<polygon class="st1" points="34.9,0.3 32.5,0.3 30.5,0.3 30.5,19.8 32.5,19.8 34.9,19.8 36,19.8 36,0.3 "/>
<polygon class="st1" points="53.6,15.1 45.3,15.1 45.3,12.2 53.6,12.2 54.6,12.2 54.6,7.7 53.6,7.7 45.3,7.7 45.3,4.9 53.6,4.9 
	55.1,4.9 55.1,0.3 53.6,0.3 39.9,0.3 39.9,19.8 53.6,19.8 55.5,19.8 55.5,15.1 "/>
<path class="st1" d="M73.6,0.3h-2.2V7c0,0.8,0,1.6,0.2,4L63.3,0.3h-4.7v19.5h5.6v-6.2l-0.1-4.3l8,10.3l0.2,0.2h4.7V0.3H73.6z"/>
<path class="st1" d="M85.4,15.4c0.2-0.7-0.3-1.2-1.1-1.3l0.9,2.2C85.2,16,85.3,15.7,85.4,15.4z"/>
<path class="st1" d="M96.8,0.3H94l-2.2,5.8l-1,2.9l-1.5,4.3l-1.5-4.3l-1-2.9l-2.2-5.8h-6.1l3.4,8.2l0.3,0.6l2.1,5.1
	c0.8,0.2,1.3,0.6,1.1,1.3c-0.1,0.3-0.2,0.6-0.2,0.9l1.5,3.5H92l0.3-0.6l4.2-10.2l0.3-0.6l3.4-8.2H96.8z"/>
<polygon class="st1" points="115.5,15.1 107.2,15.1 107.2,12.2 115.5,12.2 116.4,12.2 116.4,7.7 115.5,7.7 107.2,7.7 107.2,4.9 
	115.5,4.9 117,4.9 117,0.3 115.5,0.3 105.1,0.3 101.8,0.3 101.8,18.6 101.8,19.2 101.8,19.8 105.1,19.8 113.8,19.8 115.5,19.8 
	117.3,19.8 117.3,18.6 117.3,15.1 "/>
<path class="st1" d="M137.5,0.3h-4.2V7c0,0.8,0,1.6,0.2,4l-8.2-10.7h-4.7v19.5h5.6v-6.2L126,9.3l8.1,10.5h4.7V0.3H137.5z"/>
<path class="st1" d="M159.5,0.3h-4.2v10.9c0,2.9-1.5,4.3-3.7,4.3s-3.7-1.3-3.7-4.4V0.3h-5.5v10.8c-0.1,1.9,0.4,3.7,1.3,5.3
	c1.5,2.5,4.2,3.7,7.9,3.7s6.4-1.3,7.9-3.8c0.9-1.6,1.4-3.4,1.3-5.2V0.3H159.5z"/>
<polygon class="st1" points="169.9,15.1 169.9,12.2 179.2,12.2 179.2,7.7 169.9,7.7 169.9,4.9 179.7,4.9 179.7,0.3 165.8,0.3 
	164.5,0.3 164.5,19.8 165.8,19.8 180.1,19.8 180.1,15.1 "/>
<path class="st0" d="M94.9,42.1c-0.2,0-0.4,0.1-0.5,0.1c-0.3,0-0.6-0.9-1.1-2.6c0,0-0.2-1.9-0.5-5.3c0-0.3-0.1-0.5-0.1-0.8
	c-0.4-4-0.8-6.3-1.2-6.8c-0.4-0.6-1.1-1-1.8-1c-0.1,0-0.3,0-0.4,0c-0.6,0.1-1.2,0.4-1.6,0.9c-1.2,1.1-2.5,3.7-3.8,7.7l0,0
	c-0.5,1.5-1,3.1-1.5,5l0.5-5l0.5-5.7c0.1-1,0.3-2.2,0.5-3.7l0,0v-0.1c0.2-1.1,0.3-2.3,0.6-3.7c0.4-2.2,0.6-3.8,0.8-4.7l-0.9-2.2
	c-0.2,0-0.4-0.1-0.6-0.1c-0.3,0-0.6,0-0.9,0.1c-0.3,0.1-0.6,0.2-0.8,0.4c-0.5,0.4-0.4,1-0.8,1.6l-0.2,1c-0.2,0.6-0.4,1.5-0.6,2.5
	c-0.2,1.2-0.4,2.5-0.6,3.6l-0.2,1.6v0.1l-0.3,2.4l-0.5,3.6c-0.1,0-0.3,0.2-0.6,0.8c-0.5,1-1,1.9-1.4,2.7c-1.2,2.2-2.1,3.8-2.7,4.7
	c-0.1,0.2-0.8,1.4-1.3,2.1c-0.1,0.1-0.2,0.2-0.3,0.3c-0.5,0.5-1.1,1-1.5,0.9c-0.8-0.2-0.6-5-0.2-8l0.1-0.5c0.3-1.6,0.7-3.2,1.3-4.8
	c0.1-0.3,0.2-0.5,0.3-0.7c0.6-1.3,1.3-1.9,2.2-1.9c0.2,0,0.4,0.2,0.7,0.5s-0.2,0.6,0.4,0.6h0.1c0.7-0.1,1-0.8,0.6-1.5
	c-0.3-0.5-0.8-0.9-1.4-1l-0.3-0.1c-0.4-0.1-0.8-0.1-1.2-0.2c-0.3,0-0.6,0-0.9,0h-0.1c-0.6,0-1.2,0.1-1.8,0.2
	c-0.7,0.1-1.3,0.5-1.8,1.1c-0.8,1.5-1.5,3-1.9,4.6c-0.3,1.2-0.6,2.5-0.8,3.7c-0.1,1-0.2,1.9-0.2,2.9c0,1.6,0.3,3.3,1,4.8
	c0.5,0.8,1.1,1.4,1.8,2c0.8,0.8,1.9,1.3,3,1.3c0.2,0,0.5,0,0.7-0.1c1.2-0.3,2.5-1.5,3.8-3.5c1.3-1.7,1.5-5.9,1.5-6l0.3-1.4l0.3-1.5
	l-0.2,1.5v0.1c-0.3,2.4-0.5,4.2-0.6,5.4c-0.5,5.9,0.1,9.1,1.7,9.9c0.6,0.3,1.2,0.4,1.9,0.4c0.6,0.1,1.1-0.1,1.6-0.5
	c0.3-0.8,0.6-1.7,0.6-2.5l0.3-1.8c0.2-1,0.4-2.1,0.6-3.3c0.3-1.9,0.5-3.2,0.6-3.7c0.4-1.5,0.7-2.8,1-4c1.1-3.8,2.1-5.7,2.9-5.7h0.2
	c0,0,0.1,0,0.1,0.1c0.3,0.9,0.4,1.8,0.3,2.7c0,1,0,2,0,3c0,0.8,0,1.6-0.1,2.4c-0.1,1.6-0.1,3.2,0,4.8c0.3,2.8,2.1,4.1,3.4,4.1
	c1,0,1.7-0.7,2-2.2C95.2,42.5,95.2,42.1,94.9,42.1z"/>
<path class="st0" d="M123.9,37.8c-1.4,0.4-2.7,1-4,1.6c-1.3,0.5-2.8,1.1-4.2,1.6l-1.9,0.8l-1.1,0.5c-0.4,0.2-0.8,0.3-1.2,0.3
	c-0.3,0-0.5-0.1-0.5-0.3l1.6-2.4c0.4-0.6,0.8-1.2,1.2-1.9c0.8-1.1,1.5-2.3,2.4-3.5c0.1-0.1,0.1-0.2,0.2-0.2c1.2-1.8,2.2-3.1,2.7-3.7
	c1.8-2.2,1.6-2.9,1.7-3.8c0.1-0.6-0.7-1.4-1.4-2l0,0c-0.3-0.3-0.5-0.5-0.8-0.8c-0.2-0.2-0.5-0.4-0.8-0.3c-0.8,0-1.5,0.2-2.2,0.6
	c-0.4,0.2-0.8,0.4-1.3,0.6l-0.4,0.2l-1.1,0.6c-1.6,0.8-3,1.8-4.4,2.9c-1.4,1.4-1.4,1.8-0.8,2.6c0.2,0.3,0.4,0.5,0.6,0.8
	c-0.3,0.6-0.7,1.5-1.2,2.4c-0.6,1.1-1.2,2.3-1.7,3.2c-0.9,1.6-2.3,2.8-4,3.5c-0.4,0.1-0.7,0.2-1.1,0.2h-0.2c-2-0.4-1.7-3.7-1.7-3.7
	c0.7-0.3,1.3-0.6,1.9-1.1c0.4-0.3,0.8-0.6,1.1-0.9c0.4-0.4,0.9-0.8,1.2-1.3c0.9-1.1,1.6-2.4,2.2-3.7c0.9-2.9,0.7-4.8-0.5-5.7
	l-0.1-0.1c-0.6-0.4-1.4-0.6-2.1-0.5h-0.4c-0.1,0-0.2,0-0.3,0c-0.4,0-0.7,0.1-1.1,0.2c-0.3,0.1-0.5,0.2-0.8,0.3l-0.2,0.1
	c-2.8,1.6-4.3,5.9-4.7,9.4c-0.1,1-0.2,1.9-0.2,2.9c-0.1,2.2,0.7,4.3,2.1,5.9c0.9,0.9,2.1,1.3,3.3,1.3c0.2,0,0.3,0,0.5,0
	c0.4,0,0.7-0.1,1.1-0.2c1.9-0.7,3.5-2,4.5-3.7c0.8-1.2,1.4-2.5,1.8-3.8c0.3-0.8,0.5-1.6,0.7-2.2s0.3-1.3,0.4-1.8l0,0
	c0.4,0.3,0.9,0.5,1.4,0.6c0.2,0,0.4-0.1,0.6-0.1c1-0.5,1.9-1,2.8-1.7l0.3-0.2l1.3-0.9l-0.8,1.1c-0.1,0.2-0.3,0.4-0.4,0.6
	c-0.5,0.8-1.2,1.6-1.8,2.5s-1.3,1.6-1.7,2.1c-1.1,1.2-2.1,2.5-2.9,3.8c-1,1.5-1.3,2.8-1,3.8c0.5,2,1.7,2.9,3.4,2.9
	c0.7,0,1.4-0.1,2-0.4c0.7-0.3,1.4-0.6,2.1-1c1.9-1.2,3.7-2.4,5.4-3.8l0.3-0.2l1.7-1.3C123.4,38.6,124.3,37.8,123.9,37.8z M99.2,30.2
	c0.3-0.6,0.6-1.3,0.9-1.9c0.3-0.5,0.7-1,1.1-1.5c0.2-0.3,0.5-0.4,0.8-0.5c0.1,0,0.2,0,0.2,0.1c0.7,0.3,0.3,3-1.1,5.2l-0.2,0.4
	c-0.3,0.5-0.6,0.9-0.9,1.2s-0.6,0.8-0.8,1c-0.3,0.3-0.6,0.6-1,0.8c0-0.1,0-0.4,0-0.8C98.4,32.9,98.7,31.5,99.2,30.2z"/>
<polygon class="st0" points="41.5,63.1 41.3,63.2 41.5,63.2 "/>
<polygon class="st3" points="9.9,90.7 9.9,70.9 4.9,71.7 0.1,72.6 4.9,77.9 8.8,82.1 4.9,87.7 0.1,94.7 4.9,93.9 11.5,92.8 
	11.5,90.4 "/>
<polygon class="st0" points="9.9,70.9 9.9,90.7 11.5,90.4 11.5,70.6 "/>
<polygon class="st3" points="9.9,70.9 9.9,90.7 11.5,90.4 11.5,70.6 "/>
<polygon class="st3" points="181.2,47.8 185.1,42.3 189.9,35.3 185.1,36.1 178.5,37.2 178.5,39.5 180.1,39.3 180.1,59.1 185.1,58.3 
	189.9,57.4 185.1,52.1 "/>
<polygon class="st0" points="178.5,39.5 178.5,59.4 180.1,59.1 180.1,39.3 "/>
<polygon class="st3" points="178.5,39.5 178.5,59.4 180.1,59.1 180.1,39.3 "/>
<path class="st1" d="M24,81.8V71.4c0-0.3,0.2-0.7,0.5-0.8l-3.8,0.6c0.3,0.1,0.5,0.4,0.5,0.7v11.8c0,0.3-0.2,0.6-0.5,0.8l4.3-0.7
	v-2.2L24,81.8z"/>
<polygon class="st1" points="33.2,80.2 34,80.1 34,76.6 33.2,76.8 "/>
<polygon class="st1" points="33.2,74.5 34,74.4 34,71.1 33.2,71.2 "/>
<path class="st1" d="M29,80.4c-0.3,0.5-0.9,0.8-1.4,0.8L25,81.6v2.2l4-0.6V80.4z"/>
<path class="st1" d="M38.8,81.5v-2.8c-0.3,0.5-0.9,0.8-1.4,0.8L34,80.1v2.2L38.8,81.5z"/>
<path class="st1" d="M35.8,76.4c0.4-0.1,0.9,0,1.3,0.2v-3c-0.3,0.3-0.8,0.6-1.3,0.6L34,74.5v2.2L35.8,76.4z"/>
<path class="st1" d="M37.4,70.6c0.5-0.2,1.1,0,1.4,0.4v-2.8L34,68.9v2.2L37.4,70.6z"/>
<path class="st1" d="M30.5,70.2v11.9c0,0.3-0.2,0.7-0.5,0.8l4-0.6v-2.2l-0.7,0.1v-3.4l0.7-0.1v-2.2l-0.7,0.1v-3.3l0.7-0.1v-2.2
	l-4,0.6C30.3,69.6,30.5,69.9,30.5,70.2z"/>
<path class="st1" d="M50.8,72.7c-0.3,0.1-0.7,0-1-0.1v-4.2c0.3-0.2,0.6-0.4,1-0.4c0.4-0.1,0.9,0,1.3,0.1v-2.3c-0.5-0.1-1-0.1-1.5,0
	c-0.6,0.1-1.1,0.2-1.6,0.4c-0.5,0.2-1,0.3-1.2,0.3c-0.1,0-0.2,0-0.3,0c-0.1,0-0.2-0.1-0.3-0.2v12.9c0,0.3-0.2,0.7-0.5,0.8l3.8-0.6
	c-0.3-0.1-0.5-0.4-0.5-0.7V75c0.4,0.1,0.8,0.1,1.2,0c0.4-0.1,0.7-0.2,1.1-0.3v-2.5C51.7,72.5,51.2,72.6,50.8,72.7z"/>
<path class="st0" d="M52.1,68.1c-0.4-0.1-0.9-0.1-1.3-0.1c-0.4,0.1-0.7,0.2-1,0.4v4.2c0.3,0.1,0.7,0.2,1,0.1
	c0.5-0.1,0.9-0.2,1.3-0.5c0.7-0.5,1.2-1.3,1.2-2.2C53.4,69.2,52.9,68.3,52.1,68.1z"/>
<path class="st1" d="M55.8,69.7c0.1-2.1-1.5-3.9-3.6-4c0,0-0.1,0-0.1,0V68c0.8,0.3,1.3,1.1,1.2,2c0,0.9-0.4,1.8-1.2,2.3v2.5
	C54.3,74,55.8,72,55.8,69.7z"/>
<polygon class="st1" points="60.8,77.6 61.8,77.5 61.8,75.3 60.8,75.4 "/>
<polygon class="st1" points="60.8,66.5 61.8,66.3 61.8,64.1 60.8,64.3 "/>
<polygon class="st1" points="60.8,72 61.8,71.8 61.8,69.6 60.8,69.8 "/>
<path class="st1" d="M60.4,75.5v-3.4l0.5-0.1v-2.2l-0.5,0.1v-3.3l0.5-0.1v-2.2l-3.8,0.6c0.3,0.1,0.5,0.4,0.5,0.7v11.9
	c0,0.3-0.2,0.6-0.5,0.8l3.8-0.6v-2.2L60.4,75.5z"/>
<path class="st1" d="M64.5,65.9c0.5-0.2,1.1,0,1.4,0.4v-2.8l-4.1,0.6v2.2L64.5,65.9z"/>
<path class="st1" d="M66,76.8V74c-0.3,0.5-0.9,0.8-1.4,0.8l-2.7,0.4v2.2L66,76.8z"/>
<path class="st1" d="M62.9,71.7c0.4-0.1,0.9,0,1.3,0.2v-3c-0.3,0.3-0.8,0.6-1.3,0.6l-1.1,0.2v2.2L62.9,71.7z"/>
<polygon class="st1" points="70.9,75.8 72,75.7 72,62.4 70.9,62.5 "/>
<path class="st1" d="M66.8,63.2v3c0.2-0.4,0.5-0.8,2-1.1l1.2-0.2v10.4c0,0.3-0.2,0.6-0.5,0.8l1.5-0.2V62.5L66.8,63.2z"/>
<path class="st1" d="M73.2,75.5c-0.3-0.1-0.5-0.4-0.5-0.7V64.5l1.1-0.2c1.6-0.2,1.9,0.1,2,0.4v-3L72,62.4v13.3L73.2,75.5z"/>
<path class="st1" d="M80.2,73.5V61.8c0-0.3,0.2-0.7,0.5-0.8L77,61.5c0.3,0.1,0.5,0.4,0.5,0.7V74c0,0.3-0.2,0.6-0.5,0.8l3.8-0.6
	C80.5,74.2,80.2,73.9,80.2,73.5z"/>
<path class="st1" d="M88.2,72.9c-0.3-0.1-0.5-0.4-0.5-0.7V61.9l1.1-0.2c1.6-0.2,1.9,0.1,2,0.5v-3L85.7,60v13.4L88.2,72.9z"/>
<path class="st1" d="M81.8,63.6c0.2-0.4,0.5-0.8,2-1.1l1.2-0.2v10.4c0,0.3-0.2,0.7-0.5,0.8l1.3-0.2V60l-3.9,0.6L81.8,63.6z"/>
<path class="st1" d="M102.2,57.2L98,57.8c0.3,0.1,0.5,0.4,0.5,0.7v11.9c0,0.3-0.2,0.7-0.5,0.8l3.8-0.6c-0.3-0.1-0.5-0.4-0.5-0.7V65
	l1-0.2l1.4-0.2c0.4-0.1,0.9,0,1.3,0.2v-3c-0.3,0.3-0.8,0.6-1.3,0.6l-1.4,0.2l-1,0.2v-3.3l1-0.2l2.8-0.4c0.5-0.2,1.1,0,1.4,0.4v-2.8
	L102.2,57.2z"/>
<path class="st1" d="M114.7,55c0.3,0.1,0.5,0.4,0.5,0.7v7.8c0.1,1-0.3,1.9-1.1,2.5c-0.4,0.3-0.8,0.5-1.3,0.6c-0.5,0.1-1,0-1.4-0.2
	c-0.7-0.5-1.1-1.3-1-2.1v-7.8c0-0.3,0.2-0.7,0.5-0.8l-3.8,0.6c0.3,0.1,0.5,0.4,0.5,0.7v8.5c0.1,2,1.7,3.6,3.7,3.7
	c0.5,0.1,0.9,0.1,1.4,0c0.5-0.1,0.9-0.2,1.3-0.4c2.1-0.7,3.6-2.6,3.8-4.9v-8.5c0-0.3,0.2-0.7,0.5-0.8L114.7,55z"/>
<path class="st1" d="M135.4,65c-0.3-0.3-0.5-0.6-0.5-1l-1.5-9.2c-0.1-0.6-0.2-1.3-0.3-1.9c0-0.4,0.1-0.7,0.4-0.9l-2.4,0.4l-0.7,0.1
	l-3.2,8.3l0,0l-3.1-7.3l-0.6,0.1l-2.4,0.4c0.3,0.2,0.4,0.5,0.4,0.8c0,0.4-0.2,1.5-0.3,2l-1.5,9.7c0,0.4-0.2,0.9-0.5,1.2l3.3-0.5
	c-0.2-0.1-0.3-0.3-0.3-0.6c0-0.6,0.1-1.2,0.2-1.8l0.9-6.3l0,0l0.1,0.2l3.7,8.1l0,0l3.9-9.5l0,0l0.9,6.2c0.1,0.5,0.2,1,0.2,1.5
	c0,0.3-0.1,0.6-0.4,0.8L135.4,65z"/>
<path class="st1" d="M140.4,52.8l1-0.2l2.1-0.3c0.5-0.2,1.1,0,1.4,0.4v-2.8l-3.5,0.5l-1,0.2l-4.3,0.7c0.3,0.1,0.5,0.4,0.5,0.7v11.9
	c0,0.3-0.2,0.7-0.5,0.8l4.3-0.7l1-0.2l3.5-0.5v-2.8c-0.3,0.5-0.9,0.8-1.4,0.8l-2.1,0.3l-1,0.2l-1,0.2v-3.4l1-0.2l1-0.2l0.5-0.1
	c0.4-0.1,0.9,0,1.3,0.2v-3.1c-0.3,0.4-0.8,0.6-1.3,0.6l-0.5,0.1l-1,0.2l-1,0.2v-3.3L140.4,52.8z"/>
<path class="st1" d="M154.2,48.4v-0.2H154C154.1,48.2,154.1,48.3,154.2,48.4z"/>
<path class="st1" d="M150.2,48.8H150V49C150.1,48.9,150.2,48.9,150.2,48.8z"/>
<path class="st0" d="M163.1,48.7c-0.1,0-0.2,0-0.3,0.1c-0.1,0-0.2,0.1-0.3,0.1v3.6c0.1,0,0.2,0.1,0.3,0.1c0.1,0,0.2,0,0.3,0
	c1.1-0.1,2-1.1,2-2.2c0-0.9-0.7-1.6-1.5-1.7C163.4,48.6,163.2,48.7,163.1,48.7z"/>
<path class="st1" d="M154.2,48.2v0.2c0.2,0.1,0.3,0.3,0.3,0.5v7.8c0,0.5-0.1,1-0.3,1.5c-0.4,0.9-1.2,1.5-2.1,1.6
	c-0.9,0.2-1.8-0.2-2.1-1c-0.2-0.4-0.3-0.9-0.3-1.3v-7.8c0-0.2,0.1-0.5,0.3-0.6v-0.2l-3.5,0.5c0.3,0.1,0.5,0.4,0.5,0.7v8.5
	c0.1,1.7,1.3,3.2,3,3.5c0.7,0.2,1.4,0.2,2.1,0.1c0.7-0.1,1.5-0.4,2.1-0.7c1.7-0.9,2.8-2.6,3-4.5v-8.5c0-0.3,0.2-0.7,0.5-0.8
	L154.2,48.2z"/>
<path class="st1" d="M163,60c-0.1,0-0.2-0.1-0.2-0.1V60L163,60z"/>
<path class="st1" d="M170.4,58.9c-0.3-0.2-0.6-0.5-0.8-1.5c-0.2-2.2-1.9-3.8-4.1-4l0,0c1.4-0.5,2.4-1.9,2.2-3.4
	c0-2.4-2.1-3.9-4.7-3.5c-0.1,0-0.2,0-0.3,0.1c-0.4,0.1-0.7,0.2-1.1,0.3c-0.3,0.1-0.7,0.2-1,0.3c-0.2,0-0.3,0-0.5,0
	c-0.2,0-0.3-0.1-0.5-0.2v12.8c0,0.3-0.2,0.6-0.5,0.8l3.6-0.5v-0.2c-0.2-0.1-0.3-0.3-0.3-0.5v-4.6h0.3c2.6,0.2,4.2,2,4.2,3.7
	c0,0.3-0.1,0.7-0.4,0.9L170.4,58.9z M163.1,52.5c-0.1,0-0.2,0-0.3,0c-0.1,0-0.2,0-0.3-0.1v-3.5c0.1-0.1,0.2-0.1,0.3-0.1
	c0.1,0,0.2-0.1,0.3-0.1c0.9-0.2,1.7,0.3,1.9,1.1c0,0.1,0.1,0.3,0.1,0.4C165.1,51.4,164.2,52.4,163.1,52.5L163.1,52.5z"/>
</svg>
