<svg id="Layer_1" data-name="Layer 1" xmlns="http://www.w3.org/2000/svg" viewBox="0 0 40 40"><defs><style>.cls-1{fill:#00dec8;}.cls-2,.cls-3{fill:none;}.cls-2{stroke:#fff;stroke-miterlimit:10;stroke-width:0.5px;}.cls-4{fill:#fff;}</style></defs><title>image footer</title><circle class="cls-1" cx="20" cy="20" r="20"/><circle class="cls-2" cx="20" cy="20" r="18.5"/><path class="cls-3" d="M15.09,28.18h9.82a4.44,4.44,0,0,0,.62-.05,3.42,3.42,0,0,0,2.88-3.35V15.21a3.43,3.43,0,0,0-3.5-3.39H15.09a3.42,3.42,0,0,0-3.5,3.39q0,4.78,0,9.57A3.43,3.43,0,0,0,15.09,28.18ZM25.55,13.45a1.16,1.16,0,1,1-1.2,1.16A1.18,1.18,0,0,1,25.55,13.45ZM20,15a5.05,5.05,0,1,1-5.19,5A5.11,5.11,0,0,1,20,15Z"/><path class="cls-3" d="M20,23.71A3.71,3.71,0,1,0,16.18,20,3.77,3.77,0,0,0,20,23.71Z"/><path class="cls-3" d="M10.21,29.52H29.79v-19H10.21Zm3.08-18.71a5.16,5.16,0,0,1,1.79-.33h9.83a4.81,4.81,0,0,1,3.64,1.59,4.46,4.46,0,0,1,1.23,3.1c0,1.6,0,3.21,0,4.82s0,3.19,0,4.78a4.59,4.59,0,0,1-2,3.8,4.67,4.67,0,0,1-2.86.94c-3.3,0-6.6,0-9.89,0a4.78,4.78,0,0,1-4-2,4.4,4.4,0,0,1-.89-2.7q0-4.82,0-9.63A4.73,4.73,0,0,1,13.29,10.81Z"/><path class="cls-4" d="M20,25.05A5.05,5.05,0,1,0,14.81,20,5.12,5.12,0,0,0,20,25.05Zm0-8.76A3.71,3.71,0,1,1,16.18,20,3.77,3.77,0,0,1,20,16.29Z"/><path class="cls-4" d="M25.55,15.77a1.16,1.16,0,1,0-1.2-1.16A1.18,1.18,0,0,0,25.55,15.77Z"/><path class="cls-4" d="M11.11,27.52a4.78,4.78,0,0,0,4,2c3.29,0,6.59,0,9.89,0a4.67,4.67,0,0,0,2.86-.94,4.59,4.59,0,0,0,2-3.8c0-1.59,0-3.19,0-4.78s0-3.22,0-4.82a4.46,4.46,0,0,0-1.23-3.1,4.81,4.81,0,0,0-3.64-1.59H15.08a5.16,5.16,0,0,0-1.79.33,4.73,4.73,0,0,0-3.07,4.38q0,4.81,0,9.63A4.4,4.4,0,0,0,11.11,27.52Zm.48-12.31a3.42,3.42,0,0,1,3.5-3.39h9.82a3.43,3.43,0,0,1,3.5,3.39v9.57a3.42,3.42,0,0,1-2.88,3.35,4.44,4.44,0,0,1-.62.05H15.09a3.43,3.43,0,0,1-3.5-3.4Q11.58,20,11.59,15.21Z"/></svg>