<svg id="Layer_1" data-name="Layer 1" xmlns="http://www.w3.org/2000/svg" viewBox="0 0 51.05 51.29"><defs><style>.cls-1{fill:#00dec8;}</style></defs><title>fusee</title><path class="cls-1" d="M50.73.33A1.1,1.1,0,0,0,49.79,0,52,52,0,0,0,23.94,13.24a1,1,0,0,0-.24,0L12.8,15.37a1.08,1.08,0,0,0-.56.29L2.92,24.87a1.08,1.08,0,0,0-.21,1.27,1.09,1.09,0,0,0,1,.61h.17L15.28,25a44.1,44.1,0,0,0-1.93,4.34,1.1,1.1,0,0,0,.26,1.19l2.84,2.73-2.6,2.59a1.1,1.1,0,0,0,0,1.56,1.11,1.11,0,0,0,1.56,0L18,34.75l2.74,2.63a1.06,1.06,0,0,0,.76.31,1.33,1.33,0,0,0,.34,0,35.46,35.46,0,0,0,4.38-1.94L24.52,46.81A1.07,1.07,0,0,0,25.11,48a1,1,0,0,0,.49.12,1.11,1.11,0,0,0,.79-.33l9.2-9.32a1.06,1.06,0,0,0,.3-.56L38,27.21A44.73,44.73,0,0,0,51,1.26,1.1,1.1,0,0,0,50.73.33ZM6.89,24l6.66-6.58,7.83-1.53a43.73,43.73,0,0,0-4.76,6.6Zm26.9,13.08-6.58,6.67,1.47-9.44a48.66,48.66,0,0,0,6.56-4.66Zm-12-1.8-2.21-2.13,4.08-4.07a1.1,1.1,0,0,0-1.56-1.56L18,31.67l-2.33-2.25C23.76,9.32,43.09,3.7,48.6,2.48,44.45,25.47,25.45,33.9,21.8,35.32Z"/><path class="cls-1" d="M18,41.15,9.72,49.41A1.1,1.1,0,1,0,11.28,51l8.26-8.25a1.09,1.09,0,0,0,0-1.55A1.1,1.1,0,0,0,18,41.15Z"/><path class="cls-1" d="M12.08,39.14a1.11,1.11,0,0,0-1.55,0L2.27,47.4a1.09,1.09,0,0,0,0,1.55,1.07,1.07,0,0,0,.78.32A1.09,1.09,0,0,0,3.83,49l8.25-8.25A1.1,1.1,0,0,0,12.08,39.14Z"/><path class="cls-1" d="M10.14,31.69a1.1,1.1,0,0,0-1.56,0L.32,39.94a1.1,1.1,0,0,0,0,1.56,1.13,1.13,0,0,0,.78.32,1.13,1.13,0,0,0,.78-.32l8.26-8.25A1.12,1.12,0,0,0,10.14,31.69Z"/><path class="cls-1" d="M35.44,20.57a4.78,4.78,0,1,0-4.78-4.78A4.78,4.78,0,0,0,35.44,20.57Zm0-7.36a2.58,2.58,0,1,1-2.58,2.58A2.58,2.58,0,0,1,35.44,13.21Z"/></svg>