<?xml version="1.0" encoding="utf-8"?>
<!-- Generator: Adobe Illustrator 23.0.3, SVG Export Plug-In . SVG Version: 6.00 Build 0)  -->
<svg version="1.1" id="Layer_1" xmlns="http://www.w3.org/2000/svg" xmlns:xlink="http://www.w3.org/1999/xlink" x="0px" y="0px"
	 viewBox="0 0 72.3 42.1" style="enable-background:new 0 0 72.3 42.1;" xml:space="preserve">
<style type="text/css">
	.st0{fill:#00DDC7;}
</style>
<title>picto</title>
<path class="st0" d="M72.2,16.7L63.4,0.9c-0.1-0.3-0.4-0.5-0.7-0.5c-0.3,0-0.6,0.1-0.8,0.3l-7.2,5.5c-0.3,0.3-0.4,0.8-0.2,1.2
	l0.1,0.2c-0.4,0.5-1,0.8-1.6,0.9c-0.8,0.1-1.6-0.2-2.2-0.7c-3.3-2.5-5.9-4.5-5.9-4.5c-0.2-0.1-0.4-0.2-0.6-0.2H27.7
	c-0.2,0-0.5,0.1-0.7,0.3c-2.1,2-3.7,3.6-4.9,4.9L18,6.9c0-0.3-0.1-0.5-0.3-0.8l-7.2-5.5c-0.2-0.2-0.5-0.3-0.8-0.3
	C9.3,0.4,9.1,0.6,8.9,0.9L0.1,16.7c-0.2,0.4-0.1,0.9,0.2,1.2l7.5,6.4c0.2,0.1,0.4,0.2,0.6,0.2h0.2c0.3-0.1,0.5-0.3,0.7-0.5l0.3-0.5
	l1.3,1.2c-1.2,1.4-1.4,3.3-0.6,4.9c0.8,1.4,2.4,2.3,4,2.3h0.2c-0.1,1.3,0.5,2.6,1.5,3.4c0.8,0.7,1.9,1.1,3,1.2c0.1,0,0.2,0,0.3,0
	c0.1,1.5,1,2.8,2.3,3.5c0.7,0.4,1.5,0.6,2.3,0.6c0.9,0,1.8-0.3,2.5-1c0-0.1,0.1-0.1,0.2-0.2c0.4,1.1,1.2,1.9,2.2,2.5
	c0.7,0.4,1.5,0.6,2.3,0.6c1,0,2-0.4,2.6-1.1l0.4-0.5l0.4,0.5c0.1,0.1,0.2,0.2,0.3,0.2c0.7,0.4,1.6,0.6,2.4,0.6
	c0.6,0,1.2-0.1,1.7-0.4c1-0.6,1.7-1.6,1.9-2.8l0.2,0.2c0.1,0.1,0.2,0.2,0.3,0.2c0.8,0.4,1.7,0.7,2.6,0.7c0.6,0,1.3-0.1,1.8-0.5
	c1.1-0.7,1.9-1.9,2.2-3.2h0c0.7,0.3,1.4,0.4,2.2,0.4c0.9,0,1.8-0.2,2.5-0.7c1-0.7,1.7-1.9,1.9-3.1c0.4,0.1,0.8,0.2,1.2,0.2
	c0.7,0,1.5-0.2,2.1-0.7c1.5-1.2,2.1-3.1,1.5-4.9c-0.1-0.2-0.1-0.5-0.2-0.7L63,24c0.1,0.3,0.4,0.4,0.7,0.5h0.2c0.2,0,0.4-0.1,0.6-0.2
	l7.5-6.4C72.3,17.6,72.4,17.1,72.2,16.7z M2.2,16.9L10.1,3l5.8,4L8.2,22L2.2,16.9z M15.7,29.3L15.7,29.3c-0.2,0.2-0.3,0.5-0.5,0.7
	c-0.2,0-0.3,0-0.5,0c-1.1,0.1-2.2-0.4-2.7-1.4c-0.4-0.9-0.2-2.1,0.5-2.8l0.4-0.5l0.1-0.1c0-0.1,0.1-0.1,0.1-0.2c0.8-1,2.4-3,3.7-4.6
	c0.7-0.6,1.8-0.6,2.5-0.1c1,0.4,1.5,1.4,1.4,2.4c0,0.1,0,0.2,0,0.3C18.5,25.8,15.9,29.1,15.7,29.3z M17.2,33.8
	c-0.6-0.5-1.4-1.6,0-3.3c0.2-0.2,5.4-6.6,7.2-8.8c0.6-0.7,2.1-0.5,3.1,0.4s1,2.1-0.1,3.4c-2.2,2.7-3.8,4.5-5.2,6.1
	c-0.8,0.9-1.5,1.7-2.2,2.5S18.1,34.5,17.2,33.8z M22.5,38.2c-0.9-0.4-1.4-1.4-1.2-2.4c0-0.1,0-0.1,0-0.2c0.1-0.1,0.2-0.1,0.2-0.2
	c0.7-0.8,1.4-1.6,2.2-2.5c1.4-1.6,3-3.4,5.2-6.1c0.1-0.1,0.2-0.3,0.3-0.4c0.1,0,0.2,0,0.3,0c1-0.2,2,0.2,2.5,1.1
	c0.5,0.9,0.4,2.1-0.4,2.8c0,0.1-4.7,5.7-6.6,7.9C24.2,38.7,23.3,38.7,22.5,38.2z M29.7,40c-1-0.4-1.5-1.4-1.4-2.5c0-0.1,0-0.1,0-0.2
	c2.1-2.5,4.6-5.6,4.8-5.8l0.1-0.1c0,0,0.1,0,0.1,0c0.5-0.1,1.1,0,1.6,0.3l0,0l1.4,1.7c0.1,0.8-0.2,1.6-0.7,2.2l-0.1,0.1
	c-1,1.5-2,3-3.2,4.4C31.5,40.5,30.4,40.5,29.7,40z M39.3,37.1c-0.1,1-0.4,2.4-1.2,2.8c-0.7,0.3-1.5,0.2-2.2-0.1l-0.5-0.6
	c0.9-1.2,1.5-2.2,1.7-2.4c0.3-0.4,0.6-0.9,0.8-1.4L39.3,37.1L39.3,37.1z M56.9,31c-0.7,0.5-1.6,0.4-2.3-0.1l-7.3-9
	c-0.3-0.4-1-0.5-1.4-0.1c-0.4,0.4-0.5,1-0.1,1.4c0,0,0,0,0,0l7.1,8.8c0,1-0.4,1.9-1.2,2.6c-0.9,0.5-1.9,0.5-2.8,0.2l-7.5-9.1
	c-0.3-0.4-0.9-0.5-1.4-0.2c-0.4,0.4-0.5,1-0.1,1.4c0,0,0,0,0,0l6.4,7.8c0,0,0,0,0,0.1c-0.1,1.2-0.4,2.7-1.4,3.2
	c-0.8,0.3-1.7,0.3-2.5-0.2L38,32.5c-0.1-0.2-0.2-0.5-0.3-0.7c-0.8-1.3-2.1-2.1-3.5-2.3c0.3-1.1,0.1-2.2-0.5-3.1
	c-0.8-1.2-2.1-2-3.5-2.1c0.2-1.4-0.3-2.8-1.4-3.7c-1.6-1.4-4.3-1.9-5.8-0.2l-0.5,0.6c-0.4-1.1-1.2-1.9-2.2-2.5
	c-1.6-1-3.6-0.7-4.9,0.5c-1.1,1.3-2.4,2.9-3.2,4l-1.6-1.5l6.7-13l3.5,1.1c-1.9,2.3-1.9,2.9-1.8,3.2c0.1,1.3,2.1,2,3.3,2.3
	c2.8,0.7,6.5,0.5,8.5-2L41,13.7c0,0,3.2,0.1,8,4.4c5.2,4.6,8.1,7.6,8.8,10.1C58,29.2,57.7,30.3,56.9,31z M50.2,16.5
	c-5.4-4.8-9-4.9-9.2-4.9l0,0l-10.8-0.4c-0.3,0-0.7,0.2-0.9,0.5c-0.9,1.2-2.2,1.9-3.6,1.9c-1.6,0.1-3.3-0.2-4.8-0.9
	c2.2-2.7,4.6-5.3,7.1-7.7h15.8c0.7,0.6,3,2.2,5.7,4.3c1,0.9,2.3,1.2,3.7,1.1c0.8-0.2,1.6-0.5,2.2-1.1l6.6,12.9l-3.6,2.9
	C57,22.8,54.3,20.2,50.2,16.5z M64.1,22L56.4,7l5.8-4l7.9,13.9L64.1,22z"/>
<path class="st0" d="M65,17.7c0.2,0,0.5-0.1,0.7-0.3l1.1-1.1c0.4-0.4,0.4-1,0-1.4c0,0,0,0,0,0c-0.4-0.4-1-0.4-1.4-0.1L64.3,16
	c-0.4,0.4-0.4,1,0,1.4C64.5,17.6,64.7,17.7,65,17.7z"/>
<path class="st0" d="M6.9,14.9c-0.4-0.3-1-0.3-1.4,0.1c-0.4,0.4-0.4,1,0,1.4c0,0,0,0,0,0l1.1,1.1c0.2,0.2,0.4,0.3,0.7,0.3
	c0.3,0,0.5-0.1,0.7-0.3c0.4-0.4,0.4-1,0-1.4c0,0,0,0,0,0L6.9,14.9z"/>
</svg>
