<?xml version="1.0" encoding="utf-8"?>
<!-- Generator: Adobe Illustrator 23.0.3, SVG Export Plug-In . SVG Version: 6.00 Build 0)  -->
<svg version="1.1" id="Layer_1" xmlns="http://www.w3.org/2000/svg" xmlns:xlink="http://www.w3.org/1999/xlink" x="0px" y="0px"
	 viewBox="0 0 64.4 42.1" style="enable-background:new 0 0 64.4 42.1;" xml:space="preserve">
<style type="text/css">
	.st0{fill-rule:evenodd;clip-rule:evenodd;fill:#00DEC8;}
	.st1{clip-path:url(#SVGID_2_);}
	.st2{fill:#00DEC8;}
	.st3{clip-path:url(#SVGID_4_);}
	.st4{clip-path:url(#SVGID_6_);}
</style>
<title>picto</title>
<path class="st0" d="M59.9,18l-1.7-6.7c0.5-0.1,0.8-0.5,0.8-1v-1c0-2.3-1.9-4.2-4.2-4.2h-7.6V2.9c0-1.2-0.9-2.1-2.1-2.1H6.4
	c-1.2,0-2.1,0.9-2.1,2.1v18.3c0,0.6,0.4,1,1,1s1-0.4,1-1V2.9c0,0,0-0.1,0.1-0.1l0,0h38.7c0,0,0.1,0,0.1,0.1v18.3c0,0.6,0.4,1,1,1
	s1-0.4,1-1V20H59c1.4,0,2.7,0.9,3.1,2.3H59c-0.6,0-1,0.4-1,1v2.1c0,1.7,1.4,3.2,3.2,3.2h1.1V33h-2.7c-1.2-3.3-4.8-5.1-8.1-3.9
	c-1.9,0.6-3.3,2.1-3.9,3.9h-0.5v-7.6c0-0.6-0.4-1-1-1s-1,0.4-1,1V33H24.2c-1.2-3.3-4.8-5.1-8.1-3.9c-1.9,0.6-3.3,2.1-3.9,3.9H6.4
	c0,0,0,0-0.1,0v-2.3h4.4c0.6,0,1-0.4,1-1s-0.4-1-1-1H1c-0.6,0-1,0.4-1,1s0.4,1,1,1h3.3V33c0,1.1,1,2,2.1,2h5.4c0,0,0,0,0,0.1
	c0.1,3.5,3.1,6.3,6.6,6.1c3.3-0.1,6-2.8,6.1-6.1V35h22.7v0.1c0,3.5,2.9,6.4,6.4,6.4s6.4-2.9,6.4-6.4V35h3.3c0.6,0,1-0.4,1-1l0,0
	V23.3C64.4,20.6,62.5,18.4,59.9,18z M47.2,11.4h9l1.6,6.6H47.2V11.4z M54.8,7.1C56,7,57,8,57,9.2v0.1v0.1h-9.8V7.1H54.8z M18.2,39.5
	c-2.4,0-4.4-1.9-4.4-4.4s1.9-4.4,4.4-4.4s4.4,1.9,4.4,4.4l0,0C22.6,37.5,20.6,39.5,18.2,39.5z M53.7,39.5c-2.4,0-4.4-2-4.4-4.4
	s2-4.4,4.4-4.4s4.4,2,4.4,4.4l0,0C58,37.5,56.1,39.5,53.7,39.5z M61.2,26.6c-0.6,0-1.1-0.5-1.2-1.1v-1.1h2.3v2.3L61.2,26.6
	L61.2,26.6z"/>
<g>
	<g>
		<defs>
			<path id="SVGID_1_" d="M59.9,18l-1.7-6.7c0.5-0.1,0.8-0.5,0.8-1v-1c0-2.3-1.9-4.2-4.2-4.2h-7.6V2.9c0-1.2-0.9-2.1-2.1-2.1H6.4
				c-1.2,0-2.1,0.9-2.1,2.1v18.3c0,0.6,0.4,1,1,1s1-0.4,1-1V2.9c0,0,0-0.1,0.1-0.1l0,0h38.7c0,0,0.1,0,0.1,0.1v18.3c0,0.6,0.4,1,1,1
				s1-0.4,1-1V20H59c1.4,0,2.7,0.9,3.1,2.3H59c-0.6,0-1,0.4-1,1v2.1c0,1.7,1.4,3.2,3.2,3.2h1.1V33h-2.7c-1.2-3.3-4.8-5.1-8.1-3.9
				c-1.9,0.6-3.3,2.1-3.9,3.9h-0.5v-7.6c0-0.6-0.4-1-1-1s-1,0.4-1,1V33H24.2c-1.2-3.3-4.8-5.1-8.1-3.9c-1.9,0.6-3.3,2.1-3.9,3.9H6.4
				c0,0,0,0-0.1,0v-2.3h4.4c0.6,0,1-0.4,1-1s-0.4-1-1-1H1c-0.6,0-1,0.4-1,1s0.4,1,1,1h3.3V33c0,1.1,1,2,2.1,2h5.4c0,0,0,0,0,0.1
				c0.1,3.5,3.1,6.3,6.6,6.1c3.3-0.1,6-2.8,6.1-6.1V35h22.7v0.1c0,3.5,2.9,6.4,6.4,6.4s6.4-2.9,6.4-6.4V35h3.3c0.6,0,1-0.4,1-1l0,0
				V23.3C64.4,20.6,62.5,18.4,59.9,18z M47.2,11.4h9l1.6,6.6H47.2V11.4z M54.8,7.1C56,7,57,8,57,9.2v0.1v0.1h-9.8V7.1H54.8z
				 M18.2,39.5c-2.4,0-4.4-1.9-4.4-4.4s1.9-4.4,4.4-4.4s4.4,1.9,4.4,4.4l0,0C22.6,37.5,20.6,39.5,18.2,39.5z M53.7,39.5
				c-2.4,0-4.4-2-4.4-4.4s2-4.4,4.4-4.4s4.4,2,4.4,4.4l0,0C58,37.5,56.1,39.5,53.7,39.5z M61.2,26.6c-0.6,0-1.1-0.5-1.2-1.1v-1.1
				h2.3v2.3L61.2,26.6L61.2,26.6z"/>
		</defs>
		<clipPath id="SVGID_2_">
			<use xlink:href="#SVGID_1_"  style="overflow:visible;"/>
		</clipPath>
		<g class="st1">
			<rect x="-8.1" y="-7.4" class="st2" width="80.6" height="57"/>
		</g>
	</g>
</g>
<path class="st0" d="M25.8,29.7c0,0.6,0.4,1,1,1h15.1c0.6,0,1-0.4,1-1s-0.4-1-1-1h-15C26.3,28.7,25.9,29.2,25.8,29.7"/>
<g>
	<g>
		<defs>
			<path id="SVGID_3_" d="M25.8,29.7c0,0.6,0.4,1,1,1h15.1c0.6,0,1-0.4,1-1s-0.4-1-1-1h-15C26.3,28.7,25.9,29.2,25.8,29.7"/>
		</defs>
		<clipPath id="SVGID_4_">
			<use xlink:href="#SVGID_3_"  style="overflow:visible;"/>
		</clipPath>
		<g class="st3">
			<rect x="17.7" y="20.6" class="st2" width="33.3" height="18.3"/>
		</g>
	</g>
</g>
<path class="st0" d="M3.2,26.4h12.9c0.6,0,1-0.4,1-1s-0.4-1-1-1H3.2c-0.6,0-1,0.4-1,1S2.6,26.4,3.2,26.4"/>
<g>
	<g>
		<defs>
			<path id="SVGID_5_" d="M3.2,26.4h12.9c0.6,0,1-0.4,1-1s-0.4-1-1-1H3.2c-0.6,0-1,0.4-1,1S2.6,26.4,3.2,26.4"/>
		</defs>
		<clipPath id="SVGID_6_">
			<use xlink:href="#SVGID_5_"  style="overflow:visible;"/>
		</clipPath>
		<g class="st4">
			<rect x="-6" y="16.3" class="st2" width="31.2" height="18.3"/>
		</g>
	</g>
</g>
</svg>
