<?xml version="1.0" encoding="utf-8"?>
<!-- Generator: Adobe Illustrator 23.0.3, SVG Export Plug-In . SVG Version: 6.00 Build 0)  -->
<svg version="1.1" id="Layer_1" xmlns="http://www.w3.org/2000/svg" xmlns:xlink="http://www.w3.org/1999/xlink" x="0px" y="0px"
	 viewBox="0 0 51.34 41.49" style="enable-background:new 0 0 51.34 41.49;" xml:space="preserve">
<style type="text/css">
	.st0{fill-rule:evenodd;clip-rule:evenodd;fill:#00DDC7;}
	.st1{clip-path:url(#SVGID_2_);}
	.st2{fill:#00DDC7;}
	.st3{clip-path:url(#SVGID_6_);}
	.st4{clip-path:url(#SVGID_10_);}
	.st5{clip-path:url(#SVGID_14_);}
	.st6{clip-path:url(#SVGID_18_);}
	.st7{clip-path:url(#SVGID_22_);}
	.st8{clip-path:url(#SVGID_26_);}
</style>
<title>picto</title>
<g id="Layer_3">
	<path class="st0" d="M50.74,25.14L44.12,3.29c-0.36-1.18-1.17-2.16-2.26-2.74c-1.08-0.58-2.35-0.71-3.52-0.35L3.68,10.65
		c-2.44,0.75-3.82,3.32-3.09,5.77l0.82,2.69l0,0L6.9,37.22l0,0c0.51,1.62,1.16,3.04,2.59,3.8c1.47,0.61,3.12,0.63,4.61,0.07l0,0
		l0.61-0.19l32.93-9.99C50.1,30.17,51.48,27.59,50.74,25.14C50.74,25.14,50.74,25.14,50.74,25.14 M47.03,28.88L12.39,39.33
		c-0.64,0.19-1.32,0.12-1.9-0.2l0,0c-0.58-0.31-1.02-0.84-1.21-1.48L3.76,19.51L37.04,9.48c0.57-0.13,0.93-0.7,0.8-1.27
		c-0.13-0.57-0.7-0.93-1.27-0.8c-0.05,0.01-0.1,0.03-0.15,0.05L3.14,17.48l-0.51-1.71c-0.4-1.33,0.35-2.72,1.68-3.13L38.96,2.23
		c0.64-0.19,1.32-0.12,1.9,0.2c0.6,0.32,1.04,0.87,1.21,1.52l2.42,7.74L11.15,21.69c-0.56,0.16-0.88,0.75-0.71,1.31
		c0,0,0,0.01,0,0.01c0.08,0.28,0.27,0.51,0.52,0.65c0.25,0.13,0.54,0.16,0.81,0.08l33.28-10.03l3.66,12.04
		C49.11,27.08,48.36,28.48,47.03,28.88C47.04,28.88,47.04,28.88,47.03,28.88"/>
	<g>
		<defs>
			<path id="SVGID_1_" d="M50.74,25.14L44.12,3.29c-0.36-1.18-1.17-2.16-2.26-2.74c-1.08-0.58-2.35-0.71-3.52-0.35L3.68,10.65
				c-2.44,0.75-3.82,3.32-3.09,5.77l0.82,2.69l0,0L6.9,37.22l0,0c0.51,1.62,1.16,3.04,2.59,3.8c1.47,0.61,3.12,0.63,4.61,0.07l0,0
				l0.61-0.19l32.93-9.99C50.1,30.17,51.48,27.59,50.74,25.14C50.74,25.14,50.74,25.14,50.74,25.14 M47.03,28.88L12.39,39.33
				c-0.64,0.19-1.32,0.12-1.9-0.2l0,0c-0.58-0.31-1.02-0.84-1.21-1.48L3.76,19.51L37.04,9.48c0.57-0.13,0.93-0.7,0.8-1.27
				c-0.13-0.57-0.7-0.93-1.27-0.8c-0.05,0.01-0.1,0.03-0.15,0.05L3.14,17.48l-0.51-1.71c-0.4-1.33,0.35-2.72,1.68-3.13L38.96,2.23
				c0.64-0.19,1.32-0.12,1.9,0.2c0.6,0.32,1.04,0.87,1.21,1.52l2.42,7.74L11.15,21.69c-0.56,0.16-0.88,0.75-0.71,1.31
				c0,0,0,0.01,0,0.01c0.08,0.28,0.27,0.51,0.52,0.65c0.25,0.13,0.54,0.16,0.81,0.08l33.28-10.03l3.66,12.04
				C49.11,27.08,48.36,28.48,47.03,28.88C47.04,28.88,47.04,28.88,47.03,28.88"/>
		</defs>
		<clipPath id="SVGID_2_">
			<use xlink:href="#SVGID_1_"  style="overflow:visible;"/>
		</clipPath>
		<g class="st1">
			
				<rect x="-1688.42" y="642.88" transform="matrix(0.4721 -0.8816 0.8816 0.4721 -1078.0725 373.5468)" class="st2" width="2922.55" height="888.05"/>
			<g>
				<defs>
					
						<rect id="SVGID_3_" x="-1692.34" y="634.39" transform="matrix(0.4721 -0.8816 0.8816 0.4721 -1072.6606 365.608)" width="2922.55" height="888.05"/>
				</defs>
				<clipPath id="SVGID_4_">
					<use xlink:href="#SVGID_3_"  style="overflow:visible;"/>
				</clipPath>
			</g>
		</g>
	</g>
	<path class="st0" d="M23.78,25.64c-0.18-0.56-0.77-0.88-1.33-0.71l-11.28,3.44c-0.56,0.18-0.88,0.77-0.71,1.33
		c0.18,0.55,0.77,0.87,1.33,0.71l11.32-3.42c0.55-0.18,0.86-0.77,0.68-1.33C23.79,25.65,23.79,25.64,23.78,25.64"/>
	<g>
		<defs>
			<path id="SVGID_5_" d="M23.78,25.64c-0.18-0.56-0.77-0.88-1.33-0.71l-11.28,3.44c-0.56,0.18-0.88,0.77-0.71,1.33
				c0.18,0.55,0.77,0.87,1.33,0.71l11.32-3.42c0.55-0.18,0.86-0.77,0.68-1.33C23.79,25.65,23.79,25.64,23.78,25.64"/>
		</defs>
		<clipPath id="SVGID_6_">
			<use xlink:href="#SVGID_5_"  style="overflow:visible;"/>
		</clipPath>
		<g class="st3">
			
				<rect x="-1692.34" y="634.39" transform="matrix(0.4721 -0.8816 0.8816 0.4721 -1072.6606 365.608)" class="st2" width="2922.55" height="888.05"/>
			<g>
				<defs>
					
						<rect id="SVGID_7_" x="-1692.34" y="634.39" transform="matrix(0.4721 -0.8816 0.8816 0.4721 -1072.6606 365.608)" width="2922.55" height="888.05"/>
				</defs>
				<clipPath id="SVGID_8_">
					<use xlink:href="#SVGID_7_"  style="overflow:visible;"/>
				</clipPath>
			</g>
		</g>
	</g>
	<path class="st0" d="M17.05,31.04l-4.64,1.4c-0.56,0.16-0.89,0.75-0.73,1.32c0.08,0.28,0.28,0.52,0.54,0.65
		c0.25,0.13,0.54,0.16,0.81,0.08l4.64-1.4c0.56-0.16,0.88-0.75,0.71-1.31c0,0,0-0.01,0-0.01c-0.18-0.56-0.77-0.88-1.33-0.71"/>
	<g>
		<defs>
			<path id="SVGID_9_" d="M17.05,31.04l-4.64,1.4c-0.56,0.16-0.89,0.75-0.73,1.32c0.08,0.28,0.28,0.52,0.54,0.65
				c0.25,0.13,0.54,0.16,0.81,0.08l4.64-1.4c0.56-0.16,0.88-0.75,0.71-1.31c0,0,0-0.01,0-0.01c-0.18-0.56-0.77-0.88-1.33-0.71"/>
		</defs>
		<clipPath id="SVGID_10_">
			<use xlink:href="#SVGID_9_"  style="overflow:visible;"/>
		</clipPath>
		<g class="st4">
			
				<rect x="-1692.34" y="634.39" transform="matrix(0.4721 -0.8816 0.8816 0.4721 -1072.6606 365.608)" class="st2" width="2922.55" height="888.05"/>
			<g>
				<defs>
					
						<rect id="SVGID_11_" x="-1692.34" y="634.39" transform="matrix(0.4721 -0.8816 0.8816 0.4721 -1072.6606 365.608)" width="2922.55" height="888.05"/>
				</defs>
				<clipPath id="SVGID_12_">
					<use xlink:href="#SVGID_11_"  style="overflow:visible;"/>
				</clipPath>
			</g>
		</g>
	</g>
	<path class="st0" d="M21.33,29.75l-0.61,0.19c-0.57,0.16-0.9,0.75-0.74,1.31c0.08,0.28,0.28,0.52,0.54,0.66
		c0.25,0.13,0.54,0.16,0.81,0.08l0.61-0.19c0.58-0.12,0.95-0.68,0.83-1.26c-0.12-0.58-0.68-0.95-1.26-0.83
		c-0.06,0.01-0.12,0.03-0.18,0.06"/>
	<g>
		<defs>
			<path id="SVGID_13_" d="M21.33,29.75l-0.61,0.19c-0.57,0.16-0.9,0.75-0.74,1.31c0.08,0.28,0.28,0.52,0.54,0.66
				c0.25,0.13,0.54,0.16,0.81,0.08l0.61-0.19c0.58-0.12,0.95-0.68,0.83-1.26c-0.12-0.58-0.68-0.95-1.26-0.83
				c-0.06,0.01-0.12,0.03-0.18,0.06"/>
		</defs>
		<clipPath id="SVGID_14_">
			<use xlink:href="#SVGID_13_"  style="overflow:visible;"/>
		</clipPath>
		<g class="st5">
			
				<rect x="-1692.34" y="634.39" transform="matrix(0.4721 -0.8816 0.8816 0.4721 -1072.6606 365.608)" class="st2" width="2922.55" height="888.05"/>
			<g>
				<defs>
					
						<rect id="SVGID_15_" x="-1692.34" y="634.39" transform="matrix(0.4721 -0.8816 0.8816 0.4721 -1072.6606 365.608)" width="2922.55" height="888.05"/>
				</defs>
				<clipPath id="SVGID_16_">
					<use xlink:href="#SVGID_15_"  style="overflow:visible;"/>
				</clipPath>
			</g>
		</g>
	</g>
	<path class="st0" d="M43.28,19.8c-0.08-0.27-0.27-0.5-0.51-0.63c-0.25-0.13-0.54-0.16-0.81-0.08l-6.1,1.84
		c-0.27,0.07-0.5,0.26-0.63,0.51c-0.14,0.25-0.17,0.54-0.08,0.81l1.23,4.06c0.07,0.27,0.26,0.5,0.51,0.63
		c0.25,0.13,0.54,0.16,0.81,0.08l6.1-1.83c0.55-0.18,0.86-0.77,0.69-1.32L43.28,19.8z M38.1,24.73l-0.62-2.05l4.05-1.25l0.62,2.04
		L38.1,24.73z"/>
	<g>
		<defs>
			<path id="SVGID_17_" d="M43.28,19.8c-0.08-0.27-0.27-0.5-0.51-0.63c-0.25-0.13-0.54-0.16-0.81-0.08l-6.1,1.84
				c-0.27,0.07-0.5,0.26-0.63,0.51c-0.14,0.25-0.17,0.54-0.08,0.81l1.23,4.06c0.07,0.27,0.26,0.5,0.51,0.63
				c0.25,0.13,0.54,0.16,0.81,0.08l6.1-1.83c0.55-0.18,0.86-0.77,0.69-1.32L43.28,19.8z M38.1,24.73l-0.62-2.05l4.05-1.25l0.62,2.04
				L38.1,24.73z"/>
		</defs>
		<clipPath id="SVGID_18_">
			<use xlink:href="#SVGID_17_"  style="overflow:visible;"/>
		</clipPath>
		<g class="st6">
			
				<rect x="-1692.34" y="634.39" transform="matrix(0.4721 -0.8816 0.8816 0.4721 -1072.6606 365.608)" class="st2" width="2922.55" height="888.05"/>
			<g>
				<defs>
					
						<rect id="SVGID_19_" x="-1692.34" y="634.39" transform="matrix(0.4721 -0.8816 0.8816 0.4721 -1072.6606 365.608)" width="2922.55" height="888.05"/>
				</defs>
				<clipPath id="SVGID_20_">
					<use xlink:href="#SVGID_19_"  style="overflow:visible;"/>
				</clipPath>
			</g>
		</g>
	</g>
	<path class="st0" d="M39.56,8.38c0.25,0.13,0.54,0.16,0.81,0.08l0.61-0.18c0.58-0.12,0.95-0.68,0.83-1.26
		c-0.12-0.58-0.68-0.95-1.26-0.83c-0.06,0.01-0.12,0.03-0.18,0.06l-0.61,0.18c-0.57,0.16-0.9,0.75-0.74,1.31
		c0.08,0.28,0.28,0.52,0.54,0.66"/>
	<g>
		<defs>
			<path id="SVGID_21_" d="M39.56,8.38c0.25,0.13,0.54,0.16,0.81,0.08l0.61-0.18c0.58-0.12,0.95-0.68,0.83-1.26
				c-0.12-0.58-0.68-0.95-1.26-0.83c-0.06,0.01-0.12,0.03-0.18,0.06l-0.61,0.18c-0.57,0.16-0.9,0.75-0.74,1.31
				c0.08,0.28,0.28,0.52,0.54,0.66"/>
		</defs>
		<clipPath id="SVGID_22_">
			<use xlink:href="#SVGID_21_"  style="overflow:visible;"/>
		</clipPath>
		<g class="st7">
			
				<rect x="-1692.34" y="634.39" transform="matrix(0.4721 -0.8816 0.8816 0.4721 -1072.6606 365.608)" class="st2" width="2922.55" height="888.05"/>
			<g>
				<defs>
					
						<rect id="SVGID_23_" x="-1692.34" y="634.39" transform="matrix(0.4721 -0.8816 0.8816 0.4721 -1072.6606 365.608)" width="2922.55" height="888.05"/>
				</defs>
				<clipPath id="SVGID_24_">
					<use xlink:href="#SVGID_23_"  style="overflow:visible;"/>
				</clipPath>
			</g>
		</g>
	</g>
	<path class="st0" d="M7.8,22.73l-0.61,0.19c-0.57,0.13-0.93,0.7-0.8,1.27c0.13,0.57,0.7,0.93,1.27,0.8
		c0.05-0.01,0.1-0.03,0.15-0.05l0.6-0.18c0.56-0.17,0.88-0.76,0.71-1.33C8.96,22.88,8.37,22.56,7.8,22.73"/>
	<g>
		<defs>
			<path id="SVGID_25_" d="M7.8,22.73l-0.61,0.19c-0.57,0.13-0.93,0.7-0.8,1.27c0.13,0.57,0.7,0.93,1.27,0.8
				c0.05-0.01,0.1-0.03,0.15-0.05l0.6-0.18c0.56-0.17,0.88-0.76,0.71-1.33C8.96,22.88,8.37,22.56,7.8,22.73"/>
		</defs>
		<clipPath id="SVGID_26_">
			<use xlink:href="#SVGID_25_"  style="overflow:visible;"/>
		</clipPath>
		<g class="st8">
			
				<rect x="-1742.05" y="604.81" transform="matrix(0.4721 -0.8816 0.8816 0.4721 -1072.8253 306.174)" class="st2" width="2922.55" height="888.05"/>
			<g>
				<defs>
					
						<rect id="SVGID_27_" x="-1692.34" y="634.39" transform="matrix(0.4721 -0.8816 0.8816 0.4721 -1072.6606 365.608)" width="2922.55" height="888.05"/>
				</defs>
				<clipPath id="SVGID_28_">
					<use xlink:href="#SVGID_27_"  style="overflow:visible;"/>
				</clipPath>
			</g>
		</g>
	</g>
</g>
</svg>
